999
dxflib 2.2.0.0
  0
SECTION
  2
HEADER
  9
$ACADVER
  1
AC1015
  9
$HANDSEED
  5
FFFF
  9
$VIEWSIZE
 40
8.5
  9
$DIMLFAC
 40
1.0
  9
$DIMEXE
 40
0.198
  9
$VIEWCTR
 10
5.5
 20
4.25
  9
$LIMMAX
 10
11.0
 20
8.5
  9
$DIMSCALE
 40
1.0
  9
$INSUNITS
 70
4
  9
$CELTYPE
  6
BYLAYER
  9
$DIMASZ
 40
0.1875
  9
$DIMGAP
 40
0.625
  9
$DIMTXT
 40
0.15625
  9
$LIMMIN
 10
0.0
 20
0.0
  9
$PDSIZE
 40
0.3125
  9
$DIMEXO
 40
0.06875
  9
$EXTMAX
 10
11.0
 20
8.5
 30
0.0
  9
$CLAYER
  8
0
  9
$DIMDLI
 40
0.418
  9
$PDMODE
 70
3
  9
$LTSCALE
 40
0.605
  9
$PLIMMIN
 10
0.0
 20
0.0
  9
$TILEMODE
 70
1
  9
$EXTMIN
 10
0.0
 20
0.0
 30
0.0
  9
$PLIMMAX
 10
210.0
 20
297.0
  9
$DIMCEN
 40
0.099
  9
$DIMBLK
  1
_FILLED
  9
$DIMSTYLE
  2
Standard
  0
ENDSEC
  0
SECTION
  2
TABLES
  0
TABLE
  2
VPORT
  5
8
100
AcDbSymbolTable
 70
1
  0
VPORT
  5
30
100
AcDbSymbolTableRecord
100
AcDbViewportTableRecord
  2
*Active
 70
0
 10
0.0
 20
0.0
 11
1.0
 21
1.0
 12
286.3055555555554861
 22
148.5
 13
0.0
 23
0.0
 14
10.0
 24
10.0
 15
10.0
 25
10.0
 16
0.0
 26
0.0
 36
1.0
 17
0.0
 27
0.0
 37
0.0
 40
297.0
 41
1.92798353909465
 42
50.0
 43
0.0
 44
0.0
 50
0.0
 51
0.0
 71
0
 72
100
 73
1
 74
3
 75
1
 76
1
 77
0
 78
0
281
0
 65
1
110
0.0
120
0.0
130
0.0
111
1.0
121
0.0
131
0.0
112
0.0
122
1.0
132
0.0
 79
0
146
0.0
  0
ENDTAB
  0
TABLE
  2
LTYPE
  5
5
100
AcDbSymbolTable
 70
21
  0
LTYPE
  5
14
100
AcDbSymbolTableRecord
100
AcDbLinetypeTableRecord
  2
ByBlock
 70
0
  3

 72
65
 73
0
 40
0.0
  0
LTYPE
  5
15
100
AcDbSymbolTableRecord
100
AcDbLinetypeTableRecord
  2
ByLayer
 70
0
  3

 72
65
 73
0
 40
0.0
  0
LTYPE
  5
16
100
AcDbSymbolTableRecord
100
AcDbLinetypeTableRecord
  2
CONTINUOUS
 70
0
  3
Solid line
 72
65
 73
0
 40
0.0
  0
LTYPE
  5
31
100
AcDbSymbolTableRecord
100
AcDbLinetypeTableRecord
  2
DOT
 70
0
  3
Dot . . . . . . . . . . . . . . . . . . . . . .
 72
65
 73
2
 40
6.3499999999999996
 49
0.0
 74
0
 49
-6.3499999999999996
 74
0
  0
LTYPE
  5
32
100
AcDbSymbolTableRecord
100
AcDbLinetypeTableRecord
  2
DOT2
 70
0
  3
Dot (.5x) .....................................
 72
65
 73
2
 40
3.1749999999999998
 49
0.0
 74
0
 49
-3.1749999999999998
 74
0
  0
LTYPE
  5
33
100
AcDbSymbolTableRecord
100
AcDbLinetypeTableRecord
  2
DOTX2
 70
0
  3
Dot (2x) .  .  .  .  .  .  .  .  .  .  .  .  .
 72
65
 73
2
 40
12.6999999999999993
 49
0.0
 74
0
 49
-12.6999999999999993
 74
0
  0
LTYPE
  5
34
100
AcDbSymbolTableRecord
100
AcDbLinetypeTableRecord
  2
DASHED
 70
0
  3
Dashed __ __ __ __ __ __ __ __ __ __ __ __ __ _
 72
65
 73
2
 40
19.0500000000000007
 49
12.6999999999999993
 74
0
 49
-6.3499999999999996
 74
0
  0
LTYPE
  5
35
100
AcDbSymbolTableRecord
100
AcDbLinetypeTableRecord
  2
DASHED2
 70
0
  3
Dashed (.5x) _ _ _ _ _ _ _ _ _ _ _ _ _ _ _ _ _
 72
65
 73
2
 40
9.5250000000000004
 49
6.3499999999999996
 74
0
 49
-3.1749999999999998
 74
0
  0
LTYPE
  5
36
100
AcDbSymbolTableRecord
100
AcDbLinetypeTableRecord
  2
DASHEDX2
 70
0
  3
Dashed (2x) ____  ____  ____  ____  ____  ___
 72
65
 73
2
 40
38.1000000000000014
 49
25.3999999999999986
 74
0
 49
-12.6999999999999993
 74
0
  0
LTYPE
  5
37
100
AcDbSymbolTableRecord
100
AcDbLinetypeTableRecord
  2
DASHDOT
 70
0
  3
Dash dot __ . __ . __ . __ . __ . __ . __ . __
 72
65
 73
4
 40
25.3999999999999986
 49
12.6999999999999993
 74
0
 49
-6.3499999999999996
 74
0
 49
0.0
 74
0
 49
-6.3499999999999996
 74
0
  0
LTYPE
  5
38
100
AcDbSymbolTableRecord
100
AcDbLinetypeTableRecord
  2
DASHDOT2
 70
0
  3
Dash dot (.5x) _._._._._._._._._._._._._._._.
 72
65
 73
4
 40
12.6999999999999993
 49
6.3499999999999996
 74
0
 49
-3.1749999999999998
 74
0
 49
0.0
 74
0
 49
-3.1749999999999998
 74
0
  0
LTYPE
  5
39
100
AcDbSymbolTableRecord
100
AcDbLinetypeTableRecord
  2
DASHDOTX2
 70
0
  3
Dash dot (2x) ____  .  ____  .  ____  .  ___
 72
65
 73
4
 40
50.7999999999999972
 49
25.3999999999999986
 74
0
 49
-12.6999999999999993
 74
0
 49
0.0
 74
0
 49
-12.6999999999999993
 74
0
  0
LTYPE
  5
3A
100
AcDbSymbolTableRecord
100
AcDbLinetypeTableRecord
  2
DIVIDE
 70
0
  3
Divide ____ . . ____ . . ____ . . ____ . . ____
 72
65
 73
6
 40
31.75
 49
12.6999999999999993
 74
0
 49
-6.3499999999999996
 74
0
 49
0.0
 74
0
 49
-6.3499999999999996
 74
0
 49
0.0
 74
0
 49
-6.3499999999999996
 74
0
  0
LTYPE
  5
3B
100
AcDbSymbolTableRecord
100
AcDbLinetypeTableRecord
  2
DIVIDE2
 70
0
  3
Divide (.5x) __..__..__..__..__..__..__..__.._
 72
65
 73
6
 40
15.875
 49
6.3499999999999996
 74
0
 49
-3.1749999999999998
 74
0
 49
0.0
 74
0
 49
-3.1749999999999998
 74
0
 49
0.0
 74
0
 49
-3.1749999999999998
 74
0
  0
LTYPE
  5
3C
100
AcDbSymbolTableRecord
100
AcDbLinetypeTableRecord
  2
DIVIDEX2
 70
0
  3
Divide (2x) ________  .  .  ________  .  .  _
 72
65
 73
6
 40
63.5
 49
25.3999999999999986
 74
0
 49
-12.6999999999999993
 74
0
 49
0.0
 74
0
 49
-12.6999999999999993
 74
0
 49
0.0
 74
0
 49
-12.6999999999999993
 74
0
  0
LTYPE
  5
3D
100
AcDbSymbolTableRecord
100
AcDbLinetypeTableRecord
  2
CENTER
 70
0
  3
Center ____ _ ____ _ ____ _ ____ _ ____ _ ____
 72
65
 73
4
 40
50.7999999999999972
 49
31.75
 74
0
 49
-6.3499999999999996
 74
0
 49
6.3499999999999996
 74
0
 49
-6.3499999999999996
 74
0
  0
LTYPE
  5
3E
100
AcDbSymbolTableRecord
100
AcDbLinetypeTableRecord
  2
CENTER2
 70
0
  3
Center (.5x) ___ _ ___ _ ___ _ ___ _ ___ _ ___
 72
65
 73
4
 40
28.5749999999999993
 49
19.0500000000000007
 74
0
 49
-3.1749999999999998
 74
0
 49
3.1749999999999998
 74
0
 49
-3.1749999999999998
 74
0
  0
LTYPE
  5
3F
100
AcDbSymbolTableRecord
100
AcDbLinetypeTableRecord
  2
CENTERX2
 70
0
  3
Center (2x) ________  __  ________  __  _____
 72
65
 73
4
 40
101.5999999999999943
 49
63.5
 74
0
 49
-12.6999999999999993
 74
0
 49
12.6999999999999993
 74
0
 49
-12.6999999999999993
 74
0
  0
LTYPE
  5
40
100
AcDbSymbolTableRecord
100
AcDbLinetypeTableRecord
  2
BORDER
 70
0
  3
Border __ __ . __ __ . __ __ . __ __ . __ __ .
 72
65
 73
6
 40
44.4500000000000028
 49
12.6999999999999993
 74
0
 49
-6.3499999999999996
 74
0
 49
12.6999999999999993
 74
0
 49
-6.3499999999999996
 74
0
 49
0.0
 74
0
 49
-6.3499999999999996
 74
0
  0
LTYPE
  5
41
100
AcDbSymbolTableRecord
100
AcDbLinetypeTableRecord
  2
BORDER2
 70
0
  3
Border (.5x) __.__.__.__.__.__.__.__.__.__.__.
 72
65
 73
6
 40
22.2250000000000014
 49
6.3499999999999996
 74
0
 49
-3.1749999999999998
 74
0
 49
6.3499999999999996
 74
0
 49
-3.1749999999999998
 74
0
 49
0.0
 74
0
 49
-3.1749999999999998
 74
0
  0
LTYPE
  5
42
100
AcDbSymbolTableRecord
100
AcDbLinetypeTableRecord
  2
BORDERX2
 70
0
  3
Border (2x) ____  ____  .  ____  ____  .  ___
 72
65
 73
6
 40
88.9000000000000057
 49
25.3999999999999986
 74
0
 49
-12.6999999999999993
 74
0
 49
25.3999999999999986
 74
0
 49
-12.6999999999999993
 74
0
 49
0.0
 74
0
 49
-12.6999999999999993
 74
0
  0
ENDTAB
  0
TABLE
  2
LAYER
  5
2
100
AcDbSymbolTable
 70
2
  0
LAYER
  5
10
100
AcDbSymbolTableRecord
100
AcDbLayerTableRecord
  2
0
 70
0
 62
7
  6
CONTINUOUS
290
1
390
F
  0
LAYER
  5
43
100
AcDbSymbolTableRecord
100
AcDbLayerTableRecord
  2
makerslide
 70
0
 62
7
  6
CONTINUOUS
290
1
370
0
390
F
  0
ENDTAB
  0
TABLE
  2
STYLE
  5
3
100
AcDbSymbolTable
 70
1
  0
STYLE
  5
11
100
AcDbSymbolTableRecord
100
AcDbTextStyleTableRecord
  2
Standard
 70
0
 40
0.0
 41
0.75
 50
0.0
 71
0
 42
2.5
  3
txt
  4

  0
ENDTAB
  0
TABLE
  2
VIEW
  5
6
100
AcDbSymbolTable
 70
0
  0
ENDTAB
  0
TABLE
  2
UCS
  5
7
100
AcDbSymbolTable
 70
0
  0
ENDTAB
  0
TABLE
  2
APPID
  5
9
100
AcDbSymbolTable
 70
1
  0
APPID
  5
12
100
AcDbSymbolTableRecord
100
AcDbRegAppTableRecord
  2
ACAD
 70
0
  0
ENDTAB
  0
TABLE
  2
DIMSTYLE
  5
A
100
AcDbSymbolTable
 70
1
100
AcDbDimStyleTable
 71
0
  0
DIMSTYLE
105
27
100
AcDbSymbolTableRecord
100
AcDbDimStyleTableRecord
  2
Standard
 41
0.1875
 42
0.06875
 43
3.75
 44
0.198
 70
0
 73
0
 74
0
 77
1
 78
8
140
0.15625
141
2.5
143
0.03937007874016
147
0.625
171
3
172
1
271
2
272
2
274
3
278
44
283
0
284
8
340
11
  0
ENDTAB
  0
TABLE
  2
BLOCK_RECORD
  5
1
100
AcDbSymbolTable
 70
1
  0
BLOCK_RECORD
  5
1F
100
AcDbSymbolTableRecord
100
AcDbBlockTableRecord
  2
*Model_Space
340
22
  0
BLOCK_RECORD
  5
1B
100
AcDbSymbolTableRecord
100
AcDbBlockTableRecord
  2
*Paper_Space
340
1E
  0
BLOCK_RECORD
  5
23
100
AcDbSymbolTableRecord
100
AcDbBlockTableRecord
  2
*Paper_Space0
340
26
  0
ENDTAB
  0
ENDSEC
  0
SECTION
  2
BLOCKS
  0
BLOCK
  5
20
100
AcDbEntity
  8
0
100
AcDbBlockBegin
  2
*Model_Space
 70
0
 10
0.0
 20
0.0
 30
0.0
  3
*Model_Space
  1

  0
ENDBLK
  5
21
100
AcDbEntity
  8
0
100
AcDbBlockEnd
  0
BLOCK
  5
1C
100
AcDbEntity
 67
1
  8
0
100
AcDbBlockBegin
  2
*Paper_Space
 70
0
 10
0.0
 20
0.0
 30
0.0
  3
*Paper_Space
  1

  0
ENDBLK
  5
1D
100
AcDbEntity
 67
1
  8
0
100
AcDbBlockEnd
  0
BLOCK
  5
24
100
AcDbEntity
  8
0
100
AcDbBlockBegin
  2
*Paper_Space0
 70
0
 10
0.0
 20
0.0
 30
0.0
  3
*Paper_Space0
  1

  0
ENDBLK
  5
25
100
AcDbEntity
  8
0
100
AcDbBlockEnd
  0
ENDSEC
  0
SECTION
  2
ENTITIES
  0
LINE
  5
44
100
AcDbEntity
100
AcDbLine
  8
makerslide
 62
7
370
-1
  6
CONTINUOUS
 10
-22.8214466100000024
 20
20.3535533923800145
 30
0.0
 11
-20.9464466084200041
 21
22.2285533914200073
 31
0.0
  0
LINE
  5
45
100
AcDbEntity
100
AcDbLine
  8
makerslide
 62
7
370
-1
  6
CONTINUOUS
 10
-19.9999999999200035
 20
22.3749999997199964
 30
0.0
 11
-19.9999999999200035
 21
19.9999999999200107
 31
0.0
  0
LINE
  5
46
100
AcDbEntity
100
AcDbLine
  8
makerslide
 62
7
370
-1
  6
CONTINUOUS
 10
-19.9999999999200035
 20
17.125000001900009
 30
0.0
 11
-19.9999999999200035
 21
13.3000000014200008
 31
0.0
  0
LINE
  5
47
100
AcDbEntity
100
AcDbLine
  8
makerslide
 62
7
370
-1
  6
CONTINUOUS
 10
-19.9999999999200035
 20
6.7000000010400145
 30
0.0
 11
-19.9999999999200035
 21
1.0000000015200046
 31
0.0
  0
LINE
  5
48
100
AcDbEntity
100
AcDbLine
  8
makerslide
 62
7
370
-1
  6
CONTINUOUS
 10
-17.9999999994200159
 20
4.0000000009999974
 30
0.0
 11
-17.9999999994200159
 21
7.0000000004800134
 31
0.0
  0
LINE
  5
49
100
AcDbEntity
100
AcDbLine
  8
makerslide
 62
7
370
-1
  6
CONTINUOUS
 10
-17.9999999994200159
 20
13.0000000019800002
 30
0.0
 11
-17.9999999994200159
 21
16.0000000014600126
 31
0.0
  0
LINE
  5
4A
100
AcDbEntity
100
AcDbLine
  8
makerslide
 62
7
370
-1
  6
CONTINUOUS
 10
-15.9999999989200052
 20
2.0000000005000098
 30
0.0
 11
-15.9999999989200052
 21
2.9393398287000139
 31
0.0
  0
LINE
  5
4B
100
AcDbEntity
100
AcDbLine
  8
makerslide
 62
7
370
-1
  6
CONTINUOUS
 10
-15.9999999989200052
 20
17.0606601737599952
 30
0.0
 11
-15.9999999989200052
 21
18.0000000019600002
 31
0.0
  0
LINE
  5
4C
100
AcDbEntity
100
AcDbLine
  8
makerslide
 62
7
370
-1
  6
CONTINUOUS
 10
-14.0000000009599948
 20
12.9393398286599979
 30
0.0
 11
-14.0000000009599948
 21
10.3000000019400062
 31
0.0
  0
LINE
  5
4D
100
AcDbEntity
100
AcDbLine
  8
makerslide
 62
7
370
-1
  6
CONTINUOUS
 10
-14.0000000009599948
 20
9.7000000005200064
 30
0.0
 11
-14.0000000009599948
 21
7.0606601738000139
 31
0.0
  0
LINE
  5
4E
100
AcDbEntity
100
AcDbLine
  8
makerslide
 62
7
370
-1
  6
CONTINUOUS
 10
-12.9999999994400124
 20
0.3000000019799991
 30
0.0
 11
-12.9999999994400124
 21
2.0000000005000098
 31
0.0
  0
LINE
  5
4F
100
AcDbEntity
100
AcDbLine
  8
makerslide
 62
7
370
-1
  6
CONTINUOUS
 10
-12.9999999994400124
 20
18.0000000019600002
 30
0.0
 11
-12.9999999994400124
 21
19.70000000048001
 31
0.0
  0
LINE
  5
50
100
AcDbEntity
100
AcDbLine
  8
makerslide
 62
7
370
-1
  6
CONTINUOUS
 10
-19.0000000009399983
 20
0.0
 30
0.0
 11
-13.2999999988800113
 21
0.0
 31
0.0
  0
LINE
  5
51
100
AcDbEntity
100
AcDbLine
  8
makerslide
 62
7
370
-1
  6
CONTINUOUS
 10
-6.7000000010400047
 20
0.0
 30
0.0
 11
6.7000000010400029
 21
0.0
 31
0.0
  0
LINE
  5
52
100
AcDbEntity
100
AcDbLine
  8
makerslide
 62
7
370
-1
  6
CONTINUOUS
 10
13.2999999988799864
 20
0.0
 30
0.0
 11
19.0000000009399947
 21
0.0
 31
0.0
  0
LINE
  5
53
100
AcDbEntity
100
AcDbLine
  8
makerslide
 62
7
370
-1
  6
CONTINUOUS
 10
-14.0000000009599948
 20
10.3000000019400062
 30
0.0
 11
-13.6999999989799957
 21
9.9999999999600071
 31
0.0
  0
LINE
  5
54
100
AcDbEntity
100
AcDbLine
  8
makerslide
 62
7
370
-1
  6
CONTINUOUS
 10
-9.9999999999599964
 20
6.300000000940007
 30
0.0
 11
-9.7000000005199976
 21
6.0000000015000081
 31
0.0
  0
LINE
  5
55
100
AcDbEntity
100
AcDbLine
  8
makerslide
 62
7
370
-1
  6
CONTINUOUS
 10
-20.9464466084200041
 20
17.7714466109600124
 30
0.0
 11
-22.8214466100000024
 21
19.6464466100000088
 31
0.0
  0
LINE
  5
56
100
AcDbEntity
100
AcDbLine
  8
makerslide
 62
7
370
-1
  6
CONTINUOUS
 10
-9.7000000005199976
 20
14.0000000009600054
 30
0.0
 11
-9.9999999999599964
 21
13.7000000015200047
 31
0.0
  0
LINE
  5
57
100
AcDbEntity
100
AcDbLine
  8
makerslide
 62
7
370
-1
  6
CONTINUOUS
 10
-13.6999999989799957
 20
9.9999999999600071
 30
0.0
 11
-14.0000000009599948
 21
9.7000000005200064
 31
0.0
  0
LINE
  5
58
100
AcDbEntity
100
AcDbLine
  8
makerslide
 62
7
370
-1
  6
CONTINUOUS
 10
15.9999999989199999
 20
2.0000000005000098
 30
0.0
 11
12.9999999994399822
 21
2.0000000005000098
 31
0.0
  0
LINE
  5
59
100
AcDbEntity
100
AcDbLine
  8
makerslide
 62
7
370
-1
  6
CONTINUOUS
 10
7.00000000048
 20
2.0000000005000098
 30
0.0
 11
4.0000000009999823
 21
2.0000000005000098
 31
0.0
  0
LINE
  5
5A
100
AcDbEntity
100
AcDbLine
  8
makerslide
 62
7
370
-1
  6
CONTINUOUS
 10
2.5000000012599877
 20
2.0000000005000098
 30
0.0
 11
-2.4999999987200141
 21
2.0000000005000098
 31
0.0
  0
LINE
  5
5B
100
AcDbEntity
100
AcDbLine
  8
makerslide
 62
7
370
-1
  6
CONTINUOUS
 10
-4.0000000010000107
 20
2.0000000005000098
 30
0.0
 11
-7.0000000004800036
 21
2.0000000005000098
 31
0.0
  0
LINE
  5
5C
100
AcDbEntity
100
AcDbLine
  8
makerslide
 62
7
370
-1
  6
CONTINUOUS
 10
-12.9999999994400124
 20
2.0000000005000098
 30
0.0
 11
-15.9999999989200052
 21
2.0000000005000098
 31
0.0
  0
LINE
  5
5D
100
AcDbEntity
100
AcDbLine
  8
makerslide
 62
7
370
-1
  6
CONTINUOUS
 10
-17.060660171220011
 20
16.0000000014600126
 30
0.0
 11
-14.0000000009599948
 21
12.9393398286599979
 31
0.0
  0
LINE
  5
5E
100
AcDbEntity
100
AcDbLine
  8
makerslide
 62
7
370
-1
  6
CONTINUOUS
 10
-7.0606601712600057
 20
6.0000000015000081
 30
0.0
 11
-4.0000000010000107
 21
2.9393398287000139
 31
0.0
  0
LINE
  5
5F
100
AcDbEntity
100
AcDbLine
  8
makerslide
 62
7
370
-1
  6
CONTINUOUS
 10
-7.0000000004800036
 20
19.70000000048001
 30
0.0
 11
-7.0000000004800036
 21
18.0000000019600002
 31
0.0
  0
LINE
  5
60
100
AcDbEntity
100
AcDbLine
  8
makerslide
 62
7
370
-1
  6
CONTINUOUS
 10
-7.0000000004800036
 20
2.0000000005000098
 30
0.0
 11
-7.0000000004800036
 21
0.3000000019799991
 31
0.0
  0
LINE
  5
61
100
AcDbEntity
100
AcDbLine
  8
makerslide
 62
7
370
-1
  6
CONTINUOUS
 10
-4.0000000010000107
 20
17.0606601737599952
 30
0.0
 11
-7.0606601712600057
 21
14.0000000009600054
 31
0.0
  0
LINE
  5
62
100
AcDbEntity
100
AcDbLine
  8
makerslide
 62
7
370
-1
  6
CONTINUOUS
 10
-14.0000000009599948
 20
7.0606601738000139
 30
0.0
 11
-17.060660171220011
 21
4.0000000009999974
 31
0.0
  0
LINE
  5
63
100
AcDbEntity
100
AcDbLine
  8
makerslide
 62
7
370
-1
  6
CONTINUOUS
 10
17.9999999994199875
 20
4.0000000009999974
 30
0.0
 11
17.0606601712199826
 21
4.0000000009999974
 31
0.0
  0
LINE
  5
64
100
AcDbEntity
100
AcDbLine
  8
makerslide
 62
7
370
-1
  6
CONTINUOUS
 10
-17.060660171220011
 20
4.0000000009999974
 30
0.0
 11
-17.9999999994200159
 21
4.0000000009999974
 31
0.0
  0
LINE
  5
65
100
AcDbEntity
100
AcDbLine
  8
makerslide
 62
7
370
-1
  6
CONTINUOUS
 10
-2.4999999987200141
 20
3.5606601735600067
 30
0.0
 11
-5.9999999989599999
 21
7.0606601738000139
 31
0.0
  0
LINE
  5
66
100
AcDbEntity
100
AcDbLine
  8
makerslide
 62
7
370
-1
  6
CONTINUOUS
 10
-12.9393398286600103
 20
14.0000000009600054
 30
0.0
 11
-15.9999999989200052
 21
17.0606601737599952
 31
0.0
  0
LINE
  5
67
100
AcDbEntity
100
AcDbLine
  8
makerslide
 62
7
370
-1
  6
CONTINUOUS
 10
-5.9999999989599999
 20
7.0606601738000139
 30
0.0
 11
-5.9999999989599999
 21
12.9393398286599979
 31
0.0
  0
LINE
  5
68
100
AcDbEntity
100
AcDbLine
  8
makerslide
 62
7
370
-1
  6
CONTINUOUS
 10
-15.9999999989200052
 20
2.9393398287000139
 30
0.0
 11
-12.9393398286600103
 21
6.0000000015000081
 31
0.0
  0
LINE
  5
69
100
AcDbEntity
100
AcDbLine
  8
makerslide
 62
7
370
-1
  6
CONTINUOUS
 10
-5.9999999989599999
 20
12.9393398286599979
 30
0.0
 11
-2.4999999987200141
 21
16.4393398289000032
 31
0.0
  0
LINE
  5
6A
100
AcDbEntity
100
AcDbLine
  8
makerslide
 62
7
370
-1
  6
CONTINUOUS
 10
-12.9393398286600103
 20
6.0000000015000081
 30
0.0
 11
-10.2999999993999971
 21
6.0000000015000081
 31
0.0
  0
LINE
  5
6B
100
AcDbEntity
100
AcDbLine
  8
makerslide
 62
7
370
-1
  6
CONTINUOUS
 10
-9.7000000005199976
 20
6.0000000015000081
 30
0.0
 11
-7.0606601712600057
 21
6.0000000015000081
 31
0.0
  0
LINE
  5
6C
100
AcDbEntity
100
AcDbLine
  8
makerslide
 62
7
370
-1
  6
CONTINUOUS
 10
7.0606601712600003
 20
6.0000000015000081
 30
0.0
 11
9.7000000005199922
 21
6.0000000015000081
 31
0.0
  0
LINE
  5
6D
100
AcDbEntity
100
AcDbLine
  8
makerslide
 62
7
370
-1
  6
CONTINUOUS
 10
10.29999999939999
 20
6.0000000015000081
 30
0.0
 11
12.9393398286599854
 21
6.0000000015000081
 31
0.0
  0
LINE
  5
6E
100
AcDbEntity
100
AcDbLine
  8
makerslide
 62
7
370
-1
  6
CONTINUOUS
 10
-9.9999999999599964
 20
13.7000000015200047
 30
0.0
 11
-10.2999999993999971
 21
14.0000000009600054
 31
0.0
  0
LINE
  5
6F
100
AcDbEntity
100
AcDbLine
  8
makerslide
 62
7
370
-1
  6
CONTINUOUS
 10
-4.0000000010000107
 20
18.0000000019600002
 30
0.0
 11
-4.0000000010000107
 21
17.0606601737599952
 31
0.0
  0
LINE
  5
70
100
AcDbEntity
100
AcDbLine
  8
makerslide
 62
7
370
-1
  6
CONTINUOUS
 10
-4.0000000010000107
 20
2.9393398287000139
 30
0.0
 11
-4.0000000010000107
 21
2.0000000005000098
 31
0.0
  0
LINE
  5
71
100
AcDbEntity
100
AcDbLine
  8
makerslide
 62
7
370
-1
  6
CONTINUOUS
 10
-10.2999999993999971
 20
6.0000000015000081
 30
0.0
 11
-9.9999999999599964
 21
6.300000000940007
 31
0.0
  0
LINE
  5
72
100
AcDbEntity
100
AcDbLine
  8
makerslide
 62
7
370
-1
  6
CONTINUOUS
 10
19.7000000004799922
 20
7.0000000004800134
 30
0.0
 11
17.9999999994199875
 21
7.0000000004800134
 31
0.0
  0
LINE
  5
73
100
AcDbEntity
100
AcDbLine
  8
makerslide
 62
7
370
-1
  6
CONTINUOUS
 10
-17.9999999994200159
 20
7.0000000004800134
 30
0.0
 11
-19.7000000030200013
 21
7.0000000004800134
 31
0.0
  0
LINE
  5
74
100
AcDbEntity
100
AcDbLine
  8
makerslide
 62
7
370
-1
  6
CONTINUOUS
 10
-2.4999999987200141
 20
2.0000000005000098
 30
0.0
 11
-2.4999999987200141
 21
3.5606601735600067
 31
0.0
  0
LINE
  5
75
100
AcDbEntity
100
AcDbLine
  8
makerslide
 62
7
370
-1
  6
CONTINUOUS
 10
-2.4999999987200141
 20
16.4393398289000032
 30
0.0
 11
-2.4999999987200141
 21
18.0000000019600002
 31
0.0
  0
LINE
  5
76
100
AcDbEntity
100
AcDbLine
  8
makerslide
 62
7
370
-1
  6
CONTINUOUS
 10
9.9999999999599929
 20
19.70000000048001
 30
0.0
 11
10.29999999939999
 21
19.9999999999200107
 31
0.0
  0
LINE
  5
77
100
AcDbEntity
100
AcDbLine
  8
makerslide
 62
7
370
-1
  6
CONTINUOUS
 10
-19.7000000004800029
 20
13.0000000019800002
 30
0.0
 11
-17.9999999994200159
 21
13.0000000019800002
 31
0.0
  0
LINE
  5
78
100
AcDbEntity
100
AcDbLine
  8
makerslide
 62
7
370
-1
  6
CONTINUOUS
 10
17.9999999994199875
 20
13.0000000019800002
 30
0.0
 11
19.7000000004799922
 21
13.0000000019800002
 31
0.0
  0
LINE
  5
79
100
AcDbEntity
100
AcDbLine
  8
makerslide
 62
7
370
-1
  6
CONTINUOUS
 10
2.5000000012599877
 20
18.0000000019600002
 30
0.0
 11
2.5000000012599877
 21
16.4393398289000032
 31
0.0
  0
LINE
  5
7A
100
AcDbEntity
100
AcDbLine
  8
makerslide
 62
7
370
-1
  6
CONTINUOUS
 10
2.5000000012599877
 20
3.5606601735600067
 30
0.0
 11
2.5000000012599877
 21
2.0000000005000098
 31
0.0
  0
LINE
  5
7B
100
AcDbEntity
100
AcDbLine
  8
makerslide
 62
7
370
-1
  6
CONTINUOUS
 10
12.9393398286599854
 20
14.0000000009600054
 30
0.0
 11
7.0606601712600003
 21
14.0000000009600054
 31
0.0
  0
LINE
  5
7C
100
AcDbEntity
100
AcDbLine
  8
makerslide
 62
7
370
-1
  6
CONTINUOUS
 10
-7.0606601712600057
 20
14.0000000009600054
 30
0.0
 11
-9.7000000005199976
 21
14.0000000009600054
 31
0.0
  0
LINE
  5
7D
100
AcDbEntity
100
AcDbLine
  8
makerslide
 62
7
370
-1
  6
CONTINUOUS
 10
-10.2999999993999971
 20
14.0000000009600054
 30
0.0
 11
-12.9393398286600103
 21
14.0000000009600054
 31
0.0
  0
LINE
  5
7E
100
AcDbEntity
100
AcDbLine
  8
makerslide
 62
7
370
-1
  6
CONTINUOUS
 10
9.9999999999599929
 20
6.300000000940007
 30
0.0
 11
10.29999999939999
 21
6.0000000015000081
 31
0.0
  0
LINE
  5
7F
100
AcDbEntity
100
AcDbLine
  8
makerslide
 62
7
370
-1
  6
CONTINUOUS
 10
4.0000000009999823
 20
2.0000000005000098
 30
0.0
 11
4.0000000009999823
 21
2.9393398287000139
 31
0.0
  0
LINE
  5
80
100
AcDbEntity
100
AcDbLine
  8
makerslide
 62
7
370
-1
  6
CONTINUOUS
 10
4.0000000009999823
 20
17.0606601737599952
 30
0.0
 11
4.0000000009999823
 21
18.0000000019600002
 31
0.0
  0
LINE
  5
81
100
AcDbEntity
100
AcDbLine
  8
makerslide
 62
7
370
-1
  6
CONTINUOUS
 10
-17.9999999994200159
 20
16.0000000014600126
 30
0.0
 11
-17.060660171220011
 21
16.0000000014600126
 31
0.0
  0
LINE
  5
82
100
AcDbEntity
100
AcDbLine
  8
makerslide
 62
7
370
-1
  6
CONTINUOUS
 10
17.0606601712199826
 20
16.0000000014600126
 30
0.0
 11
17.9999999994199875
 21
16.0000000014600126
 31
0.0
  0
LINE
  5
83
100
AcDbEntity
100
AcDbLine
  8
makerslide
 62
7
370
-1
  6
CONTINUOUS
 10
5.9999999989599928
 20
12.9393398286599979
 30
0.0
 11
5.9999999989599928
 21
7.0606601738000139
 31
0.0
  0
LINE
  5
84
100
AcDbEntity
100
AcDbLine
  8
makerslide
 62
7
370
-1
  6
CONTINUOUS
 10
7.00000000048
 20
0.3000000019799991
 30
0.0
 11
7.00000000048
 21
2.0000000005000098
 31
0.0
  0
LINE
  5
85
100
AcDbEntity
100
AcDbLine
  8
makerslide
 62
7
370
-1
  6
CONTINUOUS
 10
-20.5000000006799965
 20
17.62500000012
 30
0.0
 11
-20.5928932185000022
 21
17.62500000012
 31
0.0
  0
LINE
  5
86
100
AcDbEntity
100
AcDbLine
  8
makerslide
 62
7
370
-1
  6
CONTINUOUS
 10
20.500000000679993
 20
17.62500000012
 30
0.0
 11
20.5928932184999987
 21
17.62500000012
 31
0.0
  0
LINE
  5
87
100
AcDbEntity
100
AcDbLine
  8
makerslide
 62
7
370
-1
  6
CONTINUOUS
 10
-15.9999999989200052
 20
18.0000000019600002
 30
0.0
 11
-12.9999999994400124
 21
18.0000000019600002
 31
0.0
  0
LINE
  5
88
100
AcDbEntity
100
AcDbLine
  8
makerslide
 62
7
370
-1
  6
CONTINUOUS
 10
-7.0000000004800036
 20
18.0000000019600002
 30
0.0
 11
-4.0000000010000107
 21
18.0000000019600002
 31
0.0
  0
LINE
  5
89
100
AcDbEntity
100
AcDbLine
  8
makerslide
 62
7
370
-1
  6
CONTINUOUS
 10
-2.4999999987200141
 20
18.0000000019600002
 30
0.0
 11
2.5000000012599877
 21
18.0000000019600002
 31
0.0
  0
LINE
  5
8A
100
AcDbEntity
100
AcDbLine
  8
makerslide
 62
7
370
-1
  6
CONTINUOUS
 10
4.0000000009999823
 20
18.0000000019600002
 30
0.0
 11
15.9999999989199999
 21
18.0000000019600002
 31
0.0
  0
LINE
  5
8B
100
AcDbEntity
100
AcDbLine
  8
makerslide
 62
7
370
-1
  6
CONTINUOUS
 10
2.5000000012599877
 20
16.4393398289000032
 30
0.0
 11
5.9999999989599928
 21
12.9393398286599979
 31
0.0
  0
LINE
  5
8C
100
AcDbEntity
100
AcDbLine
  8
makerslide
 62
7
370
-1
  6
CONTINUOUS
 10
12.9393398286599854
 20
6.0000000015000081
 30
0.0
 11
15.9999999989199999
 21
2.9393398287000139
 31
0.0
  0
LINE
  5
8D
100
AcDbEntity
100
AcDbLine
  8
makerslide
 62
7
370
-1
  6
CONTINUOUS
 10
17.0606601712199826
 20
4.0000000009999974
 30
0.0
 11
14.0000000009599894
 21
7.0606601738000139
 31
0.0
  0
LINE
  5
8E
100
AcDbEntity
100
AcDbLine
  8
makerslide
 62
7
370
-1
  6
CONTINUOUS
 10
7.0606601712600003
 20
14.0000000009600054
 30
0.0
 11
4.0000000009999823
 21
17.0606601737599952
 31
0.0
  0
LINE
  5
8F
100
AcDbEntity
100
AcDbLine
  8
makerslide
 62
7
370
-1
  6
CONTINUOUS
 10
15.9999999989199999
 20
17.0606601737599952
 30
0.0
 11
12.9393398286599854
 21
14.0000000009600054
 31
0.0
  0
LINE
  5
90
100
AcDbEntity
100
AcDbLine
  8
makerslide
 62
7
370
-1
  6
CONTINUOUS
 10
5.9999999989599928
 20
7.0606601738000139
 30
0.0
 11
2.5000000012599877
 21
3.5606601735600067
 31
0.0
  0
LINE
  5
91
100
AcDbEntity
100
AcDbLine
  8
makerslide
 62
7
370
-1
  6
CONTINUOUS
 10
4.0000000009999823
 20
2.9393398287000139
 30
0.0
 11
7.0606601712600003
 21
6.0000000015000081
 31
0.0
  0
LINE
  5
92
100
AcDbEntity
100
AcDbLine
  8
makerslide
 62
7
370
-1
  6
CONTINUOUS
 10
14.0000000009599894
 20
12.9393398286599979
 30
0.0
 11
17.0606601712199826
 21
16.0000000014600126
 31
0.0
  0
LINE
  5
93
100
AcDbEntity
100
AcDbLine
  8
makerslide
 62
7
370
-1
  6
CONTINUOUS
 10
20.9464466084199934
 20
17.7714466109600124
 30
0.0
 11
22.8214466099999989
 21
19.6464466100000088
 31
0.0
  0
LINE
  5
94
100
AcDbEntity
100
AcDbLine
  8
makerslide
 62
7
370
-1
  6
CONTINUOUS
 10
19.9999999999199964
 20
19.9999999999200107
 30
0.0
 11
10.29999999939999
 21
19.9999999999200107
 31
0.0
  0
LINE
  5
95
100
AcDbEntity
100
AcDbLine
  8
makerslide
 62
7
370
-1
  6
CONTINUOUS
 10
9.7000000005199922
 20
19.9999999999200107
 30
0.0
 11
-6.7000000010400047
 21
19.9999999999200107
 31
0.0
  0
LINE
  5
96
100
AcDbEntity
100
AcDbLine
  8
makerslide
 62
7
370
-1
  6
CONTINUOUS
 10
-13.2999999988800113
 20
19.9999999999200107
 30
0.0
 11
-19.9999999999200035
 21
19.9999999999200107
 31
0.0
  0
LINE
  5
97
100
AcDbEntity
100
AcDbLine
  8
makerslide
 62
7
370
-1
  6
CONTINUOUS
 10
14.0000000009599894
 20
9.7000000005200064
 30
0.0
 11
13.6999999989799939
 21
9.9999999999600071
 31
0.0
  0
LINE
  5
98
100
AcDbEntity
100
AcDbLine
  8
makerslide
 62
7
370
-1
  6
CONTINUOUS
 10
9.7000000005199922
 20
6.0000000015000081
 30
0.0
 11
9.9999999999599929
 21
6.300000000940007
 31
0.0
  0
LINE
  5
99
100
AcDbEntity
100
AcDbLine
  8
makerslide
 62
7
370
-1
  6
CONTINUOUS
 10
13.6999999989799939
 20
9.9999999999600071
 30
0.0
 11
14.0000000009599894
 21
10.3000000019400062
 31
0.0
  0
LINE
  5
9A
100
AcDbEntity
100
AcDbLine
  8
makerslide
 62
7
370
-1
  6
CONTINUOUS
 10
20.5928932184999987
 20
22.3749999997199964
 30
0.0
 11
19.9999999999199964
 21
22.3749999997199964
 31
0.0
  0
LINE
  5
9B
100
AcDbEntity
100
AcDbLine
  8
makerslide
 62
7
370
-1
  6
CONTINUOUS
 10
-20.5928932185000022
 20
22.3749999997199964
 30
0.0
 11
-19.9999999999200035
 21
22.3749999997199964
 31
0.0
  0
LINE
  5
9C
100
AcDbEntity
100
AcDbLine
  8
makerslide
 62
7
370
-1
  6
CONTINUOUS
 10
12.9999999994399822
 20
2.0000000005000098
 30
0.0
 11
12.9999999994399822
 21
0.3000000019799991
 31
0.0
  0
LINE
  5
9D
100
AcDbEntity
100
AcDbLine
  8
makerslide
 62
7
370
-1
  6
CONTINUOUS
 10
9.7000000005199922
 20
19.9999999999200107
 30
0.0
 11
9.9999999999599929
 21
19.70000000048001
 31
0.0
  0
LINE
  5
9E
100
AcDbEntity
100
AcDbLine
  8
makerslide
 62
7
370
-1
  6
CONTINUOUS
 10
14.0000000009599894
 20
7.0606601738000139
 30
0.0
 11
14.0000000009599894
 21
9.7000000005200064
 31
0.0
  0
LINE
  5
9F
100
AcDbEntity
100
AcDbLine
  8
makerslide
 62
7
370
-1
  6
CONTINUOUS
 10
14.0000000009599894
 20
10.3000000019400062
 30
0.0
 11
14.0000000009599894
 21
12.9393398286599979
 31
0.0
  0
LINE
  5
A0
100
AcDbEntity
100
AcDbLine
  8
makerslide
 62
7
370
-1
  6
CONTINUOUS
 10
15.9999999989199999
 20
18.0000000019600002
 30
0.0
 11
15.9999999989199999
 21
17.0606601737599952
 31
0.0
  0
LINE
  5
A1
100
AcDbEntity
100
AcDbLine
  8
makerslide
 62
7
370
-1
  6
CONTINUOUS
 10
15.9999999989199999
 20
2.9393398287000139
 30
0.0
 11
15.9999999989199999
 21
2.0000000005000098
 31
0.0
  0
LINE
  5
A2
100
AcDbEntity
100
AcDbLine
  8
makerslide
 62
7
370
-1
  6
CONTINUOUS
 10
17.9999999994199875
 20
16.0000000014600126
 30
0.0
 11
17.9999999994199875
 21
13.0000000019800002
 31
0.0
  0
LINE
  5
A3
100
AcDbEntity
100
AcDbLine
  8
makerslide
 62
7
370
-1
  6
CONTINUOUS
 10
17.9999999994199875
 20
7.0000000004800134
 30
0.0
 11
17.9999999994199875
 21
4.0000000009999974
 31
0.0
  0
LINE
  5
A4
100
AcDbEntity
100
AcDbLine
  8
makerslide
 62
7
370
-1
  6
CONTINUOUS
 10
19.9999999999199964
 20
22.3749999997199964
 30
0.0
 11
19.9999999999199964
 21
19.9999999999200107
 31
0.0
  0
LINE
  5
A5
100
AcDbEntity
100
AcDbLine
  8
makerslide
 62
7
370
-1
  6
CONTINUOUS
 10
19.9999999999199964
 20
1.0000000015200046
 30
0.0
 11
19.9999999999199964
 21
6.7000000010400145
 31
0.0
  0
LINE
  5
A6
100
AcDbEntity
100
AcDbLine
  8
makerslide
 62
7
370
-1
  6
CONTINUOUS
 10
19.9999999999199964
 20
13.3000000014200008
 30
0.0
 11
19.9999999999199964
 21
17.125000001900009
 31
0.0
  0
LINE
  5
A7
100
AcDbEntity
100
AcDbLine
  8
makerslide
 62
7
370
-1
  6
CONTINUOUS
 10
22.8214466099999989
 20
20.3535533923800145
 30
0.0
 11
20.9464466084199934
 21
22.2285533914200073
 31
0.0
  0
CIRCLE
  5
A8
100
AcDbEntity
100
AcDbCircle
  8
makerslide
 62
7
370
-1
  6
CONTINUOUS
 10
9.9999999999599929
 20
9.9999999999600071
 30
0.0
 40
2.1000000011599997
  0
CIRCLE
  5
A9
100
AcDbEntity
100
AcDbCircle
  8
makerslide
 62
7
370
-1
  6
CONTINUOUS
 10
-9.9999999999599964
 20
9.9999999999600071
 30
0.0
 40
2.1000000011599997
  0
ARC
  5
AA
100
AcDbEntity
  8
makerslide
 62
7
370
-1
  6
CONTINUOUS
100
AcDbCircle
 10
-19.0000000009399983
 20
1.0000000015200046
 30
0.0
 40
0.9999999989799999
100
AcDbArc
 50
180.0
 51
270.0
  0
ARC
  5
AB
100
AcDbEntity
  8
makerslide
 62
7
370
-1
  6
CONTINUOUS
100
AcDbCircle
 10
19.0000000009399947
 20
1.0000000015200046
 30
0.0
 40
0.9999999989799999
100
AcDbArc
 50
270.0
 51
360.0
  0
ARC
  5
AC
100
AcDbEntity
  8
makerslide
 62
7
370
-1
  6
CONTINUOUS
100
AcDbCircle
 10
-20.5000000006799965
 20
17.125000001900009
 30
0.0
 40
0.50000000076
100
AcDbArc
 50
0.0
 51
90.0
  0
ARC
  5
AD
100
AcDbEntity
  8
makerslide
 62
7
370
-1
  6
CONTINUOUS
100
AcDbCircle
 10
20.500000000679993
 20
17.125000001900009
 30
0.0
 40
0.50000000076
100
AcDbArc
 50
90.0
 51
180.0
  0
ARC
  5
AE
100
AcDbEntity
  8
makerslide
 62
7
370
-1
  6
CONTINUOUS
100
AcDbCircle
 10
-20.5928932185000022
 20
21.8750000015000055
 30
0.0
 40
0.50000000076
100
AcDbArc
 50
90.0
 51
135.0
  0
ARC
  5
AF
100
AcDbEntity
  8
makerslide
 62
7
370
-1
  6
CONTINUOUS
100
AcDbCircle
 10
-22.4678932175399986
 20
19.9999999999200107
 30
0.0
 40
0.50000000076
100
AcDbArc
 50
134.9999999999000124
 51
225.0000000000999876
  0
ARC
  5
B0
100
AcDbEntity
  8
makerslide
 62
7
370
-1
  6
CONTINUOUS
100
AcDbCircle
 10
-20.5928932185000022
 20
18.125000000879993
 30
0.0
 40
0.50000000076
100
AcDbArc
 50
225.0
 51
270.0
  0
ARC
  5
B1
100
AcDbEntity
  8
makerslide
 62
7
370
-1
  6
CONTINUOUS
100
AcDbCircle
 10
20.5928932184999987
 20
18.125000000879993
 30
0.0
 40
0.50000000076
100
AcDbArc
 50
270.0
 51
315.0
  0
ARC
  5
B2
100
AcDbEntity
  8
makerslide
 62
7
370
-1
  6
CONTINUOUS
100
AcDbCircle
 10
22.4678932200799899
 20
19.9999999999200107
 30
0.0
 40
0.50000000076
100
AcDbArc
 50
314.9999999999000124
 51
45.0000000001000018
  0
ARC
  5
B3
100
AcDbEntity
  8
makerslide
 62
7
370
-1
  6
CONTINUOUS
100
AcDbCircle
 10
20.5928932184999987
 20
21.8750000015000055
 30
0.0
 40
0.50000000076
100
AcDbArc
 50
45.0
 51
90.0
  0
ARC
  5
B4
100
AcDbEntity
  8
makerslide
 62
7
370
-1
  6
CONTINUOUS
100
AcDbCircle
 10
-19.6999999979400044
 20
6.6999999985000125
 30
0.0
 40
0.30000000198
100
AcDbArc
 50
90.0000006403000015
 51
179.9999997865000125
  0
ARC
  5
B5
100
AcDbEntity
  8
makerslide
 62
7
370
-1
  6
CONTINUOUS
100
AcDbCircle
 10
-6.7000000010400047
 20
19.70000000048001
 30
0.0
 40
0.29999999944
100
AcDbArc
 50
90.0
 51
180.0
  0
ARC
  5
B6
100
AcDbEntity
  8
makerslide
 62
7
370
-1
  6
CONTINUOUS
100
AcDbCircle
 10
-13.2999999988800113
 20
19.70000000048001
 30
0.0
 40
0.29999999944
100
AcDbArc
 50
0.0
 51
90.0
  0
ARC
  5
B7
100
AcDbEntity
  8
makerslide
 62
7
370
-1
  6
CONTINUOUS
100
AcDbCircle
 10
-19.7000000004800029
 20
13.3000000014200008
 30
0.0
 40
0.29999999944
100
AcDbArc
 50
180.0
 51
270.0
  0
ARC
  5
B8
100
AcDbEntity
  8
makerslide
 62
7
370
-1
  6
CONTINUOUS
100
AcDbCircle
 10
-13.2999999988800113
 20
0.3000000019799991
 30
0.0
 40
0.29999999944
100
AcDbArc
 50
270.0
 51
360.0
  0
ARC
  5
B9
100
AcDbEntity
  8
makerslide
 62
7
370
-1
  6
CONTINUOUS
100
AcDbCircle
 10
-6.7000000010400047
 20
0.3000000019799991
 30
0.0
 40
0.29999999944
100
AcDbArc
 50
180.0
 51
270.0
  0
ARC
  5
BA
100
AcDbEntity
  8
makerslide
 62
7
370
-1
  6
CONTINUOUS
100
AcDbCircle
 10
6.7000000010400029
 20
0.3000000019799991
 30
0.0
 40
0.29999999944
100
AcDbArc
 50
270.0
 51
360.0
  0
ARC
  5
BB
100
AcDbEntity
  8
makerslide
 62
7
370
-1
  6
CONTINUOUS
100
AcDbCircle
 10
13.2999999988799864
 20
0.3000000019799991
 30
0.0
 40
0.29999999944
100
AcDbArc
 50
180.0
 51
270.0
  0
ARC
  5
BC
100
AcDbEntity
  8
makerslide
 62
7
370
-1
  6
CONTINUOUS
100
AcDbCircle
 10
19.7000000004799922
 20
6.7000000010400145
 30
0.0
 40
0.29999999944
100
AcDbArc
 50
0.0
 51
90.0
  0
ARC
  5
BD
100
AcDbEntity
  8
makerslide
 62
7
370
-1
  6
CONTINUOUS
100
AcDbCircle
 10
19.7000000004799922
 20
13.3000000014200008
 30
0.0
 40
0.29999999944
100
AcDbArc
 50
270.0
 51
360.0
  0
ENDSEC
  0
SECTION
  2
OBJECTS
  0
DICTIONARY
  5
C
100
AcDbDictionary
280
0
281
1
  3
ACAD_GROUP
350
D
  3
ACAD_LAYOUT
350
1A
  3
ACAD_MLINESTYLE
350
17
  3
ACAD_PLOTSETTINGS
350
19
  3
ACAD_PLOTSTYLENAME
350
E
  3
AcDbVariableDictionary
350
BE
  0
DICTIONARY
  5
D
100
AcDbDictionary
280
0
281
1
  0
ACDBDICTIONARYWDFLT
  5
E
100
AcDbDictionary
281
1
  3
Normal
350
F
100
AcDbDictionaryWithDefault
340
F
  0
ACDBPLACEHOLDER
  5
F
  0
DICTIONARY
  5
17
100
AcDbDictionary
280
0
281
1
  3
Standard
350
18
  0
MLINESTYLE
  5
18
100
AcDbMlineStyle
  2
STANDARD
 70
0
  3

 62
256
 51
90.0
 52
90.0
 71
2
 49
0.5
 62
256
  6
BYLAYER
 49
-0.5
 62
256
  6
BYLAYER
  0
DICTIONARY
  5
19
100
AcDbDictionary
280
0
281
1
  0
DICTIONARY
  5
1A
100
AcDbDictionary
281
1
  3
Layout1
350
1E
  3
Layout2
350
26
  3
Model
350
22
  0
LAYOUT
  5
1E
100
AcDbPlotSettings
  1

  2
C:\Program Files\AutoCAD 2002\plotters\DWF ePlot (optimized for plotting).pc3
  4

  6

 40
0.0
 41
0.0
 42
0.0
 43
0.0
 44
0.0
 45
0.0
 46
0.0
 47
0.0
 48
0.0
 49
0.0
140
0.0
141
0.0
142
1.0
143
1.0
 70
688
 72
0
 73
0
 74
5
  7

 75
16
147
1.0
148
0.0
149
0.0
100
AcDbLayout
  1
Layout1
 70
1
 71
1
 10
0.0
 20
0.0
 11
420.0
 21
297.0
 12
0.0
 22
0.0
 32
0.0
 14
100000000000000000000.0
 24
100000000000000000000.0
 34
100000000000000000000.0
 15
-100000000000000000000.0
 25
-100000000000000000000.0
 35
-100000000000000000000.0
146
0.0
 13
0.0
 23
0.0
 33
0.0
 16
1.0
 26
0.0
 36
0.0
 17
0.0
 27
1.0
 37
0.0
 76
0
330
1B
  0
LAYOUT
  5
22
100
AcDbPlotSettings
  1

  2
C:\Program Files\AutoCAD 2002\plotters\DWF ePlot (optimized for plotting).pc3
  4

  6

 40
0.0
 41
0.0
 42
0.0
 43
0.0
 44
0.0
 45
0.0
 46
0.0
 47
0.0
 48
0.0
 49
0.0
140
0.0
141
0.0
142
1.0
143
1.0
 70
1712
 72
0
 73
0
 74
0
  7

 75
0
147
1.0
148
0.0
149
0.0
100
AcDbLayout
  1
Model
 70
1
 71
0
 10
0.0
 20
0.0
 11
12.0
 21
9.0
 12
0.0
 22
0.0
 32
0.0
 14
0.0
 24
0.0
 34
0.0
 15
0.0
 25
0.0
 35
0.0
146
0.0
 13
0.0
 23
0.0
 33
0.0
 16
1.0
 26
0.0
 36
0.0
 17
0.0
 27
1.0
 37
0.0
 76
0
330
1F
  0
LAYOUT
  5
26
100
AcDbPlotSettings
  1

  2
C:\Program Files\AutoCAD 2002\plotters\DWF ePlot (optimized for plotting).pc3
  4

  6

 40
0.0
 41
0.0
 42
0.0
 43
0.0
 44
0.0
 45
0.0
 46
0.0
 47
0.0
 48
0.0
 49
0.0
140
0.0
141
0.0
142
1.0
143
1.0
 70
688
 72
0
 73
0
 74
5
  7

 75
16
147
1.0
148
0.0
149
0.0
100
AcDbLayout
  1
Layout2
 70
1
 71
2
 10
0.0
 20
0.0
 11
12.0
 21
9.0
 12
0.0
 22
0.0
 32
0.0
 14
0.0
 24
0.0
 34
0.0
 15
0.0
 25
0.0
 35
0.0
146
0.0
 13
0.0
 23
0.0
 33
0.0
 16
1.0
 26
0.0
 36
0.0
 17
0.0
 27
1.0
 37
0.0
 76
0
330
23
  0
DICTIONARY
  5
BE
100
AcDbDictionary
281
1
  3
DIMASSOC
350
C0
  3
HIDETEXT
350
BF
  0
DICTIONARYVAR
  5
BF
100
DictionaryVariables
280
0
  1
2
  0
DICTIONARYVAR
  5
C0
100
DictionaryVariables
280
0
  1
1
  0
ENDSEC
  0
EOF
