999
dxflib 2.2.0.0
  0
SECTION
  2
HEADER
  9
$ACADVER
  1
AC1015
  9
$HANDSEED
  5
FFFF
  9
$DIMASZ
 40
2.5
  9
$PLIMMIN
 10
0.0
 20
0.0
  9
$DIMEXE
 40
1.25
  9
$DIMGAP
 40
0.625
  9
$PLIMMAX
 10
210.0
 20
297.0
  9
$EXTMIN
 10
0.0
 20
0.0
 30
0.0
  9
$EXTMAX
 10
404.0
 20
327.0
 30
0.0
  9
$INSUNITS
 70
4
  9
$DIMSTYLE
  2
Standard
  9
$DIMEXO
 40
0.625
  9
$DIMTXT
 40
2.5
  0
ENDSEC
  0
SECTION
  2
TABLES
  0
TABLE
  2
VPORT
  5
8
100
AcDbSymbolTable
 70
1
  0
VPORT
  5
30
100
AcDbSymbolTableRecord
100
AcDbViewportTableRecord
  2
*Active
 70
0
 10
0.0
 20
0.0
 11
1.0
 21
1.0
 12
286.3055555555554861
 22
148.5
 13
0.0
 23
0.0
 14
10.0
 24
10.0
 15
10.0
 25
10.0
 16
0.0
 26
0.0
 36
1.0
 17
0.0
 27
0.0
 37
0.0
 40
297.0
 41
1.92798353909465
 42
50.0
 43
0.0
 44
0.0
 50
0.0
 51
0.0
 71
0
 72
100
 73
1
 74
3
 75
1
 76
1
 77
0
 78
0
281
0
 65
1
110
0.0
120
0.0
130
0.0
111
1.0
121
0.0
131
0.0
112
0.0
122
1.0
132
0.0
 79
0
146
0.0
  0
ENDTAB
  0
TABLE
  2
LTYPE
  5
5
100
AcDbSymbolTable
 70
21
  0
LTYPE
  5
14
100
AcDbSymbolTableRecord
100
AcDbLinetypeTableRecord
  2
ByBlock
 70
0
  3

 72
65
 73
0
 40
0.0
  0
LTYPE
  5
15
100
AcDbSymbolTableRecord
100
AcDbLinetypeTableRecord
  2
ByLayer
 70
0
  3

 72
65
 73
0
 40
0.0
  0
LTYPE
  5
16
100
AcDbSymbolTableRecord
100
AcDbLinetypeTableRecord
  2
CONTINUOUS
 70
0
  3
Solid line
 72
65
 73
0
 40
0.0
  0
LTYPE
  5
31
100
AcDbSymbolTableRecord
100
AcDbLinetypeTableRecord
  2
DOT
 70
0
  3
Dot . . . . . . . . . . . . . . . . . . . . . .
 72
65
 73
2
 40
6.3499999999999996
 49
0.0
 74
0
 49
-6.3499999999999996
 74
0
  0
LTYPE
  5
32
100
AcDbSymbolTableRecord
100
AcDbLinetypeTableRecord
  2
DOT2
 70
0
  3
Dot (.5x) .....................................
 72
65
 73
2
 40
3.1749999999999998
 49
0.0
 74
0
 49
-3.1749999999999998
 74
0
  0
LTYPE
  5
33
100
AcDbSymbolTableRecord
100
AcDbLinetypeTableRecord
  2
DOTX2
 70
0
  3
Dot (2x) .  .  .  .  .  .  .  .  .  .  .  .  .
 72
65
 73
2
 40
12.6999999999999993
 49
0.0
 74
0
 49
-12.6999999999999993
 74
0
  0
LTYPE
  5
34
100
AcDbSymbolTableRecord
100
AcDbLinetypeTableRecord
  2
DASHED
 70
0
  3
Dashed __ __ __ __ __ __ __ __ __ __ __ __ __ _
 72
65
 73
2
 40
19.0500000000000007
 49
12.6999999999999993
 74
0
 49
-6.3499999999999996
 74
0
  0
LTYPE
  5
35
100
AcDbSymbolTableRecord
100
AcDbLinetypeTableRecord
  2
DASHED2
 70
0
  3
Dashed (.5x) _ _ _ _ _ _ _ _ _ _ _ _ _ _ _ _ _
 72
65
 73
2
 40
9.5250000000000004
 49
6.3499999999999996
 74
0
 49
-3.1749999999999998
 74
0
  0
LTYPE
  5
36
100
AcDbSymbolTableRecord
100
AcDbLinetypeTableRecord
  2
DASHEDX2
 70
0
  3
Dashed (2x) ____  ____  ____  ____  ____  ___
 72
65
 73
2
 40
38.1000000000000014
 49
25.3999999999999986
 74
0
 49
-12.6999999999999993
 74
0
  0
LTYPE
  5
37
100
AcDbSymbolTableRecord
100
AcDbLinetypeTableRecord
  2
DASHDOT
 70
0
  3
Dash dot __ . __ . __ . __ . __ . __ . __ . __
 72
65
 73
4
 40
25.3999999999999986
 49
12.6999999999999993
 74
0
 49
-6.3499999999999996
 74
0
 49
0.0
 74
0
 49
-6.3499999999999996
 74
0
  0
LTYPE
  5
38
100
AcDbSymbolTableRecord
100
AcDbLinetypeTableRecord
  2
DASHDOT2
 70
0
  3
Dash dot (.5x) _._._._._._._._._._._._._._._.
 72
65
 73
4
 40
12.6999999999999993
 49
6.3499999999999996
 74
0
 49
-3.1749999999999998
 74
0
 49
0.0
 74
0
 49
-3.1749999999999998
 74
0
  0
LTYPE
  5
39
100
AcDbSymbolTableRecord
100
AcDbLinetypeTableRecord
  2
DASHDOTX2
 70
0
  3
Dash dot (2x) ____  .  ____  .  ____  .  ___
 72
65
 73
4
 40
50.7999999999999972
 49
25.3999999999999986
 74
0
 49
-12.6999999999999993
 74
0
 49
0.0
 74
0
 49
-12.6999999999999993
 74
0
  0
LTYPE
  5
3A
100
AcDbSymbolTableRecord
100
AcDbLinetypeTableRecord
  2
DIVIDE
 70
0
  3
Divide ____ . . ____ . . ____ . . ____ . . ____
 72
65
 73
6
 40
31.75
 49
12.6999999999999993
 74
0
 49
-6.3499999999999996
 74
0
 49
0.0
 74
0
 49
-6.3499999999999996
 74
0
 49
0.0
 74
0
 49
-6.3499999999999996
 74
0
  0
LTYPE
  5
3B
100
AcDbSymbolTableRecord
100
AcDbLinetypeTableRecord
  2
DIVIDE2
 70
0
  3
Divide (.5x) __..__..__..__..__..__..__..__.._
 72
65
 73
6
 40
15.875
 49
6.3499999999999996
 74
0
 49
-3.1749999999999998
 74
0
 49
0.0
 74
0
 49
-3.1749999999999998
 74
0
 49
0.0
 74
0
 49
-3.1749999999999998
 74
0
  0
LTYPE
  5
3C
100
AcDbSymbolTableRecord
100
AcDbLinetypeTableRecord
  2
DIVIDEX2
 70
0
  3
Divide (2x) ________  .  .  ________  .  .  _
 72
65
 73
6
 40
63.5
 49
25.3999999999999986
 74
0
 49
-12.6999999999999993
 74
0
 49
0.0
 74
0
 49
-12.6999999999999993
 74
0
 49
0.0
 74
0
 49
-12.6999999999999993
 74
0
  0
LTYPE
  5
3D
100
AcDbSymbolTableRecord
100
AcDbLinetypeTableRecord
  2
CENTER
 70
0
  3
Center ____ _ ____ _ ____ _ ____ _ ____ _ ____
 72
65
 73
4
 40
50.7999999999999972
 49
31.75
 74
0
 49
-6.3499999999999996
 74
0
 49
6.3499999999999996
 74
0
 49
-6.3499999999999996
 74
0
  0
LTYPE
  5
3E
100
AcDbSymbolTableRecord
100
AcDbLinetypeTableRecord
  2
CENTER2
 70
0
  3
Center (.5x) ___ _ ___ _ ___ _ ___ _ ___ _ ___
 72
65
 73
4
 40
28.5749999999999993
 49
19.0500000000000007
 74
0
 49
-3.1749999999999998
 74
0
 49
3.1749999999999998
 74
0
 49
-3.1749999999999998
 74
0
  0
LTYPE
  5
3F
100
AcDbSymbolTableRecord
100
AcDbLinetypeTableRecord
  2
CENTERX2
 70
0
  3
Center (2x) ________  __  ________  __  _____
 72
65
 73
4
 40
101.5999999999999943
 49
63.5
 74
0
 49
-12.6999999999999993
 74
0
 49
12.6999999999999993
 74
0
 49
-12.6999999999999993
 74
0
  0
LTYPE
  5
40
100
AcDbSymbolTableRecord
100
AcDbLinetypeTableRecord
  2
BORDER
 70
0
  3
Border __ __ . __ __ . __ __ . __ __ . __ __ .
 72
65
 73
6
 40
44.4500000000000028
 49
12.6999999999999993
 74
0
 49
-6.3499999999999996
 74
0
 49
12.6999999999999993
 74
0
 49
-6.3499999999999996
 74
0
 49
0.0
 74
0
 49
-6.3499999999999996
 74
0
  0
LTYPE
  5
41
100
AcDbSymbolTableRecord
100
AcDbLinetypeTableRecord
  2
BORDER2
 70
0
  3
Border (.5x) __.__.__.__.__.__.__.__.__.__.__.
 72
65
 73
6
 40
22.2250000000000014
 49
6.3499999999999996
 74
0
 49
-3.1749999999999998
 74
0
 49
6.3499999999999996
 74
0
 49
-3.1749999999999998
 74
0
 49
0.0
 74
0
 49
-3.1749999999999998
 74
0
  0
LTYPE
  5
42
100
AcDbSymbolTableRecord
100
AcDbLinetypeTableRecord
  2
BORDERX2
 70
0
  3
Border (2x) ____  ____  .  ____  ____  .  ___
 72
65
 73
6
 40
88.9000000000000057
 49
25.3999999999999986
 74
0
 49
-12.6999999999999993
 74
0
 49
25.3999999999999986
 74
0
 49
-12.6999999999999993
 74
0
 49
0.0
 74
0
 49
-12.6999999999999993
 74
0
  0
ENDTAB
  0
TABLE
  2
LAYER
  5
2
100
AcDbSymbolTable
 70
2
  0
LAYER
  5
10
100
AcDbSymbolTableRecord
100
AcDbLayerTableRecord
  2
0
 70
0
 62
7
  6
CONTINUOUS
290
1
390
F
  0
LAYER
  5
43
100
AcDbSymbolTableRecord
100
AcDbLayerTableRecord
  2
C18
 70
0
 62
18
  6
CONTINUOUS
290
1
390
F
  0
ENDTAB
  0
TABLE
  2
STYLE
  5
3
100
AcDbSymbolTable
 70
1
  0
STYLE
  5
11
100
AcDbSymbolTableRecord
100
AcDbTextStyleTableRecord
  2
Standard
 70
0
 40
0.0
 41
0.75
 50
0.0
 71
0
 42
2.5
  3
txt
  4

  0
ENDTAB
  0
TABLE
  2
VIEW
  5
6
100
AcDbSymbolTable
 70
0
  0
ENDTAB
  0
TABLE
  2
UCS
  5
7
100
AcDbSymbolTable
 70
0
  0
ENDTAB
  0
TABLE
  2
APPID
  5
9
100
AcDbSymbolTable
 70
1
  0
APPID
  5
12
100
AcDbSymbolTableRecord
100
AcDbRegAppTableRecord
  2
ACAD
 70
0
  0
ENDTAB
  0
TABLE
  2
DIMSTYLE
  5
A
100
AcDbSymbolTable
 70
1
100
AcDbDimStyleTable
 71
0
  0
DIMSTYLE
105
27
100
AcDbSymbolTableRecord
100
AcDbDimStyleTableRecord
  2
Standard
 41
2.5
 42
0.625
 43
3.75
 44
1.25
 70
0
 73
0
 74
0
 77
1
 78
8
140
2.5
141
2.5
143
0.03937007874016
147
0.625
171
3
172
1
271
2
272
2
274
3
278
44
283
0
284
8
340
11
  0
ENDTAB
  0
TABLE
  2
BLOCK_RECORD
  5
1
100
AcDbSymbolTable
 70
1
  0
BLOCK_RECORD
  5
1F
100
AcDbSymbolTableRecord
100
AcDbBlockTableRecord
  2
*Model_Space
340
22
  0
BLOCK_RECORD
  5
1B
100
AcDbSymbolTableRecord
100
AcDbBlockTableRecord
  2
*Paper_Space
340
1E
  0
BLOCK_RECORD
  5
23
100
AcDbSymbolTableRecord
100
AcDbBlockTableRecord
  2
*Paper_Space0
340
26
  0
ENDTAB
  0
ENDSEC
  0
SECTION
  2
BLOCKS
  0
BLOCK
  5
20
100
AcDbEntity
  8
0
100
AcDbBlockBegin
  2
*Model_Space
 70
0
 10
0.0
 20
0.0
 30
0.0
  3
*Model_Space
  1

  0
ENDBLK
  5
21
100
AcDbEntity
  8
0
100
AcDbBlockEnd
  0
BLOCK
  5
1C
100
AcDbEntity
 67
1
  8
0
100
AcDbBlockBegin
  2
*Paper_Space
 70
0
 10
0.0
 20
0.0
 30
0.0
  3
*Paper_Space
  1

  0
ENDBLK
  5
1D
100
AcDbEntity
 67
1
  8
0
100
AcDbBlockEnd
  0
BLOCK
  5
24
100
AcDbEntity
  8
0
100
AcDbBlockBegin
  2
*Paper_Space0
 70
0
 10
0.0
 20
0.0
 30
0.0
  3
*Paper_Space0
  1

  0
ENDBLK
  5
25
100
AcDbEntity
  8
0
100
AcDbBlockEnd
  0
ENDSEC
  0
SECTION
  2
ENTITIES
  0
LWPOLYLINE
  5
44
  8
C18
 62
256
370
-1
  6
ByLayer
100
AcDbEntity
100
AcDbPolyline
 90
45
 70
0
 10
7.6000000000000014
 20
59.2000000000000028
 10
8.3999999999999986
 20
57.4000000000000057
 10
8.181200000000004
 20
57.3111800000000073
 10
8.0069400000000002
 20
57.205999999999996
 10
7.8720799999999969
 20
57.0846800000000059
 10
7.7715000000000032
 20
56.9474000000000089
 10
7.7000200000000021
 20
56.7943599999999975
 10
7.6525600000000011
 20
56.6257799999999989
 10
7.6239599999999967
 20
56.4418599999999984
 10
7.6090799999999987
 20
56.2427800000000104
 10
7.602800000000002
 20
56.0287600000000054
 10
7.6000000000000014
 20
55.8000000000000043
 10
13.0
 20
55.8000000000000043
 10
13.0
 20
57.4000000000000057
 10
12.8285199999999975
 20
57.39876000000001
 10
12.6552000000000007
 20
57.3955200000000048
 10
12.4805400000000049
 20
57.3909400000000005
 10
12.3049999999999997
 20
57.3856600000000014
 10
12.1290600000000026
 20
57.3804000000000016
 10
11.9532000000000025
 20
57.3757799999999989
 10
11.7779000000000025
 20
57.3724799999999959
 10
11.6036399999999986
 20
57.3712000000000018
 10
11.4309000000000012
 20
57.3725800000000064
 10
11.2601399999999998
 20
57.3772799999999989
 10
11.0918599999999969
 20
57.3859799999999964
 10
10.9265400000000028
 20
57.3993600000000015
 10
10.7646200000000007
 20
57.4180600000000041
 10
10.6066199999999995
 20
57.4427800000000062
 10
10.4530200000000022
 20
57.4741599999999977
 10
10.3042599999999993
 20
57.5128799999999956
 10
10.1608599999999996
 20
57.5596199999999953
 10
10.0232600000000005
 20
57.6150400000000005
 10
9.8919599999999974
 20
57.679780000000008
 10
9.7674400000000006
 20
57.754560000000005
 10
9.6501599999999996
 20
57.8400200000000098
 10
9.5406200000000041
 20
57.9368200000000044
 10
9.4393000000000029
 20
58.0456400000000059
 10
9.34666
 20
58.1671399999999963
 10
9.2631799999999984
 20
58.3019999999999996
 10
9.1893400000000014
 20
58.4508799999999979
 10
9.1256199999999978
 20
58.6144600000000011
 10
9.072499999999998
 20
58.7933800000000062
 10
9.0304799999999972
 20
58.988340000000008
 10
9.0
 20
59.2000000000000028
 10
7.6000000000000014
 20
59.2000000000000028
  0
LWPOLYLINE
  5
45
  8
C18
 62
256
370
-1
  6
ByLayer
100
AcDbEntity
100
AcDbPolyline
 90
139
 70
0
 10
12.6000000000000014
 20
54.6000000000000014
 10
11.3999999999999986
 20
54.2000000000000028
 10
11.4823999999999984
 20
53.9946199999999976
 10
11.5584400000000045
 20
53.7968400000000031
 10
11.6269599999999969
 20
53.6062599999999989
 10
11.6868800000000022
 20
53.4224399999999946
 10
11.7370999999999981
 20
53.2450000000000045
 10
11.7764799999999994
 20
53.0735000000000028
 10
11.8039600000000036
 20
52.9075600000000037
 10
11.8183800000000048
 20
52.7467400000000026
 10
11.8186600000000013
 20
52.5906600000000068
 10
11.8036999999999992
 20
52.4389000000000038
 10
11.7723799999999983
 20
52.2910600000000088
 10
11.7235799999999983
 20
52.1467000000000027
 10
11.6562200000000047
 20
52.0054600000000065
 10
11.5691800000000029
 20
51.866880000000009
 10
11.4613599999999991
 20
51.7306000000000097
 10
11.3316200000000009
 20
51.5961599999999976
 10
11.1788999999999987
 20
51.4632000000000005
 10
11.0020600000000002
 20
51.3312800000000067
 10
10.7999999999999972
 20
51.2000000000000028
 10
10.7999999999999972
 20
54.8000000000000043
 10
10.5939600000000027
 20
54.794399999999996
 10
10.3897600000000025
 20
54.7854600000000005
 10
10.1873199999999997
 20
54.7716599999999971
 10
9.9864999999999995
 20
54.7515200000000064
 10
9.7871999999999986
 20
54.723540000000007
 10
9.5893200000000007
 20
54.686239999999998
 10
9.3927400000000034
 20
54.6381000000000014
 10
9.1973600000000033
 20
54.5776400000000024
 10
9.0030799999999971
 20
54.503380000000007
 10
8.8644999999999996
 20
54.4418800000000047
 10
8.733540000000005
 20
54.3774999999999977
 10
8.6100600000000043
 20
54.3103600000000029
 10
8.493940000000002
 20
54.2405800000000013
 10
8.3850600000000028
 20
54.1682600000000036
 10
8.283299999999997
 20
54.0935399999999973
 10
8.1885400000000033
 20
54.0165000000000006
 10
8.1006600000000049
 20
53.9372800000000012
 10
8.01952
 20
53.8559999999999945
 10
7.9450399999999988
 20
53.7727800000000045
 10
7.8770799999999994
 20
53.6876999999999995
 10
7.8155000000000001
 20
53.6009200000000021
 10
7.7601999999999975
 20
53.512519999999995
 10
7.7110600000000034
 20
53.4226400000000012
 10
7.6679600000000008
 20
53.3313800000000029
 10
7.6307800000000015
 20
53.2388799999999947
 10
7.5994000000000028
 20
53.1452199999999948
 10
7.5736800000000031
 20
53.0505599999999973
 10
7.5535199999999989
 20
52.9549600000000069
 10
7.5388000000000019
 20
52.8586000000000027
 10
7.5294000000000025
 20
52.7615400000000037
 10
7.5251799999999989
 20
52.6639400000000037
 10
7.5260400000000018
 20
52.565880000000007
 10
7.5318600000000018
 20
52.4675000000000011
 10
7.5425200000000032
 20
52.3688999999999965
 10
7.5578799999999973
 20
52.2702000000000027
 10
7.5778400000000019
 20
52.1715400000000074
 10
7.6022600000000011
 20
52.0730000000000075
 10
7.6310399999999987
 20
51.9747200000000049
 10
7.6640599999999992
 20
51.8768000000000029
 10
7.7011800000000008
 20
51.7793599999999969
 10
7.7423000000000002
 20
51.6825200000000038
 10
7.7873000000000019
 20
51.5864000000000047
 10
7.8360200000000049
 20
51.4911200000000022
 10
7.8884000000000043
 20
51.3967800000000068
 10
7.9442799999999991
 20
51.3034999999999997
 10
8.003540000000001
 20
51.2114000000000047
 10
8.0660799999999995
 20
51.1205800000000039
 10
8.1317799999999991
 20
51.0312000000000054
 10
8.2004999999999981
 20
50.9433199999999999
 10
8.272120000000001
 20
50.8571000000000026
 10
8.3465400000000045
 20
50.7726400000000027
 10
8.4236199999999997
 20
50.6900400000000033
 10
8.5032599999999974
 20
50.6094400000000064
 10
8.5853200000000029
 20
50.5309400000000011
 10
8.6696799999999996
 20
50.4546800000000033
 10
8.7562399999999982
 20
50.380740000000003
 10
8.8448599999999971
 20
50.3092600000000019
 10
8.9354200000000006
 20
50.2403600000000026
 10
9.0277999999999992
 20
50.1741400000000013
 10
9.1218999999999966
 20
50.1107200000000006
 10
9.2176000000000045
 20
50.050220000000003
 10
9.3147400000000005
 20
49.9927600000000041
 10
9.4132400000000018
 20
49.938440000000007
 10
9.5129400000000004
 20
49.8873800000000074
 10
9.6137799999999984
 20
49.8397199999999998
 10
9.7155800000000028
 20
49.7955400000000026
 10
9.818240000000003
 20
49.7550000000000026
 10
9.9216600000000028
 20
49.7181600000000046
 10
10.0257000000000005
 20
49.6851800000000026
 10
10.1302400000000006
 20
49.6561800000000062
 10
10.2351600000000005
 20
49.6312400000000054
 10
10.3403399999999976
 20
49.6104800000000026
 10
10.4456600000000037
 20
49.5940400000000068
 10
10.5510000000000019
 20
49.5820400000000063
 10
10.6562399999999968
 20
49.5745799999999974
 10
10.7612799999999993
 20
49.5717600000000047
 10
10.8659600000000012
 20
49.5737200000000016
 10
10.9701999999999984
 20
49.5805799999999977
 10
11.0738400000000041
 20
49.5924400000000034
 10
11.1767800000000008
 20
49.6094200000000001
 10
11.2789199999999994
 20
49.6316199999999981
 10
11.3800999999999988
 20
49.6591999999999985
 10
11.4802200000000028
 20
49.6922399999999982
 10
11.5791600000000017
 20
49.7308600000000069
 10
11.6768000000000001
 20
49.775180000000006
 10
11.7730200000000025
 20
49.8253400000000042
 10
11.8676999999999992
 20
49.8814000000000064
 10
11.960720000000002
 20
49.9435400000000058
 10
12.0519400000000019
 20
50.0118200000000002
 10
12.1412600000000026
 20
50.0863999999999976
 10
12.2285800000000009
 20
50.1673600000000022
 10
12.3137200000000036
 20
50.2548400000000015
 10
12.3966199999999986
 20
50.3489600000000053
 10
12.4771399999999986
 20
50.4498000000000033
 10
12.5551400000000015
 20
50.5575200000000038
 10
12.6305200000000042
 20
50.6722200000000029
 10
12.7031400000000048
 20
50.794000000000004
 10
12.7729199999999992
 20
50.9230000000000018
 10
12.8397000000000006
 20
51.0593200000000067
 10
12.9033799999999985
 20
51.2030799999999999
 10
12.9774000000000029
 20
51.3942600000000027
 10
13.0399000000000029
 20
51.5892200000000045
 10
13.0902400000000014
 20
51.7873400000000004
 10
13.1277800000000013
 20
51.9880800000000036
 10
13.1518799999999985
 20
52.1908200000000022
 10
13.1619200000000021
 20
52.3950000000000102
 10
13.1572400000000016
 20
52.6000000000000014
 10
13.1380199999999974
 20
52.8077199999999962
 10
13.10642
 20
53.0133600000000058
 10
13.0640000000000001
 20
53.2170200000000051
 10
13.0123999999999995
 20
53.4188599999999951
 10
12.9532200000000017
 20
53.6190399999999983
 10
12.8880800000000022
 20
53.8177000000000021
 10
12.8185799999999972
 20
54.0149800000000084
 10
12.7463199999999972
 20
54.2110199999999978
 10
12.6729200000000048
 20
54.4059799999999996
 10
12.6000000000000014
 20
54.6000000000000014
  0
LWPOLYLINE
  5
46
  8
C18
 62
256
370
-1
  6
ByLayer
100
AcDbEntity
100
AcDbPolyline
 90
20
 70
0
 10
22.2000000000000028
 20
54.0
 10
22.2000000000000028
 20
40.8000000000000043
 10
24.8000000000000007
 20
40.8000000000000043
 10
24.8000000000000007
 20
49.8000000000000043
 10
25.0
 20
49.8000000000000043
 10
26.7998444000000013
 20
43.2000000000000028
 10
27.7026246000000036
 20
41.0055571999999984
 10
30.2000000000000028
 20
40.8000000000000043
 10
32.8000000000000043
 20
49.6000000000000014
 10
33.0
 20
49.6000000000000014
 10
33.0
 20
40.8000000000000043
 10
35.6000000000000014
 20
40.8000000000000043
 10
35.6000000000000014
 20
54.0
 10
31.9405853999999998
 20
53.7944458000000054
 10
31.0280853999999984
 20
51.4000000000000057
 10
29.2000000000000028
 20
44.4000000000000057
 10
28.8000000000000007
 20
44.4000000000000057
 10
26.8848753999999985
 20
51.2000000000000028
 10
25.8595672000000008
 20
53.7944458000000054
 10
22.2000000000000028
 20
54.0
  0
LWPOLYLINE
  5
47
  8
C18
 62
256
370
-1
  6
ByLayer
100
AcDbEntity
100
AcDbPolyline
 90
5
 70
0
 10
38.0
 20
54.0
 10
38.0
 20
51.8000000000000043
 10
40.8000000000000043
 20
51.8000000000000043
 10
40.8000000000000043
 20
54.0
 10
38.0
 20
54.0
  0
LWPOLYLINE
  5
48
  8
C18
 62
256
370
-1
  6
ByLayer
100
AcDbEntity
100
AcDbPolyline
 90
5
 70
0
 10
53.6000000000000014
 20
54.0
 10
53.6000000000000014
 20
51.8000000000000043
 10
56.4000000000000057
 20
51.8000000000000043
 10
56.4000000000000057
 20
54.0
 10
53.6000000000000014
 20
54.0
  0
LWPOLYLINE
  5
49
  8
C18
 62
256
370
-1
  6
ByLayer
100
AcDbEntity
100
AcDbPolyline
 90
35
 70
0
 10
45.6000000000000014
 20
49.0
 10
45.6000000000000014
 20
50.4000000000000057
 10
42.8000000000000043
 20
50.4000000000000057
 10
42.8000000000000043
 20
40.8000000000000043
 10
45.6000000000000014
 20
40.8000000000000043
 10
45.598399999999998
 20
40.9765600000000063
 10
45.5938200000000009
 20
41.1586800000000039
 10
45.586660000000002
 20
41.3459400000000059
 10
45.5772600000000025
 20
41.5379000000000076
 10
45.5659800000000033
 20
41.7341400000000036
 10
45.5531600000000054
 20
41.9342400000000026
 10
45.5391800000000018
 20
42.1377799999999993
 10
45.5243800000000078
 20
42.3443400000000025
 10
45.5091400000000021
 20
42.5535000000000068
 10
45.4938199999999995
 20
42.7648200000000003
 10
45.4787600000000012
 20
42.9779000000000053
 10
45.4643200000000007
 20
43.192300000000003
 10
45.4508800000000051
 20
43.4076200000000014
 10
45.4387800000000084
 20
43.6234000000000037
 10
45.4283599999999979
 20
43.839260000000003
 10
45.4200400000000002
 20
44.0547400000000025
 10
45.414120000000004
 20
44.269440000000003
 10
45.4109800000000021
 20
44.4829400000000064
 10
45.4109800000000021
 20
44.6948000000000008
 10
45.4144600000000054
 20
44.9046200000000013
 10
45.4218200000000039
 20
45.1119400000000041
 10
45.4333799999999997
 20
45.3163800000000023
 10
45.4495200000000068
 20
45.5175000000000054
 10
45.4706000000000046
 20
45.7148800000000008
 10
45.4969600000000014
 20
45.9081000000000046
 10
45.528960000000005
 20
46.0967200000000048
 10
45.5669800000000009
 20
46.2803400000000025
 10
45.6113600000000048
 20
46.45852
 10
45.6624800000000022
 20
46.6308400000000063
 10
45.7206800000000015
 20
46.7969000000000008
  0
LWPOLYLINE
  5
4A
  8
C18
 62
256
370
-1
  6
ByLayer
100
AcDbEntity
100
AcDbPolyline
 90
158
 70
0
 10
45.7206600000000023
 20
46.7969000000000008
 10
45.7882600000000082
 20
46.9493600000000058
 10
45.8734400000000022
 20
47.0989000000000004
 10
45.9746200000000016
 20
47.2439999999999998
 10
46.0902400000000014
 20
47.383180000000003
 10
46.2187600000000032
 20
47.5149600000000021
 10
46.3586200000000019
 20
47.6378400000000042
 10
46.5082400000000007
 20
47.7503600000000006
 10
46.6661000000000001
 20
47.8510400000000047
 10
46.830600000000004
 20
47.9383400000000037
 10
47.0002400000000051
 20
48.0108400000000017
 10
47.1734000000000009
 20
48.0670000000000073
 10
47.3485799999999983
 20
48.1053800000000038
 10
47.5241800000000012
 20
48.1244599999999991
 10
47.6986800000000031
 20
48.1227599999999995
 10
47.8704800000000006
 20
48.0988000000000042
 10
48.0380600000000015
 20
48.0511000000000053
 10
48.199860000000001
 20
47.9781800000000018
 10
48.3543200000000013
 20
47.878540000000001
 10
48.4585600000000056
 20
47.7901000000000025
 10
48.5545200000000037
 20
47.6891400000000019
 10
48.6425000000000054
 20
47.5762400000000056
 10
48.7227800000000002
 20
47.4520400000000038
 10
48.7956800000000044
 20
47.3171800000000076
 10
48.8615000000000066
 20
47.1722400000000022
 10
48.9205000000000041
 20
47.0178400000000067
 10
48.9730200000000053
 20
46.8546400000000034
 10
49.0193399999999997
 20
46.6832200000000057
 10
49.059740000000005
 20
46.5042400000000029
 10
49.0945400000000021
 20
46.3182800000000015
 10
49.1240400000000079
 20
46.1259599999999992
 10
49.1485200000000049
 20
45.9279400000000066
 10
49.1682800000000029
 20
45.7248000000000019
 10
49.183640000000004
 20
45.5171800000000033
 10
49.1948600000000056
 20
45.3057000000000016
 10
49.2022800000000018
 20
45.0909600000000026
 10
49.2061600000000041
 20
44.8736000000000033
 10
49.2068000000000012
 20
44.6542400000000015
 10
49.2045400000000015
 20
44.433480000000003
 10
49.199620000000003
 20
44.2119600000000048
 10
49.1923800000000071
 20
43.9903000000000048
 10
49.1831000000000031
 20
43.7691000000000017
 10
49.1720800000000011
 20
43.5490000000000066
 10
49.1596000000000046
 20
43.3306200000000032
 10
49.1460000000000008
 20
43.1145600000000044
 10
49.1315400000000011
 20
42.9014600000000002
 10
49.1165200000000084
 20
42.6919200000000032
 10
49.1012600000000035
 20
42.4865800000000036
 10
49.0860200000000049
 20
42.286040000000007
 10
49.0711400000000069
 20
42.0909400000000034
 10
49.0569000000000059
 20
41.9018800000000056
 10
49.0435799999999986
 20
41.7195000000000036
 10
49.0315000000000012
 20
41.5444200000000023
 10
49.0209400000000031
 20
41.3772400000000005
 10
49.0122200000000063
 20
41.2185800000000029
 10
49.0056200000000004
 20
41.0690800000000067
 10
49.0014400000000023
 20
40.9293400000000034
 10
49.0
 20
40.8000000000000043
 10
51.8000000000000043
 20
40.8000000000000043
 10
51.8004999999999995
 20
40.9079600000000028
 10
51.802020000000006
 20
41.0199800000000039
 10
51.8044399999999996
 20
41.1359400000000051
 10
51.8077000000000041
 20
41.2556800000000052
 10
51.8117200000000082
 20
41.3790600000000026
 10
51.8164400000000001
 20
41.5059200000000033
 10
51.821780000000004
 20
41.6361600000000038
 10
51.8276400000000024
 20
41.7696000000000041
 10
51.8339799999999968
 20
41.9061000000000021
 10
51.8407000000000053
 20
42.0455400000000026
 10
51.8477400000000017
 20
42.1877599999999973
 10
51.8550200000000032
 20
42.3326199999999986
 10
51.8624599999999987
 20
42.4799800000000047
 10
51.8699799999999982
 20
42.6296800000000076
 10
51.8775400000000033
 20
42.7816200000000038
 10
51.8850199999999973
 20
42.9356000000000009
 10
51.8923800000000028
 20
43.0915200000000027
 10
51.8995199999999954
 20
43.2492200000000082
 10
51.9063599999999994
 20
43.4085800000000006
 10
51.912860000000002
 20
43.569420000000008
 10
51.9189200000000071
 20
43.7316199999999995
 10
51.9244600000000034
 20
43.8950200000000024
 10
51.9294399999999996
 20
44.059500000000007
 10
51.9337400000000002
 20
44.2249000000000052
 10
51.9373000000000076
 20
44.3911000000000016
 10
51.9400600000000097
 20
44.5579400000000021
 10
51.9419400000000024
 20
44.7252599999999987
 10
51.942859999999996
 20
44.8929600000000022
 10
51.9427400000000077
 20
45.0608600000000052
 10
51.9414999999999978
 20
45.228820000000006
 10
51.9390999999999963
 20
45.396720000000002
 10
51.9354200000000006
 20
45.5644000000000062
 10
51.9303999999999988
 20
45.7317200000000028
 10
51.9239800000000002
 20
45.8985400000000041
 10
51.9160800000000009
 20
46.0647200000000012
 10
51.9066200000000038
 20
46.2301199999999994
 10
51.8955200000000048
 20
46.3945800000000048
 10
51.8827199999999991
 20
46.5579800000000006
 10
51.8681200000000047
 20
46.7201599999999999
 10
51.8516800000000018
 20
46.880980000000001
 10
51.8333000000000013
 20
47.0402800000000028
 10
51.8129000000000062
 20
47.1979600000000019
 10
51.7904199999999975
 20
47.3538599999999974
 10
51.7657799999999995
 20
47.5078200000000024
 10
51.738900000000001
 20
47.6597000000000008
 10
51.7097200000000043
 20
47.8093800000000044
 10
51.6781600000000054
 20
47.956700000000005
 10
51.6441400000000073
 20
48.1015200000000007
 10
51.6075799999999987
 20
48.2436800000000048
 10
51.5684200000000033
 20
48.3830800000000067
 10
51.5265599999999964
 20
48.5195400000000063
 10
51.4819400000000016
 20
48.6529200000000017
 10
51.434500000000007
 20
48.7831000000000046
 10
51.3841600000000014
 20
48.9099199999999996
 10
51.3308200000000099
 20
49.0332400000000064
 10
51.2744199999999992
 20
49.1529200000000017
 10
51.214880000000008
 20
49.2688200000000052
 10
51.1521600000000021
 20
49.3807800000000015
 10
51.0861200000000011
 20
49.4886800000000022
 10
51.0167399999999986
 20
49.5923600000000064
 10
50.9439399999999978
 20
49.6916800000000052
 10
50.867600000000003
 20
49.7865000000000038
 10
50.787700000000001
 20
49.8766800000000003
 10
50.7041400000000024
 20
49.9620800000000003
 10
50.6168400000000034
 20
50.0425600000000017
 10
50.5257400000000061
 20
50.1179600000000036
 10
50.4307400000000001
 20
50.1881400000000042
 10
50.3318000000000012
 20
50.252980000000008
 10
50.228820000000006
 20
50.3123000000000005
 10
50.1217200000000034
 20
50.3660000000000068
 10
50.0104400000000027
 20
50.4139000000000053
 10
49.8949200000000062
 20
50.4559000000000069
 10
49.7750600000000034
 20
50.4918000000000049
 10
49.6507799999999975
 20
50.5215000000000032
 10
49.5220199999999977
 20
50.5448400000000007
 10
49.3887200000000064
 20
50.5617000000000019
 10
49.2507600000000068
 20
50.5718999999999994
 10
49.1081000000000074
 20
50.5753200000000049
 10
48.9606800000000035
 20
50.5718200000000024
 10
48.8083799999999997
 20
50.561239999999998
 10
48.6511399999999981
 20
50.5434600000000032
 10
48.4889200000000073
 20
50.5183200000000028
 10
48.3216000000000037
 20
50.4856800000000021
 10
48.1491200000000035
 20
50.4454000000000065
 10
47.9714000000000027
 20
50.3973400000000069
 10
47.7883800000000036
 20
50.3413400000000024
 10
47.6000000000000014
 20
50.2773000000000039
 10
47.4146599999999978
 20
50.2041600000000017
 10
47.2352600000000038
 20
50.1201599999999985
 10
47.0610400000000055
 20
50.0267200000000045
 10
46.8911999999999978
 20
49.9253199999999993
 10
46.7250200000000007
 20
49.8173800000000071
 10
46.5617400000000004
 20
49.704340000000002
 10
46.4005600000000058
 20
49.5876400000000004
 10
46.2407600000000016
 20
49.4687400000000039
 10
46.0815600000000032
 20
49.3490800000000007
 10
45.9222000000000037
 20
49.2301199999999994
 10
45.7619400000000027
 20
49.1132600000000039
 10
45.6000000000000014
 20
49.0
  0
LWPOLYLINE
  5
4B
  8
C18
 62
256
370
-1
  6
ByLayer
100
AcDbEntity
100
AcDbPolyline
 90
5
 70
0
 10
38.0
 20
50.4000000000000057
 10
38.0
 20
40.8000000000000043
 10
40.8000000000000043
 20
40.8000000000000043
 10
40.8000000000000043
 20
50.4000000000000057
 10
38.0
 20
50.4000000000000057
  0
LWPOLYLINE
  5
4C
  8
C18
 62
256
370
-1
  6
ByLayer
100
AcDbEntity
100
AcDbPolyline
 90
5
 70
0
 10
53.6000000000000014
 20
50.4000000000000057
 10
53.6000000000000014
 20
40.8000000000000043
 10
56.4000000000000057
 20
40.8000000000000043
 10
56.4000000000000057
 20
50.4000000000000057
 10
53.6000000000000014
 20
50.4000000000000057
  0
LWPOLYLINE
  5
4D
  8
C18
 62
256
370
-1
  6
ByLayer
100
AcDbEntity
100
AcDbPolyline
 90
88
 70
0
 10
7.6000000000000014
 20
49.0
 10
7.6000000000000014
 20
47.8000000000000043
 10
7.3612400000000022
 20
47.7964800000000025
 10
7.1422600000000003
 20
47.786760000000001
 10
6.9424400000000048
 20
47.7693800000000053
 10
6.7611399999999975
 20
47.7429600000000036
 10
6.5977200000000025
 20
47.7060400000000016
 10
6.4515400000000014
 20
47.6572000000000031
 10
6.3220000000000027
 20
47.5950400000000045
 10
6.2084400000000031
 20
47.518100000000004
 10
6.1102599999999967
 20
47.4249599999999987
 10
6.0268000000000015
 20
47.3142200000000059
 10
5.957419999999999
 20
47.1844400000000022
 10
5.9015199999999979
 20
47.0341799999999992
 10
5.8584600000000009
 20
46.8620400000000075
 10
5.8276200000000031
 20
46.6665800000000033
 10
5.8083200000000019
 20
46.4463599999999985
 10
5.7999999999999972
 20
46.2000000000000028
 10
7.6000000000000014
 20
46.2000000000000028
 10
7.6000000000000014
 20
45.2000000000000028
 10
8.7999999999999972
 20
45.2000000000000028
 10
8.8646000000000029
 20
45.3830800000000067
 10
8.9394400000000047
 20
45.542740000000002
 10
9.0238999999999976
 20
45.6804400000000044
 10
9.1174000000000035
 20
45.7977400000000046
 10
9.2193400000000025
 20
45.8961000000000041
 10
9.3291200000000032
 20
45.9770600000000016
 10
9.4461200000000005
 20
46.0421200000000042
 10
9.5697600000000023
 20
46.0927800000000047
 10
9.6994400000000027
 20
46.1305600000000027
 10
9.8345600000000033
 20
46.1569399999999987
 10
9.9745199999999983
 20
46.173480000000005
 10
10.118700000000004
 20
46.1816400000000016
 10
10.2665399999999991
 20
46.1829400000000021
 10
10.4174000000000007
 20
46.1788999999999987
 10
10.5707200000000014
 20
46.171040000000005
 10
10.7258800000000036
 20
46.1608200000000011
 10
10.8822800000000015
 20
46.149799999999999
 10
11.0393200000000036
 20
46.1394600000000068
 10
11.196399999999997
 20
46.1313000000000031
 10
11.3529199999999975
 20
46.1268600000000006
 10
11.5082999999999984
 20
46.1276200000000074
 10
11.6619200000000021
 20
46.1351000000000013
 10
11.8131800000000027
 20
46.1508200000000031
 10
11.9615000000000009
 20
46.1762600000000063
 10
12.1062599999999989
 20
46.2129400000000032
 10
12.2468800000000044
 20
46.2623800000000074
 10
12.3827399999999983
 20
46.3260600000000053
 10
12.5132600000000025
 20
46.405540000000002
 10
12.6539199999999994
 20
46.5245600000000081
 10
12.7678399999999996
 20
46.6663599999999974
 10
12.8576199999999972
 20
46.8277400000000057
 10
12.9258799999999994
 20
47.0056200000000004
 10
12.9752399999999994
 20
47.1968200000000024
 10
13.0083199999999977
 20
47.398220000000002
 10
13.0276999999999958
 20
47.6066800000000043
 10
13.0360399999999998
 20
47.8190600000000074
 10
13.0359199999999973
 20
48.0322200000000024
 10
13.0299399999999963
 20
48.2430400000000077
 10
13.0207600000000028
 20
48.4483600000000081
 10
13.0109599999999972
 20
48.6450400000000016
 10
13.0031600000000012
 20
48.8299800000000062
 10
13.0
 20
49.0
 10
12.0
 20
49.0
 10
11.9567600000000027
 20
48.7956200000000067
 10
11.8967999999999989
 20
48.6143800000000041
 10
11.821159999999999
 20
48.4549400000000006
 10
11.7308999999999983
 20
48.3159800000000033
 10
11.6270400000000009
 20
48.1961799999999982
 10
11.5106400000000022
 20
48.0941800000000015
 10
11.3827799999999968
 20
48.0086799999999982
 10
11.2444600000000037
 20
47.9383400000000037
 10
11.0967600000000033
 20
47.8818200000000047
 10
10.9407399999999981
 20
47.8377800000000022
 10
10.7774199999999993
 20
47.8049200000000027
 10
10.6078600000000023
 20
47.7819000000000074
 10
10.4331000000000031
 20
47.7673800000000028
 10
10.2542200000000037
 20
47.7600400000000036
 10
10.0722400000000007
 20
47.7585400000000035
 10
9.888220000000004
 20
47.7615600000000029
 10
9.7032000000000025
 20
47.7677600000000027
 10
9.5182399999999987
 20
47.7758200000000031
 10
9.3344000000000023
 20
47.7844000000000051
 10
9.1527000000000029
 20
47.7921800000000019
 10
8.9742200000000025
 20
47.7978200000000015
 10
8.7999999999999972
 20
47.8000000000000043
 10
8.7999999999999972
 20
49.0
 10
7.6000000000000014
 20
49.0
  0
LWPOLYLINE
  5
4E
  8
C18
 62
256
370
-1
  6
ByLayer
100
AcDbEntity
100
AcDbPolyline
 90
138
 70
0
 10
8.7999999999999972
 20
41.8000000000000043
 10
9.2000000000000028
 20
44.2000000000000028
 10
8.2000000000000028
 20
44.6000000000000014
 10
8.1135000000000019
 20
44.4293600000000026
 10
8.0309799999999996
 20
44.254400000000004
 10
7.9532000000000025
 20
44.0755800000000022
 10
7.8809200000000033
 20
43.8933000000000035
 10
7.8148400000000038
 20
43.7079999999999984
 10
7.755740000000003
 20
43.5201000000000064
 10
7.704340000000002
 20
43.3300200000000046
 10
7.6614199999999997
 20
43.1382000000000048
 10
7.6277000000000044
 20
42.9450600000000051
 10
7.6039200000000022
 20
42.7510400000000033
 10
7.59084
 20
42.5565400000000054
 10
7.5891999999999982
 20
42.3620200000000011
 10
7.5997399999999971
 20
42.1678800000000038
 10
7.6232200000000034
 20
41.9745800000000031
 10
7.6603800000000035
 20
41.7825200000000052
 10
7.7119399999999985
 20
41.5921200000000013
 10
7.7787000000000006
 20
41.4038400000000024
 10
7.8558599999999998
 20
41.2383600000000001
 10
7.9500600000000006
 20
41.0842600000000004
 10
8.0596000000000032
 20
40.9423999999999992
 10
8.1828399999999988
 20
40.8136800000000051
 10
8.3180800000000019
 20
40.6990200000000044
 10
8.4636799999999965
 20
40.599260000000001
 10
8.6179400000000044
 20
40.5153200000000027
 10
8.7791799999999967
 20
40.4480800000000045
 10
8.9457599999999999
 20
40.3984200000000016
 10
9.1159999999999997
 20
40.3672600000000017
 10
9.2882200000000026
 20
40.3554600000000008
 10
9.4607400000000013
 20
40.3639400000000066
 10
9.6319200000000009
 20
40.3935400000000016
 10
9.800060000000002
 20
40.4451999999999998
 10
9.9634800000000041
 20
40.5198000000000036
 10
10.1205599999999976
 20
40.6182000000000016
 10
10.2695800000000048
 20
40.7413400000000081
 10
10.4005799999999979
 20
40.880980000000001
 10
10.5164000000000044
 20
41.0370800000000031
 10
10.6183800000000019
 20
41.2074599999999975
 10
10.7077999999999989
 20
41.3899400000000028
 10
10.7859600000000029
 20
41.5823400000000021
 10
10.854219999999998
 20
41.7824600000000004
 10
10.9138400000000004
 20
41.9881400000000014
 10
10.9661600000000021
 20
42.197180000000003
 10
11.0124799999999965
 20
42.4074200000000019
 10
11.0541199999999975
 20
42.6166600000000031
 10
11.0923799999999986
 20
42.8227200000000039
 10
11.1285600000000002
 20
43.0234000000000023
 10
11.1640000000000015
 20
43.2165600000000012
 10
11.2000000000000028
 20
43.4000000000000057
 10
11.3847999999999985
 20
43.2909000000000006
 10
11.5412600000000012
 20
43.1752600000000015
 10
11.6709800000000001
 20
43.0534800000000075
 10
11.7755399999999995
 20
42.9259600000000034
 10
11.8565200000000033
 20
42.7931200000000018
 10
11.9154800000000023
 20
42.6553400000000025
 10
11.9540199999999999
 20
42.5130400000000037
 10
11.9737399999999994
 20
42.3666200000000046
 10
11.9761999999999986
 20
42.2164800000000042
 10
11.9629800000000017
 20
42.0630400000000009
 10
11.935680000000005
 20
41.9066800000000015
 10
11.895859999999999
 20
41.7478400000000036
 10
11.8451200000000014
 20
41.5869000000000071
 10
11.7850600000000014
 20
41.4242800000000031
 10
11.7172199999999975
 20
41.2603599999999986
 10
11.6432199999999995
 20
41.0955800000000053
 10
11.5646199999999979
 20
40.9303200000000018
 10
11.4830200000000033
 20
40.7649800000000084
 10
11.3999999999999986
 20
40.6000000000000014
 10
12.6000000000000014
 20
40.2000000000000028
 10
12.6259399999999999
 20
40.2855800000000031
 10
12.6519400000000033
 20
40.3801200000000051
 10
12.67774
 20
40.4830200000000033
 10
12.7031800000000032
 20
40.5937000000000054
 10
12.72804
 20
40.7116000000000042
 10
12.7521399999999971
 20
40.8361600000000067
 10
12.7752600000000029
 20
40.96678
 10
12.7972200000000029
 20
41.1029000000000053
 10
12.8178199999999975
 20
41.243940000000002
 10
12.8368400000000022
 20
41.3893400000000042
 10
12.8541000000000025
 20
41.5385200000000054
 10
12.8694199999999981
 20
41.6908999999999992
 10
12.882559999999998
 20
41.8459200000000067
 10
12.893340000000002
 20
42.0030000000000001
 10
12.9015800000000027
 20
42.1615600000000015
 10
12.9070600000000013
 20
42.3210600000000028
 10
12.9095799999999983
 20
42.4808800000000062
 10
12.9089400000000012
 20
42.6404800000000037
 10
12.9049600000000027
 20
42.7992800000000031
 10
12.8974199999999968
 20
42.9567200000000042
 10
12.8861399999999975
 20
43.1122000000000014
 10
12.8709199999999981
 20
43.2651400000000024
 10
12.85154
 20
43.4149999999999991
 10
12.8278200000000027
 20
43.5612000000000066
 10
12.7995599999999996
 20
43.703160000000004
 10
12.7665599999999984
 20
43.8403200000000055
 10
12.7286199999999994
 20
43.9720800000000054
 10
12.6855400000000031
 20
44.0978800000000035
 10
12.637120000000003
 20
44.2171600000000069
 10
12.5831599999999995
 20
44.3293200000000027
 10
12.5234799999999993
 20
44.4338199999999972
 10
12.4578599999999966
 20
44.5300599999999989
 10
12.3861199999999982
 20
44.6175000000000068
 10
12.3080399999999983
 20
44.6955200000000019
 10
12.2234200000000044
 20
44.7635800000000046
 10
12.1321000000000012
 20
44.8211200000000076
 10
12.0338399999999979
 20
44.8675200000000061
 10
11.9284600000000012
 20
44.9022600000000054
 10
11.8157399999999981
 20
44.9247200000000078
 10
11.6955200000000019
 20
44.9343599999999981
 10
11.5675799999999995
 20
44.9305799999999991
 10
11.4316999999999993
 20
44.9128400000000028
 10
11.2877200000000002
 20
44.8805600000000027
 10
11.1354400000000027
 20
44.8331400000000002
 10
10.9746200000000016
 20
44.7700200000000024
 10
10.805100000000003
 20
44.6906400000000019
 10
10.6266800000000003
 20
44.5944399999999987
 10
10.4731999999999985
 20
44.4935200000000037
 10
10.3403800000000032
 20
44.3803600000000031
 10
10.2258800000000036
 20
44.2562800000000038
 10
10.1273400000000038
 20
44.1226600000000033
 10
10.0424000000000007
 20
43.9808600000000069
 10
9.9687200000000047
 20
43.8322600000000051
 10
9.9039199999999994
 20
43.6782000000000039
 10
9.8456600000000023
 20
43.5200400000000016
 10
9.7916000000000025
 20
43.3591800000000021
 10
9.739379999999997
 20
43.196940000000005
 10
9.6866200000000049
 20
43.0347200000000001
 10
9.6310000000000002
 20
42.8738800000000069
 10
9.5701400000000021
 20
42.7157600000000031
 10
9.5016999999999996
 20
42.5617200000000082
 10
9.4233400000000032
 20
42.4131600000000049
 10
9.3326600000000042
 20
42.2714200000000062
 10
9.2273600000000044
 20
42.1378800000000027
 10
9.1050400000000025
 20
42.0138800000000003
 10
8.9633600000000015
 20
41.9008000000000038
 10
8.7999999999999972
 20
41.8000000000000043
  0
LWPOLYLINE
  5
4F
  8
C18
 62
256
370
-1
  6
ByLayer
100
AcDbEntity
100
AcDbPolyline
 90
139
 70
0
 10
12.6000000000000014
 20
39.4000000000000057
 10
11.3999999999999986
 20
39.0
 10
11.4823999999999984
 20
38.7946200000000019
 10
11.5584400000000045
 20
38.5968599999999995
 10
11.6269599999999969
 20
38.4062600000000032
 10
11.6868800000000022
 20
38.2224399999999989
 10
11.7370999999999981
 20
38.0450000000000017
 10
11.7764999999999986
 20
37.8734999999999999
 10
11.8039600000000036
 20
37.7075600000000009
 10
11.8183800000000048
 20
37.5467399999999998
 10
11.8186800000000005
 20
37.390660000000004
 10
11.8036999999999992
 20
37.238900000000001
 10
11.7723799999999983
 20
37.0910599999999988
 10
11.7236000000000047
 20
36.9466999999999999
 10
11.6562399999999968
 20
36.8054600000000036
 10
11.5692000000000021
 20
36.666879999999999
 10
11.4613599999999991
 20
36.5305800000000005
 10
11.3316400000000002
 20
36.3961600000000018
 10
11.1788999999999987
 20
36.2632000000000048
 10
11.0020600000000002
 20
36.1312799999999967
 10
10.7999999999999972
 20
36.0
 10
10.7999999999999972
 20
39.6000000000000014
 10
10.5964400000000012
 20
39.5983400000000074
 10
10.3929800000000014
 20
39.5953599999999994
 10
10.1899999999999977
 20
39.5888600000000039
 10
9.9878599999999977
 20
39.5766800000000032
 10
9.7869400000000013
 20
39.5566400000000016
 10
9.5876200000000011
 20
39.5265400000000042
 10
9.3902800000000042
 20
39.4842399999999998
 10
9.1953200000000024
 20
39.4275599999999997
 10
9.0030799999999971
 20
39.3543200000000013
 10
8.8624200000000002
 20
39.29054
 10
8.7295799999999986
 20
39.2240000000000038
 10
8.6043999999999983
 20
39.1548400000000072
 10
8.4867600000000039
 20
39.0831200000000081
 10
8.3765199999999993
 20
39.0090000000000003
 10
8.2735800000000026
 20
38.9325600000000023
 10
8.177819999999997
 20
38.8539400000000015
 10
8.0890800000000027
 20
38.773220000000002
 10
8.0072600000000023
 20
38.6905399999999986
 10
7.9322200000000009
 20
38.6060200000000009
 10
7.8638600000000025
 20
38.5197400000000059
 10
7.8020399999999981
 20
38.4318400000000011
 10
7.7466200000000001
 20
38.3424400000000034
 10
7.6974799999999988
 20
38.2516200000000026
 10
7.654519999999998
 20
38.1595200000000006
 10
7.617600000000003
 20
38.0662400000000005
 10
7.5865799999999979
 20
37.9719200000000043
 10
7.5613400000000013
 20
37.8766200000000026
 10
7.5417800000000028
 20
37.7805000000000035
 10
7.5277400000000014
 20
37.6836599999999962
 10
7.5191200000000009
 20
37.5862199999999973
 10
7.5157799999999995
 20
37.4882600000000039
 10
7.5176000000000016
 20
37.3899400000000028
 10
7.5244600000000048
 20
37.2913400000000053
 10
7.5362200000000001
 20
37.1925799999999995
 10
7.5527799999999985
 20
37.0938000000000017
 10
7.5739799999999988
 20
36.9950600000000023
 10
7.5997200000000049
 20
36.8965200000000024
 10
7.6298600000000008
 20
36.7982799999999983
 10
7.6642999999999972
 20
36.7004400000000004
 10
7.7028999999999996
 20
36.6031400000000033
 10
7.7455199999999991
 20
36.506459999999997
 10
7.7920400000000001
 20
36.4105399999999975
 10
7.8423599999999993
 20
36.3154800000000009
 10
7.8963200000000029
 20
36.2213800000000035
 10
7.9538200000000003
 20
36.1283799999999999
 10
8.014719999999997
 20
36.0366
 10
8.0789000000000044
 20
35.9461200000000005
 10
8.1462399999999988
 20
35.8570600000000042
 10
8.2165999999999997
 20
35.7695600000000056
 10
8.2898799999999966
 20
35.6837000000000018
 10
8.3659400000000019
 20
35.5996200000000016
 10
8.4446399999999997
 20
35.5174200000000013
 10
8.5258800000000008
 20
35.4372000000000043
 10
8.609499999999997
 20
35.3591000000000051
 10
8.6954199999999986
 20
35.2832399999999993
 10
8.7834799999999973
 20
35.2096799999999988
 10
8.873580000000004
 20
35.1385800000000046
 10
8.9655800000000028
 20
35.0700600000000051
 10
9.0593599999999981
 20
35.0041999999999973
 10
9.1547800000000024
 20
34.9411200000000051
 10
9.2517199999999988
 20
34.8809400000000025
 10
9.3500799999999984
 20
34.8237799999999993
 10
9.4497
 20
34.7697400000000059
 10
9.5504800000000003
 20
34.7189600000000027
 10
9.6522800000000046
 20
34.671520000000001
 10
9.7549800000000033
 20
34.6275400000000033
 10
9.8584600000000009
 20
34.587139999999998
 10
9.9625800000000027
 20
34.5504400000000018
 10
10.0672399999999982
 20
34.5175400000000039
 10
10.1722800000000007
 20
34.4885599999999997
 10
10.2775999999999996
 20
34.4636199999999988
 10
10.3830600000000004
 20
34.4428200000000047
 10
10.4885400000000004
 20
34.4262800000000055
 10
10.5939400000000035
 20
34.4141000000000048
 10
10.6991000000000014
 20
34.4064200000000042
 10
10.8038999999999987
 20
34.40334
 10
10.90822
 20
34.4049600000000027
 10
11.0119400000000027
 20
34.4114199999999997
 10
11.1149400000000043
 20
34.4228000000000023
 10
11.2170800000000028
 20
34.4392400000000052
 10
11.3182199999999966
 20
34.4608400000000046
 10
11.4182800000000029
 20
34.487720000000003
 10
11.5170999999999992
 20
34.5200000000000031
 10
11.6145599999999973
 20
34.5577800000000011
 10
11.7105400000000017
 20
34.6011600000000001
 10
11.8049200000000027
 20
34.6503000000000014
 10
11.8975599999999986
 20
34.7052600000000027
 10
11.9883600000000001
 20
34.7661800000000056
 10
12.0771599999999992
 20
34.8331799999999987
 10
12.1638599999999997
 20
34.9063400000000001
 10
12.2483199999999997
 20
34.9858200000000039
 10
12.3304200000000037
 20
35.0716999999999999
 10
12.4100400000000022
 20
35.1641000000000048
 10
12.4870599999999996
 20
35.2631399999999999
 10
12.5613400000000013
 20
35.368940000000002
 10
12.6327600000000047
 20
35.481580000000001
 10
12.7012
 20
35.6011999999999986
 10
12.7665199999999999
 20
35.7279200000000046
 10
12.8286000000000016
 20
35.8618400000000008
 10
12.8873400000000018
 20
36.0030800000000042
 10
12.9565599999999961
 20
36.1930400000000034
 10
13.0166800000000009
 20
36.3885199999999998
 10
13.0667399999999958
 20
36.5880999999999972
 10
13.1057799999999958
 20
36.7904200000000046
 10
13.1328400000000016
 20
36.994099999999996
 10
13.1469799999999992
 20
37.1977400000000031
 10
13.1472199999999972
 20
37.3999999999999986
 10
13.1324400000000026
 20
37.6077600000000061
 10
13.1039600000000007
 20
37.813520000000004
 10
13.0635600000000025
 20
38.0174000000000021
 10
13.0131000000000014
 20
38.219459999999998
 10
12.954340000000002
 20
38.4198400000000007
 10
12.8891399999999976
 20
38.6186399999999992
 10
12.8192799999999991
 20
38.8159400000000048
 10
12.7466000000000008
 20
39.0118600000000058
 10
12.6728999999999985
 20
39.2065200000000047
 10
12.6000000000000014
 20
39.4000000000000057
  0
LWPOLYLINE
  5
50
  8
C18
 62
256
370
-1
  6
ByLayer
100
AcDbEntity
100
AcDbPolyline
 90
19
 70
0
 10
22.0
 20
37.0
 10
22.0
 20
23.8000000000000007
 10
24.6000000000000014
 20
23.8000000000000007
 10
24.6000000000000014
 20
32.6000000000000014
 10
24.8000000000000007
 20
32.6000000000000014
 10
26.5339508000000031
 20
26.2000000000000028
 10
27.502005000000004
 20
24.0055557999999998
 10
30.0
 20
23.8000000000000007
 10
32.6000000000000014
 20
32.3999999999999986
 10
32.8000000000000043
 20
32.3999999999999986
 10
32.8000000000000043
 20
23.8000000000000007
 10
35.6000000000000014
 20
23.8000000000000007
 10
35.6000000000000014
 20
37.0
 10
31.7126556000000015
 20
36.7944428000000059
 10
30.7418212000000004
 20
34.2000000000000028
 10
28.8000000000000007
 20
27.4000000000000021
 10
26.6848753999999992
 20
34.2000000000000028
 10
25.6873444000000006
 20
36.7944428000000059
 10
22.0
 20
37.0
  0
LWPOLYLINE
  5
51
  8
C18
 62
256
370
-1
  6
ByLayer
100
AcDbEntity
100
AcDbPolyline
 90
47
 70
0
 10
48.4000000000000057
 20
37.0
 10
48.4000000000000057
 20
23.8000000000000007
 10
51.2000000000000028
 20
23.8000000000000007
 10
52.2000000000000028
 20
27.6000000000000014
 10
52.6000000000000014
 20
27.6000000000000014
 10
52.6705800000000011
 20
27.3616600000000005
 10
52.742440000000002
 20
27.1326000000000036
 10
52.8158200000000022
 20
26.9126399999999997
 10
52.890900000000002
 20
26.7016600000000004
 10
52.9678600000000017
 20
26.4994800000000019
 10
53.0469399999999993
 20
26.3059800000000017
 10
53.1283200000000022
 20
26.1209999999999987
 10
53.2121999999999957
 20
25.9444000000000017
 10
53.2988000000000071
 20
25.7760200000000026
 10
53.3883200000000002
 20
25.6157199999999996
 10
53.4809400000000039
 20
25.4633600000000015
 10
53.5768800000000098
 20
25.318760000000001
 10
53.6763400000000104
 20
25.1818200000000019
 10
53.7794999999999987
 20
25.0523600000000002
 10
53.8866000000000014
 20
24.9302400000000013
 10
53.9978399999999965
 20
24.8153199999999998
 10
54.1133799999999994
 20
24.7074400000000018
 10
54.233460000000008
 20
24.606460000000002
 10
54.3582800000000077
 20
24.5122199999999992
 10
54.4880199999999988
 20
24.4246000000000016
 10
54.6229200000000006
 20
24.3434200000000018
 10
54.7631399999999999
 20
24.2685600000000008
 10
54.9089000000000098
 20
24.199860000000001
 10
55.0604000000000084
 20
24.1371600000000015
 10
55.2178400000000025
 20
24.0803200000000004
 10
55.3814399999999978
 20
24.0292200000000022
 10
55.551400000000001
 20
23.9836600000000004
 10
55.7278800000000061
 20
23.9435399999999987
 10
55.9111400000000032
 20
23.9086999999999996
 10
56.1013400000000075
 20
23.8789600000000029
 10
56.298720000000003
 20
23.8542200000000015
 10
56.5034400000000048
 20
23.8342999999999989
 10
56.7157200000000046
 20
23.8190600000000003
 10
56.9357800000000012
 20
23.8083799999999997
 10
57.163800000000009
 20
23.8020600000000009
 10
57.4000000000000057
 20
23.8000000000000007
 10
54.5013916000000052
 20
29.7151246000000029
 10
57.2000000000000028
 20
33.3999999999999986
 10
54.2179016000000047
 20
33.1944428000000045
 10
51.2000000000000028
 20
30.0
 10
51.2000000000000028
 20
37.0
 10
48.4000000000000057
 20
37.0
  0
LWPOLYLINE
  5
52
  8
C18
 62
256
370
-1
  6
ByLayer
100
AcDbEntity
100
AcDbPolyline
 90
118
 70
0
 10
8.3999999999999986
 20
30.2000000000000028
 10
5.6000000000000014
 20
30.2000000000000028
 10
5.6000000000000014
 20
28.6000000000000014
 10
13.0
 20
28.6000000000000014
 10
13.0
 20
30.2000000000000028
 10
12.9235600000000019
 20
30.1990200000000044
 10
12.8297200000000018
 20
30.1963599999999985
 10
12.7199200000000019
 20
30.1925000000000026
 10
12.5956600000000023
 20
30.1878600000000006
 10
12.4583799999999982
 20
30.1828800000000008
 10
12.3095799999999969
 20
30.1779999999999973
 10
12.1507199999999997
 20
30.1736600000000017
 10
11.9832999999999998
 20
30.1703200000000002
 10
11.8087799999999987
 20
30.1684000000000054
 10
11.628619999999998
 20
30.1683600000000034
 10
11.4443200000000047
 20
30.1706399999999988
 10
11.2573399999999992
 20
30.1756799999999998
 10
11.0691599999999966
 20
30.1839200000000005
 10
10.8812599999999975
 20
30.1957800000000027
 10
10.6950999999999965
 20
30.2117599999999982
 10
10.5121600000000015
 20
30.2322400000000044
 10
10.3339199999999991
 20
30.2576999999999998
 10
10.1618600000000043
 20
30.2885600000000039
 10
9.9974600000000038
 20
30.3252799999999993
 10
9.842179999999999
 20
30.3683000000000014
 10
9.6974799999999988
 20
30.4180600000000041
 10
9.564860000000003
 20
30.4750000000000014
 10
9.4457999999999984
 20
30.5395600000000016
 10
9.3417600000000007
 20
30.6121800000000022
 10
9.2542200000000037
 20
30.6933000000000007
 10
9.1846600000000009
 20
30.7833800000000011
 10
9.1345400000000012
 20
30.8828600000000009
 10
9.1053399999999982
 20
30.9921600000000019
 10
9.0985399999999998
 20
31.1117399999999975
 10
9.1156199999999998
 20
31.2420399999999994
 10
9.1580399999999997
 20
31.383499999999998
 10
9.2272999999999996
 20
31.5365599999999979
 10
9.306440000000002
 20
31.6538599999999981
 10
9.4106000000000023
 20
31.7545999999999999
 10
9.5373799999999989
 20
31.8398600000000016
 10
9.6844400000000022
 20
31.9108000000000018
 10
9.8494200000000021
 20
31.9684799999999996
 10
10.0299400000000034
 20
32.0140400000000014
 10
10.2236800000000017
 20
32.0486000000000004
 10
10.4282400000000024
 20
32.0732599999999977
 10
10.6412600000000026
 20
32.0891400000000004
 10
10.8604200000000048
 20
32.0973600000000019
 10
11.0833200000000005
 20
32.099020000000003
 10
11.3076399999999992
 20
32.095240000000004
 10
11.5309799999999996
 20
32.0871199999999988
 10
11.7510000000000048
 20
32.075800000000001
 10
11.965360000000004
 20
32.0623600000000053
 10
12.1716600000000028
 20
32.0479400000000041
 10
12.3675599999999974
 20
32.0336400000000054
 10
12.5506999999999991
 20
32.0206000000000017
 10
12.7187399999999968
 20
32.0098800000000026
 10
12.8692800000000034
 20
32.0026599999999988
 10
13.0
 20
32.0
 10
13.0
 20
33.6000000000000014
 10
12.8766400000000019
 20
33.6002599999999987
 10
12.7493400000000037
 20
33.6009799999999998
 10
12.6183800000000019
 20
33.6020400000000024
 10
12.4840599999999995
 20
33.6033000000000044
 10
12.34666
 20
33.6046200000000042
 10
12.2064799999999991
 20
33.6058800000000062
 10
12.0638000000000005
 20
33.6069600000000008
 10
11.9189000000000007
 20
33.6077200000000005
 10
11.7721000000000018
 20
33.6080400000000026
 10
11.623660000000001
 20
33.6077600000000061
 10
11.4738800000000012
 20
33.6067999999999998
 10
11.3230599999999981
 20
33.605000000000004
 10
11.1715000000000018
 20
33.6022200000000026
 10
11.019440000000003
 20
33.5983600000000067
 10
10.8672400000000025
 20
33.59328
 10
10.7151199999999989
 20
33.5868400000000022
 10
10.5634200000000007
 20
33.5789400000000029
 10
10.4124199999999973
 20
33.5694000000000017
 10
10.2623999999999995
 20
33.5581400000000016
 10
10.113660000000003
 20
33.5450200000000009
 10
9.9664800000000042
 20
33.5298999999999978
 10
9.821159999999999
 20
33.5126399999999975
 10
9.677979999999998
 20
33.4931400000000039
 10
9.5372399999999971
 20
33.4712400000000017
 10
9.3992199999999997
 20
33.4468400000000017
 10
9.2642000000000024
 20
33.4198000000000022
 10
9.1325199999999995
 20
33.3899800000000013
 10
9.004400000000004
 20
33.3572600000000037
 10
8.8802000000000021
 20
33.3215199999999996
 10
8.7601599999999991
 20
33.2826200000000014
 10
8.6445800000000048
 20
33.2404200000000003
 10
8.5337600000000009
 20
33.19482
 10
8.4279999999999973
 20
33.1456599999999995
 10
8.3275599999999983
 20
33.0928400000000025
 10
8.232759999999999
 20
33.0362000000000009
 10
8.1438800000000029
 20
32.9756399999999985
 10
8.0611999999999995
 20
32.9110000000000014
 10
7.9850199999999987
 20
32.8421800000000061
 10
7.9156200000000041
 20
32.7690400000000039
 10
7.8533000000000044
 20
32.6914400000000001
 10
7.7983600000000024
 20
32.6092800000000054
 10
7.7510600000000025
 20
32.5223999999999975
 10
7.7117199999999997
 20
32.4306800000000024
 10
7.6806200000000047
 20
32.3339999999999961
 10
7.6580399999999997
 20
32.2322200000000052
 10
7.644280000000002
 20
32.1252200000000059
 10
7.63964
 20
32.0128600000000034
 10
7.6443799999999982
 20
31.8950200000000024
 10
7.6588399999999979
 20
31.7715600000000009
 10
7.6832600000000042
 20
31.6423800000000028
 10
7.7179399999999987
 20
31.50732
 10
7.7631999999999977
 20
31.3662600000000005
 10
7.8192999999999984
 20
31.2190600000000025
 10
7.8865399999999966
 20
31.0656200000000027
 10
7.9652000000000029
 20
30.90578
 10
8.0555999999999983
 20
30.7394200000000026
 10
8.1580000000000013
 20
30.5664400000000001
 10
8.2727000000000004
 20
30.3866600000000027
 10
8.3999999999999986
 20
30.2000000000000028
  0
LWPOLYLINE
  5
53
  8
C18
 62
256
370
-1
  6
ByLayer
100
AcDbEntity
100
AcDbPolyline
 90
215
 70
0
 10
37.8000000000000043
 20
32.0
 10
39.0
 20
30.2000000000000028
 10
39.2000000000000028
 20
30.2000000000000028
 10
39.3267600000000073
 20
30.2885800000000032
 10
39.4584800000000016
 20
30.3772800000000025
 10
39.5946600000000046
 20
30.465480000000003
 10
39.734880000000004
 20
30.5525599999999997
 10
39.8786200000000051
 20
30.6379000000000019
 10
40.0254600000000025
 20
30.7208600000000018
 10
40.1749200000000002
 20
30.8008400000000009
 10
40.3265200000000021
 20
30.8771799999999992
 10
40.4798200000000037
 20
30.9492800000000017
 10
40.6343200000000024
 20
31.0165200000000034
 10
40.7896000000000072
 20
31.0782600000000002
 10
40.9451600000000013
 20
31.1338800000000013
 10
41.1005400000000023
 20
31.1827600000000018
 10
41.2552599999999998
 20
31.224260000000001
 10
41.4089000000000027
 20
31.2577800000000039
 10
41.5609600000000015
 20
31.2826799999999992
 10
41.71096
 20
31.2983600000000024
 10
41.8584800000000001
 20
31.3041600000000031
 10
42.0030199999999994
 20
31.2994599999999998
 10
42.1441400000000002
 20
31.2836599999999976
 10
42.2813400000000001
 20
31.2561199999999992
 10
42.4141800000000018
 20
31.2162199999999999
 10
42.5421800000000019
 20
31.1633400000000016
 10
42.6649000000000029
 20
31.0968400000000003
 10
42.7818400000000025
 20
31.0161200000000008
 10
42.8925600000000031
 20
30.9205199999999998
 10
42.9965800000000016
 20
30.8094600000000014
 10
43.0934400000000011
 20
30.6822799999999987
 10
43.1826800000000048
 20
30.5383600000000008
 10
43.2638400000000019
 20
30.3771000000000022
 10
43.3364200000000039
 20
30.1978400000000029
 10
43.4000000000000057
 20
30.0
 10
43.21828
 20
29.9852600000000002
 10
43.0323800000000034
 20
29.9692799999999977
 10
42.842720000000007
 20
29.9517999999999986
 10
42.6497799999999998
 20
29.9325800000000015
 10
42.4540000000000077
 20
29.9114000000000004
 10
42.2558400000000063
 20
29.8879799999999989
 10
42.0557400000000001
 20
29.8620999999999981
 10
41.854140000000001
 20
29.8335000000000008
 10
41.6515400000000042
 20
29.8019600000000047
 10
41.4483400000000017
 20
29.767240000000001
 10
41.2450200000000038
 20
29.7290799999999997
 10
41.0420200000000079
 20
29.6872400000000027
 10
40.8398000000000039
 20
29.6414800000000014
 10
40.6388200000000026
 20
29.5915600000000012
 10
40.4395000000000024
 20
29.5372599999999998
 10
40.2423200000000065
 20
29.4783000000000044
 10
40.0477400000000046
 20
29.4144400000000026
 10
39.8561800000000019
 20
29.3454600000000028
 10
39.6681200000000018
 20
29.2711200000000034
 10
39.4840000000000018
 20
29.1911600000000035
 10
39.3042800000000057
 20
29.1053400000000018
 10
39.1293799999999976
 20
29.0134400000000028
 10
38.9598000000000013
 20
28.9151799999999994
 10
38.795960000000008
 20
28.8103599999999993
 10
38.6383200000000002
 20
28.6987000000000023
 10
38.4873400000000032
 20
28.5799800000000026
 10
38.3434600000000003
 20
28.4539400000000029
 10
38.2071400000000025
 20
28.3203600000000009
 10
38.0788400000000067
 20
28.179000000000002
 10
37.9659800000000018
 20
28.0381600000000013
 10
37.8636000000000053
 20
27.8925799999999988
 10
37.7716200000000057
 20
27.7427200000000056
 10
37.68994
 20
27.589100000000002
 10
37.6184799999999981
 20
27.4322000000000017
 10
37.5571399999999969
 20
27.2725000000000044
 10
37.5058199999999999
 20
27.1105200000000046
 10
37.4644600000000025
 20
26.9467199999999991
 10
37.4329400000000021
 20
26.7816399999999994
 10
37.4111800000000017
 20
26.6157199999999996
 10
37.3990999999999971
 20
26.4494800000000012
 10
37.3966200000000057
 20
26.2834000000000003
 10
37.4036200000000036
 20
26.1179800000000029
 10
37.4200200000000009
 20
25.9537200000000006
 10
37.4457400000000007
 20
25.7911000000000001
 10
37.4807000000000059
 20
25.6306200000000004
 10
37.524799999999999
 20
25.4727800000000002
 10
37.5779400000000052
 20
25.3180600000000027
 10
37.6400199999999998
 20
25.1669400000000003
 10
37.7110000000000056
 20
25.0199400000000018
 10
37.7907399999999996
 20
24.8775399999999998
 10
37.8791800000000052
 20
24.7402200000000008
 10
37.976220000000005
 20
24.6085000000000029
 10
38.081780000000002
 20
24.4828399999999995
 10
38.1957400000000007
 20
24.3637599999999992
 10
38.3180600000000027
 20
24.2517600000000009
 10
38.448599999999999
 20
24.1473000000000013
 10
38.587299999999999
 20
24.0508800000000029
 10
38.7340599999999995
 20
23.963000000000001
 10
38.8888200000000026
 20
23.8841600000000014
 10
39.0514400000000066
 20
23.8148599999999995
 10
39.2218599999999995
 20
23.7555600000000027
 10
39.4000000000000057
 20
23.706780000000002
 10
39.6005600000000015
 20
23.6655000000000015
 10
39.8005200000000059
 20
23.6370399999999989
 10
39.9997000000000043
 20
23.6209400000000009
 10
40.1979000000000042
 20
23.6167000000000016
 10
40.3949800000000039
 20
23.62378
 10
40.5907200000000046
 20
23.6417399999999986
 10
40.7850000000000037
 20
23.6700400000000002
 10
40.9775800000000032
 20
23.7082000000000015
 10
41.1683400000000006
 20
23.7557200000000002
 10
41.3570600000000042
 20
23.8121200000000002
 10
41.5435999999999979
 20
23.8769000000000027
 10
41.7277400000000043
 20
23.9495399999999989
 10
41.9093599999999995
 20
24.0295600000000036
 10
42.0882400000000061
 20
24.1164600000000036
 10
42.2642200000000017
 20
24.2097600000000028
 10
42.4371200000000002
 20
24.3089400000000033
 10
42.6067600000000084
 20
24.4135200000000019
 10
42.772980000000004
 20
24.5229999999999997
 10
42.9355800000000016
 20
24.6368800000000014
 10
43.0944000000000074
 20
24.7546800000000005
 10
43.2492599999999996
 20
24.8758800000000022
 10
43.4000000000000057
 20
25.0
 10
43.6000000000000014
 20
23.8000000000000007
 10
46.4000000000000057
 20
23.8000000000000007
 10
46.3940800000000024
 20
23.966540000000002
 10
46.3902800000000042
 20
24.138180000000002
 10
46.3884000000000043
 20
24.3146200000000015
 10
46.3882800000000017
 20
24.4955800000000039
 10
46.3897200000000041
 20
24.6807799999999986
 10
46.3925000000000054
 20
24.8699399999999997
 10
46.3964800000000039
 20
25.0627600000000008
 10
46.401440000000008
 20
25.2589800000000011
 10
46.4072000000000031
 20
25.4583200000000005
 10
46.4135600000000039
 20
25.6605000000000025
 10
46.4203600000000023
 20
25.8652200000000008
 10
46.4273799999999994
 20
26.0722200000000015
 10
46.4344600000000014
 20
26.2812200000000047
 10
46.4413800000000023
 20
26.4919000000000011
 10
46.4479800000000012
 20
26.7040399999999991
 10
46.4540599999999984
 20
26.9173000000000009
 10
46.4594400000000007
 20
27.1314399999999978
 10
46.4639000000000024
 20
27.3461599999999976
 10
46.4672800000000024
 20
27.561200000000003
 10
46.4694000000000074
 20
27.7762400000000014
 10
46.4700400000000045
 20
27.9910399999999981
 10
46.4690400000000068
 20
28.2052800000000019
 10
46.4662000000000006
 20
28.418720000000004
 10
46.4613200000000006
 20
28.6310400000000023
 10
46.4542399999999986
 20
28.8420000000000023
 10
46.444740000000003
 20
29.0512800000000055
 10
46.4326599999999985
 20
29.2586200000000041
 10
46.4177800000000005
 20
29.4637400000000014
 10
46.3999400000000009
 20
29.6663400000000053
 10
46.3789400000000001
 20
29.8661600000000043
 10
46.3546000000000049
 20
30.0629200000000054
 10
46.3267000000000024
 20
30.2563200000000023
 10
46.295100000000005
 20
30.446080000000002
 10
46.2595799999999997
 20
30.6319400000000002
 10
46.2199400000000082
 20
30.8136200000000002
 10
46.1760200000000012
 20
30.9908000000000037
 10
46.1276200000000074
 20
31.1632400000000018
 10
46.0745600000000053
 20
31.3306400000000025
 10
46.0166400000000024
 20
31.4927399999999977
 10
45.9536800000000056
 20
31.6492200000000032
 10
45.8854800000000012
 20
31.7998400000000032
 10
45.7982200000000006
 20
31.9700400000000009
 10
45.7047799999999995
 20
32.1306399999999996
 10
45.6053600000000046
 20
32.2818200000000033
 10
45.5002000000000066
 20
32.4237400000000022
 10
45.3894999999999982
 20
32.5566400000000016
 10
45.2734800000000064
 20
32.6806600000000032
 10
45.1523600000000016
 20
32.7960399999999979
 10
45.0263600000000039
 20
32.9029200000000017
 10
44.8956799999999987
 20
33.0015000000000001
 10
44.7605399999999989
 20
33.0920000000000059
 10
44.6211600000000033
 20
33.1745600000000067
 10
44.4777400000000043
 20
33.2494200000000006
 10
44.3305400000000063
 20
33.3167199999999966
 10
44.1797400000000025
 20
33.3766999999999996
 10
44.0255600000000058
 20
33.4295000000000044
 10
43.868220000000008
 20
33.475360000000002
 10
43.7079200000000014
 20
33.5144200000000012
 10
43.5449200000000047
 20
33.5468800000000016
 10
43.379400000000004
 20
33.5729600000000019
 10
43.2115799999999979
 20
33.5928200000000032
 10
43.0416800000000066
 20
33.606659999999998
 10
42.8699200000000076
 20
33.6146600000000007
 10
42.6965199999999996
 20
33.6170200000000037
 10
42.5216800000000035
 20
33.6139200000000002
 10
42.3456200000000038
 20
33.6055400000000049
 10
42.1685600000000065
 20
33.5921000000000021
 10
41.9907200000000032
 20
33.57376
 10
41.8123199999999997
 20
33.5507200000000054
 10
41.6335600000000028
 20
33.5231800000000035
 10
41.4546800000000033
 20
33.4913200000000018
 10
41.2758800000000008
 20
33.4553000000000011
 10
41.0973600000000019
 20
33.4153599999999997
 10
40.9193600000000046
 20
33.3716600000000057
 10
40.7421000000000006
 20
33.324380000000005
 10
40.5657800000000037
 20
33.2737399999999965
 10
40.3906200000000055
 20
33.2199000000000026
 10
40.2168400000000048
 20
33.1630800000000008
 10
40.0446400000000011
 20
33.1034199999999998
 10
39.8742599999999996
 20
33.041160000000005
 10
39.7059000000000069
 20
32.9764599999999959
 10
39.5398000000000067
 20
32.9095200000000006
 10
39.3761399999999995
 20
32.8405199999999979
 10
39.2151599999999974
 20
32.7696600000000018
 10
39.0570800000000062
 20
32.6971200000000053
 10
38.9021000000000043
 20
32.6230800000000016
 10
38.7504399999999976
 20
32.5477600000000038
 10
38.6023199999999989
 20
32.4713199999999986
 10
38.4579400000000078
 20
32.3939599999999999
 10
38.317540000000001
 20
32.3158799999999999
 10
38.1813399999999987
 20
32.237240000000007
 10
38.0495400000000004
 20
32.1582600000000056
 10
37.9223400000000055
 20
32.0791200000000032
 10
37.8000000000000043
 20
32.0
  0
LWPOLYLINE
  5
54
  8
C18
 62
256
370
-1
  6
ByLayer
100
AcDbEntity
100
AcDbPolyline
 90
217
 70
0
 10
66.6000000000000085
 20
25.0
 10
66.6000000000000085
 20
25.2000000000000028
 10
65.6000000000000085
 20
26.6000000000000014
 10
65.4415200000000112
 20
26.5490400000000051
 10
65.2825399999999973
 20
26.4964200000000005
 10
65.1232399999999956
 20
26.4425799999999995
 10
64.9637400000000014
 20
26.3880000000000017
 10
64.8042200000000008
 20
26.3331400000000002
 10
64.6448200000000099
 20
26.2784400000000034
 10
64.4856999999999942
 20
26.2243600000000043
 10
64.3270200000000045
 20
26.1713799999999992
 10
64.1688999999999936
 20
26.119959999999999
 10
64.0115400000000108
 20
26.0705200000000019
 10
63.855080000000001
 20
26.0235599999999998
 10
63.6996599999999944
 20
25.9795400000000001
 10
63.5454399999999993
 20
25.938880000000001
 10
63.3925800000000024
 20
25.9020800000000015
 10
63.2412400000000048
 20
25.8695800000000027
 10
63.0915600000000083
 20
25.841860000000004
 10
62.9437000000000069
 20
25.8193400000000004
 10
62.7977999999999952
 20
25.8025200000000012
 10
62.654040000000002
 20
25.7918400000000041
 10
62.5125800000000069
 20
25.787740000000003
 10
62.3735400000000055
 20
25.7907200000000003
 10
62.237080000000006
 20
25.8012200000000007
 10
62.1033800000000085
 20
25.819700000000001
 10
61.9725800000000078
 20
25.8466200000000015
 10
61.8448400000000049
 20
25.8824400000000026
 10
61.7203000000000017
 20
25.9276200000000046
 10
61.5991200000000063
 20
25.982600000000005
 10
61.4814600000000056
 20
26.0478799999999993
 10
61.3674800000000005
 20
26.1238800000000033
 10
61.2573000000000008
 20
26.2111000000000018
 10
61.1511200000000059
 20
26.3099600000000038
 10
61.0490800000000036
 20
26.4209200000000024
 10
60.9513000000000034
 20
26.5444800000000001
 10
60.8579799999999977
 20
26.6810600000000022
 10
60.7692600000000027
 20
26.8311400000000013
 10
60.685299999999998
 20
26.9951599999999985
 10
60.6062200000000004
 20
27.1736000000000004
 10
60.5322199999999953
 20
27.3669200000000004
 10
60.4634199999999993
 20
27.575560000000003
 10
60.4000000000000057
 20
27.8000000000000007
 10
66.7999999999999972
 20
27.8000000000000007
 10
66.7951599999999956
 20
27.9908599999999979
 10
66.7882600000000082
 20
28.1837800000000023
 10
66.7790399999999948
 20
28.3784400000000012
 10
66.7671600000000041
 20
28.5744399999999992
 10
66.7523599999999959
 20
28.7714400000000019
 10
66.7343000000000046
 20
28.9690999999999974
 10
66.7127200000000045
 20
29.1670599999999993
 10
66.6873000000000076
 20
29.3649600000000035
 10
66.657740000000004
 20
29.5624600000000015
 10
66.623739999999998
 20
29.7591999999999999
 10
66.5850200000000001
 20
29.9548200000000016
 10
66.5412600000000083
 20
30.1489600000000024
 10
66.4921800000000047
 20
30.3412800000000011
 10
66.4374800000000079
 20
30.5314399999999999
 10
66.3768400000000014
 20
30.7190600000000025
 10
66.3100000000000023
 20
30.9038000000000039
 10
66.2366200000000021
 20
31.0853000000000037
 10
66.1564200000000113
 20
31.2632000000000012
 10
66.0691000000000059
 20
31.4371800000000015
 10
65.9743600000000043
 20
31.6068400000000018
 10
65.8719200000000029
 20
31.7718600000000002
 10
65.7614599999999996
 20
31.9318800000000032
 10
65.6426799999999986
 20
32.0865400000000065
 10
65.5152800000000042
 20
32.2354800000000026
 10
65.3790000000000049
 20
32.3783799999999999
 10
65.2498199999999997
 20
32.5006199999999978
 10
65.1159999999999997
 20
32.6158599999999979
 10
64.977800000000002
 20
32.7241399999999985
 10
64.8354400000000055
 20
32.8254999999999981
 10
64.6891600000000011
 20
32.9200000000000017
 10
64.5392200000000003
 20
33.0076999999999998
 10
64.3858600000000081
 20
33.0886399999999981
 10
64.2293000000000092
 20
33.162860000000002
 10
64.0698000000000008
 20
33.2304400000000015
 10
63.9076200000000014
 20
33.2913799999999966
 10
63.7429600000000107
 20
33.3457800000000049
 10
63.5760800000000046
 20
33.3936600000000041
 10
63.4072400000000016
 20
33.43506
 10
63.2366600000000005
 20
33.4700800000000029
 10
63.0645800000000065
 20
33.4987199999999987
 10
62.8912600000000026
 20
33.5210399999999993
 10
62.716940000000001
 20
33.5371000000000024
 10
62.5418599999999998
 20
33.5469600000000057
 10
62.3662400000000048
 20
33.5506400000000014
 10
62.1903599999999983
 20
33.5482200000000006
 10
62.0144200000000012
 20
33.5397200000000026
 10
61.8386999999999958
 20
33.5252200000000045
 10
61.6634200000000021
 20
33.5047399999999982
 10
61.4888400000000104
 20
33.4783600000000021
 10
61.315179999999998
 20
33.4461000000000013
 10
61.1426799999999986
 20
33.4080399999999997
 10
60.9716200000000015
 20
33.3642000000000039
 10
60.8022000000000062
 20
33.3146400000000042
 10
60.634680000000003
 20
33.259440000000005
 10
60.4693200000000104
 20
33.198599999999999
 10
60.3063200000000066
 20
33.1322000000000045
 10
60.1459600000000023
 20
33.0602799999999988
 10
59.9884600000000034
 20
32.9829000000000008
 10
59.8340600000000009
 20
32.9001000000000019
 10
59.6830400000000054
 20
32.8119200000000006
 10
59.5355800000000102
 20
32.7184200000000018
 10
59.3919800000000038
 20
32.6196800000000025
 10
59.2524599999999992
 20
32.5157000000000025
 10
59.1172400000000096
 20
32.4065399999999997
 10
58.9866000000000028
 20
32.2922799999999981
 10
58.8607600000000062
 20
32.1729400000000041
 10
58.7399599999999964
 20
32.0486000000000004
 10
58.624440000000007
 20
31.9192600000000049
 10
58.514480000000006
 20
31.7850199999999994
 10
58.4102600000000081
 20
31.645900000000001
 10
58.3120800000000088
 20
31.501960000000004
 10
58.2201400000000078
 20
31.3532600000000023
 10
58.1347200000000086
 20
31.1998400000000018
 10
58.0464600000000033
 20
31.0273000000000039
 10
57.9641400000000004
 20
30.8559199999999976
 10
57.8876999999999953
 20
30.6857600000000019
 10
57.8170200000000065
 20
30.516840000000002
 10
57.7520800000000065
 20
30.349180000000004
 10
57.6927599999999998
 20
30.1828199999999995
 10
57.6390000000000029
 20
30.0178000000000011
 10
57.5907200000000046
 20
29.854140000000001
 10
57.5478600000000071
 20
29.6918799999999976
 10
57.5103399999999993
 20
29.5310400000000044
 10
57.4780800000000056
 20
29.3716600000000057
 10
57.4510200000000069
 20
29.2137999999999991
 10
57.4290600000000069
 20
29.0574400000000033
 10
57.4121400000000008
 20
28.9026599999999974
 10
57.400180000000006
 20
28.7494800000000019
 10
57.3931200000000032
 20
28.5978999999999992
 10
57.3908600000000035
 20
28.448000000000004
 10
57.393340000000002
 20
28.2997799999999984
 10
57.400500000000001
 20
28.1532800000000023
 10
57.4122399999999971
 20
28.00854
 10
57.4284800000000075
 20
27.8656000000000006
 10
57.4491800000000055
 20
27.7244600000000005
 10
57.4742400000000018
 20
27.5852000000000004
 10
57.5035999999999987
 20
27.4478000000000009
 10
57.5371600000000001
 20
27.3123400000000025
 10
57.574860000000001
 20
27.1788200000000018
 10
57.6166399999999967
 20
27.0472800000000007
 10
57.6624000000000052
 20
26.9177600000000012
 10
57.7120800000000074
 20
26.7902800000000028
 10
57.7655999999999992
 20
26.6649000000000029
 10
57.8229000000000042
 20
26.5416200000000018
 10
57.8838800000000049
 20
26.4204799999999977
 10
57.9484799999999964
 20
26.3015400000000028
 10
58.0166200000000032
 20
26.1848000000000027
 10
58.088239999999999
 20
26.0702999999999996
 10
58.1632400000000018
 20
25.9580800000000025
 10
58.2415600000000069
 20
25.8481600000000036
 10
58.3231199999999959
 20
25.7406000000000006
 10
58.4078600000000066
 20
25.6354000000000006
 10
58.4956999999999994
 20
25.5326200000000014
 10
58.5865400000000065
 20
25.4322599999999994
 10
58.6803400000000011
 20
25.3344000000000023
 10
58.777000000000001
 20
25.23902
 10
58.8764600000000016
 20
25.1461800000000011
 10
58.9786399999999986
 20
25.0559200000000004
 10
59.0834600000000023
 20
24.9682400000000015
 10
59.1908600000000007
 20
24.8832200000000014
 10
59.3007399999999976
 20
24.8008600000000001
 10
59.4130600000000015
 20
24.7211800000000039
 10
59.5277200000000022
 20
24.6442600000000027
 10
59.6446400000000096
 20
24.5700800000000008
 10
59.763779999999997
 20
24.4987200000000023
 10
59.8850199999999973
 20
24.43018
 10
60.0083200000000048
 20
24.3645000000000032
 10
60.1335799999999949
 20
24.3017000000000003
 10
60.2607600000000048
 20
24.2418600000000026
 10
60.3897399999999962
 20
24.1849600000000038
 10
60.5204799999999992
 20
24.1310399999999987
 10
60.6529000000000025
 20
24.0801600000000029
 10
60.7869200000000021
 20
24.0323400000000014
 10
60.9224399999999946
 20
23.9876200000000033
 10
61.0594399999999951
 20
23.9460000000000015
 10
61.1977800000000016
 20
23.9075400000000009
 10
61.337440000000008
 20
23.8722800000000035
 10
61.4783400000000029
 20
23.8402200000000022
 10
61.6203600000000051
 20
23.811440000000001
 10
61.7634800000000084
 20
23.7859200000000008
 10
61.9075799999999958
 20
23.7637200000000028
 10
62.0526200000000046
 20
23.744880000000002
 10
62.1985000000000028
 20
23.7294200000000011
 10
62.3451599999999999
 20
23.7173800000000021
 10
62.4925399999999982
 20
23.7087800000000009
 10
62.6405200000000093
 20
23.7036599999999993
 10
62.7890599999999992
 20
23.702060000000003
 10
62.9380800000000065
 20
23.7040000000000006
 10
63.0875199999999978
 20
23.7095200000000013
 10
63.2372600000000062
 20
23.7186599999999999
 10
63.3872600000000048
 20
23.73142
 10
63.5374400000000037
 20
23.7478800000000021
 10
63.687739999999998
 20
23.7680399999999992
 10
63.8380400000000066
 20
23.7919400000000003
 10
63.9883200000000016
 20
23.8196000000000012
 10
64.1384599999999949
 20
23.8510799999999996
 10
64.2884200000000021
 20
23.8864000000000019
 10
64.4381000000000057
 20
23.9255800000000001
 10
64.5874199999999945
 20
23.9686599999999999
 10
64.7363399999999984
 20
24.0157000000000025
 10
64.8847600000000142
 20
24.0666800000000016
 10
65.0326199999999943
 20
24.1216800000000013
 10
65.1798199999999923
 20
24.1807200000000009
 10
65.3263000000000034
 20
24.2438000000000002
 10
65.4720000000000084
 20
24.3110000000000035
 10
65.6168200000000041
 20
24.3823200000000035
 10
65.7606999999999999
 20
24.4578000000000024
 10
65.903560000000013
 20
24.5375000000000014
 10
66.0453399999999959
 20
24.6214000000000013
 10
66.1859400000000022
 20
24.7095800000000025
 10
66.3253000000000128
 20
24.8020400000000016
 10
66.4633400000000023
 20
24.8988400000000034
 10
66.6000000000000085
 20
25.0
  0
LWPOLYLINE
  5
55
  8
C18
 62
256
370
-1
  6
ByLayer
100
AcDbEntity
100
AcDbPolyline
 90
102
 70
0
 10
71.4000000000000057
 20
32.0
 10
71.3840600000000052
 20
32.2216799999999992
 10
71.3521800000000042
 20
32.4198400000000007
 10
71.3051200000000023
 20
32.5957399999999993
 10
71.2436799999999977
 20
32.7506800000000027
 10
71.1686600000000027
 20
32.8858999999999995
 10
71.0808600000000013
 20
33.0026999999999973
 10
70.981039999999993
 20
33.1023199999999989
 10
70.870040000000003
 20
33.1860599999999977
 10
70.7486200000000025
 20
33.2551800000000028
 10
70.6175800000000038
 20
33.3109600000000015
 10
70.477720000000005
 20
33.3546400000000034
 10
70.3298400000000044
 20
33.3875400000000013
 10
70.1747200000000078
 20
33.410899999999998
 10
70.013140000000007
 20
33.4260000000000019
 10
69.8459399999999988
 20
33.4341000000000008
 10
69.6738600000000048
 20
33.4365000000000023
 10
69.4977200000000011
 20
33.4344400000000022
 10
69.3183200000000141
 20
33.4292200000000008
 10
69.1364200000000011
 20
33.4220800000000011
 10
68.9528600000000012
 20
33.4143199999999965
 10
68.7683999999999997
 20
33.4072000000000031
 10
68.583839999999995
 20
33.402000000000001
 10
68.4000000000000057
 20
33.3999999999999986
 10
68.4000000000000057
 20
23.8000000000000007
 10
71.4000000000000057
 20
23.8000000000000007
 10
71.3991000000000042
 20
23.9615800000000014
 10
71.3966000000000065
 20
24.1249800000000008
 10
71.3926400000000001
 20
24.2899799999999999
 10
71.3874600000000044
 20
24.4564600000000034
 10
71.3812599999999975
 20
24.6242200000000011
 10
71.3742200000000082
 20
24.7931000000000026
 10
71.3665400000000005
 20
24.9629600000000025
 10
71.3584400000000016
 20
25.1336000000000013
 10
71.3500999999999976
 20
25.3048600000000015
 10
71.3417400000000015
 20
25.476580000000002
 10
71.3335400000000135
 20
25.6486200000000011
 10
71.325720000000004
 20
25.8207600000000035
 10
71.3184600000000017
 20
25.9928600000000039
 10
71.3119599999999991
 20
26.1647800000000039
 10
71.3064399999999949
 20
26.3363000000000014
 10
71.3020999999999958
 20
26.5073000000000008
 10
71.2991200000000021
 20
26.6775800000000025
 10
71.2977000000000061
 20
26.8470000000000049
 10
71.2980600000000067
 20
27.0153800000000004
 10
71.3003800000000041
 20
27.1825600000000023
 10
71.3048800000000114
 20
27.3483600000000031
 10
71.3117600000000067
 20
27.5126199999999983
 10
71.3212000000000046
 20
27.675180000000001
 10
71.3333999999999975
 20
27.8358799999999995
 10
71.3485800000000125
 20
27.9945400000000006
 10
71.3669200000000075
 20
28.1509800000000006
 10
71.3886399999999952
 20
28.3050599999999974
 10
71.4139400000000109
 20
28.4566200000000009
 10
71.4429999999999978
 20
28.6054600000000008
 10
71.4760200000000054
 20
28.7514200000000031
 10
71.5132399999999961
 20
28.8943600000000025
 10
71.5548000000000002
 20
29.0341000000000022
 10
71.6009400000000085
 20
29.1704799999999977
 10
71.6518599999999992
 20
29.3033000000000037
 10
71.7077599999999933
 20
29.4324400000000033
 10
71.7687999999999988
 20
29.5577000000000005
 10
71.8352399999999989
 20
29.6789200000000015
 10
71.9072400000000016
 20
29.7959600000000044
 10
71.9850200000000058
 20
29.9086200000000026
 10
72.0687599999999975
 20
30.0167399999999986
 10
72.1586800000000039
 20
30.1201800000000013
 10
72.2549600000000112
 20
30.2187400000000039
 10
72.3578200000000038
 20
30.3122599999999984
 10
72.4674600000000027
 20
30.4005999999999972
 10
72.584060000000008
 20
30.4835600000000007
 10
72.7078400000000045
 20
30.5610000000000035
 10
72.8389800000000065
 20
30.6327200000000026
 10
72.977720000000005
 20
30.698599999999999
 10
73.1242000000000019
 20
30.758420000000001
 10
73.2786799999999943
 20
30.8120600000000024
 10
73.4413200000000046
 20
30.8593399999999995
 10
73.6123199999999969
 20
30.9000800000000027
 10
73.7919200000000046
 20
30.9341200000000036
 10
73.9802800000000076
 20
30.9613000000000014
 10
74.1775999999999982
 20
30.9814399999999992
 10
74.3841199999999958
 20
30.9944000000000024
 10
74.6000000000000085
 20
31.0
 10
74.6000000000000085
 20
33.6000000000000014
 10
74.3820600000000098
 20
33.5670000000000002
 10
74.1716400000000107
 20
33.5279800000000066
 10
73.9682000000000102
 20
33.4828600000000023
 10
73.7712200000000138
 20
33.431519999999999
 10
73.5801799999999986
 20
33.3738400000000013
 10
73.3945599999999985
 20
33.3097199999999987
 10
73.2138400000000047
 20
33.239060000000002
 10
73.0375000000000085
 20
33.161760000000001
 10
72.8650200000000012
 20
33.0777000000000001
 10
72.6958600000000104
 20
32.9868000000000023
 10
72.5295200000000051
 20
32.8889200000000059
 10
72.3654599999999988
 20
32.7839800000000068
 10
72.2031800000000032
 20
32.6718600000000023
 10
72.0421400000000034
 20
32.5524800000000027
 10
71.8818200000000047
 20
32.4256999999999991
 10
71.7216999999999985
 20
32.2914200000000022
 10
71.5612600000000043
 20
32.149560000000001
 10
71.4000000000000057
 20
32.0
  0
LWPOLYLINE
  5
56
  8
C18
 62
256
370
-1
  6
ByLayer
100
AcDbEntity
100
AcDbPolyline
 90
199
 70
0
 10
9.0
 20
27.8000000000000007
 10
8.8323800000000006
 20
27.6675400000000025
 10
8.6688800000000015
 20
27.5343200000000046
 10
8.5111399999999975
 20
27.3981800000000035
 10
8.3607999999999976
 20
27.2569599999999994
 10
8.2195600000000013
 20
27.1085199999999986
 10
8.0890600000000035
 20
26.9506599999999992
 10
7.9709799999999973
 20
26.7812599999999996
 10
7.8669599999999988
 20
26.5981600000000036
 10
7.7787000000000006
 20
26.3992200000000032
 10
7.7250799999999984
 20
26.2528800000000011
 10
7.6780400000000029
 20
26.1098999999999997
 10
7.6374199999999988
 20
25.9702000000000019
 10
7.6030799999999985
 20
25.8338199999999993
 10
7.5748999999999995
 20
25.7007400000000032
 10
7.55274
 20
25.5709400000000002
 10
7.5364399999999989
 20
25.4444000000000017
 10
7.5258800000000008
 20
25.3211200000000005
 10
7.5209400000000031
 20
25.2011000000000003
 10
7.5214799999999968
 20
25.0843200000000017
 10
7.5273400000000024
 20
24.9707600000000021
 10
7.5384000000000029
 20
24.8604200000000013
 10
7.5545199999999966
 20
24.7532999999999994
 10
7.5755800000000022
 20
24.6493600000000015
 10
7.6014200000000045
 20
24.5486199999999997
 10
7.6319400000000002
 20
24.4510600000000018
 10
7.6669600000000031
 20
24.3566600000000015
 10
7.7063600000000037
 20
24.2653999999999996
 10
7.7500199999999992
 20
24.1773000000000025
 10
7.7978000000000023
 20
24.0923400000000001
 10
7.8495400000000046
 20
24.0104800000000012
 10
7.9051400000000029
 20
23.9317600000000006
 10
7.9644200000000041
 20
23.8561200000000042
 10
8.0272999999999968
 20
23.7835800000000006
 10
8.0936000000000021
 20
23.7141200000000012
 10
8.1632000000000033
 20
23.6477200000000032
 10
8.2359599999999986
 20
23.5844000000000023
 10
8.3117400000000004
 20
23.5241199999999999
 10
8.3904199999999989
 20
23.4668800000000033
 10
8.4718599999999995
 20
23.4126600000000025
 10
8.5559000000000012
 20
23.361460000000001
 10
8.6424400000000006
 20
23.3132800000000024
 10
8.7313199999999966
 20
23.2680800000000012
 10
8.822420000000001
 20
23.2258800000000036
 10
8.9155999999999977
 20
23.1866400000000006
 10
9.0106999999999999
 20
23.150380000000002
 10
9.1076199999999972
 20
23.1170600000000022
 10
9.2062200000000018
 20
23.0867000000000004
 10
9.3063199999999995
 20
23.0592600000000019
 10
9.4078400000000002
 20
23.0347399999999993
 10
9.510620000000003
 20
23.0131400000000035
 10
9.6145199999999988
 20
22.9944400000000009
 10
9.7194199999999995
 20
22.9786200000000029
 10
9.8251599999999968
 20
22.9656800000000025
 10
9.9316200000000023
 20
22.9556199999999997
 10
10.0386799999999994
 20
22.9484199999999987
 10
10.1461600000000018
 20
22.9440600000000003
 10
10.2539799999999985
 20
22.942540000000001
 10
10.3619600000000034
 20
22.9438600000000008
 10
10.4699600000000004
 20
22.9479800000000012
 10
10.5778999999999996
 20
22.9549000000000021
 10
10.6855800000000016
 20
22.9646400000000028
 10
10.792900000000003
 20
22.9771400000000021
 10
10.8997200000000021
 20
22.9924200000000027
 10
11.0058999999999969
 20
23.0104800000000012
 10
11.1113
 20
23.0312800000000024
 10
11.2157800000000023
 20
23.054820000000003
 10
11.3192200000000014
 20
23.0811000000000028
 10
11.4214800000000025
 20
23.1101000000000028
 10
11.5224199999999968
 20
23.1418000000000035
 10
11.6218999999999966
 20
23.1762200000000007
 10
11.7197999999999993
 20
23.2133000000000038
 10
11.8159800000000033
 20
23.2530800000000006
 10
11.9102800000000002
 20
23.2955199999999998
 10
12.0025800000000018
 20
23.3406400000000005
 10
12.0927599999999984
 20
23.3883800000000015
 10
12.1806600000000032
 20
23.438760000000002
 10
12.2661599999999993
 20
23.4917800000000021
 10
12.3491199999999992
 20
23.5473999999999997
 10
12.4294000000000011
 20
23.6056400000000011
 10
12.5068800000000024
 20
23.6664600000000007
 10
12.5814000000000021
 20
23.7298800000000014
 10
12.6528199999999984
 20
23.7958600000000011
 10
12.7210400000000021
 20
23.8644000000000034
 10
12.785899999999998
 20
23.9355000000000011
 10
12.8472799999999978
 20
24.0091400000000021
 10
12.9050200000000004
 20
24.0853199999999994
 10
12.9590000000000032
 20
24.1640000000000015
 10
13.0090599999999981
 20
24.2452000000000005
 10
13.0551200000000023
 20
24.3289000000000009
 10
13.0969800000000021
 20
24.4150800000000032
 10
13.1345400000000012
 20
24.5037599999999998
 10
13.1676799999999972
 20
24.5948800000000034
 10
13.1962199999999967
 20
24.688480000000002
 10
13.2200399999999973
 20
24.7845200000000006
 10
13.2390400000000028
 20
24.8829800000000034
 10
13.2530199999999994
 20
24.9838799999999992
 10
13.2618999999999971
 20
25.0872000000000028
 10
13.2655200000000022
 20
25.1929200000000009
 10
13.2637399999999985
 20
25.3010200000000012
 10
13.2564399999999978
 20
25.4115199999999994
 10
13.2434599999999989
 20
25.5243800000000007
 10
13.2246999999999986
 20
25.6396000000000015
 10
13.2000000000000028
 20
25.7571800000000017
 10
13.1692200000000028
 20
25.8771000000000022
 10
13.1322399999999959
 20
25.9993400000000037
 10
13.0889000000000024
 20
26.123899999999999
 10
13.0390999999999977
 20
26.2507799999999989
 10
12.982680000000002
 20
26.3799400000000013
 10
12.9194999999999993
 20
26.5113999999999983
 10
12.8494400000000013
 20
26.6451399999999978
 10
12.772359999999999
 20
26.7811599999999999
 10
12.6425399999999968
 20
26.9750400000000035
 10
12.4974199999999982
 20
27.145859999999999
 10
12.3386399999999981
 20
27.2977600000000002
 10
12.1678799999999967
 20
27.434940000000001
 10
11.9867399999999975
 20
27.5615999999999985
 10
11.7969000000000008
 20
27.6818800000000032
 10
11.6000000000000014
 20
27.8000000000000007
 10
11.0
 20
26.4000000000000021
 10
11.1238600000000005
 20
26.3248400000000018
 10
11.2370799999999988
 20
26.2509799999999984
 10
11.3399600000000049
 20
26.1783800000000006
 10
11.4327600000000018
 20
26.1071199999999983
 10
11.515740000000001
 20
26.0372200000000049
 10
11.5891799999999989
 20
25.9686800000000027
 10
11.6533799999999985
 20
25.9015400000000007
 10
11.7085799999999978
 20
25.8358400000000046
 10
11.7550600000000003
 20
25.7715800000000002
 10
11.7931200000000018
 20
25.7088199999999993
 10
11.8230199999999996
 20
25.6475599999999986
 10
11.8450199999999981
 20
25.5878200000000007
 10
11.8594000000000008
 20
25.529679999999999
 10
11.8664600000000036
 20
25.4731000000000023
 10
11.8664399999999972
 20
25.4181600000000003
 10
11.8596199999999996
 20
25.3648600000000002
 10
11.8462999999999994
 20
25.3132200000000012
 10
11.8267200000000017
 20
25.263300000000001
 10
11.8011800000000022
 20
25.2150800000000004
 10
11.7699599999999975
 20
25.1686399999999999
 10
11.7332999999999998
 20
25.1239600000000003
 10
11.6915000000000049
 20
25.0811000000000028
 10
11.6448200000000028
 20
25.0400800000000032
 10
11.5935599999999965
 20
25.0009000000000015
 10
11.5379599999999982
 20
24.9636200000000024
 10
11.4783199999999965
 20
24.9282600000000016
 10
11.4149000000000029
 20
24.8948400000000021
 10
11.3479799999999997
 20
24.8633999999999986
 10
11.2778399999999976
 20
24.8339400000000019
 10
11.204740000000001
 20
24.8065200000000026
 10
11.1289599999999993
 20
24.7811400000000006
 10
11.0507800000000032
 20
24.7578400000000016
 10
10.970480000000002
 20
24.7366400000000013
 10
10.8883200000000002
 20
24.7175800000000017
 10
10.8045800000000014
 20
24.7006599999999992
 10
10.7195200000000028
 20
24.6859600000000015
 10
10.6334400000000002
 20
24.6734399999999994
 10
10.546599999999998
 20
24.6631800000000005
 10
10.4592799999999997
 20
24.6551800000000014
 10
10.3717400000000026
 20
24.6494800000000005
 10
10.2842800000000025
 20
24.6461000000000041
 10
10.1971400000000045
 20
24.6450600000000009
 10
10.1106199999999973
 20
24.6463999999999999
 10
10.0249999999999986
 20
24.6501400000000004
 10
9.9405399999999986
 20
24.6563200000000009
 10
9.8575000000000017
 20
24.6649600000000007
 10
9.7761799999999965
 20
24.6760600000000032
 10
9.6968400000000017
 20
24.689700000000002
 10
9.6197799999999987
 20
24.7058600000000013
 10
9.5452200000000005
 20
24.7245800000000031
 10
9.4735000000000014
 20
24.7459000000000024
 10
9.4048400000000001
 20
24.7698400000000021
 10
9.3395399999999995
 20
24.7964200000000012
 10
9.2778800000000032
 20
24.825680000000002
 10
9.2201000000000022
 20
24.8576200000000007
 10
9.1665199999999984
 20
24.8923200000000016
 10
9.1174000000000035
 20
24.9297400000000025
 10
9.0729800000000012
 20
24.9699600000000004
 10
9.0335800000000006
 20
25.0130000000000017
 10
8.9994599999999991
 20
25.0588600000000028
 10
8.9708800000000011
 20
25.1075799999999987
 10
8.948120000000003
 20
25.1591800000000028
 10
8.9314800000000005
 20
25.2137200000000021
 10
8.9211999999999989
 20
25.2712000000000003
 10
8.9175600000000017
 20
25.3316400000000002
 10
8.9208399999999983
 20
25.3950800000000001
 10
8.9313199999999995
 20
25.4615399999999994
 10
8.9492800000000017
 20
25.5310600000000001
 10
8.9749800000000022
 20
25.6036400000000022
 10
9.0087000000000046
 20
25.6793400000000034
 10
9.0506999999999991
 20
25.7581799999999994
 10
9.1012800000000027
 20
25.8401800000000001
 10
9.1606999999999985
 20
25.925340000000002
 10
9.229219999999998
 20
26.0137400000000021
 10
9.307140000000004
 20
26.1053800000000038
 10
9.3947399999999988
 20
26.2002799999999993
 10
9.4922600000000017
 20
26.2984800000000014
 10
9.6000000000000014
 20
26.4000000000000021
 10
9.0
 20
27.8000000000000007
  0
LWPOLYLINE
  5
57
  8
C18
 62
256
370
-1
  6
ByLayer
100
AcDbEntity
100
AcDbPolyline
 90
133
 70
0
 10
8.3999999999999986
 20
18.4000000000000021
 10
7.6000000000000014
 20
18.4000000000000021
 10
7.6090599999999995
 20
18.2158200000000008
 10
7.6313800000000001
 20
18.0444600000000008
 10
7.6664400000000015
 20
17.8855000000000004
 10
7.7137200000000021
 20
17.7384999999999984
 10
7.7726800000000011
 20
17.60304
 10
7.8427999999999969
 20
17.4786800000000007
 10
7.9235800000000012
 20
17.365000000000002
 10
8.0144799999999989
 20
17.2615800000000021
 10
8.1149800000000027
 20
17.1679600000000008
 10
8.2245599999999968
 20
17.0837600000000016
 10
8.3426800000000014
 20
17.0085000000000015
 10
8.4688400000000001
 20
16.9417800000000014
 10
8.6024999999999991
 20
16.8831799999999994
 10
8.7431600000000032
 20
16.8322399999999988
 10
8.8902599999999978
 20
16.7885600000000004
 10
9.0433200000000014
 20
16.7516999999999996
 10
9.2017799999999994
 20
16.7212199999999989
 10
9.3651399999999967
 20
16.6967000000000034
 10
9.5328799999999987
 20
16.6777200000000008
 10
9.7044599999999974
 20
16.6638599999999997
 10
9.8793599999999984
 20
16.6546600000000034
 10
10.0570599999999999
 20
16.6497000000000028
 10
10.2370400000000004
 20
16.6485800000000026
 10
10.4187799999999982
 20
16.6508399999999988
 10
10.6017599999999987
 20
16.6560600000000001
 10
10.7854400000000012
 20
16.6638000000000019
 10
10.969300000000004
 20
16.6736600000000017
 10
11.1528399999999976
 20
16.6852000000000018
 10
11.3355000000000032
 20
16.6979800000000012
 10
11.5168000000000035
 20
16.7115600000000022
 10
11.6962000000000046
 20
16.725559999999998
 10
11.8731599999999986
 20
16.7395000000000032
 10
12.0471599999999981
 20
16.7529800000000009
 10
12.2177000000000007
 20
16.7655600000000007
 10
12.3842399999999984
 20
16.7768000000000015
 10
12.5462600000000037
 20
16.7863000000000007
 10
12.703240000000001
 20
16.7936200000000007
 10
12.8546600000000026
 20
16.7983200000000004
 10
13.0
 20
16.8000000000000007
 10
13.0
 20
18.4000000000000021
 10
12.8306400000000025
 20
18.3985800000000026
 10
12.6593000000000018
 20
18.3947800000000008
 10
12.4864400000000018
 20
18.3892400000000009
 10
12.3125399999999985
 20
18.3826400000000021
 10
12.1380800000000022
 20
18.3756200000000014
 10
11.9635600000000011
 20
18.3688400000000023
 10
11.7894799999999975
 20
18.3629400000000018
 10
11.6162800000000033
 20
18.3586199999999984
 10
11.4444999999999979
 20
18.3565000000000005
 10
11.2745800000000003
 20
18.3572600000000001
 10
11.1070199999999986
 20
18.3615400000000015
 10
10.9423200000000023
 20
18.370000000000001
 10
10.7809600000000003
 20
18.3833200000000012
 10
10.6234000000000037
 20
18.40212
 10
10.4701599999999999
 20
18.4270800000000001
 10
10.3217199999999991
 20
18.4588600000000014
 10
10.1785399999999981
 20
18.4981000000000009
 10
10.0411199999999994
 20
18.5454800000000013
 10
9.9099599999999981
 20
18.6016200000000005
 10
9.7855199999999982
 20
18.6672200000000004
 10
9.6683200000000014
 20
18.7429200000000016
 10
9.558799999999998
 20
18.8293800000000005
 10
9.4574800000000039
 20
18.9272600000000004
 10
9.3648400000000009
 20
19.0372000000000021
 10
9.2813400000000001
 20
19.1598600000000019
 10
9.2075000000000031
 20
19.2959200000000024
 10
9.1437999999999988
 20
19.4460200000000007
 10
9.0906999999999982
 20
19.6108200000000039
 10
9.048720000000003
 20
19.7909800000000011
 10
9.0183200000000028
 20
19.9871400000000001
 10
9.0
 20
20.2000000000000028
 10
13.0
 20
20.2000000000000028
 10
13.0
 20
21.8000000000000007
 10
12.867440000000002
 20
21.800340000000002
 10
12.7315600000000018
 20
21.8013000000000012
 10
12.5926199999999966
 20
21.8027000000000015
 10
12.4509000000000043
 20
21.8044399999999996
 10
12.3066800000000001
 20
21.8063400000000023
 10
12.1602400000000017
 20
21.8082799999999999
 10
12.0118599999999986
 20
21.810100000000002
 10
11.8618200000000016
 20
21.8116800000000026
 10
11.7103800000000007
 20
21.8128400000000013
 10
11.5578399999999988
 20
21.8134600000000027
 10
11.4044799999999995
 20
21.8134000000000015
 10
11.2505600000000001
 20
21.8125200000000028
 10
11.0963600000000042
 20
21.8106599999999986
 10
10.9421800000000005
 20
21.8077000000000005
 10
10.7882999999999996
 20
21.8034600000000012
 10
10.6349799999999988
 20
21.7978400000000008
 10
10.4825000000000017
 20
21.7906600000000026
 10
10.3311400000000049
 20
21.781800000000004
 10
10.181200000000004
 20
21.7711000000000041
 10
10.0329200000000043
 20
21.7584400000000002
 10
9.8866200000000006
 20
21.743660000000002
 10
9.7425399999999982
 20
21.7266200000000005
 10
9.6009999999999991
 20
21.707180000000001
 10
9.4622400000000013
 20
21.6851800000000026
 10
9.3265799999999999
 20
21.660499999999999
 10
9.1942599999999999
 20
21.6329800000000034
 10
9.0655600000000049
 20
21.6025000000000027
 10
8.9407800000000037
 20
21.5688800000000001
 10
8.8201999999999998
 20
21.5320200000000028
 10
8.7040999999999968
 20
21.4917400000000001
 10
8.5927199999999999
 20
21.4479000000000042
 10
8.4864000000000033
 20
21.400380000000002
 10
8.3853599999999986
 20
21.3490400000000022
 10
8.2899200000000022
 20
21.2937000000000012
 10
8.2003399999999971
 20
21.2342399999999998
 10
8.1169000000000011
 20
21.1705400000000026
 10
8.0399000000000029
 20
21.1024000000000029
 10
7.9695800000000006
 20
21.0297400000000039
 10
7.9062600000000032
 20
20.9523599999999988
 10
7.8501800000000017
 20
20.870160000000002
 10
7.801639999999999
 20
20.7829600000000028
 10
7.7609199999999987
 20
20.6906600000000012
 10
7.7283000000000044
 20
20.5930800000000005
 10
7.7040599999999984
 20
20.4900800000000025
 10
7.6884599999999992
 20
20.3815400000000011
 10
7.6817800000000034
 20
20.2673000000000023
 10
7.6843399999999988
 20
20.1472200000000008
 10
7.6963800000000049
 20
20.0211600000000018
 10
7.7181800000000038
 20
19.8889800000000037
 10
7.7500199999999992
 20
19.7505200000000016
 10
7.7922000000000011
 20
19.6056400000000011
 10
7.8449799999999996
 20
19.454220000000003
 10
7.9086399999999983
 20
19.2961000000000027
 10
7.9834800000000001
 20
19.1311399999999985
 10
8.069740000000003
 20
18.9591799999999999
 10
8.167740000000002
 20
18.7801000000000009
 10
8.2777200000000022
 20
18.5937599999999996
 10
8.3999999999999986
 20
18.4000000000000021
  0
LWPOLYLINE
  5
58
  8
C18
 62
256
370
-1
  6
ByLayer
100
AcDbEntity
100
AcDbPolyline
 90
51
 70
0
 10
21.8000000000000007
 20
19.6000000000000014
 10
21.8000000000000007
 20
6.1999999999999993
 10
21.9624000000000024
 20
6.1963599999999985
 10
22.141960000000001
 20
6.1868800000000022
 10
22.3354999999999997
 20
6.1737400000000022
 10
22.5398400000000017
 20
6.1590799999999994
 10
22.7518200000000022
 20
6.1450800000000001
 10
22.9682600000000008
 20
6.1339000000000006
 10
23.1859800000000007
 20
6.1277000000000008
 10
23.4018000000000015
 20
6.1286400000000008
 10
23.612560000000002
 20
6.1388999999999996
 10
23.8150800000000018
 20
6.1606400000000008
 10
24.0062000000000033
 20
6.1960000000000015
 10
24.1827200000000033
 20
6.2471600000000009
 10
24.3414800000000042
 20
6.316279999999999
 10
24.4793200000000013
 20
6.405540000000002
 10
24.5675000000000026
 20
6.4899400000000007
 10
24.6453200000000017
 20
6.5940000000000012
 10
24.7133000000000038
 20
6.7163600000000017
 10
24.772000000000002
 20
6.8555600000000005
 10
24.8219400000000014
 20
7.0102200000000003
 10
24.8637000000000015
 20
7.1789400000000008
 10
24.8977800000000009
 20
7.3602999999999987
 10
24.9247200000000007
 20
7.5529000000000011
 10
24.9451000000000001
 20
7.7553400000000003
 10
24.9594200000000015
 20
7.9662000000000006
 10
24.9682400000000015
 20
8.1840800000000016
 10
24.9721000000000011
 20
8.4075800000000029
 10
24.9715200000000017
 20
8.6353000000000009
 10
24.9670800000000028
 20
8.8658000000000001
 10
24.9592800000000032
 20
9.0977200000000025
 10
24.9487000000000023
 20
9.3296199999999985
 10
24.9358600000000017
 20
9.5600999999999985
 10
24.9212799999999994
 20
9.7877599999999987
 10
24.905540000000002
 20
10.0112000000000023
 10
24.8891600000000039
 20
10.2289999999999992
 10
24.8726599999999998
 20
10.4397799999999989
 10
24.8566399999999987
 20
10.6420999999999992
 10
24.8415800000000004
 20
10.8345800000000025
 10
24.8280400000000014
 20
11.0157999999999987
 10
24.8165800000000019
 20
11.1843599999999981
 10
24.8077200000000033
 20
11.3388400000000011
 10
24.8020199999999988
 20
11.4778599999999997
 10
24.8000000000000007
 20
11.6000000000000014
 10
29.0
 20
11.6000000000000014
 10
29.0
 20
13.8000000000000007
 10
24.8000000000000007
 20
13.8000000000000007
 10
24.8000000000000007
 20
17.1999999999999993
 10
30.6000000000000014
 20
17.1999999999999993
 10
30.6000000000000014
 20
19.6000000000000014
 10
21.8000000000000007
 20
19.6000000000000014
  0
LWPOLYLINE
  5
59
  8
C18
 62
256
370
-1
  6
ByLayer
100
AcDbEntity
100
AcDbPolyline
 90
5
 70
0
 10
41.0
 20
19.4000000000000021
 10
41.0
 20
17.1999999999999993
 10
43.8000000000000043
 20
17.1999999999999993
 10
43.8000000000000043
 20
19.4000000000000021
 10
41.0
 20
19.4000000000000021
  0
LWPOLYLINE
  5
5A
  8
C18
 62
256
370
-1
  6
ByLayer
100
AcDbEntity
100
AcDbPolyline
 90
238
 70
0
 10
31.6000000000000014
 20
12.8000000000000007
 10
31.7240400000000022
 20
12.8378399999999999
 10
31.8536000000000001
 20
12.8811000000000035
 10
31.9882000000000026
 20
12.9290400000000005
 10
32.1273800000000023
 20
12.9809599999999996
 10
32.2706799999999987
 20
13.0360999999999976
 10
32.4176399999999987
 20
13.0937800000000024
 10
32.5677599999999998
 20
13.1532400000000003
 10
32.7205800000000053
 20
13.2137600000000006
 10
32.8756600000000034
 20
13.274639999999998
 10
33.0324999999999989
 20
13.3351400000000027
 10
33.1906600000000012
 20
13.39452
 10
33.3496400000000008
 20
13.452060000000003
 10
33.5090000000000003
 20
13.5070600000000027
 10
33.6682599999999965
 20
13.5587799999999987
 10
33.8269600000000068
 20
13.6064799999999977
 10
33.9846199999999996
 20
13.6494599999999977
 10
34.1407600000000002
 20
13.6870000000000012
 10
34.2949599999999961
 20
13.7183400000000013
 10
34.4466999999999999
 20
13.7427799999999998
 10
34.5955399999999997
 20
13.7595999999999989
 10
34.7410199999999989
 20
13.7680599999999984
 10
34.8826400000000021
 20
13.7674400000000006
 10
35.0199599999999975
 20
13.7570400000000035
 10
35.1524999999999963
 20
13.7360800000000012
 10
35.2797800000000024
 20
13.7038999999999973
 10
35.4013600000000039
 20
13.6597200000000001
 10
35.5167599999999979
 20
13.6028599999999997
 10
35.6255200000000016
 20
13.5325600000000037
 10
35.7271400000000057
 20
13.448120000000003
 10
35.8211999999999975
 20
13.3488000000000007
 10
35.9072000000000031
 20
13.2338999999999984
 10
35.9846600000000052
 20
13.1026600000000002
 10
36.0531400000000062
 20
12.9543800000000005
 10
36.1121800000000022
 20
12.7883199999999988
 10
36.1612799999999979
 20
12.6037600000000012
 10
36.2000000000000028
 20
12.3999999999999986
 10
36.0182399999999987
 20
12.3984799999999993
 10
35.8327600000000004
 20
12.3947800000000008
 10
35.6439799999999991
 20
12.3887199999999993
 10
35.4522800000000018
 20
12.3800799999999995
 10
35.2581200000000052
 20
12.3686599999999984
 10
35.0618600000000029
 20
12.35426
 10
34.8639200000000002
 20
12.336660000000002
 10
34.6647200000000026
 20
12.3156800000000004
 10
34.4646600000000021
 20
12.2911199999999994
 10
34.2641399999999976
 20
12.2627600000000001
 10
34.0635800000000017
 20
12.2304200000000023
 10
33.8634000000000057
 20
12.1938600000000008
 10
33.6639800000000022
 20
12.1529200000000017
 10
33.4657400000000038
 20
12.1073599999999999
 10
33.2691000000000017
 20
12.0570000000000022
 10
33.074460000000002
 20
12.0016400000000019
 10
32.8822000000000045
 20
11.9410799999999995
 10
32.6927799999999991
 20
11.8750800000000005
 10
32.5065800000000067
 20
11.8034999999999997
 10
32.3240000000000052
 20
11.7260800000000032
 10
32.145460000000007
 20
11.6426400000000001
 10
31.9713799999999999
 20
11.5530000000000008
 10
31.802140000000005
 20
11.4569200000000002
 10
31.638180000000002
 20
11.354219999999998
 10
31.479880000000005
 20
11.2446800000000025
 10
31.3276599999999981
 20
11.1281200000000027
 10
31.1819200000000052
 20
11.0043199999999999
 10
31.0430799999999998
 20
10.8731000000000009
 10
30.9115599999999979
 20
10.7342399999999998
 10
30.7992799999999995
 20
10.5995800000000031
 10
30.6964600000000019
 20
10.4575400000000016
 10
30.6031200000000041
 20
10.30884
 10
30.5193000000000012
 20
10.154160000000001
 10
30.4450400000000023
 20
9.9942199999999985
 10
30.3803800000000024
 20
9.8296800000000033
 10
30.3253400000000006
 20
9.6612799999999979
 10
30.2799800000000019
 20
9.4896999999999991
 10
30.2443200000000019
 20
9.3156600000000012
 10
30.2184000000000026
 20
9.1398399999999995
 10
30.2022400000000033
 20
8.9629600000000025
 10
30.1959000000000017
 20
8.7856999999999985
 10
30.1994000000000042
 20
8.6087600000000002
 10
30.2128000000000014
 20
8.432859999999998
 10
30.2361000000000004
 20
8.258700000000001
 10
30.2693800000000017
 20
8.0869800000000005
 10
30.3126400000000018
 20
7.9183799999999991
 10
30.3659200000000027
 20
7.753619999999998
 10
30.4292800000000021
 20
7.5933799999999998
 10
30.5027200000000001
 20
7.4383799999999987
 10
30.5863200000000006
 20
7.28932
 10
30.6800800000000002
 20
7.1468999999999987
 10
30.784040000000001
 20
7.0118200000000002
 10
30.8982600000000005
 20
6.8847799999999992
 10
31.0227600000000017
 20
6.7664599999999986
 10
31.1575800000000029
 20
6.6575999999999986
 10
31.3027600000000028
 20
6.5588599999999992
 10
31.4583200000000005
 20
6.4709800000000008
 10
31.6243000000000016
 20
6.394639999999999
 10
31.8007600000000039
 20
6.3305399999999992
 10
31.9986400000000017
 20
6.273340000000001
 10
32.1953200000000024
 20
6.2276799999999994
 10
32.3907200000000017
 20
6.1932200000000002
 10
32.5847600000000028
 20
6.1696400000000011
 10
32.7773600000000016
 20
6.156600000000001
 10
32.9684200000000018
 20
6.1537800000000011
 10
33.1578799999999987
 20
6.1608400000000003
 10
33.345639999999996
 20
6.17746
 10
33.531640000000003
 20
6.2032799999999995
 10
33.7157800000000023
 20
6.2379999999999995
 10
33.8980000000000032
 20
6.2812599999999996
 10
34.0781799999999961
 20
6.3327600000000004
 10
34.2562799999999967
 20
6.3921600000000005
 10
34.4322000000000017
 20
6.4591199999999986
 10
34.6058400000000006
 20
6.5333000000000006
 10
34.7771400000000028
 20
6.6143800000000006
 10
34.9460400000000035
 20
6.7020400000000002
 10
35.1124000000000009
 20
6.7959199999999989
 10
35.2762000000000029
 20
6.8957200000000007
 10
35.4373199999999997
 20
7.001100000000001
 10
35.5956800000000015
 20
7.1117199999999983
 10
35.7512000000000043
 20
7.2272400000000019
 10
35.9038200000000032
 20
7.3473600000000019
 10
36.0534400000000019
 20
7.4717200000000012
 10
36.2000000000000028
 20
7.6000000000000014
 10
36.3999999999999986
 20
6.1999999999999993
 10
39.2000000000000028
 20
6.1999999999999993
 10
39.1951800000000006
 20
6.3388799999999996
 10
39.1922600000000045
 20
6.4847000000000001
 10
39.191040000000001
 20
6.6371199999999995
 10
39.1913800000000023
 20
6.7958399999999983
 10
39.1930800000000019
 20
6.9605199999999989
 10
39.1959600000000066
 20
7.1308399999999992
 10
39.1999000000000066
 20
7.3064800000000005
 10
39.2046600000000041
 20
7.4871200000000009
 10
39.2101200000000034
 20
7.6724199999999989
 10
39.2161000000000044
 20
7.8620799999999988
 10
39.2224000000000004
 20
8.0557599999999994
 10
39.2288800000000037
 20
8.2531600000000012
 10
39.2353400000000079
 20
8.4539200000000001
 10
39.2416400000000039
 20
8.6577600000000032
 10
39.2475799999999992
 20
8.8643199999999993
 10
39.2530000000000001
 20
9.0733000000000033
 10
39.2577200000000062
 20
9.2843799999999987
 10
39.2616000000000014
 20
9.4972199999999987
 10
39.2644200000000012
 20
9.7115000000000009
 10
39.2660400000000038
 20
9.9269200000000026
 10
39.2662800000000018
 20
10.1431400000000025
 10
39.2649600000000021
 20
10.3598199999999991
 10
39.2619200000000035
 20
10.5766600000000004
 10
39.2569799999999987
 20
10.7933400000000006
 10
39.2499800000000008
 20
11.009520000000002
 10
39.2407400000000024
 20
11.2248999999999981
 10
39.2290800000000033
 20
11.4391400000000019
 10
39.2148600000000016
 20
11.6519200000000005
 10
39.1978599999999986
 20
11.8629200000000026
 10
39.1779400000000066
 20
12.0718200000000024
 10
39.1549200000000042
 20
12.2782800000000023
 10
39.1286200000000051
 20
12.4819999999999993
 10
39.0989000000000004
 20
12.6826399999999992
 10
39.0655399999999986
 20
12.8798999999999992
 10
39.0284000000000049
 20
13.0734199999999987
 10
38.987320000000004
 20
13.2629200000000012
 10
38.9420800000000042
 20
13.4480600000000017
 10
38.8925600000000031
 20
13.6285000000000025
 10
38.8385600000000011
 20
13.8039400000000008
 10
38.7799200000000042
 20
13.9740400000000022
 10
38.7164400000000057
 20
14.1385000000000005
 10
38.6480000000000032
 20
14.2969600000000021
 10
38.574380000000005
 20
14.4491399999999999
 10
38.4954200000000029
 20
14.5947000000000013
 10
38.4109600000000029
 20
14.7333200000000009
 10
38.3208399999999969
 20
14.8646600000000007
 10
38.2248599999999996
 20
14.9883999999999986
 10
38.1228400000000036
 20
15.10426
 10
38.0146599999999992
 20
15.2118599999999997
 10
37.9000800000000027
 20
15.310900000000002
 10
37.7790000000000035
 20
15.4010800000000003
 10
37.6839800000000054
 20
15.4626599999999996
 10
37.5826599999999971
 20
15.5212000000000003
 10
37.4753200000000035
 20
15.5766600000000022
 10
37.3622799999999984
 20
15.6290200000000006
 10
37.2438199999999995
 20
15.6783000000000001
 10
37.1202600000000018
 20
15.7244799999999998
 10
36.9918800000000019
 20
15.7675600000000014
 10
36.859020000000001
 20
15.8074999999999992
 10
36.7219600000000028
 20
15.8443199999999997
 10
36.5810000000000031
 20
15.8780000000000001
 10
36.4364600000000038
 20
15.9085400000000003
 10
36.2886200000000017
 20
15.9359400000000004
 10
36.1378199999999978
 20
15.9601600000000001
 10
35.9843200000000039
 20
15.9812200000000004
 10
35.8284599999999998
 20
15.9990800000000011
 10
35.6705200000000033
 20
16.0137800000000006
 10
35.5108200000000025
 20
16.0252599999999994
 10
35.3496400000000008
 20
16.0335600000000014
 10
35.1873199999999997
 20
16.0386200000000017
 10
35.0241200000000035
 20
16.0404799999999987
 10
34.8603799999999993
 20
16.039080000000002
 10
34.6964000000000041
 20
16.0344600000000028
 10
34.5324400000000011
 20
16.0265999999999984
 10
34.3688600000000051
 20
16.0154600000000009
 10
34.2059399999999982
 20
16.0010799999999982
 10
34.0439599999999984
 20
15.9834000000000014
 10
33.8832599999999999
 20
15.9624400000000009
 10
33.7241399999999985
 20
15.9382000000000019
 10
33.5668799999999976
 20
15.91066
 10
33.4117999999999995
 20
15.8798000000000012
 10
33.2591800000000006
 20
15.8456400000000013
 10
33.1093600000000023
 20
15.8081400000000016
 10
32.9626400000000004
 20
15.7673000000000005
 10
32.8192799999999991
 20
15.7231200000000015
 10
32.6796399999999991
 20
15.6756000000000011
 10
32.5439799999999977
 20
15.6247000000000025
 10
32.4126199999999969
 20
15.5704399999999996
 10
32.2858799999999988
 20
15.5127999999999986
 10
32.1640200000000007
 20
15.4517799999999994
 10
32.0474000000000032
 20
15.387360000000001
 10
31.9362600000000008
 20
15.3195400000000017
 10
31.830960000000001
 20
15.2483000000000004
 10
31.7317800000000005
 20
15.1736400000000007
 10
31.6390200000000021
 20
15.0955399999999997
 10
31.5529800000000051
 20
15.0139999999999993
 10
31.473980000000001
 20
14.9290400000000005
 10
31.4023000000000039
 20
14.840600000000002
 10
31.3382799999999975
 20
14.7486999999999995
 10
31.2821800000000003
 20
14.6533200000000008
 10
31.2343399999999995
 20
14.5544600000000006
 10
31.1950400000000023
 20
14.4521200000000007
 10
31.1645800000000008
 20
14.3462800000000001
 10
31.1432800000000007
 20
14.2369200000000014
 10
31.1314399999999978
 20
14.1240400000000008
 10
31.1293600000000055
 20
14.0076400000000021
 10
31.137360000000001
 20
13.8877200000000016
 10
31.1557200000000023
 20
13.7642400000000009
 10
31.1847400000000015
 20
13.6372199999999992
 10
31.2247400000000042
 20
13.5066399999999973
 10
31.2760200000000026
 20
13.3724799999999995
 10
31.3388800000000032
 20
13.2347400000000022
 10
31.4136199999999981
 20
13.0934200000000018
 10
31.5005600000000037
 20
12.9485000000000028
 10
31.6000000000000014
 20
12.8000000000000007
  0
LWPOLYLINE
  5
5B
  8
C18
 62
256
370
-1
  6
ByLayer
100
AcDbEntity
100
AcDbPolyline
 90
87
 70
0
 10
48.6000000000000014
 20
14.4000000000000004
 10
48.6000000000000014
 20
15.8000000000000007
 10
45.8000000000000043
 20
15.8000000000000007
 10
45.8000000000000043
 20
6.1999999999999993
 10
48.6000000000000014
 20
6.1999999999999993
 10
48.5993400000000051
 20
6.3279800000000002
 10
48.5975000000000037
 20
6.4601399999999991
 10
48.594619999999999
 20
6.5962800000000001
 10
48.59084
 20
6.7361399999999989
 10
48.5863200000000006
 20
6.8795000000000002
 10
48.5812200000000018
 20
7.0261199999999988
 10
48.5756800000000055
 20
7.1757799999999996
 10
48.5698399999999992
 20
7.3282799999999995
 10
48.5638600000000054
 20
7.4833399999999983
 10
48.5579000000000036
 20
7.6407600000000002
 10
48.5521000000000029
 20
7.8003199999999993
 10
48.5466000000000051
 20
7.9617599999999982
 10
48.5415800000000033
 20
8.124880000000001
 10
48.5371600000000001
 20
8.289439999999999
 10
48.5335200000000029
 20
8.4552200000000006
 10
48.53078
 20
8.6219800000000006
 10
48.529120000000006
 20
8.7894800000000011
 10
48.5286800000000085
 20
8.9575200000000024
 10
48.5296000000000021
 20
9.125860000000003
 10
48.5320400000000021
 20
9.2942600000000013
 10
48.5361400000000032
 20
9.4625200000000014
 10
48.5420599999999993
 20
9.6303600000000031
 10
48.5499599999999987
 20
9.7976000000000028
 10
48.559980000000003
 20
9.9639999999999986
 10
48.57226
 20
10.1293199999999999
 10
48.5869600000000048
 20
10.2933200000000014
 10
48.6042400000000043
 20
10.4558000000000035
 10
48.6242400000000004
 20
10.6165200000000013
 10
48.647120000000001
 20
10.7752600000000029
 10
48.6730200000000082
 20
10.9317600000000006
 10
48.7021000000000015
 20
11.0858199999999982
 10
48.7345000000000041
 20
11.2372200000000007
 10
48.770380000000003
 20
11.3856999999999999
 10
48.8098799999999997
 20
11.5310400000000008
 10
48.8531600000000026
 20
11.6730400000000003
 10
48.9003800000000055
 20
11.8114199999999983
 10
48.9516600000000039
 20
11.945999999999998
 10
49.0071800000000053
 20
12.0765400000000014
 10
49.0670800000000042
 20
12.2027800000000006
 10
49.1315000000000026
 20
12.3245399999999989
 10
49.2006200000000007
 20
12.4415400000000034
 10
49.2745600000000081
 20
12.5535800000000002
 10
49.3534800000000047
 20
12.6604400000000012
 10
49.4375200000000063
 20
12.7618799999999979
 10
49.5268599999999992
 20
12.8576600000000028
 10
49.6216400000000064
 20
12.9475599999999993
 10
49.7220000000000084
 20
13.0313599999999994
 10
49.8281000000000063
 20
13.1088400000000007
 10
49.9400800000000018
 20
13.1797400000000025
 10
50.0581000000000031
 20
13.2438399999999987
 10
50.1822999999999979
 20
13.3009199999999979
 10
50.3128400000000013
 20
13.3507600000000011
 10
50.449860000000001
 20
13.393100000000004
 10
50.5935400000000044
 20
13.4277599999999993
 10
50.7439999999999998
 20
13.454460000000001
 10
50.9014000000000024
 20
13.472999999999999
 10
51.0658999999999992
 20
13.4831600000000016
 10
51.2376200000000068
 20
13.4846800000000009
 10
51.4167600000000036
 20
13.4773599999999973
 10
51.603420000000007
 20
13.46096
 10
51.797780000000003
 20
13.4352400000000003
 10
52.0
 20
13.3999999999999986
 10
52.0
 20
16.0
 10
51.7734200000000016
 20
15.9905600000000003
 10
51.5557599999999994
 20
15.9722399999999993
 10
51.3463399999999979
 20
15.9451200000000011
 10
51.1445600000000056
 20
15.9093400000000003
 10
50.9497599999999977
 20
15.86496
 10
50.7613000000000056
 20
15.8121000000000009
 10
50.5785600000000031
 20
15.7508800000000022
 10
50.4009200000000064
 20
15.6813600000000015
 10
50.2276999999999987
 20
15.6036800000000007
 10
50.0583000000000027
 20
15.5179399999999994
 10
49.8920600000000007
 20
15.42422
 10
49.7283600000000021
 20
15.3226400000000016
 10
49.5665600000000026
 20
15.213300000000002
 10
49.4060200000000052
 20
15.0962999999999994
 10
49.2461000000000055
 20
14.9717400000000005
 10
49.0861800000000059
 20
14.8397199999999998
 10
48.9256200000000021
 20
14.7003600000000016
 10
48.7637600000000049
 20
14.5537399999999995
 10
48.6000000000000014
 20
14.4000000000000004
  0
LWPOLYLINE
  5
5C
  8
C18
 62
256
370
-1
  6
ByLayer
100
AcDbEntity
100
AcDbPolyline
 90
67
 70
0
 10
60.6000000000000014
 20
9.2000000000000028
 10
60.459140000000005
 20
9.1463800000000006
 10
60.3158200000000022
 20
9.0908200000000008
 10
60.1702800000000053
 20
9.0337999999999994
 10
60.0227399999999989
 20
8.9757400000000018
 10
59.8734800000000007
 20
8.9171200000000006
 10
59.7227400000000017
 20
8.8583399999999983
 10
59.5707199999999943
 20
8.7998800000000017
 10
59.4177200000000028
 20
8.7421800000000012
 10
59.2639400000000052
 20
8.6857000000000006
 10
59.109640000000006
 20
8.6308599999999984
 10
58.9550800000000024
 20
8.5781400000000012
 10
58.8004800000000074
 20
8.5279799999999994
 10
58.6461000000000041
 20
8.4808200000000014
 10
58.4921799999999976
 20
8.4371000000000009
 10
58.3389600000000002
 20
8.3972800000000021
 10
58.1866800000000026
 20
8.3618200000000016
 10
58.0355800000000102
 20
8.3311600000000006
 10
57.8859199999999987
 20
8.3057400000000001
 10
57.7379400000000089
 20
8.2860200000000006
 10
57.5918800000000033
 20
8.2724400000000031
 10
57.4479800000000012
 20
8.2654399999999981
 10
57.3065000000000069
 20
8.2654800000000002
 10
57.167660000000005
 20
8.2730200000000025
 10
57.03172
 20
8.2884799999999998
 10
56.8989000000000047
 20
8.312339999999999
 10
56.7694800000000015
 20
8.3450199999999981
 10
56.6437000000000026
 20
8.3869800000000012
 10
56.5217800000000068
 20
8.438679999999998
 10
56.4039599999999979
 20
8.5005400000000009
 10
56.2905200000000079
 20
8.5730399999999989
 10
56.1816800000000001
 20
8.656600000000001
 10
56.0776800000000009
 20
8.7516999999999996
 10
55.9787600000000012
 20
8.8587600000000002
 10
55.8851800000000054
 20
8.9782399999999996
 10
55.7972000000000037
 20
9.1105799999999988
 10
55.7150200000000098
 20
9.256260000000001
 10
55.6389000000000067
 20
9.4156800000000018
 10
55.5691000000000059
 20
9.5893200000000007
 10
55.5058599999999984
 20
9.7776199999999989
 10
55.4494000000000042
 20
9.9810200000000009
 10
55.4000000000000057
 20
10.2000000000000028
 10
61.6000000000000014
 20
10.2000000000000028
 10
61.6000000000000014
 20
10.4004000000000012
 10
61.5996600000000001
 20
10.6013799999999989
 10
61.5985000000000014
 20
10.80274
 10
61.5960200000000029
 20
11.0042800000000014
 10
61.5916799999999967
 20
11.2057800000000007
 10
61.5850200000000001
 20
11.4070600000000013
 10
61.5755199999999974
 20
11.60792
 10
61.5626800000000003
 20
11.8081400000000016
 10
61.5460000000000065
 20
12.0075399999999988
 10
61.5249600000000001
 20
12.205919999999999
 10
61.4990800000000064
 20
12.4030600000000035
 10
61.4678600000000017
 20
12.5987799999999979
 10
61.430800000000005
 20
12.792860000000001
 10
61.3873800000000003
 20
12.9851000000000028
 10
61.3370999999999995
 20
13.1753399999999985
 10
61.2794800000000066
 20
13.3633200000000016
 10
61.2139999999999986
 20
13.5489000000000033
 10
61.1401600000000087
 20
13.731819999999999
 10
61.0574600000000061
 20
13.9119200000000021
 10
60.9654000000000025
 20
14.0889999999999986
 10
60.8634800000000098
 20
14.2628400000000006
 10
60.7511800000000051
 20
14.4332400000000014
 10
60.6280399999999986
 20
14.6000200000000007
 10
60.4935200000000037
 20
14.7629600000000014
  0
LWPOLYLINE
  5
5D
  8
C18
 62
256
370
-1
  6
ByLayer
100
AcDbEntity
100
AcDbPolyline
 90
138
 70
0
 10
60.4934999999999974
 20
14.7629600000000014
 10
60.3742200000000082
 20
14.8923200000000016
 10
60.248580000000004
 20
15.0144599999999997
 10
60.1169000000000011
 20
15.1294600000000017
 10
59.9795000000000016
 20
15.2373400000000014
 10
59.8366800000000012
 20
15.3381600000000002
 10
59.6888000000000076
 20
15.4319799999999994
 10
59.5361599999999953
 20
15.5188400000000009
 10
59.3790800000000019
 20
15.5987799999999996
 10
59.2179000000000002
 20
15.6718600000000023
 10
59.0529200000000003
 20
15.7381400000000014
 10
58.8845000000000027
 20
15.7976600000000005
 10
58.7129199999999969
 20
15.8504799999999992
 10
58.5385200000000054
 20
15.8966199999999986
 10
58.3616200000000092
 20
15.936160000000001
 10
58.1825600000000023
 20
15.9691399999999994
 10
58.0016600000000082
 20
15.9956200000000006
 10
57.8192200000000014
 20
16.0156400000000012
 10
57.6355599999999981
 20
16.0292399999999979
 10
57.4510400000000061
 20
16.036480000000001
 10
57.2659599999999998
 20
16.0374200000000009
 10
57.0806200000000032
 20
16.0320999999999998
 10
56.8953999999999951
 20
16.0205599999999997
 10
56.710560000000001
 20
16.0028800000000011
 10
56.5264600000000002
 20
15.9790799999999997
 10
56.3434200000000089
 20
15.9492200000000004
 10
56.1617600000000081
 20
15.9133399999999998
 10
55.9817999999999998
 20
15.8715200000000021
 10
55.8038600000000002
 20
15.8237799999999993
 10
55.6282600000000045
 20
15.7701799999999999
 10
55.4553400000000067
 20
15.7107799999999997
 10
55.2854000000000099
 20
15.6456
 10
55.1187800000000081
 20
15.5747199999999992
 10
54.9558000000000035
 20
15.4982000000000006
 10
54.7967800000000054
 20
15.4160400000000024
 10
54.6420200000000023
 20
15.3283400000000007
 10
54.4919000000000011
 20
15.2351400000000012
 10
54.3466800000000063
 20
15.1364599999999996
 10
54.2067199999999971
 20
15.0323800000000016
 10
54.072339999999997
 20
14.9229400000000005
 10
53.9438400000000016
 20
14.8081800000000001
 10
53.8215799999999973
 20
14.6881800000000009
 10
53.7058600000000013
 20
14.5629600000000021
 10
53.5765600000000006
 20
14.409200000000002
 10
53.4549999999999983
 20
14.25108
 10
53.3410600000000059
 20
14.0888600000000004
 10
53.234640000000006
 20
13.9227399999999975
 10
53.1356800000000078
 20
13.7529800000000009
 10
53.0440600000000018
 20
13.5797799999999995
 10
52.959699999999998
 20
13.4033999999999978
 10
52.8825199999999995
 20
13.2240600000000015
 10
52.8124000000000038
 20
13.0419800000000023
 10
52.7492600000000067
 20
12.8574199999999976
 10
52.6929999999999978
 20
12.6706000000000003
 10
52.6435400000000016
 20
12.4817400000000021
 10
52.6007800000000003
 20
12.2911000000000001
 10
52.5646399999999971
 20
12.0988800000000012
 10
52.5350200000000029
 20
11.9053400000000025
 10
52.5118200000000002
 20
11.7106800000000035
 10
52.4949600000000061
 20
11.5151600000000016
 10
52.4843400000000031
 20
11.3190000000000026
 10
52.4798800000000085
 20
11.122440000000001
 10
52.4814600000000056
 20
10.9257199999999983
 10
52.4890200000000107
 20
10.7290400000000012
 10
52.5024400000000071
 20
10.5326599999999999
 10
52.521640000000005
 20
10.3368000000000002
 10
52.5465400000000074
 20
10.1417000000000002
 10
52.5770200000000045
 20
9.9476000000000013
 10
52.6130199999999988
 20
9.7546999999999997
 10
52.6544200000000089
 20
9.5632599999999996
 10
52.7011400000000023
 20
9.3735199999999992
 10
52.7530800000000042
 20
9.1856800000000014
 10
52.8101800000000026
 20
9.0
 10
52.8751999999999995
 20
8.8143999999999991
 10
52.9484199999999987
 20
8.6343600000000009
 10
53.0295399999999972
 20
8.4598799999999983
 10
53.1183200000000113
 20
8.2910400000000024
 10
53.2144600000000025
 20
8.1278800000000011
 10
53.3177200000000013
 20
7.9704599999999992
 10
53.4278000000000048
 20
7.8187800000000003
 10
53.5444400000000016
 20
7.6729400000000005
 10
53.6673800000000085
 20
7.532980000000002
 10
53.7963200000000086
 20
7.3989200000000004
 10
53.9310200000000037
 20
7.2708399999999997
 10
54.0712000000000046
 20
7.1487799999999986
 10
54.2165800000000004
 20
7.0327599999999997
 10
54.3669000000000011
 20
6.92286
 10
54.521880000000003
 20
6.8191400000000009
 10
54.6812400000000025
 20
6.7215999999999987
 10
54.8447400000000016
 20
6.6303400000000003
 10
55.0120800000000045
 20
6.5453599999999987
 10
55.1830000000000069
 20
6.4667600000000007
 10
55.3572400000000044
 20
6.3945399999999992
 10
55.5345000000000084
 20
6.3287800000000018
 10
55.7145399999999995
 20
6.2695000000000007
 10
55.8970600000000033
 20
6.21678
 10
56.0818200000000076
 20
6.1706600000000016
 10
56.2685200000000023
 20
6.1311600000000013
 10
56.4569200000000038
 20
6.0983799999999988
 10
56.6467200000000091
 20
6.0723200000000013
 10
56.8376600000000067
 20
6.0530399999999993
 10
57.0294800000000066
 20
6.0406000000000013
 10
57.2218799999999987
 20
6.0350600000000014
 10
57.4146200000000064
 20
6.0364199999999997
 10
57.6074200000000047
 20
6.0447799999999994
 10
57.8000000000000043
 20
6.060179999999999
 10
58.007399999999997
 20
6.0819200000000002
 10
58.21096
 20
6.1061599999999991
 10
58.4102800000000002
 20
6.1331600000000002
 10
58.6049600000000055
 20
6.1631600000000013
 10
58.7946200000000019
 20
6.1964000000000006
 10
58.978900000000003
 20
6.2331000000000003
 10
59.1573600000000113
 20
6.2735400000000006
 10
59.3296600000000041
 20
6.3179200000000009
 10
59.4953600000000051
 20
6.3665200000000013
 10
59.654120000000006
 20
6.4195400000000014
 10
59.8055400000000006
 20
6.4772600000000011
 10
59.9492200000000039
 20
6.5399199999999986
 10
60.0847600000000099
 20
6.6077399999999997
 10
60.2118000000000109
 20
6.6809599999999989
 10
60.3299400000000006
 20
6.7598400000000005
 10
60.4387800000000013
 20
6.844619999999999
 10
60.5379400000000061
 20
6.9355399999999996
 10
60.6270400000000009
 20
7.032820000000001
 10
60.7057000000000073
 20
7.1367399999999996
 10
60.7735000000000056
 20
7.2474999999999987
 10
60.8300800000000024
 20
7.3653800000000018
 10
60.8750199999999992
 20
7.4906000000000006
 10
60.9079600000000028
 20
7.6234199999999994
 10
60.928520000000006
 20
7.7640600000000006
 10
60.9362800000000036
 20
7.9127599999999987
 10
60.9308599999999956
 20
8.0697800000000015
 10
60.9118799999999965
 20
8.23536
 10
60.8789599999999993
 20
8.4097200000000001
 10
60.831700000000005
 20
8.593119999999999
 10
60.7697000000000003
 20
8.7858200000000011
 10
60.6926000000000059
 20
8.9880199999999988
 10
60.6000000000000014
 20
9.2000000000000028
  0
LWPOLYLINE
  5
5E
  8
C18
 62
256
370
-1
  6
ByLayer
100
AcDbEntity
100
AcDbPolyline
 90
117
 70
0
 10
8.3999999999999986
 20
11.0
 10
9.6000000000000014
 20
14.2000000000000011
 10
9.608780000000003
 20
14.0193399999999997
 10
9.6202400000000026
 20
13.8323200000000028
 10
9.6351000000000013
 20
13.6402399999999986
 10
9.6541399999999982
 20
13.4444400000000002
 10
9.6781000000000006
 20
13.2462400000000002
 10
9.7077400000000011
 20
13.0469799999999978
 10
9.7438399999999987
 20
12.8479600000000005
 10
9.7871400000000008
 20
12.650500000000001
 10
9.8384
 20
12.455960000000001
 10
9.8983800000000031
 20
12.2656400000000012
 10
9.9678400000000025
 20
12.0808800000000005
 10
10.0475199999999987
 20
11.9029999999999987
 10
10.1381999999999977
 20
11.7332999999999998
 10
10.2406399999999991
 20
11.5731400000000022
 10
10.355559999999997
 20
11.4238399999999984
 10
10.483780000000003
 20
11.2867200000000025
 10
10.6226800000000026
 20
11.1666200000000018
 10
10.7702799999999996
 20
11.0653599999999983
 10
10.9248800000000017
 20
10.9827000000000012
 10
11.0849000000000046
 20
10.9184200000000011
 10
11.2486800000000002
 20
10.8722600000000007
 10
11.4145800000000008
 20
10.8440200000000004
 10
11.5809600000000046
 20
10.8334400000000031
 10
11.746220000000001
 20
10.8403199999999984
 10
11.9086800000000039
 20
10.8644000000000034
 10
12.0667200000000037
 20
10.9054599999999979
 10
12.2187200000000047
 20
10.9632599999999982
 10
12.3630199999999988
 20
11.0376000000000012
 10
12.4980000000000047
 20
11.1281999999999996
 10
12.6220199999999991
 20
11.2348800000000004
 10
12.7334600000000009
 20
11.3573599999999999
 10
12.8306600000000017
 20
11.4954400000000021
 10
12.9119799999999998
 20
11.6488799999999983
 10
12.9758199999999988
 20
11.8174400000000013
 10
13.0205199999999977
 20
12.0009200000000007
 10
13.0450799999999987
 20
12.1979800000000012
 10
13.0483399999999961
 20
12.3922600000000003
 10
13.0325399999999973
 20
12.5838400000000021
 10
12.9998999999999967
 20
12.7728200000000029
 10
12.9526400000000024
 20
12.9592600000000004
 10
12.8930000000000007
 20
13.1432399999999987
 10
12.8231999999999999
 20
13.3248400000000018
 10
12.7454800000000006
 20
13.5041399999999996
 10
12.6620800000000031
 20
13.6812400000000025
 10
12.5752000000000024
 20
13.8561800000000019
 10
12.4870999999999981
 20
14.0290800000000004
 10
12.3999999999999986
 20
14.2000000000000011
 10
12.5936999999999983
 20
14.2599400000000003
 10
12.7434399999999997
 20
14.3448600000000006
 10
12.854619999999997
 20
14.4520999999999997
 10
12.9325800000000015
 20
14.5790600000000019
 10
12.9827000000000012
 20
14.7231400000000008
 10
13.0103799999999978
 20
14.8816800000000011
 10
13.0209800000000016
 20
15.0520999999999994
 10
13.0198600000000013
 20
15.2317600000000013
 10
13.0123999999999995
 20
15.4180399999999995
 10
13.0039799999999985
 20
15.6083200000000009
 10
13.0
 20
15.8000000000000007
 10
12.8511000000000024
 20
15.7941599999999998
 10
12.6992600000000024
 20
15.78918
 10
12.5447199999999981
 20
15.7848400000000009
 10
12.3878200000000049
 20
15.7809400000000011
 10
12.2288399999999982
 20
15.7772400000000008
 10
12.0680600000000027
 20
15.7735600000000016
 10
11.9058199999999985
 20
15.76966
 10
11.7423799999999972
 20
15.7653400000000019
 10
11.5780799999999999
 20
15.7604000000000024
 10
11.413179999999997
 20
15.754620000000001
 10
11.2479799999999983
 20
15.7477800000000006
 10
11.0827999999999989
 20
15.7396600000000007
 10
10.9179200000000023
 20
15.730080000000001
 10
10.7536400000000043
 20
15.7187999999999999
 10
10.5902799999999999
 20
15.7056199999999997
 10
10.4281000000000006
 20
15.6903199999999998
 10
10.2674400000000006
 20
15.6727000000000007
 10
10.1085599999999971
 20
15.6525600000000011
 10
9.9517799999999994
 20
15.629640000000002
 10
9.7974000000000032
 20
15.6037800000000004
 10
9.6457199999999972
 20
15.5747400000000003
 10
9.4970199999999991
 20
15.5423200000000019
 10
9.3516000000000048
 20
15.5062999999999995
 10
9.2097800000000021
 20
15.4664800000000024
 10
9.0718200000000024
 20
15.422620000000002
 10
8.9380600000000001
 20
15.3745399999999997
 10
8.8087799999999987
 20
15.322020000000002
 10
8.6842800000000011
 20
15.2648400000000013
 10
8.564860000000003
 20
15.2027999999999999
 10
8.450800000000001
 20
15.1356599999999997
 10
8.3424200000000042
 20
15.0632400000000004
 10
8.2400200000000012
 20
14.9853199999999998
 10
8.1438800000000029
 20
14.9016999999999999
 10
8.0542999999999978
 20
14.8121399999999994
 10
7.9716000000000022
 20
14.7164400000000004
 10
7.8960599999999985
 20
14.6143800000000006
 10
7.8279799999999966
 20
14.5057600000000022
 10
7.7676599999999993
 20
14.3903800000000004
 10
7.7154000000000025
 20
14.2680200000000017
 10
7.6714800000000025
 20
14.138440000000001
 10
7.6362200000000016
 20
14.0014600000000016
 10
7.6099200000000025
 20
13.8568600000000011
 10
7.592880000000001
 20
13.7044399999999982
 10
7.5853600000000014
 20
13.543960000000002
 10
7.5877200000000045
 20
13.3752199999999988
 10
7.600200000000001
 20
13.1980199999999996
 10
7.6231200000000001
 20
13.0121400000000023
 10
7.656800000000004
 20
12.8173600000000008
 10
7.7015000000000029
 20
12.6134800000000027
 10
7.757559999999998
 20
12.4003000000000014
 10
7.8246600000000015
 20
12.187739999999998
 10
7.9025000000000034
 20
11.9813000000000009
 10
7.9895599999999973
 20
11.7798000000000016
 10
8.0843399999999974
 20
11.5820599999999985
 10
8.1853399999999965
 20
11.386960000000002
 10
8.2910600000000017
 20
11.1933199999999999
 10
8.3999999999999986
 20
11.0
  0
LWPOLYLINE
  5
5F
  8
C18
 62
256
370
-1
  6
ByLayer
100
AcDbEntity
100
AcDbPolyline
 90
5
 70
0
 10
41.0
 20
15.8000000000000007
 10
41.0
 20
6.1999999999999993
 10
43.8000000000000043
 20
6.1999999999999993
 10
43.8000000000000043
 20
15.8000000000000007
 10
41.0
 20
15.8000000000000007
  0
LWPOLYLINE
  5
60
  8
C18
 62
256
370
-1
  6
ByLayer
100
AcDbEntity
100
AcDbPolyline
 90
137
 70
0
 10
5.6000000000000014
 20
9.8000000000000007
 10
5.6047000000000011
 20
9.5858199999999982
 10
5.6186399999999992
 20
9.3807000000000009
 10
5.6416400000000024
 20
9.1844000000000001
 10
5.6734200000000001
 20
8.9967200000000034
 10
5.7137999999999991
 20
8.8174400000000013
 10
5.7625400000000013
 20
8.6463600000000014
 10
5.8194200000000009
 20
8.4832600000000014
 10
5.8842199999999991
 20
8.3279399999999981
 10
5.9566999999999979
 20
8.18018
 10
6.0366399999999985
 20
8.0397800000000004
 10
6.1238400000000013
 20
7.9065000000000012
 10
6.218040000000002
 20
7.7801599999999986
 10
6.3190600000000003
 20
7.660540000000001
 10
6.426639999999999
 20
7.5474199999999989
 10
6.5405799999999985
 20
7.4406199999999991
 10
6.66066
 20
7.3398800000000008
 10
6.7866199999999992
 20
7.2450200000000002
 10
6.9182800000000029
 20
7.1558400000000013
 10
7.0553799999999995
 20
7.0720999999999989
 10
7.1977200000000039
 20
6.9936199999999999
 10
7.3450800000000029
 20
6.92014
 10
7.4972199999999987
 20
6.8515000000000015
 10
7.6539399999999986
 20
6.7874799999999986
 10
7.8149799999999985
 20
6.7278400000000005
 10
7.9801599999999979
 20
6.6723999999999997
 10
8.1492199999999997
 20
6.6209400000000009
 10
8.3219399999999979
 20
6.5732399999999984
 10
8.4981200000000001
 20
6.5290999999999997
 10
8.6775400000000005
 20
6.4882999999999988
 10
8.8599400000000017
 20
6.4506399999999999
 10
9.0451400000000035
 20
6.4159000000000006
 10
9.2328800000000015
 20
6.3838800000000013
 10
9.422939999999997
 20
6.3543400000000005
 10
9.6151200000000046
 20
6.3271200000000007
 10
9.8092000000000041
 20
6.3019600000000011
 10
10.0049199999999985
 20
6.2786600000000021
 10
10.2021000000000015
 20
6.2570399999999999
 10
10.4004800000000017
 20
6.2368600000000001
 10
10.5998400000000004
 20
6.2179199999999994
 10
10.7999999999999972
 20
6.1999999999999993
 10
10.66404
 20
6.0866000000000007
 10
10.5197799999999972
 20
5.9783399999999993
 10
10.3677399999999977
 20
5.8750600000000013
 10
10.2084400000000031
 20
5.7765599999999999
 10
10.0424199999999999
 20
5.6826800000000013
 10
9.8702400000000026
 20
5.5932400000000015
 10
9.6923999999999992
 20
5.5080799999999996
 10
9.5094399999999979
 20
5.4270199999999988
 10
9.3219199999999987
 20
5.3498799999999989
 10
9.1303600000000031
 20
5.2764999999999986
 10
8.9352799999999988
 20
5.2067000000000014
 10
8.7372200000000007
 20
5.1402999999999999
 10
8.5367400000000018
 20
5.07714
 10
8.3343399999999974
 20
5.0170400000000015
 10
8.1305800000000019
 20
4.9598399999999998
 10
7.9259600000000034
 20
4.9053400000000025
 10
7.7210600000000014
 20
4.8533800000000014
 10
7.5163799999999981
 20
4.8037799999999997
 10
7.3124800000000008
 20
4.7563800000000001
 10
7.109880000000004
 20
4.7109999999999985
 10
6.9091000000000022
 20
4.6674800000000012
 10
6.7107000000000028
 20
4.6256200000000014
 10
6.5152000000000001
 20
4.5852800000000009
 10
6.3231600000000014
 20
4.5462600000000002
 10
6.1350600000000028
 20
4.5083799999999989
 10
5.9514800000000037
 20
4.4714999999999989
 10
5.7729599999999976
 20
4.4354200000000006
 10
5.6000000000000014
 20
4.3999999999999986
 10
5.6000000000000014
 20
2.1999999999999993
 10
13.0
 20
2.1999999999999993
 10
13.0
 20
3.6000000000000014
 10
8.3999999999999986
 20
3.6000000000000014
 10
8.3999999999999986
 20
3.8000000000000007
 10
8.5175399999999968
 20
3.817540000000001
 10
8.6502600000000029
 20
3.8379200000000004
 10
8.7967799999999983
 20
3.8612199999999994
 10
8.9557199999999995
 20
3.8875799999999998
 10
9.1257400000000004
 20
3.9170799999999986
 10
9.305419999999998
 20
3.9498400000000018
 10
9.4934399999999997
 20
3.9859599999999986
 10
9.6883800000000022
 20
4.0255399999999995
 10
9.8888999999999996
 20
4.068719999999999
 10
10.0936200000000014
 20
4.1155800000000013
 10
10.3011800000000022
 20
4.1662400000000019
 10
10.5101999999999975
 20
4.2208000000000006
 10
10.719300000000004
 20
4.2793600000000005
 10
10.9271200000000022
 20
4.3420400000000008
 10
11.1322800000000015
 20
4.4089400000000012
 10
11.3333999999999975
 20
4.4802
 10
11.5291399999999982
 20
4.5558800000000019
 10
11.718119999999999
 20
4.636099999999999
 10
11.8989400000000032
 20
4.7209800000000008
 10
12.0702600000000047
 20
4.8106399999999994
 10
12.2306999999999988
 20
4.9051600000000022
 10
12.3788800000000023
 20
5.004640000000002
 10
12.5134200000000035
 20
5.1092200000000005
 10
12.6329800000000034
 20
5.2190000000000012
 10
12.7361800000000045
 20
5.3340800000000002
 10
12.8216400000000021
 20
5.4545600000000007
 10
12.8879799999999989
 20
5.5805599999999984
 10
12.9338400000000036
 20
5.71218
 10
12.9578399999999974
 20
5.8495400000000011
 10
12.9586400000000026
 20
5.9927400000000013
 10
12.9367000000000019
 20
6.1244399999999999
 10
12.8926000000000016
 20
6.2509200000000007
 10
12.8277199999999993
 20
6.3722400000000015
 10
12.7434399999999997
 20
6.4885000000000019
 10
12.6411599999999993
 20
6.5997799999999991
 10
12.5222800000000021
 20
6.7061600000000006
 10
12.3881599999999992
 20
6.807739999999999
 10
12.2402200000000008
 20
6.9045799999999993
 10
12.079819999999998
 20
6.9968000000000004
 10
11.9083800000000011
 20
7.0844799999999992
 10
11.7272800000000004
 20
7.1676800000000007
 10
11.5379000000000005
 20
7.2465000000000011
 10
11.3416399999999982
 20
7.32104
 10
11.1398999999999972
 20
7.3913599999999988
 10
10.9340400000000031
 20
7.4575800000000001
 10
10.7254800000000046
 20
7.5197399999999988
 10
10.5155999999999992
 20
7.5779600000000009
 10
10.3057799999999986
 20
7.6323399999999992
 10
10.0974399999999989
 20
7.6829199999999993
 10
9.8919399999999982
 20
7.7298200000000001
 10
9.6906600000000012
 20
7.7730999999999995
 10
9.495040000000003
 20
7.8128799999999998
 10
9.3064200000000028
 20
7.849219999999999
 10
9.1261999999999972
 20
7.882200000000001
 10
8.9558000000000035
 20
7.9119400000000013
 10
8.7965799999999987
 20
7.9385000000000012
 10
8.6499600000000001
 20
7.9619800000000005
 10
8.5172999999999988
 20
7.9824400000000004
 10
8.3999999999999986
 20
8.0
 10
8.3999999999999986
 20
8.2000000000000028
 10
13.0
 20
8.2000000000000028
 10
13.0
 20
9.8000000000000007
 10
5.6000000000000014
 20
9.8000000000000007
  0
LWPOLYLINE
  5
61
  8
C18
 62
256
370
-1
  6
ByLayer
100
AcDbEntity
100
AcDbPolyline
 90
1
 70
0
  0
LWPOLYLINE
  5
62
  8
C18
 62
256
370
-1
  6
ByLayer
100
AcDbEntity
100
AcDbPolyline
 90
5
 70
0
 10
0.0
 20
65.4000000000000057
 10
0.0
 20
0.0
 10
80.8000000000000114
 20
0.0
 10
80.8000000000000114
 20
65.4000000000000057
 10
0.0
 20
65.4000000000000057
  0
LWPOLYLINE
  5
63
  8
C18
 62
256
370
-1
  6
ByLayer
100
AcDbEntity
100
AcDbPolyline
 90
90
 70
0
 10
18.4000000000000021
 20
62.2000000000000028
 10
18.4000000000000021
 20
19.6000000000000014
 10
18.4000000000000021
 20
7.8000000000000007
 10
18.3978399999999986
 20
7.635860000000001
 10
18.3917800000000007
 20
7.46218
 10
18.3823800000000013
 20
7.2798200000000008
 10
18.3702599999999983
 20
7.0896600000000021
 10
18.3559599999999996
 20
6.8926000000000016
 10
18.3401199999999989
 20
6.6895200000000017
 10
18.3232800000000005
 20
6.4813200000000002
 10
18.3060599999999987
 20
6.2688400000000009
 10
18.2890200000000007
 20
6.0530000000000008
 10
18.2727600000000017
 20
5.8346799999999988
 10
18.2578600000000009
 20
5.6147600000000004
 10
18.2449000000000012
 20
5.3941400000000002
 10
18.2345000000000006
 20
5.1736800000000009
 10
18.2271999999999998
 20
4.9542800000000007
 10
18.2236200000000004
 20
4.7368200000000016
 10
18.2243200000000023
 20
4.5221799999999988
 10
18.2299200000000035
 20
4.3112600000000008
 10
18.2409800000000004
 20
4.1049199999999999
 10
18.2580800000000032
 20
3.9040600000000012
 10
18.2818199999999997
 20
3.709579999999999
 10
18.3127999999999993
 20
3.5223399999999998
 10
18.351580000000002
 20
3.3432400000000015
 10
18.3987599999999993
 20
3.1731400000000001
 10
18.4549200000000013
 20
3.0129599999999996
 10
18.520660000000003
 20
2.8635799999999989
 10
18.599260000000001
 20
2.7411799999999999
 10
18.7032199999999982
 20
2.6375400000000013
 10
18.8298799999999993
 20
2.5512599999999992
 10
18.9766399999999997
 20
2.4809400000000004
 10
19.1408400000000007
 20
2.4252199999999995
 10
19.3198800000000013
 20
2.3826800000000006
 10
19.511099999999999
 20
2.3519800000000011
 10
19.7119
 20
2.3316799999999986
 10
19.9196200000000019
 20
2.3204199999999986
 10
20.1316600000000001
 20
2.3168199999999999
 10
20.3453800000000022
 20
2.3194799999999987
 10
20.5581600000000009
 20
2.3270400000000002
 10
20.7673400000000008
 20
2.3380599999999987
 10
20.970320000000001
 20
2.3512200000000014
 10
21.164439999999999
 20
2.365079999999999
 10
21.3471000000000011
 20
2.3782800000000002
 10
21.5156800000000032
 20
2.3894200000000012
 10
21.6675199999999997
 20
2.397120000000001
 10
21.8000000000000007
 20
2.3999999999999986
 10
31.6000000000000014
 20
2.3999999999999986
 10
66.6000000000000085
 20
2.3999999999999986
 10
75.2000000000000028
 20
2.3999999999999986
 10
75.3477600000000081
 20
2.3965600000000009
 10
75.5164200000000108
 20
2.3874999999999993
 10
75.7026200000000102
 20
2.3746800000000015
 10
75.9030000000000058
 20
2.3600199999999987
 10
76.1142200000000031
 20
2.3453400000000002
 10
76.3329200000000014
 20
2.3325400000000016
 10
76.5557600000000065
 20
2.3234999999999992
 10
76.7793800000000033
 20
2.3201000000000001
 10
77.0004400000000118
 20
2.3242000000000012
 10
77.2155600000000106
 20
2.3376799999999989
 10
77.4214200000000119
 20
2.3624200000000002
 10
77.6146600000000149
 20
2.4003000000000014
 10
77.791940000000011
 20
2.4531799999999997
 10
77.9499000000000137
 20
2.5229600000000012
 10
78.0851800000000082
 20
2.6114800000000002
 10
78.1944400000000002
 20
2.7206600000000023
 10
78.2774600000000049
 20
2.8443000000000005
 10
78.3470800000000054
 20
2.9866200000000021
 10
78.4042800000000142
 20
3.1458000000000013
 10
78.4500000000000028
 20
3.3200000000000003
 10
78.4851800000000139
 20
3.5073800000000013
 10
78.5108200000000096
 20
3.70608
 10
78.527860000000004
 20
3.91432
 10
78.5372399999999971
 20
4.1302200000000013
 10
78.5399600000000078
 20
4.3519599999999983
 10
78.5369400000000155
 20
4.5776800000000009
 10
78.5291399999999982
 20
4.8055999999999983
 10
78.5175399999999968
 20
5.0338199999999986
 10
78.5031000000000034
 20
5.2605600000000017
 10
78.4867600000000039
 20
5.4839599999999997
 10
78.4695000000000107
 20
5.7021599999999992
 10
78.4522600000000097
 20
5.9133800000000001
 10
78.436000000000007
 20
6.1157400000000024
 10
78.4216800000000092
 20
6.3074000000000012
 10
78.4102600000000081
 20
6.4865600000000008
 10
78.4027200000000022
 20
6.6513799999999996
 10
78.4000000000000057
 20
6.8000000000000007
 10
78.4000000000000057
 20
18.1999999999999993
 10
78.4000000000000057
 20
62.2000000000000028
 10
18.4000000000000021
 20
62.2000000000000028
  0
LWPOLYLINE
  5
64
  8
C18
 62
256
370
-1
  6
ByLayer
100
AcDbEntity
100
AcDbPolyline
 90
20
 70
0
 10
9.7999999999999972
 20
51.4000000000000057
 10
9.7999999999999972
 20
53.4000000000000057
 10
9.6166199999999975
 20
53.3220000000000027
 10
9.4535600000000031
 20
53.2314000000000007
 10
9.3110199999999992
 20
53.1297800000000109
 10
9.1892600000000044
 20
53.0187999999999988
 10
9.0885000000000034
 20
52.9001200000000082
 10
9.0090000000000003
 20
52.775340000000007
 10
8.9510000000000005
 20
52.6461400000000026
 10
8.9147200000000026
 20
52.5141200000000055
 10
8.9004199999999969
 20
52.3809200000000033
 10
8.9083400000000026
 20
52.2481999999999971
 10
8.9386999999999972
 20
52.1176000000000101
 10
8.9917400000000001
 20
51.9907400000000095
 10
9.0677200000000013
 20
51.869259999999997
 10
9.166879999999999
 20
51.7548199999999952
 10
9.289439999999999
 20
51.6490200000000002
 10
9.4356599999999986
 20
51.553520000000006
 10
9.6057600000000036
 20
51.4699799999999996
 10
9.7999999999999972
 20
51.4000000000000057
  0
LWPOLYLINE
  5
65
  8
C18
 62
256
370
-1
  6
ByLayer
100
AcDbEntity
100
AcDbPolyline
 90
20
 70
0
 10
9.7999999999999972
 20
36.2000000000000028
 10
9.7999999999999972
 20
38.2000000000000028
 10
9.6166199999999975
 20
38.122000000000007
 10
9.4535600000000031
 20
38.031400000000005
 10
9.3110199999999992
 20
37.9297800000000009
 10
9.1892600000000044
 20
37.8188200000000023
 10
9.0885000000000034
 20
37.7001199999999983
 10
9.0090000000000003
 20
37.5753600000000034
 10
8.9510000000000005
 20
37.4461400000000069
 10
8.9147200000000026
 20
37.3141200000000026
 10
8.9004199999999969
 20
37.1809399999999997
 10
8.9083400000000026
 20
37.0482200000000006
 10
8.9386999999999972
 20
36.9176000000000002
 10
8.9917400000000001
 20
36.7907399999999996
 10
9.0677200000000013
 20
36.6692800000000005
 10
9.166879999999999
 20
36.5548199999999994
 10
9.289439999999999
 20
36.4490200000000044
 10
9.4356599999999986
 20
36.3535400000000024
 10
9.6057600000000036
 20
36.2699799999999968
 10
9.7999999999999972
 20
36.2000000000000028
  0
LWPOLYLINE
  5
66
  8
C18
 62
256
370
-1
  6
ByLayer
100
AcDbEntity
100
AcDbPolyline
 90
39
 70
0
 10
60.4000000000000057
 20
29.4000000000000021
 10
64.2000000000000028
 20
29.6000000000000014
 10
64.1428400000000067
 20
29.7965400000000002
 10
64.0776600000000087
 20
29.9805600000000041
 10
64.0049600000000112
 20
30.1521599999999985
 10
63.9251800000000046
 20
30.3114600000000003
 10
63.8388000000000062
 20
30.4585600000000021
 10
63.7462800000000058
 20
30.5935799999999993
 10
63.6481199999999987
 20
30.7166400000000017
 10
63.5447400000000044
 20
30.8278399999999984
 10
63.4366599999999963
 20
30.9272800000000032
 10
63.3243200000000002
 20
31.0151000000000039
 10
63.2081800000000058
 20
31.0914000000000001
 10
63.0887400000000014
 20
31.1563000000000017
 10
62.9664599999999979
 20
31.2099000000000011
 10
62.8418199999999985
 20
31.2523199999999974
 10
62.7152600000000007
 20
31.2836599999999976
 10
62.5872600000000077
 20
31.3040400000000005
 10
62.4583000000000013
 20
31.3135800000000017
 10
62.3288400000000067
 20
31.3124000000000038
 10
62.1993600000000058
 20
31.3005800000000036
 10
62.0703400000000016
 20
31.2782600000000031
 10
61.9422199999999989
 20
31.2455600000000011
 10
61.815480000000008
 20
31.2025600000000018
 10
61.6905999999999963
 20
31.1493800000000043
 10
61.5680399999999963
 20
31.0861600000000031
 10
61.448280000000004
 20
31.0129799999999989
 10
61.3317800000000091
 20
30.9299800000000005
 10
61.2190000000000083
 20
30.8372400000000049
 10
61.1104400000000112
 20
30.7348999999999997
 10
61.0065600000000074
 20
30.6230800000000016
 10
60.9078000000000017
 20
30.5018600000000006
 10
60.8146600000000035
 20
30.3713599999999992
 10
60.7275999999999954
 20
30.2317000000000036
 10
60.6471000000000018
 20
30.0829999999999984
 10
60.5736200000000053
 20
29.9253800000000041
 10
60.5076200000000028
 20
29.7589200000000034
 10
60.4496000000000038
 20
29.5837600000000016
 10
60.4000000000000057
 20
29.4000000000000021
  0
LWPOLYLINE
  5
67
  8
C18
 62
256
370
-1
  6
ByLayer
100
AcDbEntity
100
AcDbPolyline
 90
65
 70
0
 10
43.4000000000000057
 20
28.4000000000000021
 10
43.1976000000000013
 20
28.3827400000000019
 10
42.9961600000000033
 20
28.3627000000000038
 10
42.7956000000000074
 20
28.3390400000000007
 10
42.5957800000000049
 20
28.3109000000000002
 10
42.3966000000000065
 20
28.2774400000000021
 10
42.1979400000000027
 20
28.2378199999999993
 10
41.999680000000005
 20
28.1911999999999985
 10
41.7934000000000054
 20
28.1355599999999981
 10
41.5894200000000041
 20
28.071780000000004
 10
41.3898000000000081
 20
27.9965200000000003
 10
41.1965600000000052
 20
27.9064599999999992
 10
41.0117200000000039
 20
27.7983000000000011
 10
40.8697799999999987
 20
27.6989200000000011
 10
40.7453800000000044
 20
27.5994400000000013
 10
40.6378800000000027
 20
27.500119999999999
 10
40.5466800000000021
 20
27.4011800000000001
 10
40.4711599999999976
 20
27.3029400000000031
 10
40.4107400000000041
 20
27.2056199999999997
 10
40.3648000000000025
 20
27.1095199999999998
 10
40.3327200000000019
 20
27.0148800000000016
 10
40.3138800000000046
 20
26.9219800000000049
 10
40.3077200000000033
 20
26.8310600000000044
 10
40.3135800000000017
 20
26.7424199999999992
 10
40.3308800000000076
 20
26.6563200000000009
 10
40.3590000000000018
 20
26.573000000000004
 10
40.3973400000000069
 20
26.4927399999999977
 10
40.4452800000000039
 20
26.4158000000000044
 10
40.5022200000000012
 20
26.3424600000000027
 10
40.5675400000000081
 20
26.2729600000000012
 10
40.640660000000004
 20
26.2075800000000037
 10
40.7209400000000059
 20
26.1465800000000002
 10
40.8078000000000003
 20
26.0902400000000014
 10
40.9005999999999972
 20
26.0388200000000012
 10
40.9987600000000043
 20
25.9925599999999974
 10
41.1016400000000033
 20
25.9517400000000009
 10
41.2086600000000018
 20
25.916640000000001
 10
41.3192000000000021
 20
25.8875000000000028
 10
41.4326599999999985
 20
25.8646000000000029
 10
41.5484200000000001
 20
25.8482199999999978
 10
41.6658800000000014
 20
25.8385800000000039
 10
41.7844200000000043
 20
25.8359800000000028
 10
41.9034400000000034
 20
25.840679999999999
 10
42.0223400000000069
 20
25.852960000000003
 10
42.140500000000003
 20
25.8730399999999996
 10
42.2573000000000008
 20
25.9012200000000021
 10
42.372160000000008
 20
25.9377599999999973
 10
42.4844600000000057
 20
25.9829200000000036
 10
42.5935800000000029
 20
26.0369600000000005
 10
42.6989200000000011
 20
26.1001399999999997
 10
42.7998600000000025
 20
26.1727600000000002
 10
42.8958200000000005
 20
26.2550400000000046
 10
42.9861600000000053
 20
26.3472800000000014
 10
43.0702800000000039
 20
26.4497200000000028
 10
43.1476000000000042
 20
26.5626400000000018
 10
43.2174800000000019
 20
26.6863000000000028
 10
43.2793200000000056
 20
26.8209799999999987
 10
43.3404800000000066
 20
27.0045800000000007
 10
43.3804000000000016
 20
27.1974600000000031
 10
43.4031200000000013
 20
27.3969200000000015
 10
43.4126600000000025
 20
27.60032
 10
43.4130600000000015
 20
27.8049800000000005
 10
43.4084000000000003
 20
28.0082600000000035
 10
43.4027000000000029
 20
28.2074800000000003
 10
43.4000000000000057
 20
28.4000000000000021
  0
LWPOLYLINE
  5
68
  8
C18
 62
256
370
-1
  6
ByLayer
100
AcDbEntity
100
AcDbPolyline
 90
28
 70
0
 10
10.3999999999999986
 20
14.0
 10
10.4544599999999974
 20
13.7843799999999987
 10
10.5121000000000038
 20
13.5830199999999977
 10
10.5753399999999971
 20
13.3961000000000041
 10
10.6466399999999979
 20
13.2238800000000012
 10
10.7284199999999998
 20
13.0665400000000034
 10
10.8231400000000022
 20
12.9243000000000023
 10
10.9332399999999978
 20
12.7973800000000004
 10
11.061160000000001
 20
12.6859800000000007
 10
11.2093399999999974
 20
12.5903400000000012
 10
11.3802599999999998
 20
12.5106400000000022
 10
11.5763200000000026
 20
12.4471199999999982
 10
11.7999999999999972
 20
12.3999999999999986
 10
11.7951199999999972
 20
12.6058000000000021
 10
11.7844199999999972
 20
12.8042000000000016
 10
11.7663200000000003
 20
12.9936399999999992
 10
11.7392400000000023
 20
13.1725599999999972
 10
11.7016199999999984
 20
13.3394000000000013
 10
11.6518799999999985
 20
13.4925999999999995
 10
11.5884399999999985
 20
13.6305800000000019
 10
11.5097799999999992
 20
13.7518200000000022
 10
11.4142599999999987
 20
13.8547200000000004
 10
11.3003599999999977
 20
13.937739999999998
 10
11.1664999999999992
 20
13.9993200000000009
 10
11.011099999999999
 20
14.0379000000000005
 10
10.8325999999999993
 20
14.0519000000000016
 10
10.6294200000000032
 20
14.0397800000000004
 10
10.3999999999999986
 20
14.0
  0
LWPOLYLINE
  5
69
  8
C18
 62
256
370
-1
  6
ByLayer
100
AcDbEntity
100
AcDbPolyline
 90
42
 70
0
 10
55.4000000000000057
 20
12.0
 10
59.0
 20
12.0
 10
58.9816000000000074
 20
12.1907800000000002
 10
58.953160000000004
 20
12.3710200000000015
 10
58.9152000000000058
 20
12.5407599999999988
 10
58.8681799999999953
 20
12.7000400000000013
 10
58.8126400000000018
 20
12.8489599999999982
 10
58.7490400000000079
 20
12.9875400000000027
 10
58.6779400000000066
 20
13.1158800000000042
 10
58.599800000000009
 20
13.234020000000001
 10
58.5151400000000024
 20
13.3420400000000008
 10
58.4244600000000034
 20
13.4399599999999992
 10
58.3282600000000002
 20
13.5279000000000025
 10
58.2270400000000024
 20
13.6058799999999991
 10
58.1213200000000043
 20
13.673960000000001
 10
58.0115800000000092
 20
13.7322200000000016
 10
57.8983399999999975
 20
13.7807400000000015
 10
57.7821000000000069
 20
13.8195400000000035
 10
57.6633600000000044
 20
13.8486800000000017
 10
57.5426399999999987
 20
13.8682599999999994
 10
57.4204000000000008
 20
13.8783200000000022
 10
57.2972000000000037
 20
13.8789400000000001
 10
57.1734799999999979
 20
13.8701399999999992
 10
57.0498000000000047
 20
13.8520199999999996
 10
56.926639999999999
 20
13.8246199999999995
 10
56.8044999999999973
 20
13.7880200000000031
 10
56.683880000000002
 20
13.7422800000000009
 10
56.5653000000000077
 20
13.6874400000000023
 10
56.4492600000000095
 20
13.6235600000000012
 10
56.3362400000000036
 20
13.5507399999999976
 10
56.2267600000000058
 20
13.4690000000000012
 10
56.1213200000000043
 20
13.3784400000000012
 10
56.0204400000000007
 20
13.2790800000000004
 10
55.9245999999999981
 20
13.1709999999999994
 10
55.8343200000000053
 20
13.0542799999999986
 10
55.7500800000000041
 20
12.9289600000000036
 10
55.6724000000000103
 20
12.7950999999999979
 10
55.601779999999998
 20
12.6527799999999999
 10
55.5387399999999971
 20
12.5020400000000009
 10
55.4837400000000045
 20
12.3429599999999979
 10
55.437339999999999
 20
12.1755800000000001
 10
55.4000000000000057
 20
12.0
  0
LWPOLYLINE
  5
6A
  8
C18
 62
256
370
-1
  6
ByLayer
100
AcDbEntity
100
AcDbPolyline
 90
78
 70
0
 10
36.0
 20
11.0
 10
35.8016599999999983
 20
10.9416200000000003
 10
35.6014000000000053
 20
10.8898399999999995
 10
35.3999400000000009
 20
10.8421200000000013
 10
35.1980200000000067
 20
10.7960400000000014
 10
34.9963399999999965
 20
10.7490799999999993
 10
34.795659999999998
 20
10.6988200000000013
 10
34.5966799999999992
 20
10.6427200000000006
 10
34.4001400000000004
 20
10.5783800000000028
 10
34.2387600000000063
 20
10.5178599999999989
 10
34.0900999999999996
 20
10.4557000000000002
 10
33.9538000000000011
 20
10.3920400000000015
 10
33.8295400000000015
 20
10.3270400000000002
 10
33.7170200000000051
 20
10.2608800000000002
 10
33.6159000000000034
 20
10.1936800000000005
 10
33.5258400000000023
 20
10.1256400000000006
 10
33.4465599999999981
 20
10.0568999999999988
 10
33.3776999999999973
 20
9.9876199999999997
 10
33.3189399999999978
 20
9.9179600000000008
 10
33.2699599999999975
 20
9.8480600000000003
 10
33.2304600000000008
 20
9.7781200000000013
 10
33.2000999999999991
 20
9.7082600000000028
 10
33.1785399999999981
 20
9.6386800000000008
 10
33.1654800000000023
 20
9.5694799999999987
 10
33.1605800000000031
 20
9.5008800000000022
 10
33.1635199999999983
 20
9.4329999999999998
 10
33.1739999999999995
 20
9.3660199999999989
 10
33.1916600000000059
 20
9.3000800000000012
 10
33.2162199999999999
 20
9.2353400000000008
 10
33.2473000000000027
 20
9.1719800000000014
 10
33.2846200000000039
 20
9.1101600000000005
 10
33.3278600000000012
 20
9.0500000000000007
 10
33.3766600000000011
 20
8.9917000000000016
 10
33.4307200000000009
 20
8.9354000000000013
 10
33.4897199999999984
 20
8.881260000000001
 10
33.5533399999999986
 20
8.8294399999999982
 10
33.6212400000000002
 20
8.7801200000000001
 10
33.6931000000000012
 20
8.7334200000000024
 10
33.7685999999999993
 20
8.6895200000000017
 10
33.8474199999999996
 20
8.6485800000000026
 10
33.9292400000000001
 20
8.6107599999999991
 10
34.0137199999999993
 20
8.5762
 10
34.1005600000000015
 20
8.5450999999999979
 10
34.1894200000000055
 20
8.5175800000000024
 10
34.2799800000000019
 20
8.4938000000000002
 10
34.3719000000000037
 20
8.4739399999999989
 10
34.4649000000000001
 20
8.4581599999999995
 10
34.5586200000000048
 20
8.4466000000000001
 10
34.6527400000000014
 20
8.4394199999999984
 10
34.7469600000000014
 20
8.4367999999999981
 10
34.8409400000000034
 20
8.438880000000001
 10
34.9343399999999988
 20
8.4458400000000005
 10
35.0268599999999992
 20
8.4577999999999989
 10
35.1181800000000024
 20
8.4749600000000029
 10
35.207960000000007
 20
8.4974600000000002
 10
35.2959000000000032
 20
8.5254600000000025
 10
35.3816399999999973
 20
8.5591000000000008
 10
35.4648800000000008
 20
8.5985799999999983
 10
35.5452999999999975
 20
8.6440400000000004
 10
35.6225799999999992
 20
8.6956199999999981
 10
35.6963799999999978
 20
8.7535000000000025
 10
35.7663799999999981
 20
8.8178400000000003
 10
35.8322600000000051
 20
8.8888000000000034
 10
35.8936800000000034
 20
8.9665200000000027
 10
35.9503600000000034
 20
9.0511800000000022
 10
36.0019400000000047
 20
9.142940000000003
 10
36.0481200000000044
 20
9.2419200000000004
 10
36.0885400000000018
 20
9.3483400000000003
 10
36.1229200000000006
 20
9.462299999999999
 10
36.1509
 20
9.5840000000000032
 10
36.1721999999999966
 20
9.7135999999999996
 10
36.1864399999999975
 20
9.8512200000000014
 10
36.1933600000000055
 20
9.9970600000000012
 10
36.1900400000000033
 20
10.2149600000000014
 10
36.1699599999999961
 20
10.4164400000000015
 10
36.1322200000000038
 20
10.609259999999999
 10
36.0758599999999987
 20
10.8012000000000015
 10
36.0
 20
11.0
  0
ENDSEC
  0
SECTION
  2
OBJECTS
  0
DICTIONARY
  5
C
100
AcDbDictionary
280
0
281
1
  3
ACAD_GROUP
350
D
  3
ACAD_LAYOUT
350
1A
  3
ACAD_MLINESTYLE
350
17
  3
ACAD_PLOTSETTINGS
350
19
  3
ACAD_PLOTSTYLENAME
350
E
  3
AcDbVariableDictionary
350
6B
  0
DICTIONARY
  5
D
100
AcDbDictionary
280
0
281
1
  0
ACDBDICTIONARYWDFLT
  5
E
100
AcDbDictionary
281
1
  3
Normal
350
F
100
AcDbDictionaryWithDefault
340
F
  0
ACDBPLACEHOLDER
  5
F
  0
DICTIONARY
  5
17
100
AcDbDictionary
280
0
281
1
  3
Standard
350
18
  0
MLINESTYLE
  5
18
100
AcDbMlineStyle
  2
STANDARD
 70
0
  3

 62
256
 51
90.0
 52
90.0
 71
2
 49
0.5
 62
256
  6
BYLAYER
 49
-0.5
 62
256
  6
BYLAYER
  0
DICTIONARY
  5
19
100
AcDbDictionary
280
0
281
1
  0
DICTIONARY
  5
1A
100
AcDbDictionary
281
1
  3
Layout1
350
1E
  3
Layout2
350
26
  3
Model
350
22
  0
LAYOUT
  5
1E
100
AcDbPlotSettings
  1

  2
C:\Program Files\AutoCAD 2002\plotters\DWF ePlot (optimized for plotting).pc3
  4

  6

 40
0.0
 41
0.0
 42
0.0
 43
0.0
 44
0.0
 45
0.0
 46
0.0
 47
0.0
 48
0.0
 49
0.0
140
0.0
141
0.0
142
1.0
143
1.0
 70
688
 72
0
 73
0
 74
5
  7

 75
16
147
1.0
148
0.0
149
0.0
100
AcDbLayout
  1
Layout1
 70
1
 71
1
 10
0.0
 20
0.0
 11
420.0
 21
297.0
 12
0.0
 22
0.0
 32
0.0
 14
100000000000000000000.0
 24
100000000000000000000.0
 34
100000000000000000000.0
 15
-100000000000000000000.0
 25
-100000000000000000000.0
 35
-100000000000000000000.0
146
0.0
 13
0.0
 23
0.0
 33
0.0
 16
1.0
 26
0.0
 36
0.0
 17
0.0
 27
1.0
 37
0.0
 76
0
330
1B
  0
LAYOUT
  5
22
100
AcDbPlotSettings
  1

  2
C:\Program Files\AutoCAD 2002\plotters\DWF ePlot (optimized for plotting).pc3
  4

  6

 40
0.0
 41
0.0
 42
0.0
 43
0.0
 44
0.0
 45
0.0
 46
0.0
 47
0.0
 48
0.0
 49
0.0
140
0.0
141
0.0
142
1.0
143
1.0
 70
1712
 72
0
 73
0
 74
0
  7

 75
0
147
1.0
148
0.0
149
0.0
100
AcDbLayout
  1
Model
 70
1
 71
0
 10
0.0
 20
0.0
 11
12.0
 21
9.0
 12
0.0
 22
0.0
 32
0.0
 14
0.0
 24
0.0
 34
0.0
 15
0.0
 25
0.0
 35
0.0
146
0.0
 13
0.0
 23
0.0
 33
0.0
 16
1.0
 26
0.0
 36
0.0
 17
0.0
 27
1.0
 37
0.0
 76
0
330
1F
  0
LAYOUT
  5
26
100
AcDbPlotSettings
  1

  2
C:\Program Files\AutoCAD 2002\plotters\DWF ePlot (optimized for plotting).pc3
  4

  6

 40
0.0
 41
0.0
 42
0.0
 43
0.0
 44
0.0
 45
0.0
 46
0.0
 47
0.0
 48
0.0
 49
0.0
140
0.0
141
0.0
142
1.0
143
1.0
 70
688
 72
0
 73
0
 74
5
  7

 75
16
147
1.0
148
0.0
149
0.0
100
AcDbLayout
  1
Layout2
 70
1
 71
2
 10
0.0
 20
0.0
 11
12.0
 21
9.0
 12
0.0
 22
0.0
 32
0.0
 14
0.0
 24
0.0
 34
0.0
 15
0.0
 25
0.0
 35
0.0
146
0.0
 13
0.0
 23
0.0
 33
0.0
 16
1.0
 26
0.0
 36
0.0
 17
0.0
 27
1.0
 37
0.0
 76
0
330
23
  0
DICTIONARY
  5
6B
100
AcDbDictionary
281
1
  3
DIMASSOC
350
6D
  3
HIDETEXT
350
6C
  0
DICTIONARYVAR
  5
6C
100
DictionaryVariables
280
0
  1
2
  0
DICTIONARYVAR
  5
6D
100
DictionaryVariables
280
0
  1
1
  0
ENDSEC
  0
EOF
