999
dxflib 2.2.0.0
  0
SECTION
  2
HEADER
  9
$ACADVER
  1
AC1015
  9
$HANDSEED
  5
FFFF
  9
$DIMASZ
 40
2.5
  9
$PLIMMIN
 10
0.0
 20
0.0
  9
$DIMEXE
 40
1.25
  9
$DIMGAP
 40
0.625
  9
$PLIMMAX
 10
210.0
 20
297.0
  9
$EXTMIN
 10
0.0
 20
0.0
 30
0.0
  9
$EXTMAX
 10
404.0
 20
327.0
 30
0.0
  9
$INSUNITS
 70
4
  9
$DIMSTYLE
  2
Standard
  9
$DIMEXO
 40
0.625
  9
$DIMTXT
 40
2.5
  0
ENDSEC
  0
SECTION
  2
TABLES
  0
TABLE
  2
VPORT
  5
8
100
AcDbSymbolTable
 70
1
  0
VPORT
  5
30
100
AcDbSymbolTableRecord
100
AcDbViewportTableRecord
  2
*Active
 70
0
 10
0.0
 20
0.0
 11
1.0
 21
1.0
 12
286.3055555555554861
 22
148.5
 13
0.0
 23
0.0
 14
10.0
 24
10.0
 15
10.0
 25
10.0
 16
0.0
 26
0.0
 36
1.0
 17
0.0
 27
0.0
 37
0.0
 40
297.0
 41
1.92798353909465
 42
50.0
 43
0.0
 44
0.0
 50
0.0
 51
0.0
 71
0
 72
100
 73
1
 74
3
 75
1
 76
1
 77
0
 78
0
281
0
 65
1
110
0.0
120
0.0
130
0.0
111
1.0
121
0.0
131
0.0
112
0.0
122
1.0
132
0.0
 79
0
146
0.0
  0
ENDTAB
  0
TABLE
  2
LTYPE
  5
5
100
AcDbSymbolTable
 70
21
  0
LTYPE
  5
14
100
AcDbSymbolTableRecord
100
AcDbLinetypeTableRecord
  2
ByBlock
 70
0
  3

 72
65
 73
0
 40
0.0
  0
LTYPE
  5
15
100
AcDbSymbolTableRecord
100
AcDbLinetypeTableRecord
  2
ByLayer
 70
0
  3

 72
65
 73
0
 40
0.0
  0
LTYPE
  5
16
100
AcDbSymbolTableRecord
100
AcDbLinetypeTableRecord
  2
CONTINUOUS
 70
0
  3
Solid line
 72
65
 73
0
 40
0.0
  0
LTYPE
  5
31
100
AcDbSymbolTableRecord
100
AcDbLinetypeTableRecord
  2
DOT
 70
0
  3
Dot . . . . . . . . . . . . . . . . . . . . . .
 72
65
 73
2
 40
6.3499999999999996
 49
0.0
 74
0
 49
-6.3499999999999996
 74
0
  0
LTYPE
  5
32
100
AcDbSymbolTableRecord
100
AcDbLinetypeTableRecord
  2
DOT2
 70
0
  3
Dot (.5x) .....................................
 72
65
 73
2
 40
3.1749999999999998
 49
0.0
 74
0
 49
-3.1749999999999998
 74
0
  0
LTYPE
  5
33
100
AcDbSymbolTableRecord
100
AcDbLinetypeTableRecord
  2
DOTX2
 70
0
  3
Dot (2x) .  .  .  .  .  .  .  .  .  .  .  .  .
 72
65
 73
2
 40
12.6999999999999993
 49
0.0
 74
0
 49
-12.6999999999999993
 74
0
  0
LTYPE
  5
34
100
AcDbSymbolTableRecord
100
AcDbLinetypeTableRecord
  2
DASHED
 70
0
  3
Dashed __ __ __ __ __ __ __ __ __ __ __ __ __ _
 72
65
 73
2
 40
19.0500000000000007
 49
12.6999999999999993
 74
0
 49
-6.3499999999999996
 74
0
  0
LTYPE
  5
35
100
AcDbSymbolTableRecord
100
AcDbLinetypeTableRecord
  2
DASHED2
 70
0
  3
Dashed (.5x) _ _ _ _ _ _ _ _ _ _ _ _ _ _ _ _ _
 72
65
 73
2
 40
9.5250000000000004
 49
6.3499999999999996
 74
0
 49
-3.1749999999999998
 74
0
  0
LTYPE
  5
36
100
AcDbSymbolTableRecord
100
AcDbLinetypeTableRecord
  2
DASHEDX2
 70
0
  3
Dashed (2x) ____  ____  ____  ____  ____  ___
 72
65
 73
2
 40
38.1000000000000014
 49
25.3999999999999986
 74
0
 49
-12.6999999999999993
 74
0
  0
LTYPE
  5
37
100
AcDbSymbolTableRecord
100
AcDbLinetypeTableRecord
  2
DASHDOT
 70
0
  3
Dash dot __ . __ . __ . __ . __ . __ . __ . __
 72
65
 73
4
 40
25.3999999999999986
 49
12.6999999999999993
 74
0
 49
-6.3499999999999996
 74
0
 49
0.0
 74
0
 49
-6.3499999999999996
 74
0
  0
LTYPE
  5
38
100
AcDbSymbolTableRecord
100
AcDbLinetypeTableRecord
  2
DASHDOT2
 70
0
  3
Dash dot (.5x) _._._._._._._._._._._._._._._.
 72
65
 73
4
 40
12.6999999999999993
 49
6.3499999999999996
 74
0
 49
-3.1749999999999998
 74
0
 49
0.0
 74
0
 49
-3.1749999999999998
 74
0
  0
LTYPE
  5
39
100
AcDbSymbolTableRecord
100
AcDbLinetypeTableRecord
  2
DASHDOTX2
 70
0
  3
Dash dot (2x) ____  .  ____  .  ____  .  ___
 72
65
 73
4
 40
50.7999999999999972
 49
25.3999999999999986
 74
0
 49
-12.6999999999999993
 74
0
 49
0.0
 74
0
 49
-12.6999999999999993
 74
0
  0
LTYPE
  5
3A
100
AcDbSymbolTableRecord
100
AcDbLinetypeTableRecord
  2
DIVIDE
 70
0
  3
Divide ____ . . ____ . . ____ . . ____ . . ____
 72
65
 73
6
 40
31.75
 49
12.6999999999999993
 74
0
 49
-6.3499999999999996
 74
0
 49
0.0
 74
0
 49
-6.3499999999999996
 74
0
 49
0.0
 74
0
 49
-6.3499999999999996
 74
0
  0
LTYPE
  5
3B
100
AcDbSymbolTableRecord
100
AcDbLinetypeTableRecord
  2
DIVIDE2
 70
0
  3
Divide (.5x) __..__..__..__..__..__..__..__.._
 72
65
 73
6
 40
15.875
 49
6.3499999999999996
 74
0
 49
-3.1749999999999998
 74
0
 49
0.0
 74
0
 49
-3.1749999999999998
 74
0
 49
0.0
 74
0
 49
-3.1749999999999998
 74
0
  0
LTYPE
  5
3C
100
AcDbSymbolTableRecord
100
AcDbLinetypeTableRecord
  2
DIVIDEX2
 70
0
  3
Divide (2x) ________  .  .  ________  .  .  _
 72
65
 73
6
 40
63.5
 49
25.3999999999999986
 74
0
 49
-12.6999999999999993
 74
0
 49
0.0
 74
0
 49
-12.6999999999999993
 74
0
 49
0.0
 74
0
 49
-12.6999999999999993
 74
0
  0
LTYPE
  5
3D
100
AcDbSymbolTableRecord
100
AcDbLinetypeTableRecord
  2
CENTER
 70
0
  3
Center ____ _ ____ _ ____ _ ____ _ ____ _ ____
 72
65
 73
4
 40
50.7999999999999972
 49
31.75
 74
0
 49
-6.3499999999999996
 74
0
 49
6.3499999999999996
 74
0
 49
-6.3499999999999996
 74
0
  0
LTYPE
  5
3E
100
AcDbSymbolTableRecord
100
AcDbLinetypeTableRecord
  2
CENTER2
 70
0
  3
Center (.5x) ___ _ ___ _ ___ _ ___ _ ___ _ ___
 72
65
 73
4
 40
28.5749999999999993
 49
19.0500000000000007
 74
0
 49
-3.1749999999999998
 74
0
 49
3.1749999999999998
 74
0
 49
-3.1749999999999998
 74
0
  0
LTYPE
  5
3F
100
AcDbSymbolTableRecord
100
AcDbLinetypeTableRecord
  2
CENTERX2
 70
0
  3
Center (2x) ________  __  ________  __  _____
 72
65
 73
4
 40
101.5999999999999943
 49
63.5
 74
0
 49
-12.6999999999999993
 74
0
 49
12.6999999999999993
 74
0
 49
-12.6999999999999993
 74
0
  0
LTYPE
  5
40
100
AcDbSymbolTableRecord
100
AcDbLinetypeTableRecord
  2
BORDER
 70
0
  3
Border __ __ . __ __ . __ __ . __ __ . __ __ .
 72
65
 73
6
 40
44.4500000000000028
 49
12.6999999999999993
 74
0
 49
-6.3499999999999996
 74
0
 49
12.6999999999999993
 74
0
 49
-6.3499999999999996
 74
0
 49
0.0
 74
0
 49
-6.3499999999999996
 74
0
  0
LTYPE
  5
41
100
AcDbSymbolTableRecord
100
AcDbLinetypeTableRecord
  2
BORDER2
 70
0
  3
Border (.5x) __.__.__.__.__.__.__.__.__.__.__.
 72
65
 73
6
 40
22.2250000000000014
 49
6.3499999999999996
 74
0
 49
-3.1749999999999998
 74
0
 49
6.3499999999999996
 74
0
 49
-3.1749999999999998
 74
0
 49
0.0
 74
0
 49
-3.1749999999999998
 74
0
  0
LTYPE
  5
42
100
AcDbSymbolTableRecord
100
AcDbLinetypeTableRecord
  2
BORDERX2
 70
0
  3
Border (2x) ____  ____  .  ____  ____  .  ___
 72
65
 73
6
 40
88.9000000000000057
 49
25.3999999999999986
 74
0
 49
-12.6999999999999993
 74
0
 49
25.3999999999999986
 74
0
 49
-12.6999999999999993
 74
0
 49
0.0
 74
0
 49
-12.6999999999999993
 74
0
  0
ENDTAB
  0
TABLE
  2
LAYER
  5
2
100
AcDbSymbolTable
 70
2
  0
LAYER
  5
10
100
AcDbSymbolTableRecord
100
AcDbLayerTableRecord
  2
0
 70
0
 62
7
  6
CONTINUOUS
290
1
390
F
  0
LAYER
  5
43
100
AcDbSymbolTableRecord
100
AcDbLayerTableRecord
  2
C18
 70
0
 62
18
  6
CONTINUOUS
290
1
390
F
  0
ENDTAB
  0
TABLE
  2
STYLE
  5
3
100
AcDbSymbolTable
 70
1
  0
STYLE
  5
11
100
AcDbSymbolTableRecord
100
AcDbTextStyleTableRecord
  2
Standard
 70
0
 40
0.0
 41
0.75
 50
0.0
 71
0
 42
2.5
  3
txt
  4

  0
ENDTAB
  0
TABLE
  2
VIEW
  5
6
100
AcDbSymbolTable
 70
0
  0
ENDTAB
  0
TABLE
  2
UCS
  5
7
100
AcDbSymbolTable
 70
0
  0
ENDTAB
  0
TABLE
  2
APPID
  5
9
100
AcDbSymbolTable
 70
1
  0
APPID
  5
12
100
AcDbSymbolTableRecord
100
AcDbRegAppTableRecord
  2
ACAD
 70
0
  0
ENDTAB
  0
TABLE
  2
DIMSTYLE
  5
A
100
AcDbSymbolTable
 70
1
100
AcDbDimStyleTable
 71
0
  0
DIMSTYLE
105
27
100
AcDbSymbolTableRecord
100
AcDbDimStyleTableRecord
  2
Standard
 41
2.5
 42
0.625
 43
3.75
 44
1.25
 70
0
 73
0
 74
0
 77
1
 78
8
140
2.5
141
2.5
143
0.03937007874016
147
0.625
171
3
172
1
271
2
272
2
274
3
278
44
283
0
284
8
340
11
  0
ENDTAB
  0
TABLE
  2
BLOCK_RECORD
  5
1
100
AcDbSymbolTable
 70
1
  0
BLOCK_RECORD
  5
1F
100
AcDbSymbolTableRecord
100
AcDbBlockTableRecord
  2
*Model_Space
340
22
  0
BLOCK_RECORD
  5
1B
100
AcDbSymbolTableRecord
100
AcDbBlockTableRecord
  2
*Paper_Space
340
1E
  0
BLOCK_RECORD
  5
23
100
AcDbSymbolTableRecord
100
AcDbBlockTableRecord
  2
*Paper_Space0
340
26
  0
ENDTAB
  0
ENDSEC
  0
SECTION
  2
BLOCKS
  0
BLOCK
  5
20
100
AcDbEntity
  8
0
100
AcDbBlockBegin
  2
*Model_Space
 70
0
 10
0.0
 20
0.0
 30
0.0
  3
*Model_Space
  1

  0
ENDBLK
  5
21
100
AcDbEntity
  8
0
100
AcDbBlockEnd
  0
BLOCK
  5
1C
100
AcDbEntity
 67
1
  8
0
100
AcDbBlockBegin
  2
*Paper_Space
 70
0
 10
0.0
 20
0.0
 30
0.0
  3
*Paper_Space
  1

  0
ENDBLK
  5
1D
100
AcDbEntity
 67
1
  8
0
100
AcDbBlockEnd
  0
BLOCK
  5
24
100
AcDbEntity
  8
0
100
AcDbBlockBegin
  2
*Paper_Space0
 70
0
 10
0.0
 20
0.0
 30
0.0
  3
*Paper_Space0
  1

  0
ENDBLK
  5
25
100
AcDbEntity
  8
0
100
AcDbBlockEnd
  0
ENDSEC
  0
SECTION
  2
ENTITIES
  0
LWPOLYLINE
  5
44
  8
0
 62
256
370
-1
  6
ByLayer
100
AcDbEntity
100
AcDbPolyline
 90
45
 70
0
 10
-42.3999999999999986
 20
29.2000000000000028
 10
-41.6000000000000014
 20
27.4000000000000057
 10
-41.818799999999996
 20
27.3111800000000073
 10
-41.9930599999999998
 20
27.205999999999996
 10
-42.1279200000000031
 20
27.0846800000000059
 10
-42.2284999999999968
 20
26.9474000000000089
 10
-42.2999799999999979
 20
26.7943599999999975
 10
-42.3474399999999989
 20
26.6257799999999989
 10
-42.3760400000000033
 20
26.4418599999999984
 10
-42.3909200000000013
 20
26.2427800000000104
 10
-42.397199999999998
 20
26.0287600000000054
 10
-42.3999999999999986
 20
25.8000000000000043
 10
-37.0
 20
25.8000000000000043
 10
-37.0
 20
27.4000000000000057
 10
-37.1714800000000025
 20
27.39876000000001
 10
-37.3447999999999993
 20
27.3955200000000048
 10
-37.5194599999999951
 20
27.3909400000000005
 10
-37.6950000000000003
 20
27.3856600000000014
 10
-37.8709399999999974
 20
27.3804000000000016
 10
-38.0467999999999975
 20
27.3757799999999989
 10
-38.2220999999999975
 20
27.3724799999999959
 10
-38.3963600000000014
 20
27.3712000000000018
 10
-38.5690999999999988
 20
27.3725800000000064
 10
-38.7398600000000002
 20
27.3772799999999989
 10
-38.9081400000000031
 20
27.3859799999999964
 10
-39.0734599999999972
 20
27.3993600000000015
 10
-39.2353799999999993
 20
27.4180600000000041
 10
-39.3933800000000005
 20
27.4427800000000062
 10
-39.5469799999999978
 20
27.4741599999999977
 10
-39.6957400000000007
 20
27.5128799999999956
 10
-39.8391400000000004
 20
27.5596199999999953
 10
-39.9767399999999995
 20
27.6150400000000005
 10
-40.1080400000000026
 20
27.679780000000008
 10
-40.2325599999999994
 20
27.754560000000005
 10
-40.3498400000000004
 20
27.8400200000000098
 10
-40.4593799999999959
 20
27.9368200000000044
 10
-40.5606999999999971
 20
28.0456400000000059
 10
-40.65334
 20
28.1671399999999963
 10
-40.7368200000000016
 20
28.3019999999999996
 10
-40.8106599999999986
 20
28.4508799999999979
 10
-40.8743800000000022
 20
28.6144600000000011
 10
-40.927500000000002
 20
28.7933800000000062
 10
-40.9695200000000028
 20
28.988340000000008
 10
-41.0
 20
29.2000000000000028
 10
-42.3999999999999986
 20
29.2000000000000028
  0
LWPOLYLINE
  5
45
  8
0
 62
256
370
-1
  6
ByLayer
100
AcDbEntity
100
AcDbPolyline
 90
139
 70
0
 10
-37.3999999999999986
 20
24.6000000000000014
 10
-38.6000000000000014
 20
24.2000000000000028
 10
-38.5176000000000016
 20
23.9946199999999976
 10
-38.4415599999999955
 20
23.7968400000000031
 10
-38.3730400000000031
 20
23.6062599999999989
 10
-38.3131199999999978
 20
23.4224399999999946
 10
-38.2629000000000019
 20
23.2450000000000045
 10
-38.2235200000000006
 20
23.0735000000000028
 10
-38.1960399999999964
 20
22.9075600000000037
 10
-38.1816199999999952
 20
22.7467400000000026
 10
-38.1813399999999987
 20
22.5906600000000068
 10
-38.1963000000000008
 20
22.4389000000000038
 10
-38.2276200000000017
 20
22.2910600000000088
 10
-38.2764200000000017
 20
22.1467000000000027
 10
-38.3437799999999953
 20
22.0054600000000065
 10
-38.4308199999999971
 20
21.866880000000009
 10
-38.5386400000000009
 20
21.7306000000000097
 10
-38.6683799999999991
 20
21.5961599999999976
 10
-38.8211000000000013
 20
21.4632000000000005
 10
-38.9979399999999998
 20
21.3312800000000067
 10
-39.2000000000000028
 20
21.2000000000000028
 10
-39.2000000000000028
 20
24.8000000000000043
 10
-39.4060399999999973
 20
24.794399999999996
 10
-39.6102399999999975
 20
24.7854600000000005
 10
-39.8126800000000003
 20
24.7716599999999971
 10
-40.0135000000000005
 20
24.7515200000000064
 10
-40.2128000000000014
 20
24.723540000000007
 10
-40.4106799999999993
 20
24.686239999999998
 10
-40.6072599999999966
 20
24.6381000000000014
 10
-40.8026399999999967
 20
24.5776400000000024
 10
-40.9969200000000029
 20
24.503380000000007
 10
-41.1355000000000004
 20
24.4418800000000047
 10
-41.266459999999995
 20
24.3774999999999977
 10
-41.3899399999999957
 20
24.3103600000000029
 10
-41.506059999999998
 20
24.2405800000000013
 10
-41.6149399999999972
 20
24.1682600000000036
 10
-41.716700000000003
 20
24.0935399999999973
 10
-41.8114599999999967
 20
24.0165000000000006
 10
-41.8993399999999951
 20
23.9372800000000012
 10
-41.98048
 20
23.8559999999999945
 10
-42.0549600000000012
 20
23.7727800000000045
 10
-42.1229200000000006
 20
23.6876999999999995
 10
-42.1844999999999999
 20
23.6009200000000021
 10
-42.2398000000000025
 20
23.512519999999995
 10
-42.2889399999999966
 20
23.4226400000000012
 10
-42.3320399999999992
 20
23.3313800000000029
 10
-42.3692199999999985
 20
23.2388799999999947
 10
-42.4005999999999972
 20
23.1452199999999948
 10
-42.4263199999999969
 20
23.0505599999999973
 10
-42.4464800000000011
 20
22.9549600000000069
 10
-42.4611999999999981
 20
22.8586000000000027
 10
-42.4705999999999975
 20
22.7615400000000037
 10
-42.4748200000000011
 20
22.6639400000000037
 10
-42.4739599999999982
 20
22.565880000000007
 10
-42.4681399999999982
 20
22.4675000000000011
 10
-42.4574799999999968
 20
22.3688999999999965
 10
-42.4421200000000027
 20
22.2702000000000027
 10
-42.4221599999999981
 20
22.1715400000000074
 10
-42.3977399999999989
 20
22.0730000000000075
 10
-42.3689600000000013
 20
21.9747200000000049
 10
-42.3359400000000008
 20
21.8768000000000029
 10
-42.2988199999999992
 20
21.7793599999999969
 10
-42.2576999999999998
 20
21.6825200000000038
 10
-42.2126999999999981
 20
21.5864000000000047
 10
-42.1639799999999951
 20
21.4911200000000022
 10
-42.1115999999999957
 20
21.3967800000000068
 10
-42.0557200000000009
 20
21.3034999999999997
 10
-41.996459999999999
 20
21.2114000000000047
 10
-41.9339200000000005
 20
21.1205800000000039
 10
-41.8682200000000009
 20
21.0312000000000054
 10
-41.7995000000000019
 20
20.9433199999999999
 10
-41.727879999999999
 20
20.8571000000000026
 10
-41.6534599999999955
 20
20.7726400000000027
 10
-41.5763800000000003
 20
20.6900400000000033
 10
-41.4967400000000026
 20
20.6094400000000064
 10
-41.4146799999999971
 20
20.5309400000000011
 10
-41.3303200000000004
 20
20.4546800000000033
 10
-41.2437600000000018
 20
20.380740000000003
 10
-41.1551400000000029
 20
20.3092600000000019
 10
-41.0645799999999994
 20
20.2403600000000026
 10
-40.9722000000000008
 20
20.1741400000000013
 10
-40.8781000000000034
 20
20.1107200000000006
 10
-40.7823999999999955
 20
20.050220000000003
 10
-40.6852599999999995
 20
19.9927600000000041
 10
-40.5867599999999982
 20
19.938440000000007
 10
-40.4870599999999996
 20
19.8873800000000074
 10
-40.3862200000000016
 20
19.8397199999999998
 10
-40.2844199999999972
 20
19.7955400000000026
 10
-40.181759999999997
 20
19.7550000000000026
 10
-40.0783399999999972
 20
19.7181600000000046
 10
-39.9742999999999995
 20
19.6851800000000026
 10
-39.8697599999999994
 20
19.6561800000000062
 10
-39.7648399999999995
 20
19.6312400000000054
 10
-39.6596600000000024
 20
19.6104800000000026
 10
-39.5543399999999963
 20
19.5940400000000068
 10
-39.4489999999999981
 20
19.5820400000000063
 10
-39.3437600000000032
 20
19.5745799999999974
 10
-39.2387200000000007
 20
19.5717600000000047
 10
-39.1340399999999988
 20
19.5737200000000016
 10
-39.0298000000000016
 20
19.5805799999999977
 10
-38.9261599999999959
 20
19.5924400000000034
 10
-38.8232199999999992
 20
19.6094200000000001
 10
-38.7210800000000006
 20
19.6316199999999981
 10
-38.6199000000000012
 20
19.6591999999999985
 10
-38.5197799999999972
 20
19.6922399999999982
 10
-38.4208399999999983
 20
19.7308600000000069
 10
-38.3231999999999999
 20
19.775180000000006
 10
-38.2269799999999975
 20
19.8253400000000042
 10
-38.1323000000000008
 20
19.8814000000000064
 10
-38.039279999999998
 20
19.9435400000000058
 10
-37.9480599999999981
 20
20.0118200000000002
 10
-37.8587399999999974
 20
20.0863999999999976
 10
-37.7714199999999991
 20
20.1673600000000022
 10
-37.6862799999999964
 20
20.2548400000000015
 10
-37.6033800000000014
 20
20.3489600000000053
 10
-37.5228600000000014
 20
20.4498000000000033
 10
-37.4448599999999985
 20
20.5575200000000038
 10
-37.3694799999999958
 20
20.6722200000000029
 10
-37.2968599999999952
 20
20.794000000000004
 10
-37.2270800000000008
 20
20.9230000000000018
 10
-37.1602999999999994
 20
21.0593200000000067
 10
-37.0966200000000015
 20
21.2030799999999999
 10
-37.0225999999999971
 20
21.3942600000000027
 10
-36.9600999999999971
 20
21.5892200000000045
 10
-36.9097599999999986
 20
21.7873400000000004
 10
-36.8722199999999987
 20
21.9880800000000036
 10
-36.8481200000000015
 20
22.1908200000000022
 10
-36.8380799999999979
 20
22.3950000000000102
 10
-36.8427599999999984
 20
22.6000000000000014
 10
-36.8619800000000026
 20
22.8077199999999962
 10
-36.89358
 20
23.0133600000000058
 10
-36.9359999999999999
 20
23.2170200000000051
 10
-36.9876000000000005
 20
23.4188599999999951
 10
-37.0467799999999983
 20
23.6190399999999983
 10
-37.1119199999999978
 20
23.8177000000000021
 10
-37.1814200000000028
 20
24.0149800000000084
 10
-37.2536800000000028
 20
24.2110199999999978
 10
-37.3270799999999952
 20
24.4059799999999996
 10
-37.3999999999999986
 20
24.6000000000000014
  0
LWPOLYLINE
  5
46
  8
0
 62
256
370
-1
  6
ByLayer
100
AcDbEntity
100
AcDbPolyline
 90
20
 70
0
 10
-27.7999999999999972
 20
24.0
 10
-27.7999999999999972
 20
10.8000000000000043
 10
-25.1999999999999993
 20
10.8000000000000043
 10
-25.1999999999999993
 20
19.8000000000000043
 10
-25.0
 20
19.8000000000000043
 10
-23.2001555999999987
 20
13.2000000000000028
 10
-22.2973753999999964
 20
11.0055571999999984
 10
-19.7999999999999972
 20
10.8000000000000043
 10
-17.1999999999999957
 20
19.6000000000000014
 10
-17.0
 20
19.6000000000000014
 10
-17.0
 20
10.8000000000000043
 10
-14.3999999999999986
 20
10.8000000000000043
 10
-14.3999999999999986
 20
24.0
 10
-18.0594146000000002
 20
23.7944458000000054
 10
-18.9719146000000016
 20
21.4000000000000057
 10
-20.7999999999999972
 20
14.4000000000000057
 10
-21.1999999999999993
 20
14.4000000000000057
 10
-23.1151246000000015
 20
21.2000000000000028
 10
-24.1404327999999992
 20
23.7944458000000054
 10
-27.7999999999999972
 20
24.0
  0
LWPOLYLINE
  5
47
  8
0
 62
256
370
-1
  6
ByLayer
100
AcDbEntity
100
AcDbPolyline
 90
5
 70
0
 10
-12.0
 20
24.0
 10
-12.0
 20
21.8000000000000043
 10
-9.1999999999999957
 20
21.8000000000000043
 10
-9.1999999999999957
 20
24.0
 10
-12.0
 20
24.0
  0
LWPOLYLINE
  5
48
  8
0
 62
256
370
-1
  6
ByLayer
100
AcDbEntity
100
AcDbPolyline
 90
5
 70
0
 10
3.6000000000000014
 20
24.0
 10
3.6000000000000014
 20
21.8000000000000043
 10
6.4000000000000057
 20
21.8000000000000043
 10
6.4000000000000057
 20
24.0
 10
3.6000000000000014
 20
24.0
  0
LWPOLYLINE
  5
49
  8
0
 62
256
370
-1
  6
ByLayer
100
AcDbEntity
100
AcDbPolyline
 90
35
 70
0
 10
-4.3999999999999986
 20
19.0
 10
-4.3999999999999986
 20
20.4000000000000057
 10
-7.1999999999999957
 20
20.4000000000000057
 10
-7.1999999999999957
 20
10.8000000000000043
 10
-4.3999999999999986
 20
10.8000000000000043
 10
-4.401600000000002
 20
10.9765600000000063
 10
-4.4061799999999991
 20
11.1586800000000039
 10
-4.413339999999998
 20
11.3459400000000059
 10
-4.4227399999999975
 20
11.5379000000000076
 10
-4.4340199999999967
 20
11.7341400000000036
 10
-4.4468399999999946
 20
11.9342400000000026
 10
-4.4608199999999982
 20
12.1377799999999993
 10
-4.4756199999999922
 20
12.3443400000000025
 10
-4.4908599999999979
 20
12.5535000000000068
 10
-4.5061800000000005
 20
12.7648200000000003
 10
-4.5212399999999988
 20
12.9779000000000053
 10
-4.5356799999999993
 20
13.192300000000003
 10
-4.5491199999999949
 20
13.4076200000000014
 10
-4.5612199999999916
 20
13.6234000000000037
 10
-4.5716400000000021
 20
13.839260000000003
 10
-4.5799599999999998
 20
14.0547400000000025
 10
-4.585879999999996
 20
14.269440000000003
 10
-4.5890199999999979
 20
14.4829400000000064
 10
-4.5890199999999979
 20
14.6948000000000008
 10
-4.5855399999999946
 20
14.9046200000000013
 10
-4.5781799999999961
 20
15.1119400000000041
 10
-4.5666200000000003
 20
15.3163800000000023
 10
-4.5504799999999932
 20
15.5175000000000054
 10
-4.5293999999999954
 20
15.7148800000000008
 10
-4.5030399999999986
 20
15.9081000000000046
 10
-4.471039999999995
 20
16.0967200000000048
 10
-4.4330199999999991
 20
16.2803400000000025
 10
-4.3886399999999952
 20
16.45852
 10
-4.3375199999999978
 20
16.6308400000000063
 10
-4.2793199999999985
 20
16.7969000000000008
  0
LWPOLYLINE
  5
4A
  8
0
 62
256
370
-1
  6
ByLayer
100
AcDbEntity
100
AcDbPolyline
 90
158
 70
0
 10
-4.2793399999999977
 20
16.7969000000000008
 10
-4.2117399999999918
 20
16.9493600000000058
 10
-4.1265599999999978
 20
17.0989000000000004
 10
-4.0253799999999984
 20
17.2439999999999998
 10
-3.9097599999999986
 20
17.383180000000003
 10
-3.7812399999999968
 20
17.5149600000000021
 10
-3.6413799999999981
 20
17.6378400000000042
 10
-3.4917599999999993
 20
17.7503600000000006
 10
-3.3338999999999999
 20
17.8510400000000047
 10
-3.169399999999996
 20
17.9383400000000037
 10
-2.9997599999999949
 20
18.0108400000000017
 10
-2.8265999999999991
 20
18.0670000000000073
 10
-2.6514200000000017
 20
18.1053800000000038
 10
-2.4758199999999988
 20
18.1244599999999991
 10
-2.3013199999999969
 20
18.1227599999999995
 10
-2.1295199999999994
 20
18.0988000000000042
 10
-1.9619399999999985
 20
18.0511000000000053
 10
-1.800139999999999
 20
17.9781800000000018
 10
-1.6456799999999987
 20
17.878540000000001
 10
-1.5414399999999944
 20
17.7901000000000025
 10
-1.4454799999999963
 20
17.6891400000000019
 10
-1.3574999999999946
 20
17.5762400000000056
 10
-1.2772199999999998
 20
17.4520400000000038
 10
-1.2043199999999956
 20
17.3171800000000076
 10
-1.1384999999999934
 20
17.1722400000000022
 10
-1.0794999999999959
 20
17.0178400000000067
 10
-1.0269799999999947
 20
16.8546400000000034
 10
-0.9806600000000003
 20
16.6832200000000057
 10
-0.940259999999995
 20
16.5042400000000029
 10
-0.9054599999999979
 20
16.3182800000000015
 10
-0.8759599999999921
 20
16.1259599999999992
 10
-0.8514799999999951
 20
15.9279400000000066
 10
-0.8317199999999971
 20
15.7248000000000019
 10
-0.816359999999996
 20
15.5171800000000033
 10
-0.8051399999999944
 20
15.3057000000000016
 10
-0.7977199999999982
 20
15.0909600000000026
 10
-0.7938399999999959
 20
14.8736000000000033
 10
-0.7931999999999988
 20
14.6542400000000015
 10
-0.7954599999999985
 20
14.433480000000003
 10
-0.800379999999997
 20
14.2119600000000048
 10
-0.8076199999999929
 20
13.9903000000000048
 10
-0.8168999999999969
 20
13.7691000000000017
 10
-0.8279199999999989
 20
13.5490000000000066
 10
-0.8403999999999954
 20
13.3306200000000032
 10
-0.8539999999999992
 20
13.1145600000000044
 10
-0.8684599999999989
 20
12.9014600000000002
 10
-0.8834799999999916
 20
12.6919200000000032
 10
-0.8987399999999965
 20
12.4865800000000036
 10
-0.9139799999999951
 20
12.286040000000007
 10
-0.9288599999999931
 20
12.0909400000000034
 10
-0.9430999999999941
 20
11.9018800000000056
 10
-0.9564200000000014
 20
11.7195000000000036
 10
-0.9684999999999988
 20
11.5444200000000023
 10
-0.9790599999999969
 20
11.3772400000000005
 10
-0.9877799999999937
 20
11.2185800000000029
 10
-0.9943799999999996
 20
11.0690800000000067
 10
-0.9985599999999977
 20
10.9293400000000034
 10
-1.0
 20
10.8000000000000043
 10
1.8000000000000043
 20
10.8000000000000043
 10
1.8004999999999995
 20
10.9079600000000028
 10
1.802020000000006
 20
11.0199800000000039
 10
1.8044399999999996
 20
11.1359400000000051
 10
1.8077000000000041
 20
11.2556800000000052
 10
1.8117200000000082
 20
11.3790600000000026
 10
1.8164400000000001
 20
11.5059200000000033
 10
1.821780000000004
 20
11.6361600000000038
 10
1.8276400000000024
 20
11.7696000000000041
 10
1.8339799999999968
 20
11.9061000000000021
 10
1.8407000000000053
 20
12.0455400000000026
 10
1.8477400000000017
 20
12.1877599999999973
 10
1.8550200000000032
 20
12.3326199999999986
 10
1.8624599999999987
 20
12.4799800000000047
 10
1.8699799999999982
 20
12.6296800000000076
 10
1.8775400000000033
 20
12.7816200000000038
 10
1.8850199999999973
 20
12.9356000000000009
 10
1.8923800000000028
 20
13.0915200000000027
 10
1.8995199999999954
 20
13.2492200000000082
 10
1.9063599999999994
 20
13.4085800000000006
 10
1.912860000000002
 20
13.569420000000008
 10
1.9189200000000071
 20
13.7316199999999995
 10
1.9244600000000034
 20
13.8950200000000024
 10
1.9294399999999996
 20
14.059500000000007
 10
1.9337400000000002
 20
14.2249000000000052
 10
1.9373000000000076
 20
14.3911000000000016
 10
1.9400600000000097
 20
14.5579400000000021
 10
1.9419400000000024
 20
14.7252599999999987
 10
1.942859999999996
 20
14.8929600000000022
 10
1.9427400000000077
 20
15.0608600000000052
 10
1.9414999999999978
 20
15.228820000000006
 10
1.9390999999999963
 20
15.396720000000002
 10
1.9354200000000006
 20
15.5644000000000062
 10
1.9303999999999988
 20
15.7317200000000028
 10
1.9239800000000002
 20
15.8985400000000041
 10
1.9160800000000009
 20
16.0647200000000012
 10
1.9066200000000038
 20
16.2301199999999994
 10
1.8955200000000048
 20
16.3945800000000048
 10
1.8827199999999991
 20
16.5579800000000006
 10
1.8681200000000047
 20
16.7201599999999999
 10
1.8516800000000018
 20
16.880980000000001
 10
1.8333000000000013
 20
17.0402800000000028
 10
1.8129000000000062
 20
17.1979600000000019
 10
1.7904199999999975
 20
17.3538599999999974
 10
1.7657799999999995
 20
17.5078200000000024
 10
1.738900000000001
 20
17.6597000000000008
 10
1.7097200000000043
 20
17.8093800000000044
 10
1.6781600000000054
 20
17.956700000000005
 10
1.6441400000000073
 20
18.1015200000000007
 10
1.6075799999999987
 20
18.2436800000000048
 10
1.5684200000000033
 20
18.3830800000000067
 10
1.5265599999999964
 20
18.5195400000000063
 10
1.4819400000000016
 20
18.6529200000000017
 10
1.434500000000007
 20
18.7831000000000046
 10
1.3841600000000014
 20
18.9099199999999996
 10
1.3308200000000099
 20
19.0332400000000064
 10
1.2744199999999992
 20
19.1529200000000017
 10
1.214880000000008
 20
19.2688200000000052
 10
1.1521600000000021
 20
19.3807800000000015
 10
1.0861200000000011
 20
19.4886800000000022
 10
1.0167399999999986
 20
19.5923600000000064
 10
0.9439399999999978
 20
19.6916800000000052
 10
0.867600000000003
 20
19.7865000000000038
 10
0.787700000000001
 20
19.8766800000000003
 10
0.7041400000000024
 20
19.9620800000000003
 10
0.6168400000000034
 20
20.0425600000000017
 10
0.5257400000000061
 20
20.1179600000000036
 10
0.4307400000000001
 20
20.1881400000000042
 10
0.3318000000000012
 20
20.252980000000008
 10
0.228820000000006
 20
20.3123000000000005
 10
0.1217200000000034
 20
20.3660000000000068
 10
0.0104400000000027
 20
20.4139000000000053
 10
-0.1050799999999938
 20
20.4559000000000069
 10
-0.2249399999999966
 20
20.4918000000000049
 10
-0.3492200000000025
 20
20.5215000000000032
 10
-0.4779800000000023
 20
20.5448400000000007
 10
-0.6112799999999936
 20
20.5617000000000019
 10
-0.7492399999999932
 20
20.5718999999999994
 10
-0.8918999999999926
 20
20.5753200000000049
 10
-1.0393199999999965
 20
20.5718200000000024
 10
-1.1916200000000003
 20
20.561239999999998
 10
-1.3488600000000019
 20
20.5434600000000032
 10
-1.5110799999999927
 20
20.5183200000000028
 10
-1.6783999999999963
 20
20.4856800000000021
 10
-1.8508799999999965
 20
20.4454000000000065
 10
-2.0285999999999973
 20
20.3973400000000069
 10
-2.2116199999999964
 20
20.3413400000000024
 10
-2.3999999999999986
 20
20.2773000000000039
 10
-2.5853400000000022
 20
20.2041600000000017
 10
-2.7647399999999962
 20
20.1201599999999985
 10
-2.9389599999999945
 20
20.0267200000000045
 10
-3.1088000000000022
 20
19.9253199999999993
 10
-3.2749799999999993
 20
19.8173800000000071
 10
-3.4382599999999996
 20
19.704340000000002
 10
-3.5994399999999942
 20
19.5876400000000004
 10
-3.7592399999999984
 20
19.4687400000000039
 10
-3.9184399999999968
 20
19.3490800000000007
 10
-4.0777999999999963
 20
19.2301199999999994
 10
-4.2380599999999973
 20
19.1132600000000039
 10
-4.3999999999999986
 20
19.0
  0
LWPOLYLINE
  5
4B
  8
0
 62
256
370
-1
  6
ByLayer
100
AcDbEntity
100
AcDbPolyline
 90
5
 70
0
 10
-12.0
 20
20.4000000000000057
 10
-12.0
 20
10.8000000000000043
 10
-9.1999999999999957
 20
10.8000000000000043
 10
-9.1999999999999957
 20
20.4000000000000057
 10
-12.0
 20
20.4000000000000057
  0
LWPOLYLINE
  5
4C
  8
0
 62
256
370
-1
  6
ByLayer
100
AcDbEntity
100
AcDbPolyline
 90
5
 70
0
 10
3.6000000000000014
 20
20.4000000000000057
 10
3.6000000000000014
 20
10.8000000000000043
 10
6.4000000000000057
 20
10.8000000000000043
 10
6.4000000000000057
 20
20.4000000000000057
 10
3.6000000000000014
 20
20.4000000000000057
  0
LWPOLYLINE
  5
4D
  8
0
 62
256
370
-1
  6
ByLayer
100
AcDbEntity
100
AcDbPolyline
 90
88
 70
0
 10
-42.3999999999999986
 20
19.0
 10
-42.3999999999999986
 20
17.8000000000000043
 10
-42.6387599999999978
 20
17.7964800000000025
 10
-42.8577399999999997
 20
17.786760000000001
 10
-43.0575599999999952
 20
17.7693800000000053
 10
-43.2388600000000025
 20
17.7429600000000036
 10
-43.4022799999999975
 20
17.7060400000000016
 10
-43.5484599999999986
 20
17.6572000000000031
 10
-43.6779999999999973
 20
17.5950400000000045
 10
-43.7915599999999969
 20
17.518100000000004
 10
-43.8897400000000033
 20
17.4249599999999987
 10
-43.9731999999999985
 20
17.3142200000000059
 10
-44.042580000000001
 20
17.1844400000000022
 10
-44.0984800000000021
 20
17.0341799999999992
 10
-44.1415399999999991
 20
16.8620400000000075
 10
-44.1723799999999969
 20
16.6665800000000033
 10
-44.1916799999999981
 20
16.4463599999999985
 10
-44.2000000000000028
 20
16.2000000000000028
 10
-42.3999999999999986
 20
16.2000000000000028
 10
-42.3999999999999986
 20
15.2000000000000028
 10
-41.2000000000000028
 20
15.2000000000000028
 10
-41.1353999999999971
 20
15.3830800000000067
 10
-41.0605599999999953
 20
15.542740000000002
 10
-40.9761000000000024
 20
15.6804400000000044
 10
-40.8825999999999965
 20
15.7977400000000046
 10
-40.7806599999999975
 20
15.8961000000000041
 10
-40.6708799999999968
 20
15.9770600000000016
 10
-40.5538799999999995
 20
16.0421200000000042
 10
-40.4302399999999977
 20
16.0927800000000047
 10
-40.3005599999999973
 20
16.1305600000000027
 10
-40.1654399999999967
 20
16.1569399999999987
 10
-40.0254800000000017
 20
16.173480000000005
 10
-39.881299999999996
 20
16.1816400000000016
 10
-39.7334600000000009
 20
16.1829400000000021
 10
-39.5825999999999993
 20
16.1788999999999987
 10
-39.4292799999999986
 20
16.171040000000005
 10
-39.2741199999999964
 20
16.1608200000000011
 10
-39.1177199999999985
 20
16.149799999999999
 10
-38.9606799999999964
 20
16.1394600000000068
 10
-38.803600000000003
 20
16.1313000000000031
 10
-38.6470800000000025
 20
16.1268600000000006
 10
-38.4917000000000016
 20
16.1276200000000074
 10
-38.3380799999999979
 20
16.1351000000000013
 10
-38.1868199999999973
 20
16.1508200000000031
 10
-38.0384999999999991
 20
16.1762600000000063
 10
-37.8937400000000011
 20
16.2129400000000032
 10
-37.7531199999999956
 20
16.2623800000000074
 10
-37.6172600000000017
 20
16.3260600000000053
 10
-37.4867399999999975
 20
16.405540000000002
 10
-37.3460800000000006
 20
16.5245600000000081
 10
-37.2321600000000004
 20
16.6663599999999974
 10
-37.1423800000000028
 20
16.8277400000000057
 10
-37.0741200000000006
 20
17.0056200000000004
 10
-37.0247600000000006
 20
17.1968200000000024
 10
-36.9916800000000023
 20
17.398220000000002
 10
-36.9723000000000042
 20
17.6066800000000043
 10
-36.9639600000000002
 20
17.8190600000000074
 10
-36.9640800000000027
 20
18.0322200000000024
 10
-36.9700600000000037
 20
18.2430400000000077
 10
-36.9792399999999972
 20
18.4483600000000081
 10
-36.9890400000000028
 20
18.6450400000000016
 10
-36.9968399999999988
 20
18.8299800000000062
 10
-37.0
 20
19.0
 10
-38.0
 20
19.0
 10
-38.0432399999999973
 20
18.7956200000000067
 10
-38.1032000000000011
 20
18.6143800000000041
 10
-38.178840000000001
 20
18.4549400000000006
 10
-38.2691000000000017
 20
18.3159800000000033
 10
-38.3729599999999991
 20
18.1961799999999982
 10
-38.4893599999999978
 20
18.0941800000000015
 10
-38.6172200000000032
 20
18.0086799999999982
 10
-38.7555399999999963
 20
17.9383400000000037
 10
-38.9032399999999967
 20
17.8818200000000047
 10
-39.0592600000000019
 20
17.8377800000000022
 10
-39.2225800000000007
 20
17.8049200000000027
 10
-39.3921399999999977
 20
17.7819000000000074
 10
-39.5668999999999969
 20
17.7673800000000028
 10
-39.7457799999999963
 20
17.7600400000000036
 10
-39.9277599999999993
 20
17.7585400000000035
 10
-40.111779999999996
 20
17.7615600000000029
 10
-40.2967999999999975
 20
17.7677600000000027
 10
-40.4817600000000013
 20
17.7758200000000031
 10
-40.6655999999999977
 20
17.7844000000000051
 10
-40.8472999999999971
 20
17.7921800000000019
 10
-41.0257799999999975
 20
17.7978200000000015
 10
-41.2000000000000028
 20
17.8000000000000043
 10
-41.2000000000000028
 20
19.0
 10
-42.3999999999999986
 20
19.0
  0
LWPOLYLINE
  5
4E
  8
0
 62
256
370
-1
  6
ByLayer
100
AcDbEntity
100
AcDbPolyline
 90
138
 70
0
 10
-41.2000000000000028
 20
11.8000000000000043
 10
-40.7999999999999972
 20
14.2000000000000028
 10
-41.7999999999999972
 20
14.6000000000000014
 10
-41.8864999999999981
 20
14.4293600000000026
 10
-41.9690200000000004
 20
14.254400000000004
 10
-42.0467999999999975
 20
14.0755800000000022
 10
-42.1190799999999967
 20
13.8933000000000035
 10
-42.1851599999999962
 20
13.7079999999999984
 10
-42.244259999999997
 20
13.5201000000000064
 10
-42.295659999999998
 20
13.3300200000000046
 10
-42.3385800000000003
 20
13.1382000000000048
 10
-42.3722999999999956
 20
12.9450600000000051
 10
-42.3960799999999978
 20
12.7510400000000033
 10
-42.40916
 20
12.5565400000000054
 10
-42.4108000000000018
 20
12.3620200000000011
 10
-42.4002600000000029
 20
12.1678800000000038
 10
-42.3767799999999966
 20
11.9745800000000031
 10
-42.3396199999999965
 20
11.7825200000000052
 10
-42.2880600000000015
 20
11.5921200000000013
 10
-42.2212999999999994
 20
11.4038400000000024
 10
-42.1441400000000002
 20
11.2383600000000001
 10
-42.0499399999999994
 20
11.0842600000000004
 10
-41.9403999999999968
 20
10.9423999999999992
 10
-41.8171600000000012
 20
10.8136800000000051
 10
-41.6819199999999981
 20
10.6990200000000044
 10
-41.5363200000000035
 20
10.599260000000001
 10
-41.3820599999999956
 20
10.5153200000000027
 10
-41.2208200000000033
 20
10.4480800000000045
 10
-41.0542400000000001
 20
10.3984200000000016
 10
-40.8840000000000003
 20
10.3672600000000017
 10
-40.7117799999999974
 20
10.3554600000000008
 10
-40.5392599999999987
 20
10.3639400000000066
 10
-40.3680799999999991
 20
10.3935400000000016
 10
-40.199939999999998
 20
10.4451999999999998
 10
-40.0365199999999959
 20
10.5198000000000036
 10
-39.8794400000000024
 20
10.6182000000000016
 10
-39.7304199999999952
 20
10.7413400000000081
 10
-39.5994200000000021
 20
10.880980000000001
 10
-39.4835999999999956
 20
11.0370800000000031
 10
-39.3816199999999981
 20
11.2074599999999975
 10
-39.2922000000000011
 20
11.3899400000000028
 10
-39.2140399999999971
 20
11.5823400000000021
 10
-39.145780000000002
 20
11.7824600000000004
 10
-39.0861599999999996
 20
11.9881400000000014
 10
-39.0338399999999979
 20
12.197180000000003
 10
-38.9875200000000035
 20
12.4074200000000019
 10
-38.9458800000000025
 20
12.6166600000000031
 10
-38.9076200000000014
 20
12.8227200000000039
 10
-38.8714399999999998
 20
13.0234000000000023
 10
-38.8359999999999985
 20
13.2165600000000012
 10
-38.7999999999999972
 20
13.4000000000000057
 10
-38.6152000000000015
 20
13.2909000000000006
 10
-38.4587399999999988
 20
13.1752600000000015
 10
-38.3290199999999999
 20
13.0534800000000075
 10
-38.2244600000000005
 20
12.9259600000000034
 10
-38.1434799999999967
 20
12.7931200000000018
 10
-38.0845199999999977
 20
12.6553400000000025
 10
-38.0459800000000001
 20
12.5130400000000037
 10
-38.0262600000000006
 20
12.3666200000000046
 10
-38.0238000000000014
 20
12.2164800000000042
 10
-38.0370199999999983
 20
12.0630400000000009
 10
-38.064319999999995
 20
11.9066800000000015
 10
-38.104140000000001
 20
11.7478400000000036
 10
-38.1548799999999986
 20
11.5869000000000071
 10
-38.2149399999999986
 20
11.4242800000000031
 10
-38.2827800000000025
 20
11.2603599999999986
 10
-38.3567800000000005
 20
11.0955800000000053
 10
-38.4353800000000021
 20
10.9303200000000018
 10
-38.5169799999999967
 20
10.7649800000000084
 10
-38.6000000000000014
 20
10.6000000000000014
 10
-37.3999999999999986
 20
10.2000000000000028
 10
-37.3740600000000001
 20
10.2855800000000031
 10
-37.3480599999999967
 20
10.3801200000000051
 10
-37.32226
 20
10.4830200000000033
 10
-37.2968199999999968
 20
10.5937000000000054
 10
-37.27196
 20
10.7116000000000042
 10
-37.2478600000000029
 20
10.8361600000000067
 10
-37.2247399999999971
 20
10.96678
 10
-37.2027799999999971
 20
11.1029000000000053
 10
-37.1821800000000025
 20
11.243940000000002
 10
-37.1631599999999978
 20
11.3893400000000042
 10
-37.1458999999999975
 20
11.5385200000000054
 10
-37.1305800000000019
 20
11.6908999999999992
 10
-37.117440000000002
 20
11.8459200000000067
 10
-37.106659999999998
 20
12.0030000000000001
 10
-37.0984199999999973
 20
12.1615600000000015
 10
-37.0929399999999987
 20
12.3210600000000028
 10
-37.0904200000000017
 20
12.4808800000000062
 10
-37.0910599999999988
 20
12.6404800000000037
 10
-37.0950399999999973
 20
12.7992800000000031
 10
-37.1025800000000032
 20
12.9567200000000042
 10
-37.1138600000000025
 20
13.1122000000000014
 10
-37.1290800000000019
 20
13.2651400000000024
 10
-37.14846
 20
13.4149999999999991
 10
-37.1721799999999973
 20
13.5612000000000066
 10
-37.2004400000000004
 20
13.703160000000004
 10
-37.2334400000000016
 20
13.8403200000000055
 10
-37.2713800000000006
 20
13.9720800000000054
 10
-37.3144599999999969
 20
14.0978800000000035
 10
-37.362879999999997
 20
14.2171600000000069
 10
-37.4168400000000005
 20
14.3293200000000027
 10
-37.4765200000000007
 20
14.4338199999999972
 10
-37.5421400000000034
 20
14.5300599999999989
 10
-37.6138800000000018
 20
14.6175000000000068
 10
-37.6919600000000017
 20
14.6955200000000019
 10
-37.7765799999999956
 20
14.7635800000000046
 10
-37.8678999999999988
 20
14.8211200000000076
 10
-37.9661600000000021
 20
14.8675200000000061
 10
-38.0715399999999988
 20
14.9022600000000054
 10
-38.1842600000000019
 20
14.9247200000000078
 10
-38.3044799999999981
 20
14.9343599999999981
 10
-38.4324200000000005
 20
14.9305799999999991
 10
-38.5683000000000007
 20
14.9128400000000028
 10
-38.7122799999999998
 20
14.8805600000000027
 10
-38.8645599999999973
 20
14.8331400000000002
 10
-39.0253799999999984
 20
14.7700200000000024
 10
-39.194899999999997
 20
14.6906400000000019
 10
-39.3733199999999997
 20
14.5944399999999987
 10
-39.5268000000000015
 20
14.4935200000000037
 10
-39.6596199999999968
 20
14.3803600000000031
 10
-39.7741199999999964
 20
14.2562800000000038
 10
-39.8726599999999962
 20
14.1226600000000033
 10
-39.9575999999999993
 20
13.9808600000000069
 10
-40.0312799999999953
 20
13.8322600000000051
 10
-40.0960800000000006
 20
13.6782000000000039
 10
-40.1543399999999977
 20
13.5200400000000016
 10
-40.2083999999999975
 20
13.3591800000000021
 10
-40.260620000000003
 20
13.196940000000005
 10
-40.3133799999999951
 20
13.0347200000000001
 10
-40.3689999999999998
 20
12.8738800000000069
 10
-40.4298599999999979
 20
12.7157600000000031
 10
-40.4983000000000004
 20
12.5617200000000082
 10
-40.5766599999999968
 20
12.4131600000000049
 10
-40.6673399999999958
 20
12.2714200000000062
 10
-40.7726399999999956
 20
12.1378800000000027
 10
-40.8949599999999975
 20
12.0138800000000003
 10
-41.0366399999999985
 20
11.9008000000000038
 10
-41.2000000000000028
 20
11.8000000000000043
  0
LWPOLYLINE
  5
4F
  8
0
 62
256
370
-1
  6
ByLayer
100
AcDbEntity
100
AcDbPolyline
 90
139
 70
0
 10
-37.3999999999999986
 20
9.4000000000000057
 10
-38.6000000000000014
 20
9.0
 10
-38.5176000000000016
 20
8.7946200000000019
 10
-38.4415599999999955
 20
8.5968599999999995
 10
-38.3730400000000031
 20
8.4062600000000032
 10
-38.3131199999999978
 20
8.2224399999999989
 10
-38.2629000000000019
 20
8.0450000000000017
 10
-38.2235000000000014
 20
7.8734999999999999
 10
-38.1960399999999964
 20
7.7075600000000009
 10
-38.1816199999999952
 20
7.5467399999999998
 10
-38.1813199999999995
 20
7.390660000000004
 10
-38.1963000000000008
 20
7.238900000000001
 10
-38.2276200000000017
 20
7.0910599999999988
 10
-38.2763999999999953
 20
6.9466999999999999
 10
-38.3437600000000032
 20
6.8054600000000036
 10
-38.4307999999999979
 20
6.666879999999999
 10
-38.5386400000000009
 20
6.5305800000000005
 10
-38.6683599999999998
 20
6.3961600000000018
 10
-38.8211000000000013
 20
6.2632000000000048
 10
-38.9979399999999998
 20
6.1312799999999967
 10
-39.2000000000000028
 20
6.0
 10
-39.2000000000000028
 20
9.6000000000000014
 10
-39.4035599999999988
 20
9.5983400000000074
 10
-39.6070199999999986
 20
9.5953599999999994
 10
-39.8100000000000023
 20
9.5888600000000039
 10
-40.0121400000000023
 20
9.5766800000000032
 10
-40.2130599999999987
 20
9.5566400000000016
 10
-40.4123799999999989
 20
9.5265400000000042
 10
-40.6097199999999958
 20
9.4842399999999998
 10
-40.8046799999999976
 20
9.4275599999999997
 10
-40.9969200000000029
 20
9.3543200000000013
 10
-41.1375799999999998
 20
9.29054
 10
-41.2704200000000014
 20
9.2240000000000038
 10
-41.3956000000000017
 20
9.1548400000000072
 10
-41.5132399999999961
 20
9.0831200000000081
 10
-41.6234800000000007
 20
9.0090000000000003
 10
-41.7264199999999974
 20
8.9325600000000023
 10
-41.822180000000003
 20
8.8539400000000015
 10
-41.9109199999999973
 20
8.773220000000002
 10
-41.9927399999999977
 20
8.6905399999999986
 10
-42.0677799999999991
 20
8.6060200000000009
 10
-42.1361399999999975
 20
8.5197400000000059
 10
-42.1979600000000019
 20
8.4318400000000011
 10
-42.2533799999999999
 20
8.3424400000000034
 10
-42.3025200000000012
 20
8.2516200000000026
 10
-42.345480000000002
 20
8.1595200000000006
 10
-42.382399999999997
 20
8.0662400000000005
 10
-42.4134200000000021
 20
7.9719200000000043
 10
-42.4386599999999987
 20
7.8766200000000026
 10
-42.4582199999999972
 20
7.7805000000000035
 10
-42.4722599999999986
 20
7.6836599999999962
 10
-42.4808799999999991
 20
7.5862199999999973
 10
-42.4842200000000005
 20
7.4882600000000039
 10
-42.4823999999999984
 20
7.3899400000000028
 10
-42.4755399999999952
 20
7.2913400000000053
 10
-42.4637799999999999
 20
7.1925799999999995
 10
-42.4472200000000015
 20
7.0938000000000017
 10
-42.4260200000000012
 20
6.9950600000000023
 10
-42.4002799999999951
 20
6.8965200000000024
 10
-42.3701399999999992
 20
6.7982799999999983
 10
-42.3357000000000028
 20
6.7004400000000004
 10
-42.2971000000000004
 20
6.6031400000000033
 10
-42.2544800000000009
 20
6.506459999999997
 10
-42.2079599999999999
 20
6.4105399999999975
 10
-42.1576400000000007
 20
6.3154800000000009
 10
-42.1036799999999971
 20
6.2213800000000035
 10
-42.0461799999999997
 20
6.1283799999999999
 10
-41.985280000000003
 20
6.0366
 10
-41.9210999999999956
 20
5.9461200000000005
 10
-41.8537600000000012
 20
5.8570600000000042
 10
-41.7834000000000003
 20
5.7695600000000056
 10
-41.7101200000000034
 20
5.6837000000000018
 10
-41.6340599999999981
 20
5.5996200000000016
 10
-41.5553600000000003
 20
5.5174200000000013
 10
-41.4741199999999992
 20
5.4372000000000043
 10
-41.390500000000003
 20
5.3591000000000051
 10
-41.3045800000000014
 20
5.2832399999999993
 10
-41.2165200000000027
 20
5.2096799999999988
 10
-41.126419999999996
 20
5.1385800000000046
 10
-41.0344199999999972
 20
5.0700600000000051
 10
-40.9406400000000019
 20
5.0041999999999973
 10
-40.8452199999999976
 20
4.9411200000000051
 10
-40.7482800000000012
 20
4.8809400000000025
 10
-40.6499200000000016
 20
4.8237799999999993
 10
-40.5503
 20
4.7697400000000059
 10
-40.4495199999999997
 20
4.7189600000000027
 10
-40.3477199999999954
 20
4.671520000000001
 10
-40.2450199999999967
 20
4.6275400000000033
 10
-40.1415399999999991
 20
4.587139999999998
 10
-40.0374199999999973
 20
4.5504400000000018
 10
-39.9327600000000018
 20
4.5175400000000039
 10
-39.8277199999999993
 20
4.4885599999999997
 10
-39.7224000000000004
 20
4.4636199999999988
 10
-39.6169399999999996
 20
4.4428200000000047
 10
-39.5114599999999996
 20
4.4262800000000055
 10
-39.4060599999999965
 20
4.4141000000000048
 10
-39.3008999999999986
 20
4.4064200000000042
 10
-39.1961000000000013
 20
4.40334
 10
-39.09178
 20
4.4049600000000027
 10
-38.9880599999999973
 20
4.4114199999999997
 10
-38.8850599999999957
 20
4.4228000000000023
 10
-38.7829199999999972
 20
4.4392400000000052
 10
-38.6817800000000034
 20
4.4608400000000046
 10
-38.5817199999999971
 20
4.487720000000003
 10
-38.4829000000000008
 20
4.5200000000000031
 10
-38.3854400000000027
 20
4.5577800000000011
 10
-38.2894599999999983
 20
4.6011600000000001
 10
-38.1950799999999973
 20
4.6503000000000014
 10
-38.1024400000000014
 20
4.7052600000000027
 10
-38.0116399999999999
 20
4.7661800000000056
 10
-37.9228400000000008
 20
4.8331799999999987
 10
-37.8361400000000003
 20
4.9063400000000001
 10
-37.7516800000000003
 20
4.9858200000000039
 10
-37.6695799999999963
 20
5.0716999999999999
 10
-37.5899599999999978
 20
5.1641000000000048
 10
-37.5129400000000004
 20
5.2631399999999999
 10
-37.4386599999999987
 20
5.368940000000002
 10
-37.3672399999999953
 20
5.481580000000001
 10
-37.2988
 20
5.6011999999999986
 10
-37.2334800000000001
 20
5.7279200000000046
 10
-37.1713999999999984
 20
5.8618400000000008
 10
-37.1126599999999982
 20
6.0030800000000042
 10
-37.0434400000000039
 20
6.1930400000000034
 10
-36.9833199999999991
 20
6.3885199999999998
 10
-36.9332600000000042
 20
6.5880999999999972
 10
-36.8942200000000042
 20
6.7904200000000046
 10
-36.8671599999999984
 20
6.994099999999996
 10
-36.8530200000000008
 20
7.1977400000000031
 10
-36.8527800000000028
 20
7.3999999999999986
 10
-36.8675599999999974
 20
7.6077600000000061
 10
-36.8960399999999993
 20
7.813520000000004
 10
-36.9364399999999975
 20
8.0174000000000021
 10
-36.9868999999999986
 20
8.219459999999998
 10
-37.045659999999998
 20
8.4198400000000007
 10
-37.1108600000000024
 20
8.6186399999999992
 10
-37.1807200000000009
 20
8.8159400000000048
 10
-37.2533999999999992
 20
9.0118600000000058
 10
-37.3271000000000015
 20
9.2065200000000047
 10
-37.3999999999999986
 20
9.4000000000000057
  0
LWPOLYLINE
  5
50
  8
0
 62
256
370
-1
  6
ByLayer
100
AcDbEntity
100
AcDbPolyline
 90
19
 70
0
 10
-28.0
 20
7.0
 10
-28.0
 20
-6.1999999999999993
 10
-25.3999999999999986
 20
-6.1999999999999993
 10
-25.3999999999999986
 20
2.6000000000000014
 10
-25.1999999999999993
 20
2.6000000000000014
 10
-23.4660491999999969
 20
-3.7999999999999972
 10
-22.497994999999996
 20
-5.9944442000000002
 10
-20.0
 20
-6.1999999999999993
 10
-17.3999999999999986
 20
2.3999999999999986
 10
-17.1999999999999957
 20
2.3999999999999986
 10
-17.1999999999999957
 20
-6.1999999999999993
 10
-14.3999999999999986
 20
-6.1999999999999993
 10
-14.3999999999999986
 20
7.0
 10
-18.2873443999999985
 20
6.7944428000000059
 10
-19.2581787999999996
 20
4.2000000000000028
 10
-21.1999999999999993
 20
-2.5999999999999979
 10
-23.3151246000000008
 20
4.2000000000000028
 10
-24.3126555999999994
 20
6.7944428000000059
 10
-28.0
 20
7.0
  0
LWPOLYLINE
  5
51
  8
0
 62
256
370
-1
  6
ByLayer
100
AcDbEntity
100
AcDbPolyline
 90
47
 70
0
 10
-1.5999999999999943
 20
7.0
 10
-1.5999999999999943
 20
-6.1999999999999993
 10
1.2000000000000028
 20
-6.1999999999999993
 10
2.2000000000000028
 20
-2.3999999999999986
 10
2.6000000000000014
 20
-2.3999999999999986
 10
2.6705800000000011
 20
-2.6383399999999995
 10
2.742440000000002
 20
-2.8673999999999964
 10
2.8158200000000022
 20
-3.0873600000000003
 10
2.890900000000002
 20
-3.2983399999999996
 10
2.9678600000000017
 20
-3.5005199999999981
 10
3.0469399999999993
 20
-3.6940199999999983
 10
3.1283200000000022
 20
-3.8790000000000013
 10
3.2121999999999957
 20
-4.0555999999999983
 10
3.2988000000000071
 20
-4.2239799999999974
 10
3.3883200000000002
 20
-4.3842800000000004
 10
3.4809400000000039
 20
-4.5366399999999985
 10
3.5768800000000098
 20
-4.681239999999999
 10
3.6763400000000104
 20
-4.8181799999999981
 10
3.7794999999999987
 20
-4.9476399999999998
 10
3.8866000000000014
 20
-5.0697599999999987
 10
3.9978399999999965
 20
-5.1846800000000002
 10
4.1133799999999994
 20
-5.2925599999999982
 10
4.233460000000008
 20
-5.393539999999998
 10
4.3582800000000077
 20
-5.4877800000000008
 10
4.4880199999999988
 20
-5.5753999999999984
 10
4.6229200000000006
 20
-5.6565799999999982
 10
4.7631399999999999
 20
-5.7314399999999992
 10
4.9089000000000098
 20
-5.800139999999999
 10
5.0604000000000084
 20
-5.8628399999999985
 10
5.2178400000000025
 20
-5.9196799999999996
 10
5.3814399999999978
 20
-5.9707799999999978
 10
5.551400000000001
 20
-6.0163399999999996
 10
5.7278800000000061
 20
-6.0564600000000013
 10
5.9111400000000032
 20
-6.0913000000000004
 10
6.1013400000000075
 20
-6.1210399999999971
 10
6.298720000000003
 20
-6.1457799999999985
 10
6.5034400000000048
 20
-6.1657000000000011
 10
6.7157200000000046
 20
-6.1809399999999997
 10
6.9357800000000012
 20
-6.1916200000000003
 10
7.163800000000009
 20
-6.1979399999999991
 10
7.4000000000000057
 20
-6.1999999999999993
 10
4.5013916000000052
 20
-0.2848753999999971
 10
7.2000000000000028
 20
3.3999999999999986
 10
4.2179016000000047
 20
3.1944428000000045
 10
1.2000000000000028
 20
0.0
 10
1.2000000000000028
 20
7.0
 10
-1.5999999999999943
 20
7.0
  0
LWPOLYLINE
  5
52
  8
0
 62
256
370
-1
  6
ByLayer
100
AcDbEntity
100
AcDbPolyline
 90
118
 70
0
 10
-41.6000000000000014
 20
0.2000000000000028
 10
-44.3999999999999986
 20
0.2000000000000028
 10
-44.3999999999999986
 20
-1.3999999999999986
 10
-37.0
 20
-1.3999999999999986
 10
-37.0
 20
0.2000000000000028
 10
-37.0764399999999981
 20
0.1990200000000044
 10
-37.1702799999999982
 20
0.1963599999999985
 10
-37.2800799999999981
 20
0.1925000000000026
 10
-37.4043399999999977
 20
0.1878600000000006
 10
-37.5416200000000018
 20
0.1828800000000008
 10
-37.6904200000000031
 20
0.1779999999999973
 10
-37.8492800000000003
 20
0.1736600000000017
 10
-38.0167000000000002
 20
0.1703200000000002
 10
-38.1912200000000013
 20
0.1684000000000054
 10
-38.371380000000002
 20
0.1683600000000034
 10
-38.5556799999999953
 20
0.1706399999999988
 10
-38.7426600000000008
 20
0.1756799999999998
 10
-38.9308400000000034
 20
0.1839200000000005
 10
-39.1187400000000025
 20
0.1957800000000027
 10
-39.3049000000000035
 20
0.2117599999999982
 10
-39.4878399999999985
 20
0.2322400000000044
 10
-39.6660800000000009
 20
0.2576999999999998
 10
-39.8381399999999957
 20
0.2885600000000039
 10
-40.0025399999999962
 20
0.3252799999999993
 10
-40.157820000000001
 20
0.3683000000000014
 10
-40.3025200000000012
 20
0.4180600000000041
 10
-40.435139999999997
 20
0.4750000000000014
 10
-40.5542000000000016
 20
0.5395600000000016
 10
-40.6582399999999993
 20
0.6121800000000022
 10
-40.7457799999999963
 20
0.6933000000000007
 10
-40.8153399999999991
 20
0.7833800000000011
 10
-40.8654599999999988
 20
0.8828600000000009
 10
-40.8946600000000018
 20
0.9921600000000019
 10
-40.9014600000000002
 20
1.1117399999999975
 10
-40.8843800000000002
 20
1.2420399999999994
 10
-40.8419600000000003
 20
1.383499999999998
 10
-40.7727000000000004
 20
1.5365599999999979
 10
-40.693559999999998
 20
1.6538599999999981
 10
-40.5893999999999977
 20
1.7545999999999999
 10
-40.4626200000000011
 20
1.8398600000000016
 10
-40.3155599999999978
 20
1.9108000000000018
 10
-40.1505799999999979
 20
1.9684799999999996
 10
-39.9700599999999966
 20
2.0140400000000014
 10
-39.7763199999999983
 20
2.0486000000000004
 10
-39.5717599999999976
 20
2.0732599999999977
 10
-39.3587399999999974
 20
2.0891400000000004
 10
-39.1395799999999952
 20
2.0973600000000019
 10
-38.9166799999999995
 20
2.099020000000003
 10
-38.6923600000000008
 20
2.095240000000004
 10
-38.4690200000000004
 20
2.0871199999999988
 10
-38.2489999999999952
 20
2.075800000000001
 10
-38.034639999999996
 20
2.0623600000000053
 10
-37.8283399999999972
 20
2.0479400000000041
 10
-37.6324400000000026
 20
2.0336400000000054
 10
-37.4493000000000009
 20
2.0206000000000017
 10
-37.2812600000000032
 20
2.0098800000000026
 10
-37.1307199999999966
 20
2.0026599999999988
 10
-37.0
 20
2.0
 10
-37.0
 20
3.6000000000000014
 10
-37.1233599999999981
 20
3.6002599999999987
 10
-37.2506599999999963
 20
3.6009799999999998
 10
-37.3816199999999981
 20
3.6020400000000024
 10
-37.5159400000000005
 20
3.6033000000000044
 10
-37.65334
 20
3.6046200000000042
 10
-37.7935200000000009
 20
3.6058800000000062
 10
-37.9361999999999995
 20
3.6069600000000008
 10
-38.0810999999999993
 20
3.6077200000000005
 10
-38.2278999999999982
 20
3.6080400000000026
 10
-38.376339999999999
 20
3.6077600000000061
 10
-38.5261199999999988
 20
3.6067999999999998
 10
-38.6769400000000019
 20
3.605000000000004
 10
-38.8284999999999982
 20
3.6022200000000026
 10
-38.980559999999997
 20
3.5983600000000067
 10
-39.1327599999999975
 20
3.59328
 10
-39.2848800000000011
 20
3.5868400000000022
 10
-39.4365799999999993
 20
3.5789400000000029
 10
-39.5875800000000027
 20
3.5694000000000017
 10
-39.7376000000000005
 20
3.5581400000000016
 10
-39.886339999999997
 20
3.5450200000000009
 10
-40.0335199999999958
 20
3.5298999999999978
 10
-40.178840000000001
 20
3.5126399999999975
 10
-40.322020000000002
 20
3.4931400000000039
 10
-40.4627600000000029
 20
3.4712400000000017
 10
-40.6007800000000003
 20
3.4468400000000017
 10
-40.7357999999999976
 20
3.4198000000000022
 10
-40.8674800000000005
 20
3.3899800000000013
 10
-40.995599999999996
 20
3.3572600000000037
 10
-41.1197999999999979
 20
3.3215199999999996
 10
-41.2398400000000009
 20
3.2826200000000014
 10
-41.3554199999999952
 20
3.2404200000000003
 10
-41.4662399999999991
 20
3.19482
 10
-41.5720000000000027
 20
3.1456599999999995
 10
-41.6724400000000017
 20
3.0928400000000025
 10
-41.767240000000001
 20
3.0362000000000009
 10
-41.8561199999999971
 20
2.9756399999999985
 10
-41.9388000000000005
 20
2.9110000000000014
 10
-42.0149800000000013
 20
2.8421800000000061
 10
-42.0843799999999959
 20
2.7690400000000039
 10
-42.1466999999999956
 20
2.6914400000000001
 10
-42.2016399999999976
 20
2.6092800000000054
 10
-42.2489399999999975
 20
2.5223999999999975
 10
-42.2882800000000003
 20
2.4306800000000024
 10
-42.3193799999999953
 20
2.3339999999999961
 10
-42.3419600000000003
 20
2.2322200000000052
 10
-42.355719999999998
 20
2.1252200000000059
 10
-42.36036
 20
2.0128600000000034
 10
-42.3556200000000018
 20
1.8950200000000024
 10
-42.3411600000000021
 20
1.7715600000000009
 10
-42.3167399999999958
 20
1.6423800000000028
 10
-42.2820600000000013
 20
1.50732
 10
-42.2368000000000023
 20
1.3662600000000005
 10
-42.1807000000000016
 20
1.2190600000000025
 10
-42.1134600000000034
 20
1.0656200000000027
 10
-42.0347999999999971
 20
0.90578
 10
-41.9444000000000017
 20
0.7394200000000026
 10
-41.8419999999999987
 20
0.5664400000000001
 10
-41.7272999999999996
 20
0.3866600000000027
 10
-41.6000000000000014
 20
0.2000000000000028
  0
LWPOLYLINE
  5
53
  8
0
 62
256
370
-1
  6
ByLayer
100
AcDbEntity
100
AcDbPolyline
 90
215
 70
0
 10
-12.1999999999999957
 20
2.0
 10
-11.0
 20
0.2000000000000028
 10
-10.7999999999999972
 20
0.2000000000000028
 10
-10.6732399999999927
 20
0.2885800000000032
 10
-10.5415199999999984
 20
0.3772800000000025
 10
-10.4053399999999954
 20
0.465480000000003
 10
-10.265119999999996
 20
0.5525599999999997
 10
-10.1213799999999949
 20
0.6379000000000019
 10
-9.9745399999999975
 20
0.7208600000000018
 10
-9.8250799999999998
 20
0.8008400000000009
 10
-9.6734799999999979
 20
0.8771799999999992
 10
-9.5201799999999963
 20
0.9492800000000017
 10
-9.3656799999999976
 20
1.0165200000000034
 10
-9.2103999999999928
 20
1.0782600000000002
 10
-9.0548399999999987
 20
1.1338800000000013
 10
-8.8994599999999977
 20
1.1827600000000018
 10
-8.7447400000000002
 20
1.224260000000001
 10
-8.5910999999999973
 20
1.2577800000000039
 10
-8.4390399999999985
 20
1.2826799999999992
 10
-8.28904
 20
1.2983600000000024
 10
-8.1415199999999999
 20
1.3041600000000031
 10
-7.9969800000000006
 20
1.2994599999999998
 10
-7.8558599999999998
 20
1.2836599999999976
 10
-7.7186599999999999
 20
1.2561199999999992
 10
-7.5858199999999982
 20
1.2162199999999999
 10
-7.4578199999999981
 20
1.1633400000000016
 10
-7.3350999999999971
 20
1.0968400000000003
 10
-7.2181599999999975
 20
1.0161200000000008
 10
-7.1074399999999969
 20
0.9205199999999998
 10
-7.0034199999999984
 20
0.8094600000000014
 10
-6.9065599999999989
 20
0.6822799999999987
 10
-6.8173199999999952
 20
0.5383600000000008
 10
-6.7361599999999981
 20
0.3771000000000022
 10
-6.6635799999999961
 20
0.1978400000000029
 10
-6.5999999999999943
 20
0.0
 10
-6.78172
 20
-0.0147399999999998
 10
-6.9676199999999966
 20
-0.0307200000000023
 10
-7.157279999999993
 20
-0.0482000000000014
 10
-7.3502200000000002
 20
-0.0674199999999985
 10
-7.5459999999999923
 20
-0.0885999999999996
 10
-7.7441599999999937
 20
-0.1120200000000011
 10
-7.9442599999999999
 20
-0.1379000000000019
 10
-8.145859999999999
 20
-0.1664999999999992
 10
-8.3484599999999958
 20
-0.1980399999999953
 10
-8.5516599999999983
 20
-0.232759999999999
 10
-8.7549799999999962
 20
-0.2709200000000003
 10
-8.9579799999999921
 20
-0.3127599999999973
 10
-9.1601999999999961
 20
-0.3585199999999986
 10
-9.3611799999999974
 20
-0.4084399999999988
 10
-9.5604999999999976
 20
-0.4627400000000002
 10
-9.7576799999999935
 20
-0.5216999999999956
 10
-9.9522599999999954
 20
-0.5855599999999974
 10
-10.1438199999999981
 20
-0.6545399999999972
 10
-10.3318799999999982
 20
-0.7288799999999966
 10
-10.5159999999999982
 20
-0.8088399999999965
 10
-10.6957199999999943
 20
-0.8946599999999982
 10
-10.8706200000000024
 20
-0.9865599999999972
 10
-11.0401999999999987
 20
-1.0848200000000006
 10
-11.204039999999992
 20
-1.1896400000000007
 10
-11.3616799999999998
 20
-1.3012999999999977
 10
-11.5126599999999968
 20
-1.4200199999999974
 10
-11.6565399999999997
 20
-1.5460599999999971
 10
-11.7928599999999975
 20
-1.6796399999999991
 10
-11.9211599999999933
 20
-1.820999999999998
 10
-12.0340199999999982
 20
-1.9618399999999987
 10
-12.1363999999999947
 20
-2.1074200000000012
 10
-12.2283799999999943
 20
-2.2572799999999944
 10
-12.31006
 20
-2.410899999999998
 10
-12.3815200000000019
 20
-2.5677999999999983
 10
-12.4428600000000031
 20
-2.7274999999999956
 10
-12.4941800000000001
 20
-2.8894799999999954
 10
-12.5355399999999975
 20
-3.0532800000000009
 10
-12.5670599999999979
 20
-3.2183600000000006
 10
-12.5888199999999983
 20
-3.3842800000000004
 10
-12.6009000000000029
 20
-3.5505199999999988
 10
-12.6033799999999943
 20
-3.7165999999999997
 10
-12.5963799999999964
 20
-3.8820199999999971
 10
-12.5799799999999991
 20
-4.0462799999999994
 10
-12.5542599999999993
 20
-4.2088999999999999
 10
-12.5192999999999941
 20
-4.3693799999999996
 10
-12.475200000000001
 20
-4.5272199999999998
 10
-12.4220599999999948
 20
-4.6819399999999973
 10
-12.3599800000000002
 20
-4.8330599999999997
 10
-12.2889999999999944
 20
-4.9800599999999982
 10
-12.2092600000000004
 20
-5.1224600000000002
 10
-12.1208199999999948
 20
-5.2597799999999992
 10
-12.023779999999995
 20
-5.3914999999999971
 10
-11.918219999999998
 20
-5.5171600000000005
 10
-11.8042599999999993
 20
-5.6362400000000008
 10
-11.6819399999999973
 20
-5.7482399999999991
 10
-11.551400000000001
 20
-5.8526999999999987
 10
-11.412700000000001
 20
-5.9491199999999971
 10
-11.2659400000000005
 20
-6.036999999999999
 10
-11.1111799999999974
 20
-6.1158399999999986
 10
-10.9485599999999934
 20
-6.1851400000000005
 10
-10.7781400000000005
 20
-6.2444399999999973
 10
-10.5999999999999943
 20
-6.293219999999998
 10
-10.3994399999999985
 20
-6.3344999999999985
 10
-10.1994799999999941
 20
-6.3629600000000011
 10
-10.0002999999999957
 20
-6.3790599999999991
 10
-9.8020999999999958
 20
-6.3832999999999984
 10
-9.6050199999999961
 20
-6.37622
 10
-9.4092799999999954
 20
-6.3582600000000014
 10
-9.2149999999999963
 20
-6.3299599999999998
 10
-9.0224199999999968
 20
-6.2917999999999985
 10
-8.8316599999999994
 20
-6.2442799999999998
 10
-8.6429399999999958
 20
-6.1878799999999998
 10
-8.4564000000000021
 20
-6.1230999999999973
 10
-8.2722599999999957
 20
-6.0504600000000011
 10
-8.0906400000000005
 20
-5.9704399999999964
 10
-7.9117599999999939
 20
-5.8835399999999964
 10
-7.7357799999999983
 20
-5.7902399999999972
 10
-7.5628799999999998
 20
-5.6910599999999967
 10
-7.3932399999999916
 20
-5.5864799999999981
 10
-7.227019999999996
 20
-5.4770000000000003
 10
-7.0644199999999984
 20
-5.3631199999999986
 10
-6.9055999999999926
 20
-5.2453199999999995
 10
-6.7507400000000004
 20
-5.1241199999999978
 10
-6.5999999999999943
 20
-5.0
 10
-6.3999999999999986
 20
-6.1999999999999993
 10
-3.5999999999999943
 20
-6.1999999999999993
 10
-3.6059199999999976
 20
-6.033459999999998
 10
-3.6097199999999958
 20
-5.861819999999998
 10
-3.6115999999999957
 20
-5.6853799999999985
 10
-3.6117199999999983
 20
-5.5044199999999961
 10
-3.6102799999999959
 20
-5.3192200000000014
 10
-3.6074999999999946
 20
-5.1300600000000003
 10
-3.6035199999999961
 20
-4.9372399999999992
 10
-3.598559999999992
 20
-4.7410199999999989
 10
-3.5927999999999969
 20
-4.5416799999999995
 10
-3.5864399999999961
 20
-4.3394999999999975
 10
-3.5796399999999977
 20
-4.1347799999999992
 10
-3.5726200000000006
 20
-3.9277799999999985
 10
-3.5655399999999986
 20
-3.7187799999999953
 10
-3.5586199999999977
 20
-3.5080999999999989
 10
-3.5520199999999988
 20
-3.2959600000000009
 10
-3.5459400000000016
 20
-3.0826999999999991
 10
-3.5405599999999993
 20
-2.8685600000000022
 10
-3.5360999999999976
 20
-2.6538400000000024
 10
-3.5327199999999976
 20
-2.438799999999997
 10
-3.5305999999999926
 20
-2.2237599999999986
 10
-3.5299599999999955
 20
-2.0089600000000019
 10
-3.5309599999999932
 20
-1.7947199999999981
 10
-3.5337999999999994
 20
-1.581279999999996
 10
-3.5386799999999994
 20
-1.3689599999999977
 10
-3.5457600000000014
 20
-1.1579999999999977
 10
-3.555259999999997
 20
-0.9487199999999945
 10
-3.5673400000000015
 20
-0.7413799999999959
 10
-3.5822199999999995
 20
-0.5362599999999986
 10
-3.6000599999999991
 20
-0.3336599999999947
 10
-3.6210599999999999
 20
-0.1338399999999957
 10
-3.6453999999999951
 20
0.0629200000000054
 10
-3.6732999999999976
 20
0.2563200000000023
 10
-3.704899999999995
 20
0.446080000000002
 10
-3.7404200000000003
 20
0.6319400000000002
 10
-3.7800599999999918
 20
0.8136200000000002
 10
-3.8239799999999988
 20
0.9908000000000037
 10
-3.8723799999999926
 20
1.1632400000000018
 10
-3.9254399999999947
 20
1.3306400000000025
 10
-3.9833599999999976
 20
1.4927399999999977
 10
-4.0463199999999944
 20
1.6492200000000032
 10
-4.1145199999999988
 20
1.7998400000000032
 10
-4.2017799999999994
 20
1.9700400000000009
 10
-4.2952200000000005
 20
2.1306399999999996
 10
-4.3946399999999954
 20
2.2818200000000033
 10
-4.4997999999999934
 20
2.4237400000000022
 10
-4.6105000000000018
 20
2.5566400000000016
 10
-4.7265199999999936
 20
2.6806600000000032
 10
-4.8476399999999984
 20
2.7960399999999979
 10
-4.9736399999999961
 20
2.9029200000000017
 10
-5.1043200000000013
 20
3.0015000000000001
 10
-5.2394600000000011
 20
3.0920000000000059
 10
-5.3788399999999967
 20
3.1745600000000067
 10
-5.5222599999999957
 20
3.2494200000000006
 10
-5.6694599999999937
 20
3.3167199999999966
 10
-5.8202599999999975
 20
3.3766999999999996
 10
-5.9744399999999942
 20
3.4295000000000044
 10
-6.131779999999992
 20
3.475360000000002
 10
-6.2920799999999986
 20
3.5144200000000012
 10
-6.4550799999999953
 20
3.5468800000000016
 10
-6.620599999999996
 20
3.5729600000000019
 10
-6.7884200000000021
 20
3.5928200000000032
 10
-6.9583199999999934
 20
3.606659999999998
 10
-7.1300799999999924
 20
3.6146600000000007
 10
-7.3034800000000004
 20
3.6170200000000037
 10
-7.4783199999999965
 20
3.6139200000000002
 10
-7.6543799999999962
 20
3.6055400000000049
 10
-7.8314399999999935
 20
3.5921000000000021
 10
-8.0092799999999968
 20
3.57376
 10
-8.1876800000000003
 20
3.5507200000000054
 10
-8.3664399999999972
 20
3.5231800000000035
 10
-8.5453199999999967
 20
3.4913200000000018
 10
-8.7241199999999992
 20
3.4553000000000011
 10
-8.9026399999999981
 20
3.4153599999999997
 10
-9.0806399999999954
 20
3.3716600000000057
 10
-9.2578999999999994
 20
3.324380000000005
 10
-9.4342199999999963
 20
3.2737399999999965
 10
-9.6093799999999945
 20
3.2199000000000026
 10
-9.7831599999999952
 20
3.1630800000000008
 10
-9.9553599999999989
 20
3.1034199999999998
 10
-10.1257400000000004
 20
3.041160000000005
 10
-10.2940999999999931
 20
2.9764599999999959
 10
-10.4601999999999933
 20
2.9095200000000006
 10
-10.6238600000000005
 20
2.8405199999999979
 10
-10.7848400000000026
 20
2.7696600000000018
 10
-10.9429199999999938
 20
2.6971200000000053
 10
-11.0978999999999957
 20
2.6230800000000016
 10
-11.2495600000000024
 20
2.5477600000000038
 10
-11.3976800000000011
 20
2.4713199999999986
 10
-11.5420599999999922
 20
2.3939599999999999
 10
-11.682459999999999
 20
2.3158799999999999
 10
-11.8186600000000013
 20
2.237240000000007
 10
-11.9504599999999996
 20
2.1582600000000056
 10
-12.0776599999999945
 20
2.0791200000000032
 10
-12.1999999999999957
 20
2.0
  0
LWPOLYLINE
  5
54
  8
0
 62
256
370
-1
  6
ByLayer
100
AcDbEntity
100
AcDbPolyline
 90
217
 70
0
 10
16.6000000000000085
 20
-5.0
 10
16.6000000000000085
 20
-4.7999999999999972
 10
15.6000000000000085
 20
-3.3999999999999986
 10
15.4415200000000112
 20
-3.4509599999999949
 10
15.2825399999999973
 20
-3.5035799999999995
 10
15.1232399999999956
 20
-3.5574200000000005
 10
14.9637400000000014
 20
-3.6119999999999983
 10
14.8042200000000008
 20
-3.6668599999999998
 10
14.6448200000000099
 20
-3.7215599999999966
 10
14.4856999999999942
 20
-3.7756399999999957
 10
14.3270200000000045
 20
-3.8286200000000008
 10
14.1688999999999936
 20
-3.880040000000001
 10
14.0115400000000108
 20
-3.9294799999999981
 10
13.855080000000001
 20
-3.9764400000000002
 10
13.6996599999999944
 20
-4.0204599999999999
 10
13.5454399999999993
 20
-4.061119999999999
 10
13.3925800000000024
 20
-4.0979199999999985
 10
13.2412400000000048
 20
-4.1304199999999973
 10
13.0915600000000083
 20
-4.158139999999996
 10
12.9437000000000069
 20
-4.1806599999999996
 10
12.7977999999999952
 20
-4.1974799999999988
 10
12.654040000000002
 20
-4.2081599999999959
 10
12.5125800000000069
 20
-4.212259999999997
 10
12.3735400000000055
 20
-4.2092799999999997
 10
12.237080000000006
 20
-4.1987799999999993
 10
12.1033800000000085
 20
-4.180299999999999
 10
11.9725800000000078
 20
-4.1533799999999985
 10
11.8448400000000049
 20
-4.1175599999999974
 10
11.7203000000000017
 20
-4.0723799999999954
 10
11.5991200000000063
 20
-4.017399999999995
 10
11.4814600000000056
 20
-3.9521200000000007
 10
11.3674800000000005
 20
-3.8761199999999967
 10
11.2573000000000008
 20
-3.7888999999999982
 10
11.1511200000000059
 20
-3.6900399999999962
 10
11.0490800000000036
 20
-3.5790799999999976
 10
10.9513000000000034
 20
-3.4555199999999999
 10
10.8579799999999977
 20
-3.3189399999999978
 10
10.7692600000000027
 20
-3.1688599999999987
 10
10.685299999999998
 20
-3.0048400000000015
 10
10.6062200000000004
 20
-2.8263999999999996
 10
10.5322199999999953
 20
-2.6330799999999996
 10
10.4634199999999993
 20
-2.424439999999997
 10
10.4000000000000057
 20
-2.1999999999999993
 10
16.7999999999999972
 20
-2.1999999999999993
 10
16.7951599999999956
 20
-2.0091400000000021
 10
16.7882600000000082
 20
-1.8162199999999977
 10
16.7790399999999948
 20
-1.6215599999999988
 10
16.7671600000000041
 20
-1.4255600000000008
 10
16.7523599999999959
 20
-1.2285599999999981
 10
16.7343000000000046
 20
-1.0309000000000026
 10
16.7127200000000045
 20
-0.8329400000000007
 10
16.6873000000000076
 20
-0.6350399999999965
 10
16.657740000000004
 20
-0.4375399999999985
 10
16.623739999999998
 20
-0.2408000000000001
 10
16.5850200000000001
 20
-0.0451799999999984
 10
16.5412600000000083
 20
0.1489600000000024
 10
16.4921800000000047
 20
0.3412800000000011
 10
16.4374800000000079
 20
0.5314399999999999
 10
16.3768400000000014
 20
0.7190600000000025
 10
16.3100000000000023
 20
0.9038000000000039
 10
16.2366200000000021
 20
1.0853000000000037
 10
16.1564200000000113
 20
1.2632000000000012
 10
16.0691000000000059
 20
1.4371800000000015
 10
15.9743600000000043
 20
1.6068400000000018
 10
15.8719200000000029
 20
1.7718600000000002
 10
15.7614599999999996
 20
1.9318800000000032
 10
15.6426799999999986
 20
2.0865400000000065
 10
15.5152800000000042
 20
2.2354800000000026
 10
15.3790000000000049
 20
2.3783799999999999
 10
15.2498199999999997
 20
2.5006199999999978
 10
15.1159999999999997
 20
2.6158599999999979
 10
14.977800000000002
 20
2.7241399999999985
 10
14.8354400000000055
 20
2.8254999999999981
 10
14.6891600000000011
 20
2.9200000000000017
 10
14.5392200000000003
 20
3.0076999999999998
 10
14.3858600000000081
 20
3.0886399999999981
 10
14.2293000000000092
 20
3.162860000000002
 10
14.0698000000000008
 20
3.2304400000000015
 10
13.9076200000000014
 20
3.2913799999999966
 10
13.7429600000000107
 20
3.3457800000000049
 10
13.5760800000000046
 20
3.3936600000000041
 10
13.4072400000000016
 20
3.43506
 10
13.2366600000000005
 20
3.4700800000000029
 10
13.0645800000000065
 20
3.4987199999999987
 10
12.8912600000000026
 20
3.5210399999999993
 10
12.716940000000001
 20
3.5371000000000024
 10
12.5418599999999998
 20
3.5469600000000057
 10
12.3662400000000048
 20
3.5506400000000014
 10
12.1903599999999983
 20
3.5482200000000006
 10
12.0144200000000012
 20
3.5397200000000026
 10
11.8386999999999958
 20
3.5252200000000045
 10
11.6634200000000021
 20
3.5047399999999982
 10
11.4888400000000104
 20
3.4783600000000021
 10
11.315179999999998
 20
3.4461000000000013
 10
11.1426799999999986
 20
3.4080399999999997
 10
10.9716200000000015
 20
3.3642000000000039
 10
10.8022000000000062
 20
3.3146400000000042
 10
10.634680000000003
 20
3.259440000000005
 10
10.4693200000000104
 20
3.198599999999999
 10
10.3063200000000066
 20
3.1322000000000045
 10
10.1459600000000023
 20
3.0602799999999988
 10
9.9884600000000034
 20
2.9829000000000008
 10
9.8340600000000009
 20
2.9001000000000019
 10
9.6830400000000054
 20
2.8119200000000006
 10
9.5355800000000102
 20
2.7184200000000018
 10
9.3919800000000038
 20
2.6196800000000025
 10
9.2524599999999992
 20
2.5157000000000025
 10
9.1172400000000096
 20
2.4065399999999997
 10
8.9866000000000028
 20
2.2922799999999981
 10
8.8607600000000062
 20
2.1729400000000041
 10
8.7399599999999964
 20
2.0486000000000004
 10
8.624440000000007
 20
1.9192600000000049
 10
8.514480000000006
 20
1.7850199999999994
 10
8.4102600000000081
 20
1.645900000000001
 10
8.3120800000000088
 20
1.501960000000004
 10
8.2201400000000078
 20
1.3532600000000023
 10
8.1347200000000086
 20
1.1998400000000018
 10
8.0464600000000033
 20
1.0273000000000039
 10
7.9641400000000004
 20
0.8559199999999976
 10
7.8876999999999953
 20
0.6857600000000019
 10
7.8170200000000065
 20
0.516840000000002
 10
7.7520800000000065
 20
0.349180000000004
 10
7.6927599999999998
 20
0.1828199999999995
 10
7.6390000000000029
 20
0.0178000000000011
 10
7.5907200000000046
 20
-0.145859999999999
 10
7.5478600000000071
 20
-0.3081200000000024
 10
7.5103399999999993
 20
-0.4689599999999956
 10
7.4780800000000056
 20
-0.6283399999999943
 10
7.4510200000000069
 20
-0.7862000000000009
 10
7.4290600000000069
 20
-0.9425599999999967
 10
7.4121400000000008
 20
-1.0973400000000026
 10
7.400180000000006
 20
-1.2505199999999981
 10
7.3931200000000032
 20
-1.4021000000000008
 10
7.3908600000000035
 20
-1.551999999999996
 10
7.393340000000002
 20
-1.7002200000000016
 10
7.400500000000001
 20
-1.8467199999999977
 10
7.4122399999999971
 20
-1.99146
 10
7.4284800000000075
 20
-2.1343999999999994
 10
7.4491800000000055
 20
-2.2755399999999995
 10
7.4742400000000018
 20
-2.4147999999999996
 10
7.5035999999999987
 20
-2.5521999999999991
 10
7.5371600000000001
 20
-2.6876599999999975
 10
7.574860000000001
 20
-2.8211799999999982
 10
7.6166399999999967
 20
-2.9527199999999993
 10
7.6624000000000052
 20
-3.0822399999999988
 10
7.7120800000000074
 20
-3.2097199999999972
 10
7.7655999999999992
 20
-3.3350999999999971
 10
7.8229000000000042
 20
-3.4583799999999982
 10
7.8838800000000049
 20
-3.5795200000000023
 10
7.9484799999999964
 20
-3.6984599999999972
 10
8.0166200000000032
 20
-3.8151999999999973
 10
8.088239999999999
 20
-3.9297000000000004
 10
8.1632400000000018
 20
-4.0419199999999975
 10
8.2415600000000069
 20
-4.1518399999999964
 10
8.3231199999999959
 20
-4.2593999999999994
 10
8.4078600000000066
 20
-4.3645999999999994
 10
8.4956999999999994
 20
-4.4673799999999986
 10
8.5865400000000065
 20
-4.5677400000000006
 10
8.6803400000000011
 20
-4.6655999999999977
 10
8.777000000000001
 20
-4.76098
 10
8.8764600000000016
 20
-4.8538199999999989
 10
8.9786399999999986
 20
-4.9440799999999996
 10
9.0834600000000023
 20
-5.0317599999999985
 10
9.1908600000000007
 20
-5.1167799999999986
 10
9.3007399999999976
 20
-5.1991399999999999
 10
9.4130600000000015
 20
-5.2788199999999961
 10
9.5277200000000022
 20
-5.3557399999999973
 10
9.6446400000000096
 20
-5.4299199999999992
 10
9.763779999999997
 20
-5.5012799999999977
 10
9.8850199999999973
 20
-5.56982
 10
10.0083200000000048
 20
-5.6354999999999968
 10
10.1335799999999949
 20
-5.6982999999999997
 10
10.2607600000000048
 20
-5.7581399999999974
 10
10.3897399999999962
 20
-5.8150399999999962
 10
10.5204799999999992
 20
-5.8689600000000013
 10
10.6529000000000025
 20
-5.9198399999999971
 10
10.7869200000000021
 20
-5.9676599999999986
 10
10.9224399999999946
 20
-6.0123799999999967
 10
11.0594399999999951
 20
-6.0539999999999985
 10
11.1977800000000016
 20
-6.0924599999999991
 10
11.337440000000008
 20
-6.1277199999999965
 10
11.4783400000000029
 20
-6.1597799999999978
 10
11.6203600000000051
 20
-6.188559999999999
 10
11.7634800000000084
 20
-6.2140799999999992
 10
11.9075799999999958
 20
-6.2362799999999972
 10
12.0526200000000046
 20
-6.255119999999998
 10
12.1985000000000028
 20
-6.2705799999999989
 10
12.3451599999999999
 20
-6.2826199999999979
 10
12.4925399999999982
 20
-6.2912199999999991
 10
12.6405200000000093
 20
-6.2963400000000007
 10
12.7890599999999992
 20
-6.297939999999997
 10
12.9380800000000065
 20
-6.2959999999999994
 10
13.0875199999999978
 20
-6.2904799999999987
 10
13.2372600000000062
 20
-6.2813400000000001
 10
13.3872600000000048
 20
-6.26858
 10
13.5374400000000037
 20
-6.2521199999999979
 10
13.687739999999998
 20
-6.2319600000000008
 10
13.8380400000000066
 20
-6.2080599999999997
 10
13.9883200000000016
 20
-6.1803999999999988
 10
14.1384599999999949
 20
-6.1489200000000004
 10
14.2884200000000021
 20
-6.1135999999999981
 10
14.4381000000000057
 20
-6.0744199999999999
 10
14.5874199999999945
 20
-6.0313400000000001
 10
14.7363399999999984
 20
-5.9842999999999975
 10
14.8847600000000142
 20
-5.9333199999999984
 10
15.0326199999999943
 20
-5.8783199999999987
 10
15.1798199999999923
 20
-5.8192799999999991
 10
15.3263000000000034
 20
-5.7561999999999998
 10
15.4720000000000084
 20
-5.6889999999999965
 10
15.6168200000000041
 20
-5.6176799999999965
 10
15.7606999999999999
 20
-5.5421999999999976
 10
15.903560000000013
 20
-5.4624999999999986
 10
16.0453399999999959
 20
-5.3785999999999987
 10
16.1859400000000022
 20
-5.2904199999999975
 10
16.3253000000000128
 20
-5.1979599999999984
 10
16.4633400000000023
 20
-5.1011599999999966
 10
16.6000000000000085
 20
-5.0
  0
LWPOLYLINE
  5
55
  8
0
 62
256
370
-1
  6
ByLayer
100
AcDbEntity
100
AcDbPolyline
 90
102
 70
0
 10
21.4000000000000057
 20
2.0
 10
21.3840600000000052
 20
2.2216799999999992
 10
21.3521800000000042
 20
2.4198400000000007
 10
21.3051200000000023
 20
2.5957399999999993
 10
21.2436799999999977
 20
2.7506800000000027
 10
21.1686600000000027
 20
2.8858999999999995
 10
21.0808600000000013
 20
3.0026999999999973
 10
20.981039999999993
 20
3.1023199999999989
 10
20.870040000000003
 20
3.1860599999999977
 10
20.7486200000000025
 20
3.2551800000000028
 10
20.6175800000000038
 20
3.3109600000000015
 10
20.477720000000005
 20
3.3546400000000034
 10
20.3298400000000044
 20
3.3875400000000013
 10
20.1747200000000078
 20
3.410899999999998
 10
20.013140000000007
 20
3.4260000000000019
 10
19.8459399999999988
 20
3.4341000000000008
 10
19.6738600000000048
 20
3.4365000000000023
 10
19.4977200000000011
 20
3.4344400000000022
 10
19.3183200000000141
 20
3.4292200000000008
 10
19.1364200000000011
 20
3.4220800000000011
 10
18.9528600000000012
 20
3.4143199999999965
 10
18.7683999999999997
 20
3.4072000000000031
 10
18.583839999999995
 20
3.402000000000001
 10
18.4000000000000057
 20
3.3999999999999986
 10
18.4000000000000057
 20
-6.1999999999999993
 10
21.4000000000000057
 20
-6.1999999999999993
 10
21.3991000000000042
 20
-6.0384199999999986
 10
21.3966000000000065
 20
-5.8750199999999992
 10
21.3926400000000001
 20
-5.7100200000000001
 10
21.3874600000000044
 20
-5.5435399999999966
 10
21.3812599999999975
 20
-5.3757799999999989
 10
21.3742200000000082
 20
-5.2068999999999974
 10
21.3665400000000005
 20
-5.0370399999999975
 10
21.3584400000000016
 20
-4.8663999999999987
 10
21.3500999999999976
 20
-4.6951399999999985
 10
21.3417400000000015
 20
-4.523419999999998
 10
21.3335400000000135
 20
-4.3513799999999989
 10
21.325720000000004
 20
-4.1792399999999965
 10
21.3184600000000017
 20
-4.0071399999999961
 10
21.3119599999999991
 20
-3.8352199999999961
 10
21.3064399999999949
 20
-3.6636999999999986
 10
21.3020999999999958
 20
-3.4926999999999992
 10
21.2991200000000021
 20
-3.3224199999999975
 10
21.2977000000000061
 20
-3.1529999999999951
 10
21.2980600000000067
 20
-2.9846199999999996
 10
21.3003800000000041
 20
-2.8174399999999977
 10
21.3048800000000114
 20
-2.6516399999999969
 10
21.3117600000000067
 20
-2.4873800000000017
 10
21.3212000000000046
 20
-2.324819999999999
 10
21.3333999999999975
 20
-2.1641200000000005
 10
21.3485800000000125
 20
-2.0054599999999994
 10
21.3669200000000075
 20
-1.8490199999999994
 10
21.3886399999999952
 20
-1.6949400000000026
 10
21.4139400000000109
 20
-1.5433799999999991
 10
21.4429999999999978
 20
-1.3945399999999992
 10
21.4760200000000054
 20
-1.2485799999999969
 10
21.5132399999999961
 20
-1.1056399999999975
 10
21.5548000000000002
 20
-0.9658999999999978
 10
21.6009400000000085
 20
-0.8295200000000023
 10
21.6518599999999992
 20
-0.6966999999999963
 10
21.7077599999999933
 20
-0.5675599999999967
 10
21.7687999999999988
 20
-0.4422999999999995
 10
21.8352399999999989
 20
-0.3210799999999985
 10
21.9072400000000016
 20
-0.2040399999999956
 10
21.9850200000000058
 20
-0.0913799999999974
 10
22.0687599999999975
 20
0.0167399999999986
 10
22.1586800000000039
 20
0.1201800000000013
 10
22.2549600000000112
 20
0.2187400000000039
 10
22.3578200000000038
 20
0.3122599999999984
 10
22.4674600000000027
 20
0.4005999999999972
 10
22.584060000000008
 20
0.4835600000000007
 10
22.7078400000000045
 20
0.5610000000000035
 10
22.8389800000000065
 20
0.6327200000000026
 10
22.977720000000005
 20
0.698599999999999
 10
23.1242000000000019
 20
0.758420000000001
 10
23.2786799999999943
 20
0.8120600000000024
 10
23.4413200000000046
 20
0.8593399999999995
 10
23.6123199999999969
 20
0.9000800000000027
 10
23.7919200000000046
 20
0.9341200000000036
 10
23.9802800000000076
 20
0.9613000000000014
 10
24.1775999999999982
 20
0.9814399999999992
 10
24.3841199999999958
 20
0.9944000000000024
 10
24.6000000000000085
 20
1.0
 10
24.6000000000000085
 20
3.6000000000000014
 10
24.3820600000000098
 20
3.5670000000000002
 10
24.1716400000000107
 20
3.5279800000000066
 10
23.9682000000000102
 20
3.4828600000000023
 10
23.7712200000000138
 20
3.431519999999999
 10
23.5801799999999986
 20
3.3738400000000013
 10
23.3945599999999985
 20
3.3097199999999987
 10
23.2138400000000047
 20
3.239060000000002
 10
23.0375000000000085
 20
3.161760000000001
 10
22.8650200000000012
 20
3.0777000000000001
 10
22.6958600000000104
 20
2.9868000000000023
 10
22.5295200000000051
 20
2.8889200000000059
 10
22.3654599999999988
 20
2.7839800000000068
 10
22.2031800000000032
 20
2.6718600000000023
 10
22.0421400000000034
 20
2.5524800000000027
 10
21.8818200000000047
 20
2.4256999999999991
 10
21.7216999999999985
 20
2.2914200000000022
 10
21.5612600000000043
 20
2.149560000000001
 10
21.4000000000000057
 20
2.0
  0
LWPOLYLINE
  5
56
  8
0
 62
256
370
-1
  6
ByLayer
100
AcDbEntity
100
AcDbPolyline
 90
199
 70
0
 10
-41.0
 20
-2.1999999999999993
 10
-41.1676199999999994
 20
-2.3324599999999975
 10
-41.3311199999999985
 20
-2.4656799999999954
 10
-41.4888600000000025
 20
-2.6018199999999965
 10
-41.6392000000000024
 20
-2.7430400000000006
 10
-41.7804399999999987
 20
-2.8914800000000014
 10
-41.9109399999999965
 20
-3.0493400000000008
 10
-42.0290200000000027
 20
-3.2187400000000004
 10
-42.1330400000000012
 20
-3.4018399999999964
 10
-42.2212999999999994
 20
-3.6007799999999968
 10
-42.2749200000000016
 20
-3.7471199999999989
 10
-42.3219599999999971
 20
-3.8901000000000003
 10
-42.3625800000000012
 20
-4.0297999999999981
 10
-42.3969200000000015
 20
-4.1661800000000007
 10
-42.4251000000000005
 20
-4.2992599999999968
 10
-42.44726
 20
-4.4290599999999998
 10
-42.4635600000000011
 20
-4.5555999999999983
 10
-42.4741199999999992
 20
-4.6788799999999995
 10
-42.4790599999999969
 20
-4.7988999999999997
 10
-42.4785200000000032
 20
-4.9156799999999983
 10
-42.4726599999999976
 20
-5.0292399999999979
 10
-42.4615999999999971
 20
-5.1395799999999987
 10
-42.4454800000000034
 20
-5.2467000000000006
 10
-42.4244199999999978
 20
-5.3506399999999985
 10
-42.3985799999999955
 20
-5.4513800000000003
 10
-42.3680599999999998
 20
-5.5489399999999982
 10
-42.3330399999999969
 20
-5.6433399999999985
 10
-42.2936399999999963
 20
-5.7346000000000004
 10
-42.2499800000000008
 20
-5.8226999999999975
 10
-42.2021999999999977
 20
-5.9076599999999999
 10
-42.1504599999999954
 20
-5.9895199999999988
 10
-42.0948599999999971
 20
-6.0682399999999994
 10
-42.0355799999999959
 20
-6.1438799999999958
 10
-41.9727000000000032
 20
-6.2164199999999994
 10
-41.9063999999999979
 20
-6.2858799999999988
 10
-41.8367999999999967
 20
-6.3522799999999968
 10
-41.7640400000000014
 20
-6.4155999999999977
 10
-41.6882599999999996
 20
-6.4758800000000001
 10
-41.6095800000000011
 20
-6.5331199999999967
 10
-41.5281400000000005
 20
-6.5873399999999975
 10
-41.4440999999999988
 20
-6.638539999999999
 10
-41.3575599999999994
 20
-6.6867199999999976
 10
-41.2686800000000034
 20
-6.7319199999999988
 10
-41.177579999999999
 20
-6.7741199999999964
 10
-41.0844000000000023
 20
-6.8133599999999994
 10
-40.9893000000000001
 20
-6.849619999999998
 10
-40.8923800000000028
 20
-6.8829399999999978
 10
-40.7937799999999982
 20
-6.9132999999999996
 10
-40.6936800000000005
 20
-6.9407399999999981
 10
-40.5921599999999998
 20
-6.9652600000000007
 10
-40.489379999999997
 20
-6.9868599999999965
 10
-40.3854800000000012
 20
-7.0055599999999991
 10
-40.2805800000000005
 20
-7.0213799999999971
 10
-40.1748400000000032
 20
-7.0343199999999975
 10
-40.0683799999999977
 20
-7.0443800000000003
 10
-39.9613200000000006
 20
-7.0515800000000013
 10
-39.8538399999999982
 20
-7.0559399999999997
 10
-39.7460200000000015
 20
-7.057459999999999
 10
-39.6380399999999966
 20
-7.0561399999999992
 10
-39.5300399999999996
 20
-7.0520199999999988
 10
-39.4221000000000004
 20
-7.0450999999999979
 10
-39.3144199999999984
 20
-7.0353599999999972
 10
-39.207099999999997
 20
-7.0228599999999979
 10
-39.1002799999999979
 20
-7.0075799999999973
 10
-38.9941000000000031
 20
-6.9895199999999988
 10
-38.8887
 20
-6.9687199999999976
 10
-38.7842199999999977
 20
-6.945179999999997
 10
-38.6807799999999986
 20
-6.9188999999999972
 10
-38.5785199999999975
 20
-6.8898999999999972
 10
-38.4775800000000032
 20
-6.8581999999999965
 10
-38.3781000000000034
 20
-6.8237799999999993
 10
-38.2802000000000007
 20
-6.7866999999999962
 10
-38.1840199999999967
 20
-6.7469199999999994
 10
-38.0897199999999998
 20
-6.7044800000000002
 10
-37.9974199999999982
 20
-6.6593599999999995
 10
-37.9072400000000016
 20
-6.6116199999999985
 10
-37.8193399999999968
 20
-6.561239999999998
 10
-37.7338400000000007
 20
-6.5082199999999979
 10
-37.6508800000000008
 20
-6.4526000000000003
 10
-37.5705999999999989
 20
-6.3943599999999989
 10
-37.4931199999999976
 20
-6.3335399999999993
 10
-37.4185999999999979
 20
-6.2701199999999986
 10
-37.3471800000000016
 20
-6.2041399999999989
 10
-37.2789599999999979
 20
-6.1355999999999966
 10
-37.214100000000002
 20
-6.0644999999999989
 10
-37.1527200000000022
 20
-5.9908599999999979
 10
-37.0949799999999996
 20
-5.9146800000000006
 10
-37.0409999999999968
 20
-5.8359999999999985
 10
-36.9909400000000019
 20
-5.7547999999999995
 10
-36.9448799999999977
 20
-5.6710999999999991
 10
-36.9030199999999979
 20
-5.5849199999999968
 10
-36.8654599999999988
 20
-5.4962400000000002
 10
-36.8323200000000028
 20
-5.4051199999999966
 10
-36.8037800000000033
 20
-5.311519999999998
 10
-36.7799600000000027
 20
-5.2154799999999994
 10
-36.7609599999999972
 20
-5.1170199999999966
 10
-36.7469800000000006
 20
-5.0161200000000008
 10
-36.7381000000000029
 20
-4.9127999999999972
 10
-36.7344799999999978
 20
-4.8070799999999991
 10
-36.7362600000000015
 20
-4.6989799999999988
 10
-36.7435600000000022
 20
-4.5884800000000006
 10
-36.7565400000000011
 20
-4.4756199999999993
 10
-36.7753000000000014
 20
-4.3603999999999985
 10
-36.7999999999999972
 20
-4.2428199999999983
 10
-36.8307799999999972
 20
-4.1228999999999978
 10
-36.8677600000000041
 20
-4.0006599999999963
 10
-36.9110999999999976
 20
-3.876100000000001
 10
-36.9609000000000023
 20
-3.7492200000000011
 10
-37.017319999999998
 20
-3.6200599999999987
 10
-37.0805000000000007
 20
-3.4886000000000017
 10
-37.1505599999999987
 20
-3.3548600000000022
 10
-37.227640000000001
 20
-3.2188400000000001
 10
-37.3574600000000032
 20
-3.0249599999999965
 10
-37.5025800000000018
 20
-2.854140000000001
 10
-37.6613600000000019
 20
-2.7022399999999998
 10
-37.8321200000000033
 20
-2.565059999999999
 10
-38.0132600000000025
 20
-2.4384000000000015
 10
-38.2030999999999992
 20
-2.3181199999999968
 10
-38.3999999999999986
 20
-2.1999999999999993
 10
-39.0
 20
-3.5999999999999979
 10
-38.8761399999999995
 20
-3.6751599999999982
 10
-38.7629200000000012
 20
-3.7490200000000016
 10
-38.6600399999999951
 20
-3.8216199999999994
 10
-38.5672399999999982
 20
-3.8928800000000017
 10
-38.484259999999999
 20
-3.9627799999999951
 10
-38.4108200000000011
 20
-4.0313199999999973
 10
-38.3466200000000015
 20
-4.0984599999999993
 10
-38.2914200000000022
 20
-4.1641599999999954
 10
-38.2449399999999997
 20
-4.2284199999999998
 10
-38.2068799999999982
 20
-4.2911800000000007
 10
-38.1769800000000004
 20
-4.3524400000000014
 10
-38.1549800000000019
 20
-4.4121799999999993
 10
-38.1405999999999992
 20
-4.470320000000001
 10
-38.1335399999999964
 20
-4.5268999999999977
 10
-38.1335600000000028
 20
-4.5818399999999997
 10
-38.1403800000000004
 20
-4.6351399999999998
 10
-38.1537000000000006
 20
-4.6867799999999988
 10
-38.1732799999999983
 20
-4.736699999999999
 10
-38.1988199999999978
 20
-4.7849199999999996
 10
-38.2300400000000025
 20
-4.8313600000000001
 10
-38.2667000000000002
 20
-4.8760399999999997
 10
-38.3084999999999951
 20
-4.9188999999999972
 10
-38.3551799999999972
 20
-4.9599199999999968
 10
-38.4064400000000035
 20
-4.9990999999999985
 10
-38.4620400000000018
 20
-5.0363799999999976
 10
-38.5216800000000035
 20
-5.0717399999999984
 10
-38.5850999999999971
 20
-5.1051599999999979
 10
-38.6520200000000003
 20
-5.1366000000000014
 10
-38.7221600000000024
 20
-5.1660599999999981
 10
-38.795259999999999
 20
-5.1934799999999974
 10
-38.8710400000000007
 20
-5.2188599999999994
 10
-38.9492199999999968
 20
-5.2421599999999984
 10
-39.029519999999998
 20
-5.2633599999999987
 10
-39.1116799999999998
 20
-5.2824199999999983
 10
-39.1954199999999986
 20
-5.2993400000000008
 10
-39.2804799999999972
 20
-5.3140399999999985
 10
-39.3665599999999998
 20
-5.3265600000000006
 10
-39.453400000000002
 20
-5.3368199999999995
 10
-39.5407200000000003
 20
-5.3448199999999986
 10
-39.6282599999999974
 20
-5.3505199999999995
 10
-39.7157199999999975
 20
-5.3538999999999959
 10
-39.8028599999999955
 20
-5.3549399999999991
 10
-39.8893800000000027
 20
-5.3536000000000001
 10
-39.9750000000000014
 20
-5.3498599999999996
 10
-40.0594600000000014
 20
-5.3436799999999991
 10
-40.1424999999999983
 20
-5.3350399999999993
 10
-40.2238200000000035
 20
-5.3239399999999968
 10
-40.3031599999999983
 20
-5.310299999999998
 10
-40.3802200000000013
 20
-5.2941399999999987
 10
-40.4547799999999995
 20
-5.2754199999999969
 10
-40.5264999999999986
 20
-5.2540999999999976
 10
-40.5951599999999999
 20
-5.2301599999999979
 10
-40.6604600000000005
 20
-5.2035799999999988
 10
-40.7221199999999968
 20
-5.174319999999998
 10
-40.7798999999999978
 20
-5.1423799999999993
 10
-40.8334800000000016
 20
-5.1076799999999984
 10
-40.8825999999999965
 20
-5.0702599999999975
 10
-40.9270199999999988
 20
-5.0300399999999996
 10
-40.9664199999999994
 20
-4.9869999999999983
 10
-41.0005400000000009
 20
-4.9411399999999972
 10
-41.0291199999999989
 20
-4.8924200000000013
 10
-41.051879999999997
 20
-4.8408199999999972
 10
-41.0685199999999995
 20
-4.7862799999999979
 10
-41.0788000000000011
 20
-4.7287999999999997
 10
-41.0824399999999983
 20
-4.6683599999999998
 10
-41.0791600000000017
 20
-4.6049199999999999
 10
-41.0686800000000005
 20
-4.5384600000000006
 10
-41.0507199999999983
 20
-4.4689399999999999
 10
-41.0250199999999978
 20
-4.3963599999999978
 10
-40.9912999999999954
 20
-4.3206599999999966
 10
-40.9493000000000009
 20
-4.2418200000000006
 10
-40.8987199999999973
 20
-4.1598199999999999
 10
-40.8393000000000015
 20
-4.074659999999998
 10
-40.770780000000002
 20
-3.9862599999999979
 10
-40.692859999999996
 20
-3.8946199999999962
 10
-40.6052600000000012
 20
-3.7997200000000007
 10
-40.5077399999999983
 20
-3.7015199999999986
 10
-40.3999999999999986
 20
-3.5999999999999979
 10
-41.0
 20
-2.1999999999999993
  0
LWPOLYLINE
  5
57
  8
0
 62
256
370
-1
  6
ByLayer
100
AcDbEntity
100
AcDbPolyline
 90
133
 70
0
 10
-41.6000000000000014
 20
-11.5999999999999979
 10
-42.3999999999999986
 20
-11.5999999999999979
 10
-42.3909400000000005
 20
-11.7841799999999992
 10
-42.3686199999999999
 20
-11.9555399999999992
 10
-42.3335599999999985
 20
-12.1144999999999996
 10
-42.2862799999999979
 20
-12.2615000000000016
 10
-42.2273199999999989
 20
-12.39696
 10
-42.1572000000000031
 20
-12.5213199999999993
 10
-42.0764199999999988
 20
-12.634999999999998
 10
-41.9855200000000011
 20
-12.7384199999999979
 10
-41.8850199999999973
 20
-12.8320399999999992
 10
-41.7754400000000032
 20
-12.9162399999999984
 10
-41.6573199999999986
 20
-12.9914999999999985
 10
-41.5311599999999999
 20
-13.0582199999999986
 10
-41.3975000000000009
 20
-13.1168200000000006
 10
-41.2568399999999968
 20
-13.1677600000000012
 10
-41.1097400000000022
 20
-13.2114399999999996
 10
-40.9566799999999986
 20
-13.2483000000000004
 10
-40.7982200000000006
 20
-13.2787800000000011
 10
-40.6348600000000033
 20
-13.3032999999999966
 10
-40.4671200000000013
 20
-13.3222799999999992
 10
-40.2955400000000026
 20
-13.3361400000000003
 10
-40.1206400000000016
 20
-13.3453399999999966
 10
-39.9429400000000001
 20
-13.3502999999999972
 10
-39.7629599999999996
 20
-13.3514199999999974
 10
-39.5812200000000018
 20
-13.3491600000000012
 10
-39.3982400000000013
 20
-13.3439399999999999
 10
-39.2145599999999988
 20
-13.3361999999999981
 10
-39.030699999999996
 20
-13.3263399999999983
 10
-38.8471600000000024
 20
-13.3147999999999982
 10
-38.6644999999999968
 20
-13.3020199999999988
 10
-38.4831999999999965
 20
-13.2884399999999978
 10
-38.3037999999999954
 20
-13.274440000000002
 10
-38.1268400000000014
 20
-13.2604999999999968
 10
-37.9528400000000019
 20
-13.2470199999999991
 10
-37.7822999999999993
 20
-13.2344399999999993
 10
-37.6157600000000016
 20
-13.2231999999999985
 10
-37.4537399999999963
 20
-13.2136999999999993
 10
-37.296759999999999
 20
-13.2063799999999993
 10
-37.1453399999999974
 20
-13.2016799999999996
 10
-37.0
 20
-13.1999999999999993
 10
-37.0
 20
-11.5999999999999979
 10
-37.1693599999999975
 20
-11.6014199999999974
 10
-37.3406999999999982
 20
-11.6052199999999992
 10
-37.5135599999999982
 20
-11.6107599999999991
 10
-37.6874600000000015
 20
-11.6173599999999979
 10
-37.8619199999999978
 20
-11.6243799999999986
 10
-38.0364399999999989
 20
-11.6311599999999977
 10
-38.2105200000000025
 20
-11.6370599999999982
 10
-38.3837199999999967
 20
-11.6413800000000016
 10
-38.5555000000000021
 20
-11.6434999999999995
 10
-38.7254199999999997
 20
-11.6427399999999999
 10
-38.8929800000000014
 20
-11.6384599999999985
 10
-39.0576799999999977
 20
-11.629999999999999
 10
-39.2190399999999997
 20
-11.6166799999999988
 10
-39.3765999999999963
 20
-11.59788
 10
-39.5298400000000001
 20
-11.5729199999999999
 10
-39.6782800000000009
 20
-11.5411399999999986
 10
-39.8214600000000019
 20
-11.5018999999999991
 10
-39.9588800000000006
 20
-11.4545199999999987
 10
-40.0900400000000019
 20
-11.3983799999999995
 10
-40.2144800000000018
 20
-11.3327799999999996
 10
-40.3316799999999986
 20
-11.2570799999999984
 10
-40.441200000000002
 20
-11.1706199999999995
 10
-40.5425199999999961
 20
-11.0727399999999996
 10
-40.6351599999999991
 20
-10.9627999999999979
 10
-40.7186599999999999
 20
-10.8401399999999981
 10
-40.7924999999999969
 20
-10.7040799999999976
 10
-40.8562000000000012
 20
-10.5539799999999993
 10
-40.9093000000000018
 20
-10.3891799999999961
 10
-40.951279999999997
 20
-10.2090199999999989
 10
-40.9816799999999972
 20
-10.0128599999999999
 10
-41.0
 20
-9.7999999999999972
 10
-37.0
 20
-9.7999999999999972
 10
-37.0
 20
-8.1999999999999993
 10
-37.132559999999998
 20
-8.199659999999998
 10
-37.2684399999999982
 20
-8.1986999999999988
 10
-37.4073800000000034
 20
-8.1972999999999985
 10
-37.5490999999999957
 20
-8.1955600000000004
 10
-37.6933199999999999
 20
-8.1936599999999977
 10
-37.8397599999999983
 20
-8.1917200000000001
 10
-37.9881400000000014
 20
-8.189899999999998
 10
-38.1381799999999984
 20
-8.1883199999999974
 10
-38.2896199999999993
 20
-8.1871599999999987
 10
-38.4421600000000012
 20
-8.1865399999999973
 10
-38.5955200000000005
 20
-8.1865999999999985
 10
-38.7494399999999999
 20
-8.1874799999999972
 10
-38.9036399999999958
 20
-8.1893400000000014
 10
-39.0578199999999995
 20
-8.1922999999999995
 10
-39.2117000000000004
 20
-8.1965399999999988
 10
-39.3650200000000012
 20
-8.2021599999999992
 10
-39.5174999999999983
 20
-8.2093399999999974
 10
-39.6688599999999951
 20
-8.218199999999996
 10
-39.818799999999996
 20
-8.2288999999999959
 10
-39.9670799999999957
 20
-8.2415599999999998
 10
-40.1133799999999994
 20
-8.256339999999998
 10
-40.2574600000000018
 20
-8.2733799999999995
 10
-40.3990000000000009
 20
-8.292819999999999
 10
-40.5377599999999987
 20
-8.3148199999999974
 10
-40.6734200000000001
 20
-8.339500000000001
 10
-40.8057400000000001
 20
-8.3670199999999966
 10
-40.9344399999999951
 20
-8.3974999999999973
 10
-41.0592199999999963
 20
-8.4311199999999999
 10
-41.1798000000000002
 20
-8.4679799999999972
 10
-41.2959000000000032
 20
-8.5082599999999999
 10
-41.4072800000000001
 20
-8.5520999999999958
 10
-41.5135999999999967
 20
-8.599619999999998
 10
-41.6146400000000014
 20
-8.6509599999999978
 10
-41.7100799999999978
 20
-8.7062999999999988
 10
-41.7996600000000029
 20
-8.7657600000000002
 10
-41.8830999999999989
 20
-8.8294599999999974
 10
-41.9600999999999971
 20
-8.8975999999999971
 10
-42.0304199999999994
 20
-8.9702599999999961
 10
-42.0937399999999968
 20
-9.0476400000000012
 10
-42.1498199999999983
 20
-9.129839999999998
 10
-42.198360000000001
 20
-9.2170399999999972
 10
-42.2390800000000013
 20
-9.3093399999999988
 10
-42.2716999999999956
 20
-9.4069199999999995
 10
-42.2959400000000016
 20
-9.5099199999999975
 10
-42.3115400000000008
 20
-9.6184599999999989
 10
-42.3182199999999966
 20
-9.7326999999999977
 10
-42.3156600000000012
 20
-9.8527799999999992
 10
-42.3036199999999951
 20
-9.9788399999999982
 10
-42.2818199999999962
 20
-10.1110199999999963
 10
-42.2499800000000008
 20
-10.2494799999999984
 10
-42.2077999999999989
 20
-10.3943599999999989
 10
-42.1550200000000004
 20
-10.545779999999997
 10
-42.0913600000000017
 20
-10.7038999999999973
 10
-42.0165199999999999
 20
-10.8688600000000015
 10
-41.930259999999997
 20
-11.0408200000000001
 10
-41.832259999999998
 20
-11.2198999999999991
 10
-41.7222799999999978
 20
-11.4062400000000004
 10
-41.6000000000000014
 20
-11.5999999999999979
  0
LWPOLYLINE
  5
58
  8
0
 62
256
370
-1
  6
ByLayer
100
AcDbEntity
100
AcDbPolyline
 90
51
 70
0
 10
-28.1999999999999993
 20
-10.3999999999999986
 10
-28.1999999999999993
 20
-23.8000000000000007
 10
-28.0375999999999976
 20
-23.8036400000000015
 10
-27.858039999999999
 20
-23.8131199999999978
 10
-27.6645000000000003
 20
-23.8262599999999978
 10
-27.4601599999999983
 20
-23.8409200000000006
 10
-27.2481799999999978
 20
-23.8549199999999999
 10
-27.0317399999999992
 20
-23.8660999999999994
 10
-26.8140199999999993
 20
-23.8722999999999992
 10
-26.5981999999999985
 20
-23.8713599999999992
 10
-26.387439999999998
 20
-23.8611000000000004
 10
-26.1849199999999982
 20
-23.8393599999999992
 10
-25.9937999999999967
 20
-23.8039999999999985
 10
-25.8172799999999967
 20
-23.7528399999999991
 10
-25.6585199999999958
 20
-23.683720000000001
 10
-25.5206799999999987
 20
-23.594459999999998
 10
-25.4324999999999974
 20
-23.5100599999999993
 10
-25.3546799999999983
 20
-23.4059999999999988
 10
-25.2866999999999962
 20
-23.2836399999999983
 10
-25.227999999999998
 20
-23.1444399999999995
 10
-25.1780599999999986
 20
-22.9897799999999997
 10
-25.1362999999999985
 20
-22.8210599999999992
 10
-25.1022199999999991
 20
-22.6397000000000013
 10
-25.0752799999999993
 20
-22.4470999999999989
 10
-25.0548999999999999
 20
-22.2446599999999997
 10
-25.0405799999999985
 20
-22.0337999999999994
 10
-25.0317599999999985
 20
-21.8159199999999984
 10
-25.0278999999999989
 20
-21.5924199999999971
 10
-25.0284799999999983
 20
-21.3646999999999991
 10
-25.0329199999999972
 20
-21.1341999999999999
 10
-25.0407199999999968
 20
-20.9022799999999975
 10
-25.0512999999999977
 20
-20.6703800000000015
 10
-25.0641399999999983
 20
-20.4399000000000015
 10
-25.0787200000000006
 20
-20.2122400000000013
 10
-25.094459999999998
 20
-19.9887999999999977
 10
-25.1108399999999961
 20
-19.7710000000000008
 10
-25.1273400000000002
 20
-19.5602200000000011
 10
-25.1433600000000013
 20
-19.3579000000000008
 10
-25.1584199999999996
 20
-19.1654199999999975
 10
-25.1719599999999986
 20
-18.9842000000000013
 10
-25.1834199999999981
 20
-18.8156400000000019
 10
-25.1922799999999967
 20
-18.6611599999999989
 10
-25.1979800000000012
 20
-18.5221400000000003
 10
-25.1999999999999993
 20
-18.3999999999999986
 10
-21.0
 20
-18.3999999999999986
 10
-21.0
 20
-16.1999999999999993
 10
-25.1999999999999993
 20
-16.1999999999999993
 10
-25.1999999999999993
 20
-12.8000000000000007
 10
-19.3999999999999986
 20
-12.8000000000000007
 10
-19.3999999999999986
 20
-10.3999999999999986
 10
-28.1999999999999993
 20
-10.3999999999999986
  0
LWPOLYLINE
  5
59
  8
0
 62
256
370
-1
  6
ByLayer
100
AcDbEntity
100
AcDbPolyline
 90
5
 70
0
 10
-9.0
 20
-10.5999999999999979
 10
-9.0
 20
-12.8000000000000007
 10
-6.1999999999999957
 20
-12.8000000000000007
 10
-6.1999999999999957
 20
-10.5999999999999979
 10
-9.0
 20
-10.5999999999999979
  0
LWPOLYLINE
  5
5A
  8
0
 62
256
370
-1
  6
ByLayer
100
AcDbEntity
100
AcDbPolyline
 90
238
 70
0
 10
-18.3999999999999986
 20
-17.1999999999999993
 10
-18.2759599999999978
 20
-17.1621600000000001
 10
-18.1463999999999999
 20
-17.1188999999999965
 10
-18.0117999999999974
 20
-17.0709599999999995
 10
-17.8726199999999977
 20
-17.0190400000000004
 10
-17.7293200000000013
 20
-16.9639000000000024
 10
-17.5823600000000013
 20
-16.9062199999999976
 10
-17.4322400000000002
 20
-16.8467599999999997
 10
-17.2794199999999947
 20
-16.7862399999999994
 10
-17.1243399999999966
 20
-16.725360000000002
 10
-16.9675000000000011
 20
-16.6648599999999973
 10
-16.8093399999999988
 20
-16.60548
 10
-16.6503599999999992
 20
-16.547939999999997
 10
-16.4909999999999997
 20
-16.4929399999999973
 10
-16.3317400000000035
 20
-16.4412200000000013
 10
-16.1730399999999932
 20
-16.3935200000000023
 10
-16.0153800000000004
 20
-16.3505400000000023
 10
-15.8592399999999998
 20
-16.3129999999999988
 10
-15.7050400000000039
 20
-16.2816599999999987
 10
-15.5533000000000001
 20
-16.2572200000000002
 10
-15.4044600000000003
 20
-16.2404000000000011
 10
-15.2589800000000011
 20
-16.2319400000000016
 10
-15.1173599999999979
 20
-16.2325599999999994
 10
-14.9800400000000025
 20
-16.2429599999999965
 10
-14.8475000000000037
 20
-16.2639199999999988
 10
-14.7202199999999976
 20
-16.2961000000000027
 10
-14.5986399999999961
 20
-16.3402799999999999
 10
-14.4832400000000021
 20
-16.3971400000000003
 10
-14.3744799999999984
 20
-16.4674399999999963
 10
-14.2728599999999943
 20
-16.551879999999997
 10
-14.1788000000000025
 20
-16.6511999999999993
 10
-14.0927999999999969
 20
-16.7661000000000016
 10
-14.0153399999999948
 20
-16.8973399999999998
 10
-13.9468599999999938
 20
-17.0456199999999995
 10
-13.8878199999999978
 20
-17.2116800000000012
 10
-13.8387200000000021
 20
-17.3962399999999988
 10
-13.7999999999999972
 20
-17.6000000000000014
 10
-13.9817600000000013
 20
-17.6015200000000007
 10
-14.1672399999999996
 20
-17.6052199999999992
 10
-14.3560200000000009
 20
-17.6112800000000007
 10
-14.5477199999999982
 20
-17.6199200000000005
 10
-14.7418799999999948
 20
-17.6313400000000016
 10
-14.9381399999999971
 20
-17.64574
 10
-15.1360799999999998
 20
-17.663339999999998
 10
-15.3352799999999974
 20
-17.6843199999999996
 10
-15.5353399999999979
 20
-17.7088800000000006
 10
-15.7358600000000024
 20
-17.7372399999999999
 10
-15.9364199999999983
 20
-17.7695799999999977
 10
-16.1365999999999943
 20
-17.8061399999999992
 10
-16.3360199999999978
 20
-17.8470799999999983
 10
-16.5342599999999962
 20
-17.8926400000000001
 10
-16.7308999999999983
 20
-17.9429999999999978
 10
-16.925539999999998
 20
-17.9983599999999981
 10
-17.1177999999999955
 20
-18.0589200000000005
 10
-17.3072200000000009
 20
-18.1249199999999995
 10
-17.4934199999999933
 20
-18.1965000000000003
 10
-17.6759999999999948
 20
-18.2739199999999968
 10
-17.854539999999993
 20
-18.3573599999999999
 10
-18.0286200000000001
 20
-18.4469999999999992
 10
-18.197859999999995
 20
-18.5430799999999998
 10
-18.361819999999998
 20
-18.645780000000002
 10
-18.520119999999995
 20
-18.7553199999999975
 10
-18.6723400000000019
 20
-18.8718799999999973
 10
-18.8180799999999948
 20
-18.9956800000000001
 10
-18.9569200000000002
 20
-19.1268999999999991
 10
-19.0884400000000021
 20
-19.2657600000000002
 10
-19.2007200000000005
 20
-19.4004199999999969
 10
-19.3035399999999981
 20
-19.5424599999999984
 10
-19.3968799999999959
 20
-19.69116
 10
-19.4806999999999988
 20
-19.845839999999999
 10
-19.5549599999999977
 20
-20.0057800000000015
 10
-19.6196199999999976
 20
-20.1703199999999967
 10
-19.6746599999999994
 20
-20.3387200000000021
 10
-19.7200199999999981
 20
-20.5103000000000009
 10
-19.7556799999999981
 20
-20.6843399999999988
 10
-19.7815999999999974
 20
-20.8601600000000005
 10
-19.7977599999999967
 20
-21.0370399999999975
 10
-19.8040999999999983
 20
-21.2143000000000015
 10
-19.8005999999999958
 20
-21.3912399999999998
 10
-19.7871999999999986
 20
-21.567140000000002
 10
-19.7638999999999996
 20
-21.741299999999999
 10
-19.7306199999999983
 20
-21.9130199999999995
 10
-19.6873599999999982
 20
-22.0816200000000009
 10
-19.6340799999999973
 20
-22.246380000000002
 10
-19.5707199999999979
 20
-22.4066200000000002
 10
-19.4972799999999999
 20
-22.5616200000000013
 10
-19.4136799999999994
 20
-22.71068
 10
-19.3199199999999998
 20
-22.8531000000000013
 10
-19.215959999999999
 20
-22.9881799999999998
 10
-19.1017399999999995
 20
-23.1152200000000008
 10
-18.9772399999999983
 20
-23.2335400000000014
 10
-18.8424199999999971
 20
-23.3424000000000014
 10
-18.6972399999999972
 20
-23.4411400000000008
 10
-18.5416799999999995
 20
-23.5290199999999992
 10
-18.3756999999999984
 20
-23.605360000000001
 10
-18.1992399999999961
 20
-23.6694600000000008
 10
-18.0013599999999983
 20
-23.726659999999999
 10
-17.8046799999999976
 20
-23.7723200000000006
 10
-17.6092799999999983
 20
-23.8067799999999998
 10
-17.4152399999999972
 20
-23.8303599999999989
 10
-17.2226399999999984
 20
-23.843399999999999
 10
-17.0315799999999982
 20
-23.8462199999999989
 10
-16.8421200000000013
 20
-23.8391599999999997
 10
-16.654360000000004
 20
-23.82254
 10
-16.468359999999997
 20
-23.7967200000000005
 10
-16.2842199999999977
 20
-23.7620000000000005
 10
-16.1019999999999968
 20
-23.7187400000000004
 10
-15.9218200000000039
 20
-23.6672399999999996
 10
-15.7437200000000033
 20
-23.6078399999999995
 10
-15.5677999999999983
 20
-23.5408800000000014
 10
-15.3941599999999994
 20
-23.4666999999999994
 10
-15.2228599999999972
 20
-23.3856199999999994
 10
-15.0539599999999965
 20
-23.2979599999999998
 10
-14.8875999999999991
 20
-23.2040800000000011
 10
-14.7237999999999971
 20
-23.1042799999999993
 10
-14.5626800000000003
 20
-22.998899999999999
 10
-14.4043199999999985
 20
-22.8882800000000017
 10
-14.2487999999999957
 20
-22.7727599999999981
 10
-14.0961799999999968
 20
-22.6526399999999981
 10
-13.9465599999999981
 20
-22.5282799999999988
 10
-13.7999999999999972
 20
-22.3999999999999986
 10
-13.6000000000000014
 20
-23.8000000000000007
 10
-10.7999999999999972
 20
-23.8000000000000007
 10
-10.8048199999999994
 20
-23.6611200000000004
 10
-10.8077399999999955
 20
-23.5152999999999999
 10
-10.808959999999999
 20
-23.3628800000000005
 10
-10.8086199999999977
 20
-23.2041600000000017
 10
-10.8069199999999981
 20
-23.0394800000000011
 10
-10.8040399999999934
 20
-22.8691600000000008
 10
-10.8000999999999934
 20
-22.6935199999999995
 10
-10.7953399999999959
 20
-22.5128799999999991
 10
-10.7898799999999966
 20
-22.3275800000000011
 10
-10.7838999999999956
 20
-22.1379200000000012
 10
-10.7775999999999996
 20
-21.9442400000000006
 10
-10.7711199999999963
 20
-21.7468399999999988
 10
-10.7646599999999921
 20
-21.5460799999999999
 10
-10.7583599999999961
 20
-21.3422399999999968
 10
-10.7524200000000008
 20
-21.1356800000000007
 10
-10.7469999999999999
 20
-20.9266999999999967
 10
-10.7422799999999938
 20
-20.7156200000000013
 10
-10.7383999999999986
 20
-20.5027800000000013
 10
-10.7355799999999988
 20
-20.2884999999999991
 10
-10.7339599999999962
 20
-20.0730799999999974
 10
-10.7337199999999982
 20
-19.8568599999999975
 10
-10.7350399999999979
 20
-19.6401800000000009
 10
-10.7380799999999965
 20
-19.4233399999999996
 10
-10.7430200000000013
 20
-19.2066599999999994
 10
-10.7500199999999992
 20
-18.990479999999998
 10
-10.7592599999999976
 20
-18.7751000000000019
 10
-10.7709199999999967
 20
-18.5608599999999981
 10
-10.7851399999999984
 20
-18.3480799999999995
 10
-10.8021400000000014
 20
-18.1370799999999974
 10
-10.8220599999999934
 20
-17.9281799999999976
 10
-10.8450799999999958
 20
-17.7217199999999977
 10
-10.8713799999999949
 20
-17.5180000000000007
 10
-10.9010999999999996
 20
-17.3173600000000008
 10
-10.9344600000000014
 20
-17.1201000000000008
 10
-10.9715999999999951
 20
-16.9265800000000013
 10
-11.012679999999996
 20
-16.7370799999999988
 10
-11.0579199999999958
 20
-16.5519399999999983
 10
-11.1074399999999969
 20
-16.3714999999999975
 10
-11.1614399999999989
 20
-16.1960599999999992
 10
-11.2200799999999958
 20
-16.0259599999999978
 10
-11.2835599999999943
 20
-15.8614999999999995
 10
-11.3519999999999968
 20
-15.7030399999999979
 10
-11.425619999999995
 20
-15.5508600000000001
 10
-11.5045799999999971
 20
-15.4052999999999987
 10
-11.5890399999999971
 20
-15.2666799999999991
 10
-11.6791600000000031
 20
-15.1353399999999993
 10
-11.7751400000000004
 20
-15.0116000000000014
 10
-11.8771599999999964
 20
-14.89574
 10
-11.9853400000000008
 20
-14.7881400000000003
 10
-12.0999199999999973
 20
-14.689099999999998
 10
-12.2209999999999965
 20
-14.5989199999999997
 10
-12.3160199999999946
 20
-14.5373400000000004
 10
-12.4173400000000029
 20
-14.4787999999999997
 10
-12.5246799999999965
 20
-14.4233399999999978
 10
-12.6377200000000016
 20
-14.3709799999999994
 10
-12.7561800000000005
 20
-14.3216999999999999
 10
-12.8797399999999982
 20
-14.2755200000000002
 10
-13.0081199999999981
 20
-14.2324399999999986
 10
-13.140979999999999
 20
-14.1925000000000008
 10
-13.2780399999999972
 20
-14.1556800000000003
 10
-13.4189999999999969
 20
-14.1219999999999999
 10
-13.5635399999999962
 20
-14.0914599999999997
 10
-13.7113799999999983
 20
-14.0640599999999996
 10
-13.8621800000000022
 20
-14.0398399999999999
 10
-14.0156799999999961
 20
-14.0187799999999996
 10
-14.1715400000000002
 20
-14.0009199999999989
 10
-14.3294799999999967
 20
-13.9862199999999994
 10
-14.4891799999999975
 20
-13.9747400000000006
 10
-14.6503599999999992
 20
-13.9664399999999986
 10
-14.8126800000000003
 20
-13.9613799999999983
 10
-14.9758799999999965
 20
-13.9595200000000013
 10
-15.1396200000000007
 20
-13.960919999999998
 10
-15.3035999999999959
 20
-13.9655399999999972
 10
-15.4675599999999989
 20
-13.9734000000000016
 10
-15.6311399999999949
 20
-13.9845399999999991
 10
-15.7940600000000018
 20
-13.9989200000000018
 10
-15.9560400000000016
 20
-14.0165999999999986
 10
-16.1167400000000001
 20
-14.0375599999999991
 10
-16.2758600000000015
 20
-14.0617999999999981
 10
-16.4331200000000024
 20
-14.08934
 10
-16.5882000000000005
 20
-14.1201999999999988
 10
-16.7408199999999994
 20
-14.1543599999999987
 10
-16.8906399999999977
 20
-14.1918599999999984
 10
-17.0373599999999996
 20
-14.2326999999999995
 10
-17.1807200000000009
 20
-14.2768799999999985
 10
-17.3203600000000009
 20
-14.3243999999999989
 10
-17.4560200000000023
 20
-14.3752999999999975
 10
-17.5873800000000031
 20
-14.4295600000000004
 10
-17.7141200000000012
 20
-14.4872000000000014
 10
-17.8359799999999993
 20
-14.5482200000000006
 10
-17.9525999999999968
 20
-14.612639999999999
 10
-18.0637399999999992
 20
-14.6804599999999983
 10
-18.169039999999999
 20
-14.7516999999999996
 10
-18.2682199999999995
 20
-14.8263599999999993
 10
-18.3609799999999979
 20
-14.9044600000000003
 10
-18.4470199999999949
 20
-14.9860000000000007
 10
-18.526019999999999
 20
-15.0709599999999995
 10
-18.5976999999999961
 20
-15.159399999999998
 10
-18.6617200000000025
 20
-15.2513000000000005
 10
-18.7178199999999997
 20
-15.3466799999999992
 10
-18.7656600000000005
 20
-15.4455399999999994
 10
-18.8049599999999977
 20
-15.5478799999999993
 10
-18.8354199999999992
 20
-15.6537199999999999
 10
-18.8567199999999993
 20
-15.7630799999999986
 10
-18.8685600000000022
 20
-15.8759599999999992
 10
-18.8706399999999945
 20
-15.9923599999999979
 10
-18.862639999999999
 20
-16.1122799999999984
 10
-18.8442799999999977
 20
-16.2357599999999991
 10
-18.8152599999999985
 20
-16.3627800000000008
 10
-18.7752599999999958
 20
-16.4933600000000027
 10
-18.7239799999999974
 20
-16.6275200000000005
 10
-18.6611199999999968
 20
-16.7652599999999978
 10
-18.5863800000000019
 20
-16.9065799999999982
 10
-18.4994399999999963
 20
-17.0514999999999972
 10
-18.3999999999999986
 20
-17.1999999999999993
  0
LWPOLYLINE
  5
5B
  8
0
 62
256
370
-1
  6
ByLayer
100
AcDbEntity
100
AcDbPolyline
 90
87
 70
0
 10
-1.3999999999999986
 20
-15.5999999999999996
 10
-1.3999999999999986
 20
-14.1999999999999993
 10
-4.1999999999999957
 20
-14.1999999999999993
 10
-4.1999999999999957
 20
-23.8000000000000007
 10
-1.3999999999999986
 20
-23.8000000000000007
 10
-1.4006599999999949
 20
-23.6720199999999998
 10
-1.4024999999999963
 20
-23.5398600000000009
 10
-1.405380000000001
 20
-23.4037199999999999
 10
-1.40916
 20
-23.2638600000000011
 10
-1.4136799999999994
 20
-23.1204999999999998
 10
-1.4187799999999982
 20
-22.9738800000000012
 10
-1.4243199999999945
 20
-22.8242200000000004
 10
-1.4301600000000008
 20
-22.6717200000000005
 10
-1.4361399999999946
 20
-22.5166600000000017
 10
-1.4420999999999964
 20
-22.3592399999999998
 10
-1.4478999999999971
 20
-22.1996800000000007
 10
-1.4533999999999949
 20
-22.0382400000000018
 10
-1.4584199999999967
 20
-21.875119999999999
 10
-1.4628399999999999
 20
-21.710560000000001
 10
-1.4664799999999971
 20
-21.5447799999999994
 10
-1.46922
 20
-21.3780199999999994
 10
-1.470879999999994
 20
-21.2105199999999989
 10
-1.4713199999999915
 20
-21.0424799999999976
 10
-1.4703999999999979
 20
-20.874139999999997
 10
-1.4679599999999979
 20
-20.7057399999999987
 10
-1.4638599999999968
 20
-20.5374799999999986
 10
-1.4579400000000007
 20
-20.3696399999999969
 10
-1.4500400000000013
 20
-20.2023999999999972
 10
-1.440019999999997
 20
-20.0360000000000014
 10
-1.42774
 20
-19.8706800000000001
 10
-1.4130399999999952
 20
-19.7066799999999986
 10
-1.3957599999999957
 20
-19.5441999999999965
 10
-1.3757599999999996
 20
-19.3834799999999987
 10
-1.352879999999999
 20
-19.2247399999999971
 10
-1.3269799999999918
 20
-19.0682399999999994
 10
-1.2978999999999985
 20
-18.9141800000000018
 10
-1.2654999999999959
 20
-18.7627799999999993
 10
-1.229619999999997
 20
-18.6143000000000001
 10
-1.1901200000000003
 20
-18.4689599999999992
 10
-1.1468399999999974
 20
-18.3269599999999997
 10
-1.0996199999999945
 20
-18.1885800000000017
 10
-1.0483399999999961
 20
-18.054000000000002
 10
-0.9928199999999947
 20
-17.9234599999999986
 10
-0.9329199999999958
 20
-17.7972199999999994
 10
-0.8684999999999974
 20
-17.6754600000000011
 10
-0.7993799999999993
 20
-17.5584599999999966
 10
-0.7254399999999919
 20
-17.4464199999999998
 10
-0.6465199999999953
 20
-17.3395599999999988
 10
-0.5624799999999937
 20
-17.2381200000000021
 10
-0.4731400000000008
 20
-17.1423399999999972
 10
-0.3783599999999936
 20
-17.0524400000000007
 10
-0.2779999999999916
 20
-16.9686400000000006
 10
-0.1718999999999937
 20
-16.8911599999999993
 10
-0.0599199999999982
 20
-16.8202599999999975
 10
0.0581000000000031
 20
-16.7561600000000013
 10
0.1822999999999979
 20
-16.6990800000000021
 10
0.3128400000000013
 20
-16.6492399999999989
 10
0.449860000000001
 20
-16.606899999999996
 10
0.5935400000000044
 20
-16.5722400000000007
 10
0.7439999999999998
 20
-16.545539999999999
 10
0.9014000000000024
 20
-16.527000000000001
 10
1.0658999999999992
 20
-16.5168399999999984
 10
1.2376200000000068
 20
-16.5153199999999991
 10
1.4167600000000036
 20
-16.5226400000000027
 10
1.603420000000007
 20
-16.53904
 10
1.797780000000003
 20
-16.5647599999999997
 10
2.0
 20
-16.6000000000000014
 10
2.0
 20
-14.0
 10
1.7734200000000016
 20
-14.0094399999999997
 10
1.5557599999999994
 20
-14.0277600000000007
 10
1.3463399999999979
 20
-14.0548799999999989
 10
1.1445600000000056
 20
-14.0906599999999997
 10
0.9497599999999977
 20
-14.13504
 10
0.7613000000000056
 20
-14.1878999999999991
 10
0.5785600000000031
 20
-14.2491199999999978
 10
0.4009200000000064
 20
-14.3186399999999985
 10
0.2276999999999987
 20
-14.3963199999999993
 10
0.0583000000000027
 20
-14.4820600000000006
 10
-0.1079399999999993
 20
-14.57578
 10
-0.2716399999999979
 20
-14.6773599999999984
 10
-0.4334399999999974
 20
-14.786699999999998
 10
-0.5939799999999948
 20
-14.9037000000000006
 10
-0.7538999999999945
 20
-15.0282599999999995
 10
-0.9138199999999941
 20
-15.1602800000000002
 10
-1.0743799999999979
 20
-15.2996399999999984
 10
-1.2362399999999951
 20
-15.4462600000000005
 10
-1.3999999999999986
 20
-15.5999999999999996
  0
LWPOLYLINE
  5
5C
  8
0
 62
256
370
-1
  6
ByLayer
100
AcDbEntity
100
AcDbPolyline
 90
67
 70
0
 10
10.6000000000000014
 20
-20.7999999999999972
 10
10.459140000000005
 20
-20.8536199999999994
 10
10.3158200000000022
 20
-20.9091799999999992
 10
10.1702800000000053
 20
-20.9662000000000006
 10
10.0227399999999989
 20
-21.0242599999999982
 10
9.8734800000000007
 20
-21.0828799999999994
 10
9.7227400000000017
 20
-21.1416600000000017
 10
9.5707199999999943
 20
-21.2001199999999983
 10
9.4177200000000028
 20
-21.2578199999999988
 10
9.2639400000000052
 20
-21.3142999999999994
 10
9.109640000000006
 20
-21.3691400000000016
 10
8.9550800000000024
 20
-21.4218599999999988
 10
8.8004800000000074
 20
-21.4720200000000006
 10
8.6461000000000041
 20
-21.5191799999999986
 10
8.4921799999999976
 20
-21.5628999999999991
 10
8.3389600000000002
 20
-21.6027199999999979
 10
8.1866800000000026
 20
-21.6381799999999984
 10
8.0355800000000102
 20
-21.6688399999999994
 10
7.8859199999999987
 20
-21.6942599999999999
 10
7.7379400000000089
 20
-21.7139799999999994
 10
7.5918800000000033
 20
-21.7275599999999969
 10
7.4479800000000012
 20
-21.7345600000000019
 10
7.3065000000000069
 20
-21.7345199999999998
 10
7.167660000000005
 20
-21.7269799999999975
 10
7.03172
 20
-21.7115200000000002
 10
6.8989000000000047
 20
-21.687660000000001
 10
6.7694800000000015
 20
-21.6549800000000019
 10
6.6437000000000026
 20
-21.6130199999999988
 10
6.5217800000000068
 20
-21.561320000000002
 10
6.4039599999999979
 20
-21.4994599999999991
 10
6.2905200000000079
 20
-21.4269600000000011
 10
6.1816800000000001
 20
-21.343399999999999
 10
6.0776800000000009
 20
-21.2483000000000004
 10
5.9787600000000012
 20
-21.1412399999999998
 10
5.8851800000000054
 20
-21.0217600000000004
 10
5.7972000000000037
 20
-20.8894200000000012
 10
5.7150200000000098
 20
-20.743739999999999
 10
5.6389000000000067
 20
-20.5843199999999982
 10
5.5691000000000059
 20
-20.4106799999999993
 10
5.5058599999999984
 20
-20.2223800000000011
 10
5.4494000000000042
 20
-20.0189799999999991
 10
5.4000000000000057
 20
-19.7999999999999972
 10
11.6000000000000014
 20
-19.7999999999999972
 10
11.6000000000000014
 20
-19.5995999999999988
 10
11.5996600000000001
 20
-19.3986200000000011
 10
11.5985000000000014
 20
-19.19726
 10
11.5960200000000029
 20
-18.9957199999999986
 10
11.5916799999999967
 20
-18.7942199999999993
 10
11.5850200000000001
 20
-18.5929399999999987
 10
11.5755199999999974
 20
-18.39208
 10
11.5626800000000003
 20
-18.1918599999999984
 10
11.5460000000000065
 20
-17.9924600000000012
 10
11.5249600000000001
 20
-17.794080000000001
 10
11.4990800000000064
 20
-17.5969399999999965
 10
11.4678600000000017
 20
-17.4012200000000021
 10
11.430800000000005
 20
-17.207139999999999
 10
11.3873800000000003
 20
-17.0148999999999972
 10
11.3370999999999995
 20
-16.8246600000000015
 10
11.2794800000000066
 20
-16.6366799999999984
 10
11.2139999999999986
 20
-16.4510999999999967
 10
11.1401600000000087
 20
-16.268180000000001
 10
11.0574600000000061
 20
-16.0880799999999979
 10
10.9654000000000025
 20
-15.9110000000000014
 10
10.8634800000000098
 20
-15.7371599999999994
 10
10.7511800000000051
 20
-15.5667599999999986
 10
10.6280399999999986
 20
-15.3999799999999993
 10
10.4935200000000037
 20
-15.2370399999999986
  0
LWPOLYLINE
  5
5D
  8
0
 62
256
370
-1
  6
ByLayer
100
AcDbEntity
100
AcDbPolyline
 90
138
 70
0
 10
10.4934999999999974
 20
-15.2370399999999986
 10
10.3742200000000082
 20
-15.1076799999999984
 10
10.248580000000004
 20
-14.9855400000000003
 10
10.1169000000000011
 20
-14.8705399999999983
 10
9.9795000000000016
 20
-14.7626599999999986
 10
9.8366800000000012
 20
-14.6618399999999998
 10
9.6888000000000076
 20
-14.5680200000000006
 10
9.5361599999999953
 20
-14.4811599999999991
 10
9.3790800000000019
 20
-14.4012200000000004
 10
9.2179000000000002
 20
-14.3281399999999977
 10
9.0529200000000003
 20
-14.2618599999999986
 10
8.8845000000000027
 20
-14.2023399999999995
 10
8.7129199999999969
 20
-14.1495200000000008
 10
8.5385200000000054
 20
-14.1033800000000014
 10
8.3616200000000092
 20
-14.063839999999999
 10
8.1825600000000023
 20
-14.0308600000000006
 10
8.0016600000000082
 20
-14.0043799999999994
 10
7.8192200000000014
 20
-13.9843599999999988
 10
7.6355599999999981
 20
-13.9707600000000021
 10
7.4510400000000061
 20
-13.963519999999999
 10
7.2659599999999998
 20
-13.9625799999999991
 10
7.0806200000000032
 20
-13.9679000000000002
 10
6.8953999999999951
 20
-13.9794400000000003
 10
6.710560000000001
 20
-13.9971199999999989
 10
6.5264600000000002
 20
-14.0209200000000003
 10
6.3434200000000089
 20
-14.0507799999999996
 10
6.1617600000000081
 20
-14.0866600000000002
 10
5.9817999999999998
 20
-14.1284799999999979
 10
5.8038600000000002
 20
-14.1762200000000007
 10
5.6282600000000045
 20
-14.2298200000000001
 10
5.4553400000000067
 20
-14.2892200000000003
 10
5.2854000000000099
 20
-14.3544
 10
5.1187800000000081
 20
-14.4252800000000008
 10
4.9558000000000035
 20
-14.5017999999999994
 10
4.7967800000000054
 20
-14.5839599999999976
 10
4.6420200000000023
 20
-14.6716599999999993
 10
4.4919000000000011
 20
-14.7648599999999988
 10
4.3466800000000063
 20
-14.8635400000000004
 10
4.2067199999999971
 20
-14.9676199999999984
 10
4.072339999999997
 20
-15.0770599999999995
 10
3.9438400000000016
 20
-15.1918199999999999
 10
3.8215799999999973
 20
-15.3118199999999991
 10
3.7058600000000013
 20
-15.4370399999999979
 10
3.5765600000000006
 20
-15.590799999999998
 10
3.4549999999999983
 20
-15.74892
 10
3.3410600000000059
 20
-15.9111399999999996
 10
3.234640000000006
 20
-16.0772600000000025
 10
3.1356800000000078
 20
-16.2470199999999991
 10
3.0440600000000018
 20
-16.4202200000000005
 10
2.959699999999998
 20
-16.5966000000000022
 10
2.8825199999999995
 20
-16.7759399999999985
 10
2.8124000000000038
 20
-16.9580199999999977
 10
2.7492600000000067
 20
-17.1425800000000024
 10
2.6929999999999978
 20
-17.3293999999999997
 10
2.6435400000000016
 20
-17.5182599999999979
 10
2.6007800000000003
 20
-17.7088999999999999
 10
2.5646399999999971
 20
-17.9011199999999988
 10
2.5350200000000029
 20
-18.0946599999999975
 10
2.5118200000000002
 20
-18.2893199999999965
 10
2.4949600000000061
 20
-18.4848399999999984
 10
2.4843400000000031
 20
-18.6809999999999974
 10
2.4798800000000085
 20
-18.877559999999999
 10
2.4814600000000056
 20
-19.0742800000000017
 10
2.4890200000000107
 20
-19.2709599999999988
 10
2.5024400000000071
 20
-19.4673400000000001
 10
2.521640000000005
 20
-19.6631999999999998
 10
2.5465400000000074
 20
-19.8582999999999998
 10
2.5770200000000045
 20
-20.0523999999999987
 10
2.6130199999999988
 20
-20.2453000000000003
 10
2.6544200000000089
 20
-20.4367400000000004
 10
2.7011400000000023
 20
-20.6264800000000008
 10
2.7530800000000042
 20
-20.8143199999999986
 10
2.8101800000000026
 20
-21.0
 10
2.8751999999999995
 20
-21.1856000000000009
 10
2.9484199999999987
 20
-21.3656399999999991
 10
3.0295399999999972
 20
-21.5401200000000017
 10
3.1183200000000113
 20
-21.7089599999999976
 10
3.2144600000000025
 20
-21.8721199999999989
 10
3.3177200000000013
 20
-22.0295400000000008
 10
3.4278000000000048
 20
-22.1812199999999997
 10
3.5444400000000016
 20
-22.3270599999999995
 10
3.6673800000000085
 20
-22.467019999999998
 10
3.7963200000000086
 20
-22.6010799999999996
 10
3.9310200000000037
 20
-22.7291600000000003
 10
4.0712000000000046
 20
-22.8512200000000014
 10
4.2165800000000004
 20
-22.9672400000000003
 10
4.3669000000000011
 20
-23.07714
 10
4.521880000000003
 20
-23.1808599999999991
 10
4.6812400000000025
 20
-23.2784000000000013
 10
4.8447400000000016
 20
-23.3696599999999997
 10
5.0120800000000045
 20
-23.4546400000000013
 10
5.1830000000000069
 20
-23.5332399999999993
 10
5.3572400000000044
 20
-23.6054600000000008
 10
5.5345000000000084
 20
-23.6712199999999982
 10
5.7145399999999995
 20
-23.7304999999999993
 10
5.8970600000000033
 20
-23.78322
 10
6.0818200000000076
 20
-23.8293399999999984
 10
6.2685200000000023
 20
-23.8688399999999987
 10
6.4569200000000038
 20
-23.9016200000000012
 10
6.6467200000000091
 20
-23.9276799999999987
 10
6.8376600000000067
 20
-23.9469600000000007
 10
7.0294800000000066
 20
-23.9593999999999987
 10
7.2218799999999987
 20
-23.9649399999999986
 10
7.4146200000000064
 20
-23.9635800000000003
 10
7.6074200000000047
 20
-23.9552200000000006
 10
7.8000000000000043
 20
-23.939820000000001
 10
8.007399999999997
 20
-23.9180799999999998
 10
8.21096
 20
-23.8938400000000009
 10
8.4102800000000002
 20
-23.8668399999999998
 10
8.6049600000000055
 20
-23.8368399999999987
 10
8.7946200000000019
 20
-23.8035999999999994
 10
8.978900000000003
 20
-23.7668999999999997
 10
9.1573600000000113
 20
-23.7264599999999994
 10
9.3296600000000041
 20
-23.6820799999999991
 10
9.4953600000000051
 20
-23.6334799999999987
 10
9.654120000000006
 20
-23.5804599999999986
 10
9.8055400000000006
 20
-23.5227399999999989
 10
9.9492200000000039
 20
-23.4600800000000014
 10
10.0847600000000099
 20
-23.3922600000000003
 10
10.2118000000000109
 20
-23.3190400000000011
 10
10.3299400000000006
 20
-23.2401599999999995
 10
10.4387800000000013
 20
-23.155380000000001
 10
10.5379400000000061
 20
-23.0644600000000004
 10
10.6270400000000009
 20
-22.967179999999999
 10
10.7057000000000073
 20
-22.8632600000000004
 10
10.7735000000000056
 20
-22.7525000000000013
 10
10.8300800000000024
 20
-22.6346199999999982
 10
10.8750199999999992
 20
-22.5093999999999994
 10
10.9079600000000028
 20
-22.3765800000000006
 10
10.928520000000006
 20
-22.2359399999999994
 10
10.9362800000000036
 20
-22.0872400000000013
 10
10.9308599999999956
 20
-21.9302199999999985
 10
10.9118799999999965
 20
-21.76464
 10
10.8789599999999993
 20
-21.5902799999999999
 10
10.831700000000005
 20
-21.406880000000001
 10
10.7697000000000003
 20
-21.2141799999999989
 10
10.6926000000000059
 20
-21.0119800000000012
 10
10.6000000000000014
 20
-20.7999999999999972
  0
LWPOLYLINE
  5
5E
  8
0
 62
256
370
-1
  6
ByLayer
100
AcDbEntity
100
AcDbPolyline
 90
117
 70
0
 10
-41.6000000000000014
 20
-19.0
 10
-40.3999999999999986
 20
-15.7999999999999989
 10
-40.391219999999997
 20
-15.9806600000000003
 10
-40.3797599999999974
 20
-16.1676799999999972
 10
-40.3648999999999987
 20
-16.3597600000000014
 10
-40.3458600000000018
 20
-16.5555599999999998
 10
-40.3218999999999994
 20
-16.7537599999999998
 10
-40.2922599999999989
 20
-16.9530200000000022
 10
-40.2561600000000013
 20
-17.1520399999999995
 10
-40.2128599999999992
 20
-17.349499999999999
 10
-40.1616
 20
-17.544039999999999
 10
-40.1016199999999969
 20
-17.7343599999999988
 10
-40.0321599999999975
 20
-17.9191199999999995
 10
-39.9524800000000013
 20
-18.0970000000000013
 10
-39.8618000000000023
 20
-18.2667000000000002
 10
-39.7593600000000009
 20
-18.4268599999999978
 10
-39.644440000000003
 20
-18.5761600000000016
 10
-39.516219999999997
 20
-18.7132799999999975
 10
-39.3773199999999974
 20
-18.8333799999999982
 10
-39.2297200000000004
 20
-18.9346400000000017
 10
-39.0751199999999983
 20
-19.0172999999999988
 10
-38.9150999999999954
 20
-19.0815799999999989
 10
-38.7513199999999998
 20
-19.1277399999999993
 10
-38.5854199999999992
 20
-19.1559799999999996
 10
-38.4190399999999954
 20
-19.1665599999999969
 10
-38.253779999999999
 20
-19.1596800000000016
 10
-38.0913199999999961
 20
-19.1355999999999966
 10
-37.9332799999999963
 20
-19.0945400000000021
 10
-37.7812799999999953
 20
-19.0367400000000018
 10
-37.6369800000000012
 20
-18.9623999999999988
 10
-37.5019999999999953
 20
-18.8718000000000004
 10
-37.3779800000000009
 20
-18.7651199999999996
 10
-37.2665399999999991
 20
-18.6426400000000001
 10
-37.1693399999999983
 20
-18.5045599999999979
 10
-37.0880200000000002
 20
-18.3511200000000017
 10
-37.0241800000000012
 20
-18.1825599999999987
 10
-36.9794800000000023
 20
-17.9990799999999993
 10
-36.9549200000000013
 20
-17.8020199999999988
 10
-36.9516600000000039
 20
-17.6077399999999997
 10
-36.9674600000000027
 20
-17.4161599999999979
 10
-37.0001000000000033
 20
-17.2271799999999971
 10
-37.0473599999999976
 20
-17.0407399999999996
 10
-37.1069999999999993
 20
-16.8567600000000013
 10
-37.1768000000000001
 20
-16.6751599999999982
 10
-37.2545199999999994
 20
-16.4958600000000004
 10
-37.3379199999999969
 20
-16.3187599999999975
 10
-37.4247999999999976
 20
-16.1438199999999981
 10
-37.5129000000000019
 20
-15.9709199999999996
 10
-37.6000000000000014
 20
-15.7999999999999989
 10
-37.4063000000000017
 20
-15.7400599999999997
 10
-37.2565600000000003
 20
-15.6551399999999994
 10
-37.145380000000003
 20
-15.5479000000000003
 10
-37.0674199999999985
 20
-15.4209399999999981
 10
-37.0172999999999988
 20
-15.2768599999999992
 10
-36.9896200000000022
 20
-15.1183199999999989
 10
-36.9790199999999984
 20
-14.9479000000000006
 10
-36.9801399999999987
 20
-14.7682399999999987
 10
-36.9876000000000005
 20
-14.5819600000000005
 10
-36.9960200000000015
 20
-14.3916799999999991
 10
-37.0
 20
-14.1999999999999993
 10
-37.1488999999999976
 20
-14.2058400000000002
 10
-37.3007399999999976
 20
-14.21082
 10
-37.4552800000000019
 20
-14.2151599999999991
 10
-37.6121799999999951
 20
-14.2190599999999989
 10
-37.7711600000000018
 20
-14.2227599999999992
 10
-37.9319399999999973
 20
-14.2264399999999984
 10
-38.0941800000000015
 20
-14.23034
 10
-38.2576200000000028
 20
-14.2346599999999981
 10
-38.4219200000000001
 20
-14.2395999999999976
 10
-38.586820000000003
 20
-14.245379999999999
 10
-38.7520200000000017
 20
-14.2522199999999994
 10
-38.9172000000000011
 20
-14.2603399999999993
 10
-39.0820799999999977
 20
-14.269919999999999
 10
-39.2463599999999957
 20
-14.2812000000000001
 10
-39.4097200000000001
 20
-14.2943800000000003
 10
-39.5718999999999994
 20
-14.3096800000000002
 10
-39.7325599999999994
 20
-14.3272999999999993
 10
-39.8914400000000029
 20
-14.3474399999999989
 10
-40.0482200000000006
 20
-14.370359999999998
 10
-40.2025999999999968
 20
-14.3962199999999996
 10
-40.3542800000000028
 20
-14.4252599999999997
 10
-40.5029800000000009
 20
-14.4576799999999981
 10
-40.6483999999999952
 20
-14.4937000000000005
 10
-40.7902199999999979
 20
-14.5335199999999976
 10
-40.9281799999999976
 20
-14.577379999999998
 10
-41.0619399999999999
 20
-14.6254600000000003
 10
-41.1912200000000013
 20
-14.677979999999998
 10
-41.3157199999999989
 20
-14.7351599999999987
 10
-41.435139999999997
 20
-14.7972000000000001
 10
-41.549199999999999
 20
-14.8643400000000003
 10
-41.6575799999999958
 20
-14.9367599999999996
 10
-41.7599799999999988
 20
-15.0146800000000002
 10
-41.8561199999999971
 20
-15.0983000000000001
 10
-41.9457000000000022
 20
-15.1878600000000006
 10
-42.0283999999999978
 20
-15.2835599999999996
 10
-42.1039400000000015
 20
-15.3856199999999994
 10
-42.1720200000000034
 20
-15.4942399999999978
 10
-42.2323400000000007
 20
-15.6096199999999996
 10
-42.2845999999999975
 20
-15.7319799999999983
 10
-42.3285199999999975
 20
-15.861559999999999
 10
-42.3637799999999984
 20
-15.9985399999999984
 10
-42.3900799999999975
 20
-16.1431399999999989
 10
-42.407119999999999
 20
-16.2955600000000018
 10
-42.4146399999999986
 20
-16.456039999999998
 10
-42.4122799999999955
 20
-16.6247800000000012
 10
-42.399799999999999
 20
-16.8019800000000004
 10
-42.3768799999999999
 20
-16.9878599999999977
 10
-42.343199999999996
 20
-17.1826399999999992
 10
-42.2984999999999971
 20
-17.3865199999999973
 10
-42.242440000000002
 20
-17.5996999999999986
 10
-42.1753399999999985
 20
-17.812260000000002
 10
-42.0974999999999966
 20
-18.0186999999999991
 10
-42.0104400000000027
 20
-18.2201999999999984
 10
-41.9156600000000026
 20
-18.4179400000000015
 10
-41.8146600000000035
 20
-18.613039999999998
 10
-41.7089399999999983
 20
-18.8066800000000001
 10
-41.6000000000000014
 20
-19.0
  0
LWPOLYLINE
  5
5F
  8
0
 62
256
370
-1
  6
ByLayer
100
AcDbEntity
100
AcDbPolyline
 90
5
 70
0
 10
-9.0
 20
-14.1999999999999993
 10
-9.0
 20
-23.8000000000000007
 10
-6.1999999999999957
 20
-23.8000000000000007
 10
-6.1999999999999957
 20
-14.1999999999999993
 10
-9.0
 20
-14.1999999999999993
  0
LWPOLYLINE
  5
60
  8
0
 62
256
370
-1
  6
ByLayer
100
AcDbEntity
100
AcDbPolyline
 90
137
 70
0
 10
-44.3999999999999986
 20
-20.1999999999999993
 10
-44.3952999999999989
 20
-20.4141800000000018
 10
-44.3813600000000008
 20
-20.6192999999999991
 10
-44.3583599999999976
 20
-20.8155999999999999
 10
-44.3265799999999999
 20
-21.0032799999999966
 10
-44.2862000000000009
 20
-21.1825599999999987
 10
-44.2374599999999987
 20
-21.3536399999999986
 10
-44.1805799999999991
 20
-21.5167399999999986
 10
-44.1157800000000009
 20
-21.6720600000000019
 10
-44.0433000000000021
 20
-21.81982
 10
-43.9633600000000015
 20
-21.9602199999999996
 10
-43.8761599999999987
 20
-22.0934999999999988
 10
-43.781959999999998
 20
-22.2198400000000014
 10
-43.6809399999999997
 20
-22.339459999999999
 10
-43.573360000000001
 20
-22.4525800000000011
 10
-43.4594200000000015
 20
-22.5593800000000009
 10
-43.33934
 20
-22.6601199999999992
 10
-43.2133800000000008
 20
-22.7549799999999998
 10
-43.0817199999999971
 20
-22.8441599999999987
 10
-42.9446200000000005
 20
-22.9279000000000011
 10
-42.8022799999999961
 20
-23.0063800000000001
 10
-42.6549199999999971
 20
-23.07986
 10
-42.5027800000000013
 20
-23.1484999999999985
 10
-42.3460600000000014
 20
-23.2125200000000014
 10
-42.1850200000000015
 20
-23.2721599999999995
 10
-42.0198400000000021
 20
-23.3276000000000003
 10
-41.8507800000000003
 20
-23.3790599999999991
 10
-41.6780600000000021
 20
-23.4267600000000016
 10
-41.5018799999999999
 20
-23.4709000000000003
 10
-41.3224599999999995
 20
-23.5117000000000012
 10
-41.1400599999999983
 20
-23.5493600000000001
 10
-40.9548599999999965
 20
-23.5840999999999994
 10
-40.7671199999999985
 20
-23.6161199999999987
 10
-40.577060000000003
 20
-23.6456599999999995
 10
-40.3848799999999954
 20
-23.6728799999999993
 10
-40.1907999999999959
 20
-23.6980399999999989
 10
-39.9950800000000015
 20
-23.7213399999999979
 10
-39.7978999999999985
 20
-23.7429600000000001
 10
-39.5995199999999983
 20
-23.7631399999999999
 10
-39.4001599999999996
 20
-23.7820800000000006
 10
-39.2000000000000028
 20
-23.8000000000000007
 10
-39.33596
 20
-23.9133999999999993
 10
-39.4802200000000028
 20
-24.0216600000000007
 10
-39.6322600000000023
 20
-24.1249399999999987
 10
-39.7915599999999969
 20
-24.2234400000000001
 10
-39.9575800000000001
 20
-24.3173199999999987
 10
-40.1297599999999974
 20
-24.4067599999999985
 10
-40.3076000000000008
 20
-24.4919200000000004
 10
-40.4905600000000021
 20
-24.5729800000000012
 10
-40.6780800000000013
 20
-24.6501200000000011
 10
-40.8696399999999969
 20
-24.7235000000000014
 10
-41.0647200000000012
 20
-24.7932999999999986
 10
-41.2627799999999993
 20
-24.8597000000000001
 10
-41.4632599999999982
 20
-24.92286
 10
-41.6656600000000026
 20
-24.9829599999999985
 10
-41.8694199999999981
 20
-25.0401600000000002
 10
-42.0740399999999966
 20
-25.0946599999999975
 10
-42.2789399999999986
 20
-25.1466199999999986
 10
-42.4836200000000019
 20
-25.1962200000000003
 10
-42.6875199999999992
 20
-25.2436199999999999
 10
-42.890119999999996
 20
-25.2890000000000015
 10
-43.0908999999999978
 20
-25.3325199999999988
 10
-43.2892999999999972
 20
-25.3743799999999986
 10
-43.4847999999999999
 20
-25.4147199999999991
 10
-43.6768399999999986
 20
-25.4537399999999998
 10
-43.8649399999999972
 20
-25.4916200000000011
 10
-44.0485199999999963
 20
-25.5285000000000011
 10
-44.2270400000000024
 20
-25.5645799999999994
 10
-44.3999999999999986
 20
-25.6000000000000014
 10
-44.3999999999999986
 20
-27.8000000000000007
 10
-37.0
 20
-27.8000000000000007
 10
-37.0
 20
-26.3999999999999986
 10
-41.6000000000000014
 20
-26.3999999999999986
 10
-41.6000000000000014
 20
-26.1999999999999993
 10
-41.4824600000000032
 20
-26.182459999999999
 10
-41.3497399999999971
 20
-26.1620799999999996
 10
-41.2032200000000017
 20
-26.1387800000000006
 10
-41.0442800000000005
 20
-26.1124200000000002
 10
-40.8742599999999996
 20
-26.0829200000000014
 10
-40.694580000000002
 20
-26.0501599999999982
 10
-40.5065600000000003
 20
-26.0140400000000014
 10
-40.3116199999999978
 20
-25.9744600000000005
 10
-40.1111000000000004
 20
-25.931280000000001
 10
-39.9063799999999986
 20
-25.8844199999999987
 10
-39.6988199999999978
 20
-25.8337599999999981
 10
-39.4898000000000025
 20
-25.7791999999999994
 10
-39.280699999999996
 20
-25.7206399999999995
 10
-39.0728799999999978
 20
-25.6579599999999992
 10
-38.8677199999999985
 20
-25.5910599999999988
 10
-38.6666000000000025
 20
-25.5198
 10
-38.4708600000000018
 20
-25.4441199999999981
 10
-38.281880000000001
 20
-25.363900000000001
 10
-38.1010599999999968
 20
-25.2790199999999992
 10
-37.9297399999999953
 20
-25.1893600000000006
 10
-37.7693000000000012
 20
-25.0948399999999978
 10
-37.6211199999999977
 20
-24.995359999999998
 10
-37.4865799999999965
 20
-24.8907799999999995
 10
-37.3670199999999966
 20
-24.7809999999999988
 10
-37.2638199999999955
 20
-24.6659199999999998
 10
-37.1783599999999979
 20
-24.5454399999999993
 10
-37.1120200000000011
 20
-24.4194400000000016
 10
-37.0661599999999964
 20
-24.28782
 10
-37.0421600000000026
 20
-24.1504599999999989
 10
-37.0413599999999974
 20
-24.0072599999999987
 10
-37.0632999999999981
 20
-23.8755600000000001
 10
-37.1073999999999984
 20
-23.7490799999999993
 10
-37.1722800000000007
 20
-23.6277599999999985
 10
-37.2565600000000003
 20
-23.5114999999999981
 10
-37.3588400000000007
 20
-23.4002200000000009
 10
-37.4777199999999979
 20
-23.2938399999999994
 10
-37.6118400000000008
 20
-23.192260000000001
 10
-37.7597799999999992
 20
-23.0954200000000007
 10
-37.920180000000002
 20
-23.0031999999999996
 10
-38.0916199999999989
 20
-22.9155200000000008
 10
-38.2727199999999996
 20
-22.8323199999999993
 10
-38.4620999999999995
 20
-22.7534999999999989
 10
-38.6583600000000018
 20
-22.67896
 10
-38.8601000000000028
 20
-22.6086400000000012
 10
-39.0659599999999969
 20
-22.5424199999999999
 10
-39.2745199999999954
 20
-22.4802600000000012
 10
-39.4844000000000008
 20
-22.4220399999999991
 10
-39.6942200000000014
 20
-22.3676600000000008
 10
-39.9025600000000011
 20
-22.3170800000000007
 10
-40.1080600000000018
 20
-22.2701799999999999
 10
-40.3093399999999988
 20
-22.2269000000000005
 10
-40.504959999999997
 20
-22.1871200000000002
 10
-40.6935799999999972
 20
-22.150780000000001
 10
-40.8738000000000028
 20
-22.117799999999999
 10
-41.0441999999999965
 20
-22.0880599999999987
 10
-41.2034200000000013
 20
-22.0614999999999988
 10
-41.3500399999999999
 20
-22.0380199999999995
 10
-41.4827000000000012
 20
-22.0175599999999996
 10
-41.6000000000000014
 20
-22.0
 10
-41.6000000000000014
 20
-21.7999999999999972
 10
-37.0
 20
-21.7999999999999972
 10
-37.0
 20
-20.1999999999999993
 10
-44.3999999999999986
 20
-20.1999999999999993
  0
LWPOLYLINE
  5
61
  8
0
 62
256
370
-1
  6
ByLayer
100
AcDbEntity
100
AcDbPolyline
 90
1
 70
0
  0
LWPOLYLINE
  5
62
  8
0
 62
256
370
-1
  6
ByLayer
100
AcDbEntity
100
AcDbPolyline
 90
5
 70
0
 10
-50.0
 20
35.4000000000000057
 10
-50.0
 20
-30.0
 10
30.8000000000000114
 20
-30.0
 10
30.8000000000000114
 20
35.4000000000000057
 10
-50.0
 20
35.4000000000000057
  0
LWPOLYLINE
  5
63
  8
0
 62
256
370
-1
  6
ByLayer
100
AcDbEntity
100
AcDbPolyline
 90
90
 70
0
 10
-31.5999999999999979
 20
32.2000000000000028
 10
-31.5999999999999979
 20
-10.3999999999999986
 10
-31.5999999999999979
 20
-22.1999999999999993
 10
-31.6021600000000014
 20
-22.364139999999999
 10
-31.6082199999999993
 20
-22.53782
 10
-31.6176199999999987
 20
-22.7201799999999992
 10
-31.6297400000000017
 20
-22.9103399999999979
 10
-31.6440400000000004
 20
-23.1073999999999984
 10
-31.6598800000000011
 20
-23.3104799999999983
 10
-31.6767199999999995
 20
-23.5186799999999998
 10
-31.6939400000000013
 20
-23.7311599999999991
 10
-31.7109799999999993
 20
-23.9469999999999992
 10
-31.7272399999999983
 20
-24.1653200000000012
 10
-31.7421399999999991
 20
-24.3852399999999996
 10
-31.7550999999999988
 20
-24.6058599999999998
 10
-31.7654999999999994
 20
-24.8263199999999991
 10
-31.7728000000000002
 20
-25.0457199999999993
 10
-31.7763799999999996
 20
-25.2631799999999984
 10
-31.7756799999999977
 20
-25.4778200000000012
 10
-31.7700799999999965
 20
-25.6887399999999992
 10
-31.7590199999999996
 20
-25.8950800000000001
 10
-31.7419199999999968
 20
-26.0959399999999988
 10
-31.7181800000000003
 20
-26.290420000000001
 10
-31.6872000000000007
 20
-26.4776600000000002
 10
-31.648419999999998
 20
-26.6567599999999985
 10
-31.6012400000000007
 20
-26.8268599999999999
 10
-31.5450799999999987
 20
-26.9870400000000004
 10
-31.479339999999997
 20
-27.1364200000000011
 10
-31.400739999999999
 20
-27.2588200000000001
 10
-31.2967800000000018
 20
-27.3624599999999987
 10
-31.1701200000000007
 20
-27.4487400000000008
 10
-31.0233600000000003
 20
-27.5190599999999996
 10
-30.8591599999999993
 20
-27.5747800000000005
 10
-30.6801199999999987
 20
-27.6173199999999994
 10
-30.488900000000001
 20
-27.6480199999999989
 10
-30.2881
 20
-27.6683200000000014
 10
-30.0803799999999981
 20
-27.6795800000000014
 10
-29.8683399999999999
 20
-27.6831800000000001
 10
-29.6546199999999978
 20
-27.6805200000000013
 10
-29.4418399999999991
 20
-27.6729599999999998
 10
-29.2326599999999992
 20
-27.6619400000000013
 10
-29.029679999999999
 20
-27.6487799999999986
 10
-28.835560000000001
 20
-27.634920000000001
 10
-28.6528999999999989
 20
-27.6217199999999998
 10
-28.4843199999999968
 20
-27.6105799999999988
 10
-28.3324800000000003
 20
-27.602879999999999
 10
-28.1999999999999993
 20
-27.6000000000000014
 10
-18.3999999999999986
 20
-27.6000000000000014
 10
16.6000000000000085
 20
-27.6000000000000014
 10
25.2000000000000028
 20
-27.6000000000000014
 10
25.3477600000000081
 20
-27.6034399999999991
 10
25.5164200000000108
 20
-27.6125000000000007
 10
25.7026200000000102
 20
-27.6253199999999985
 10
25.9030000000000058
 20
-27.6399800000000013
 10
26.1142200000000031
 20
-27.6546599999999998
 10
26.3329200000000014
 20
-27.6674599999999984
 10
26.5557600000000065
 20
-27.6765000000000008
 10
26.7793800000000033
 20
-27.6798999999999999
 10
27.0004400000000118
 20
-27.6757999999999988
 10
27.2155600000000106
 20
-27.6623200000000011
 10
27.4214200000000119
 20
-27.6375799999999998
 10
27.6146600000000149
 20
-27.5996999999999986
 10
27.791940000000011
 20
-27.5468200000000003
 10
27.9499000000000137
 20
-27.4770399999999988
 10
28.0851800000000082
 20
-27.3885199999999998
 10
28.1944400000000002
 20
-27.2793399999999977
 10
28.2774600000000049
 20
-27.1556999999999995
 10
28.3470800000000054
 20
-27.0133799999999979
 10
28.4042800000000142
 20
-26.8541999999999987
 10
28.4500000000000028
 20
-26.6799999999999997
 10
28.4851800000000139
 20
-26.4926199999999987
 10
28.5108200000000096
 20
-26.29392
 10
28.527860000000004
 20
-26.08568
 10
28.5372399999999971
 20
-25.8697799999999987
 10
28.5399600000000078
 20
-25.6480400000000017
 10
28.5369400000000155
 20
-25.4223199999999991
 10
28.5291399999999982
 20
-25.1944000000000017
 10
28.5175399999999968
 20
-24.9661800000000014
 10
28.5031000000000034
 20
-24.7394399999999983
 10
28.4867600000000039
 20
-24.5160400000000003
 10
28.4695000000000107
 20
-24.2978400000000008
 10
28.4522600000000097
 20
-24.0866199999999999
 10
28.436000000000007
 20
-23.8842599999999976
 10
28.4216800000000092
 20
-23.6925999999999988
 10
28.4102600000000081
 20
-23.5134399999999992
 10
28.4027200000000022
 20
-23.3486200000000004
 10
28.4000000000000057
 20
-23.1999999999999993
 10
28.4000000000000057
 20
-11.8000000000000007
 10
28.4000000000000057
 20
32.2000000000000028
 10
-31.5999999999999979
 20
32.2000000000000028
  0
LWPOLYLINE
  5
64
  8
0
 62
256
370
-1
  6
ByLayer
100
AcDbEntity
100
AcDbPolyline
 90
20
 70
0
 10
-40.2000000000000028
 20
21.4000000000000057
 10
-40.2000000000000028
 20
23.4000000000000057
 10
-40.3833800000000025
 20
23.3220000000000027
 10
-40.5464399999999969
 20
23.2314000000000007
 10
-40.6889800000000008
 20
23.1297800000000109
 10
-40.8107399999999956
 20
23.0187999999999988
 10
-40.9114999999999966
 20
22.9001200000000082
 10
-40.9909999999999997
 20
22.775340000000007
 10
-41.0489999999999995
 20
22.6461400000000026
 10
-41.0852799999999974
 20
22.5141200000000055
 10
-41.0995800000000031
 20
22.3809200000000033
 10
-41.0916599999999974
 20
22.2481999999999971
 10
-41.0613000000000028
 20
22.1176000000000101
 10
-41.0082599999999999
 20
21.9907400000000095
 10
-40.9322799999999987
 20
21.869259999999997
 10
-40.833120000000001
 20
21.7548199999999952
 10
-40.710560000000001
 20
21.6490200000000002
 10
-40.5643400000000014
 20
21.553520000000006
 10
-40.3942399999999964
 20
21.4699799999999996
 10
-40.2000000000000028
 20
21.4000000000000057
  0
LWPOLYLINE
  5
65
  8
0
 62
256
370
-1
  6
ByLayer
100
AcDbEntity
100
AcDbPolyline
 90
20
 70
0
 10
-40.2000000000000028
 20
6.2000000000000028
 10
-40.2000000000000028
 20
8.2000000000000028
 10
-40.3833800000000025
 20
8.122000000000007
 10
-40.5464399999999969
 20
8.031400000000005
 10
-40.6889800000000008
 20
7.9297800000000009
 10
-40.8107399999999956
 20
7.8188200000000023
 10
-40.9114999999999966
 20
7.7001199999999983
 10
-40.9909999999999997
 20
7.5753600000000034
 10
-41.0489999999999995
 20
7.4461400000000069
 10
-41.0852799999999974
 20
7.3141200000000026
 10
-41.0995800000000031
 20
7.1809399999999997
 10
-41.0916599999999974
 20
7.0482200000000006
 10
-41.0613000000000028
 20
6.9176000000000002
 10
-41.0082599999999999
 20
6.7907399999999996
 10
-40.9322799999999987
 20
6.6692800000000005
 10
-40.833120000000001
 20
6.5548199999999994
 10
-40.710560000000001
 20
6.4490200000000044
 10
-40.5643400000000014
 20
6.3535400000000024
 10
-40.3942399999999964
 20
6.2699799999999968
 10
-40.2000000000000028
 20
6.2000000000000028
  0
LWPOLYLINE
  5
66
  8
0
 62
256
370
-1
  6
ByLayer
100
AcDbEntity
100
AcDbPolyline
 90
39
 70
0
 10
10.4000000000000057
 20
-0.5999999999999979
 10
14.2000000000000028
 20
-0.3999999999999986
 10
14.1428400000000067
 20
-0.2034599999999998
 10
14.0776600000000087
 20
-0.0194399999999959
 10
14.0049600000000112
 20
0.1521599999999985
 10
13.9251800000000046
 20
0.3114600000000003
 10
13.8388000000000062
 20
0.4585600000000021
 10
13.7462800000000058
 20
0.5935799999999993
 10
13.6481199999999987
 20
0.7166400000000017
 10
13.5447400000000044
 20
0.8278399999999984
 10
13.4366599999999963
 20
0.9272800000000032
 10
13.3243200000000002
 20
1.0151000000000039
 10
13.2081800000000058
 20
1.0914000000000001
 10
13.0887400000000014
 20
1.1563000000000017
 10
12.9664599999999979
 20
1.2099000000000011
 10
12.8418199999999985
 20
1.2523199999999974
 10
12.7152600000000007
 20
1.2836599999999976
 10
12.5872600000000077
 20
1.3040400000000005
 10
12.4583000000000013
 20
1.3135800000000017
 10
12.3288400000000067
 20
1.3124000000000038
 10
12.1993600000000058
 20
1.3005800000000036
 10
12.0703400000000016
 20
1.2782600000000031
 10
11.9422199999999989
 20
1.2455600000000011
 10
11.815480000000008
 20
1.2025600000000018
 10
11.6905999999999963
 20
1.1493800000000043
 10
11.5680399999999963
 20
1.0861600000000031
 10
11.448280000000004
 20
1.0129799999999989
 10
11.3317800000000091
 20
0.9299800000000005
 10
11.2190000000000083
 20
0.8372400000000049
 10
11.1104400000000112
 20
0.7348999999999997
 10
11.0065600000000074
 20
0.6230800000000016
 10
10.9078000000000017
 20
0.5018600000000006
 10
10.8146600000000035
 20
0.3713599999999992
 10
10.7275999999999954
 20
0.2317000000000036
 10
10.6471000000000018
 20
0.0829999999999984
 10
10.5736200000000053
 20
-0.0746199999999959
 10
10.5076200000000028
 20
-0.2410799999999966
 10
10.4496000000000038
 20
-0.4162399999999984
 10
10.4000000000000057
 20
-0.5999999999999979
  0
LWPOLYLINE
  5
67
  8
0
 62
256
370
-1
  6
ByLayer
100
AcDbEntity
100
AcDbPolyline
 90
65
 70
0
 10
-6.5999999999999943
 20
-1.5999999999999979
 10
-6.8023999999999987
 20
-1.6172599999999981
 10
-7.0038399999999967
 20
-1.6372999999999962
 10
-7.2043999999999926
 20
-1.6609599999999993
 10
-7.4042199999999951
 20
-1.6890999999999998
 10
-7.6033999999999935
 20
-1.7225599999999979
 10
-7.8020599999999973
 20
-1.7621800000000007
 10
-8.000319999999995
 20
-1.8088000000000015
 10
-8.2065999999999946
 20
-1.8644400000000019
 10
-8.4105799999999959
 20
-1.928219999999996
 10
-8.6101999999999919
 20
-2.0034799999999997
 10
-8.8034399999999948
 20
-2.0935400000000008
 10
-8.9882799999999961
 20
-2.2016999999999989
 10
-9.1302200000000013
 20
-2.3010799999999989
 10
-9.2546199999999956
 20
-2.4005599999999987
 10
-9.3621199999999973
 20
-2.499880000000001
 10
-9.4533199999999979
 20
-2.5988199999999999
 10
-9.5288400000000024
 20
-2.6970599999999969
 10
-9.5892599999999959
 20
-2.7943800000000003
 10
-9.6351999999999975
 20
-2.8904800000000002
 10
-9.6672799999999981
 20
-2.9851199999999984
 10
-9.6861199999999954
 20
-3.0780199999999951
 10
-9.6922799999999967
 20
-3.1689399999999956
 10
-9.6864199999999983
 20
-3.2575800000000008
 10
-9.6691199999999924
 20
-3.3436799999999991
 10
-9.6409999999999982
 20
-3.426999999999996
 10
-9.6026599999999931
 20
-3.5072600000000023
 10
-9.5547199999999961
 20
-3.5841999999999956
 10
-9.4977799999999988
 20
-3.6575399999999973
 10
-9.4324599999999919
 20
-3.7270399999999988
 10
-9.359339999999996
 20
-3.7924199999999963
 10
-9.2790599999999941
 20
-3.8534199999999998
 10
-9.1921999999999997
 20
-3.9097599999999986
 10
-9.0994000000000028
 20
-3.9611799999999988
 10
-9.0012399999999957
 20
-4.0074400000000026
 10
-8.8983599999999967
 20
-4.0482599999999991
 10
-8.7913399999999982
 20
-4.083359999999999
 10
-8.6807999999999979
 20
-4.1124999999999972
 10
-8.5673400000000015
 20
-4.1353999999999971
 10
-8.4515799999999999
 20
-4.1517800000000022
 10
-8.3341199999999986
 20
-4.1614199999999961
 10
-8.2155799999999957
 20
-4.1640199999999972
 10
-8.0965599999999966
 20
-4.159320000000001
 10
-7.9776599999999931
 20
-4.147039999999997
 10
-7.859499999999997
 20
-4.1269600000000004
 10
-7.7426999999999992
 20
-4.0987799999999979
 10
-7.627839999999992
 20
-4.0622400000000027
 10
-7.5155399999999943
 20
-4.0170799999999964
 10
-7.4064199999999971
 20
-3.9630399999999995
 10
-7.3010799999999989
 20
-3.8998600000000003
 10
-7.2001399999999975
 20
-3.8272399999999998
 10
-7.1041799999999995
 20
-3.7449599999999954
 10
-7.0138399999999947
 20
-3.6527199999999986
 10
-6.9297199999999961
 20
-3.5502799999999972
 10
-6.8523999999999958
 20
-3.4373599999999982
 10
-6.7825199999999981
 20
-3.3136999999999972
 10
-6.7206799999999944
 20
-3.1790200000000013
 10
-6.6595199999999934
 20
-2.9954199999999993
 10
-6.6195999999999984
 20
-2.8025399999999969
 10
-6.5968799999999987
 20
-2.6030799999999985
 10
-6.5873399999999975
 20
-2.39968
 10
-6.5869399999999985
 20
-2.1950199999999995
 10
-6.5915999999999997
 20
-1.9917399999999965
 10
-6.5972999999999971
 20
-1.7925199999999997
 10
-6.5999999999999943
 20
-1.5999999999999979
  0
LWPOLYLINE
  5
68
  8
0
 62
256
370
-1
  6
ByLayer
100
AcDbEntity
100
AcDbPolyline
 90
28
 70
0
 10
-39.6000000000000014
 20
-16.0
 10
-39.5455400000000026
 20
-16.2156200000000013
 10
-39.4878999999999962
 20
-16.4169800000000023
 10
-39.4246600000000029
 20
-16.6038999999999959
 10
-39.3533600000000021
 20
-16.7761199999999988
 10
-39.2715800000000002
 20
-16.9334599999999966
 10
-39.1768599999999978
 20
-17.0756999999999977
 10
-39.0667600000000022
 20
-17.2026199999999996
 10
-38.938839999999999
 20
-17.3140199999999993
 10
-38.7906600000000026
 20
-17.4096599999999988
 10
-38.6197400000000002
 20
-17.4893599999999978
 10
-38.4236799999999974
 20
-17.5528800000000018
 10
-38.2000000000000028
 20
-17.6000000000000014
 10
-38.2048800000000028
 20
-17.3941999999999979
 10
-38.2155800000000028
 20
-17.1957999999999984
 10
-38.2336799999999997
 20
-17.0063600000000008
 10
-38.2607599999999977
 20
-16.8274400000000028
 10
-38.2983800000000016
 20
-16.6605999999999987
 10
-38.3481200000000015
 20
-16.5074000000000005
 10
-38.4115600000000015
 20
-16.3694199999999981
 10
-38.4902200000000008
 20
-16.2481799999999978
 10
-38.5857400000000013
 20
-16.1452799999999996
 10
-38.6996400000000023
 20
-16.062260000000002
 10
-38.8335000000000008
 20
-16.0006799999999991
 10
-38.988900000000001
 20
-15.9620999999999995
 10
-39.1674000000000007
 20
-15.9480999999999984
 10
-39.3705799999999968
 20
-15.9602199999999996
 10
-39.6000000000000014
 20
-16.0
  0
LWPOLYLINE
  5
69
  8
0
 62
256
370
-1
  6
ByLayer
100
AcDbEntity
100
AcDbPolyline
 90
42
 70
0
 10
5.4000000000000057
 20
-18.0
 10
9.0
 20
-18.0
 10
8.9816000000000074
 20
-17.8092199999999998
 10
8.953160000000004
 20
-17.6289799999999985
 10
8.9152000000000058
 20
-17.4592400000000012
 10
8.8681799999999953
 20
-17.2999599999999987
 10
8.8126400000000018
 20
-17.1510400000000018
 10
8.7490400000000079
 20
-17.0124599999999973
 10
8.6779400000000066
 20
-16.8841199999999958
 10
8.599800000000009
 20
-16.765979999999999
 10
8.5151400000000024
 20
-16.6579599999999992
 10
8.4244600000000034
 20
-16.5600400000000008
 10
8.3282600000000002
 20
-16.4720999999999975
 10
8.2270400000000024
 20
-16.3941200000000009
 10
8.1213200000000043
 20
-16.326039999999999
 10
8.0115800000000092
 20
-16.2677799999999984
 10
7.8983399999999975
 20
-16.2192599999999985
 10
7.7821000000000069
 20
-16.1804599999999965
 10
7.6633600000000044
 20
-16.1513199999999983
 10
7.5426399999999987
 20
-16.1317400000000006
 10
7.4204000000000008
 20
-16.1216799999999978
 10
7.2972000000000037
 20
-16.1210599999999999
 10
7.1734799999999979
 20
-16.1298600000000008
 10
7.0498000000000047
 20
-16.1479800000000004
 10
6.926639999999999
 20
-16.1753800000000005
 10
6.8044999999999973
 20
-16.2119799999999969
 10
6.683880000000002
 20
-16.2577199999999991
 10
6.5653000000000077
 20
-16.3125599999999977
 10
6.4492600000000095
 20
-16.3764399999999988
 10
6.3362400000000036
 20
-16.4492600000000024
 10
6.2267600000000058
 20
-16.5309999999999988
 10
6.1213200000000043
 20
-16.6215599999999988
 10
6.0204400000000007
 20
-16.7209199999999996
 10
5.9245999999999981
 20
-16.8290000000000006
 10
5.8343200000000053
 20
-16.9457200000000014
 10
5.7500800000000041
 20
-17.0710399999999964
 10
5.6724000000000103
 20
-17.2049000000000021
 10
5.601779999999998
 20
-17.3472200000000001
 10
5.5387399999999971
 20
-17.4979599999999991
 10
5.4837400000000045
 20
-17.6570400000000021
 10
5.437339999999999
 20
-17.8244199999999999
 10
5.4000000000000057
 20
-18.0
  0
LWPOLYLINE
  5
6A
  8
0
 62
256
370
-1
  6
ByLayer
100
AcDbEntity
100
AcDbPolyline
 90
78
 70
0
 10
-14.0
 20
-19.0
 10
-14.1983400000000017
 20
-19.0583799999999997
 10
-14.3985999999999947
 20
-19.1101600000000005
 10
-14.6000599999999991
 20
-19.1578799999999987
 10
-14.8019799999999933
 20
-19.2039599999999986
 10
-15.0036600000000035
 20
-19.2509200000000007
 10
-15.204340000000002
 20
-19.3011799999999987
 10
-15.4033200000000008
 20
-19.3572799999999994
 10
-15.5998599999999996
 20
-19.4216199999999972
 10
-15.7612399999999937
 20
-19.4821400000000011
 10
-15.9099000000000004
 20
-19.5442999999999998
 10
-16.0461999999999989
 20
-19.6079599999999985
 10
-16.1704599999999985
 20
-19.6729599999999998
 10
-16.2829799999999949
 20
-19.7391199999999998
 10
-16.3840999999999966
 20
-19.8063199999999995
 10
-16.4741599999999977
 20
-19.8743599999999994
 10
-16.5534400000000019
 20
-19.9431000000000012
 10
-16.6223000000000027
 20
-20.0123800000000003
 10
-16.6810600000000022
 20
-20.0820399999999992
 10
-16.7300400000000025
 20
-20.1519399999999997
 10
-16.7695399999999992
 20
-20.2218799999999987
 10
-16.7999000000000009
 20
-20.2917399999999972
 10
-16.8214600000000019
 20
-20.3613199999999992
 10
-16.8345199999999977
 20
-20.4305200000000013
 10
-16.8394199999999969
 20
-20.4991199999999978
 10
-16.8364800000000017
 20
-20.5670000000000002
 10
-16.8260000000000005
 20
-20.6339800000000011
 10
-16.8083399999999941
 20
-20.6999199999999988
 10
-16.7837800000000001
 20
-20.7646599999999992
 10
-16.7526999999999973
 20
-20.8280199999999986
 10
-16.7153799999999961
 20
-20.8898399999999995
 10
-16.6721399999999988
 20
-20.9499999999999993
 10
-16.6233399999999989
 20
-21.0082999999999984
 10
-16.5692799999999991
 20
-21.0645999999999987
 10
-16.5102800000000016
 20
-21.118739999999999
 10
-16.4466600000000014
 20
-21.1705600000000018
 10
-16.3787599999999998
 20
-21.2198799999999999
 10
-16.3068999999999988
 20
-21.2665799999999976
 10
-16.2314000000000007
 20
-21.3104799999999983
 10
-16.1525800000000004
 20
-21.3514199999999974
 10
-16.0707599999999999
 20
-21.3892400000000009
 10
-15.9862800000000007
 20
-21.4238
 10
-15.8994399999999985
 20
-21.4549000000000021
 10
-15.8105799999999945
 20
-21.4824199999999976
 10
-15.7200199999999981
 20
-21.5061999999999998
 10
-15.6280999999999963
 20
-21.5260600000000011
 10
-15.5350999999999999
 20
-21.5418400000000005
 10
-15.4413799999999952
 20
-21.5533999999999999
 10
-15.3472599999999986
 20
-21.5605800000000016
 10
-15.2530399999999986
 20
-21.5632000000000019
 10
-15.1590599999999966
 20
-21.561119999999999
 10
-15.0656600000000012
 20
-21.5541599999999995
 10
-14.9731400000000008
 20
-21.5422000000000011
 10
-14.8818199999999976
 20
-21.5250399999999971
 10
-14.792039999999993
 20
-21.5025399999999998
 10
-14.7040999999999968
 20
-21.4745399999999975
 10
-14.6183600000000027
 20
-21.4408999999999992
 10
-14.5351199999999992
 20
-21.4014200000000017
 10
-14.4547000000000025
 20
-21.3559599999999996
 10
-14.3774200000000008
 20
-21.3043800000000019
 10
-14.3036200000000022
 20
-21.2464999999999975
 10
-14.2336200000000019
 20
-21.1821599999999997
 10
-14.1677399999999949
 20
-21.1111999999999966
 10
-14.1063199999999966
 20
-21.0334799999999973
 10
-14.0496399999999966
 20
-20.9488199999999978
 10
-13.9980599999999953
 20
-20.857059999999997
 10
-13.9518799999999956
 20
-20.7580799999999996
 10
-13.9114599999999982
 20
-20.6516599999999997
 10
-13.8770799999999994
 20
-20.537700000000001
 10
-13.8491
 20
-20.4159999999999968
 10
-13.8278000000000034
 20
-20.2864000000000004
 10
-13.8135600000000025
 20
-20.1487799999999986
 10
-13.8066399999999945
 20
-20.0029399999999988
 10
-13.8099599999999967
 20
-19.7850399999999986
 10
-13.8300400000000039
 20
-19.5835599999999985
 10
-13.8677799999999962
 20
-19.390740000000001
 10
-13.9241400000000013
 20
-19.1987999999999985
 10
-14.0
 20
-19.0
  0
ENDSEC
  0
SECTION
  2
OBJECTS
  0
DICTIONARY
  5
C
100
AcDbDictionary
280
0
281
1
  3
ACAD_GROUP
350
D
  3
ACAD_LAYOUT
350
1A
  3
ACAD_MLINESTYLE
350
17
  3
ACAD_PLOTSETTINGS
350
19
  3
ACAD_PLOTSTYLENAME
350
E
  3
AcDbVariableDictionary
350
6B
  0
DICTIONARY
  5
D
100
AcDbDictionary
280
0
281
1
  0
ACDBDICTIONARYWDFLT
  5
E
100
AcDbDictionary
281
1
  3
Normal
350
F
100
AcDbDictionaryWithDefault
340
F
  0
ACDBPLACEHOLDER
  5
F
  0
DICTIONARY
  5
17
100
AcDbDictionary
280
0
281
1
  3
Standard
350
18
  0
MLINESTYLE
  5
18
100
AcDbMlineStyle
  2
STANDARD
 70
0
  3

 62
256
 51
90.0
 52
90.0
 71
2
 49
0.5
 62
256
  6
BYLAYER
 49
-0.5
 62
256
  6
BYLAYER
  0
DICTIONARY
  5
19
100
AcDbDictionary
280
0
281
1
  0
DICTIONARY
  5
1A
100
AcDbDictionary
281
1
  3
Layout1
350
1E
  3
Layout2
350
26
  3
Model
350
22
  0
LAYOUT
  5
1E
100
AcDbPlotSettings
  1

  2
C:\Program Files\AutoCAD 2002\plotters\DWF ePlot (optimized for plotting).pc3
  4

  6

 40
0.0
 41
0.0
 42
0.0
 43
0.0
 44
0.0
 45
0.0
 46
0.0
 47
0.0
 48
0.0
 49
0.0
140
0.0
141
0.0
142
1.0
143
1.0
 70
688
 72
0
 73
0
 74
5
  7

 75
16
147
1.0
148
0.0
149
0.0
100
AcDbLayout
  1
Layout1
 70
1
 71
1
 10
0.0
 20
0.0
 11
420.0
 21
297.0
 12
0.0
 22
0.0
 32
0.0
 14
100000000000000000000.0
 24
100000000000000000000.0
 34
100000000000000000000.0
 15
-100000000000000000000.0
 25
-100000000000000000000.0
 35
-100000000000000000000.0
146
0.0
 13
0.0
 23
0.0
 33
0.0
 16
1.0
 26
0.0
 36
0.0
 17
0.0
 27
1.0
 37
0.0
 76
0
330
1B
  0
LAYOUT
  5
22
100
AcDbPlotSettings
  1

  2
C:\Program Files\AutoCAD 2002\plotters\DWF ePlot (optimized for plotting).pc3
  4

  6

 40
0.0
 41
0.0
 42
0.0
 43
0.0
 44
0.0
 45
0.0
 46
0.0
 47
0.0
 48
0.0
 49
0.0
140
0.0
141
0.0
142
1.0
143
1.0
 70
1712
 72
0
 73
0
 74
0
  7

 75
0
147
1.0
148
0.0
149
0.0
100
AcDbLayout
  1
Model
 70
1
 71
0
 10
0.0
 20
0.0
 11
12.0
 21
9.0
 12
0.0
 22
0.0
 32
0.0
 14
0.0
 24
0.0
 34
0.0
 15
0.0
 25
0.0
 35
0.0
146
0.0
 13
0.0
 23
0.0
 33
0.0
 16
1.0
 26
0.0
 36
0.0
 17
0.0
 27
1.0
 37
0.0
 76
0
330
1F
  0
LAYOUT
  5
26
100
AcDbPlotSettings
  1

  2
C:\Program Files\AutoCAD 2002\plotters\DWF ePlot (optimized for plotting).pc3
  4

  6

 40
0.0
 41
0.0
 42
0.0
 43
0.0
 44
0.0
 45
0.0
 46
0.0
 47
0.0
 48
0.0
 49
0.0
140
0.0
141
0.0
142
1.0
143
1.0
 70
688
 72
0
 73
0
 74
5
  7

 75
16
147
1.0
148
0.0
149
0.0
100
AcDbLayout
  1
Layout2
 70
1
 71
2
 10
0.0
 20
0.0
 11
12.0
 21
9.0
 12
0.0
 22
0.0
 32
0.0
 14
0.0
 24
0.0
 34
0.0
 15
0.0
 25
0.0
 35
0.0
146
0.0
 13
0.0
 23
0.0
 33
0.0
 16
1.0
 26
0.0
 36
0.0
 17
0.0
 27
1.0
 37
0.0
 76
0
330
23
  0
DICTIONARY
  5
6B
100
AcDbDictionary
281
1
  3
DIMASSOC
350
6D
  3
HIDETEXT
350
6C
  0
DICTIONARYVAR
  5
6C
100
DictionaryVariables
280
0
  1
2
  0
DICTIONARYVAR
  5
6D
100
DictionaryVariables
280
0
  1
1
  0
ENDSEC
  0
EOF
